<svg width="300" height="300" viewBox="0 0 300 300" fill="none" xmlns="http://www.w3.org/2000/svg">
<circle cx="150" cy="150" r="150" fill="#BDE0FE" fill-opacity="0.996078"/>
<path d="M188.175 185.387L190.968 183.622C192.155 182.872 192.86 181.419 192.783 179.881L192.268 169.521C192.268 169.521 182.034 177.551 182.631 177.454" fill="white"/>
<path d="M188.175 186.548C187.815 186.548 187.467 186.333 187.28 185.952C187.005 185.392 187.182 184.685 187.676 184.373L190.469 182.608C191.307 182.078 191.814 181.034 191.761 179.947L191.246 169.587C191.214 168.947 191.646 168.399 192.21 168.363C192.768 168.327 193.258 168.816 193.29 169.457L193.805 179.816C193.903 181.785 192.984 183.677 191.465 184.636L188.672 186.401C188.515 186.501 188.344 186.548 188.175 186.548Z" fill="#371A45"/>
<path d="M128.22 142.145L127.437 129.243C127.307 127.101 128.593 125.181 130.447 124.75C140.992 122.297 174.503 120.067 185.91 121.29C187.816 121.494 189.33 123.194 189.524 125.355C189.784 128.237 190.132 132.58 190.306 136.849C190.604 144.177 192.268 159.268 192.268 159.268L193.601 166.98C194.098 169.852 192.612 172.69 190.15 173.569L187.662 174.456L131.115 147.272" fill="white"/>
<path d="M137.555 192.643H133.817C131.353 192.643 129.355 190.377 129.355 187.582V180.472L134.389 174.456L136.712 181.235" fill="white"/>
<path d="M137.555 193.803H133.818C130.793 193.803 128.332 191.012 128.332 187.581V180.472C128.332 179.831 128.79 179.311 129.356 179.311C129.921 179.311 130.379 179.83 130.379 180.472V187.581C130.379 189.732 131.921 191.482 133.818 191.482H137.555C138.121 191.482 138.579 192.002 138.579 192.643C138.579 193.284 138.121 193.804 137.555 193.804V193.803Z" fill="#371A45"/>
<path d="M187.662 175.615C187.525 175.615 187.39 175.584 187.263 175.523L130.715 148.34C130.194 148.089 129.951 147.408 130.172 146.818C130.393 146.228 130.994 145.952 131.514 146.202L187.714 173.219L189.842 172.459C191.81 171.757 192.994 169.497 192.597 167.201L191.263 159.49C191.259 159.463 191.255 159.437 191.252 159.41C191.235 159.259 189.58 144.189 189.284 136.9C189.111 132.662 188.766 128.346 188.506 125.471C188.362 123.868 187.229 122.595 185.814 122.443C174.967 121.28 141.459 123.371 130.653 125.885C129.307 126.198 128.363 127.606 128.458 129.161L129.241 142.063C129.28 142.703 128.855 143.257 128.291 143.301C127.726 143.346 127.238 142.863 127.199 142.223L126.416 129.32C126.251 126.611 127.896 124.156 130.241 123.61C141.425 121.009 174.78 118.928 186.006 120.132C188.391 120.387 190.299 122.533 190.542 125.234C190.805 128.138 191.153 132.501 191.328 136.793C191.613 143.808 193.184 158.215 193.278 159.082L194.605 166.753C195.203 170.211 193.42 173.615 190.457 174.673L187.969 175.561C187.869 175.597 187.765 175.615 187.662 175.615V175.615Z" fill="#371A45"/>
<path d="M217.728 130.176C217.728 130.176 221.182 135.713 216.96 141.373C212.739 147.032 210.18 146.306 210.18 146.306C209.008 160.797 204.507 169.239 191.457 162.129C191.457 162.126 191.455 162.126 191.452 162.123C191.124 161.946 190.792 161.758 190.454 161.56C190.042 161.319 189.625 161.064 189.198 160.794C189.198 160.794 190.306 177.626 189.282 187.299C188.258 196.972 194.742 231.798 194.742 231.798C194.742 231.798 195.766 236.83 194.315 238.763C193.862 239.367 193.302 239.895 192.746 240.336C191.48 241.34 189.965 241.86 188.422 241.86H171.077C169.923 241.86 168.917 240.949 168.682 239.666C168.293 237.553 168.104 234.32 169.749 231.845C170.033 231.415 170.373 231.011 170.775 230.637C170.775 230.637 170.783 230.399 170.778 229.972C170.765 227.848 170.507 221.062 167.876 216.225C165.164 211.236 162.451 200.89 161.743 198.081L161.733 198.043V198.04C161.623 197.605 161.564 197.361 161.564 197.361C161.556 197.881 161.548 198.403 161.543 198.931C161.397 210.165 161.625 223.144 162.05 237.051C162.129 239.678 160.276 241.86 157.956 241.86H135.247C133.981 241.86 132.898 240.85 132.635 239.448C132.182 237.043 132.054 233.339 134.59 230.742C135.657 229.645 137.2 228.746 139.387 228.22C139.387 228.22 135.976 208.34 134.697 192.669C133.418 176.997 132.346 166.758 132.346 166.758L118.961 158.336C118.961 158.336 124.206 132.594 138.663 126.935C153.12 121.275 179.603 124.178 179.603 124.178C179.603 124.178 186.903 125.968 195.129 137.092L200.456 125.58C202.306 120.75 204.58 119.413 206.116 121.691C206.604 122.416 206.855 123.313 206.891 124.224L207.065 128.627L213.377 124.372C214.656 123.661 215.892 123.284 217.054 123.484C217.176 123.504 217.3 123.536 217.414 123.574C218.868 124.047 219.712 125.78 219.349 127.501C219.134 128.531 218.602 129.428 217.727 130.176L217.728 130.176Z" fill="white"/>
<g opacity="0.25">
<path d="M143.996 131.87C162.166 140.741 177.114 141.663 185.916 127.421L182.608 125.296C170.347 133.981 157.547 136.933 143.996 131.87Z" fill="#371A45"/>
</g>
<path d="M156.454 177.303C153.393 177.303 150.302 177.129 147.19 176.779C145.331 176.571 143.807 174.971 143.486 172.887C143.301 171.702 143.131 170.486 142.982 169.272C142.259 163.494 141.991 157.943 142.164 152.305C142.231 150.085 143.677 148.187 145.601 147.79C150.067 146.864 161.741 144.906 173.643 146.708C174.623 146.858 175.53 147.392 176.195 148.214C176.211 148.233 176.227 148.254 176.241 148.274C176.737 148.91 177.075 149.684 177.219 150.518C177.835 154.08 178.803 161.431 178.362 170.64V170.641C178.258 172.777 176.898 174.59 175.055 175.051C169.036 176.551 162.808 177.304 156.454 177.304L156.454 177.303ZM163.338 148.292C155.644 148.292 149.052 149.435 145.968 150.074C144.983 150.277 144.244 151.249 144.21 152.385C144.041 157.886 144.303 163.304 145.009 168.947C145.156 170.136 145.322 171.325 145.503 172.483C145.667 173.547 146.444 174.362 147.392 174.467C156.748 175.519 165.907 174.953 174.617 172.782C175.565 172.545 176.266 171.611 176.319 170.511C176.747 161.555 175.809 154.419 175.21 150.963C175.135 150.522 174.954 150.114 174.687 149.784C174.677 149.771 174.666 149.758 174.656 149.744C174.316 149.343 173.862 149.083 173.371 149.008C169.952 148.49 166.548 148.291 163.338 148.291V148.292Z" fill="#371A45"/>
<path d="M188.422 242.85H171.076C169.44 242.85 168.012 241.539 167.681 239.732C166.924 235.615 167.661 232.161 169.756 229.937C169.749 228.075 169.54 221.326 167.004 216.662C165.353 213.626 163.727 208.755 162.523 204.682C162.508 213.676 162.69 224.28 163.072 236.838C163.121 238.428 162.612 239.934 161.638 241.077C160.665 242.22 159.357 242.849 157.956 242.849H135.246C133.515 242.849 131.996 241.448 131.634 239.518C131.222 237.324 131.06 234.134 132.627 231.399C133.771 229.402 135.644 227.986 138.201 227.182C137.474 222.801 134.776 206.066 133.677 192.604C132.585 179.223 131.633 169.708 131.389 167.312L118.465 159.18C118.065 158.929 117.861 158.409 117.964 157.904C118.019 157.636 119.338 151.253 122.474 144.071C126.675 134.446 132.158 128.081 138.329 125.665C152.83 119.989 178.61 122.731 179.701 122.85C179.74 122.854 179.78 122.861 179.819 122.871C180.118 122.944 186.979 124.724 194.922 134.871L199.532 124.906C200.853 121.472 202.444 119.534 204.137 119.3C205.181 119.155 206.174 119.692 206.929 120.813C207.526 121.7 207.867 122.802 207.914 124L208.012 126.467L212.854 123.201C212.878 123.185 212.903 123.17 212.928 123.156C214.526 122.27 215.925 121.944 217.207 122.163C218.267 122.344 219.182 123 219.782 124.009C220.401 125.048 220.606 126.356 220.345 127.599C220.137 128.59 219.7 129.473 219.043 130.235C220.213 132.783 221.041 137.526 217.74 141.951C214.745 145.966 212.423 147.03 211.109 147.265C210.226 156.686 207.988 162.178 204.093 164.506C200.653 166.563 196.143 165.95 190.341 162.626C190.602 167.463 191.119 179.513 190.298 187.267C189.306 196.642 195.678 231.042 195.742 231.388C195.855 231.94 196.827 237.032 195.094 239.345C194.634 239.959 194.041 240.555 193.331 241.117C191.902 242.25 190.204 242.849 188.421 242.849L188.422 242.85ZM161.565 196.028C162.02 196.028 162.428 196.373 162.551 196.882C162.583 197.011 165.705 209.849 168.746 215.444C172.026 221.477 171.809 230.141 171.798 230.507C171.788 230.842 171.651 231.155 171.422 231.367C169.171 233.451 169.235 236.809 169.684 239.259C169.819 239.994 170.405 240.528 171.076 240.528H188.422C189.784 240.528 191.076 240.074 192.16 239.215C192.726 238.766 193.189 238.305 193.536 237.842C194.303 236.818 194.12 233.744 193.744 231.889C193.474 230.439 187.235 196.743 188.267 186.99C189.266 177.541 188.189 160.876 188.178 160.709C188.15 160.283 188.33 159.874 188.648 159.644C188.966 159.414 189.369 159.4 189.697 159.609C195.563 163.321 200.085 164.279 203.14 162.453C206.457 160.47 208.426 155.098 209.161 146.03C209.19 145.674 209.317 145.339 209.582 145.146C209.84 144.957 210.117 144.896 210.406 145.001C210.638 145.021 212.744 145.056 216.179 140.452C219.818 135.575 217.011 130.869 216.89 130.671C216.576 130.159 216.673 129.453 217.112 129.077C217.784 128.502 218.191 127.843 218.355 127.062C218.483 126.45 218.386 125.811 218.087 125.308C217.81 124.844 217.39 124.543 216.903 124.46C216.056 124.314 215.061 124.564 213.865 125.222L207.59 129.454C207.281 129.663 206.898 129.672 206.58 129.478C206.263 129.285 206.06 128.916 206.044 128.508L205.869 124.104C205.841 123.382 205.645 122.731 205.303 122.223C204.844 121.542 204.497 121.589 204.385 121.605C203.723 121.696 202.543 122.869 201.395 125.871C201.385 125.897 201.374 125.923 201.362 125.948L196.036 137.46C195.877 137.803 195.578 138.033 195.239 138.075C194.9 138.117 194.565 137.963 194.345 137.666C186.835 127.51 180.085 125.343 179.434 125.154C177.911 124.995 152.715 122.49 138.997 127.86C126.69 132.677 121.202 153.163 120.149 157.585L132.841 165.57C133.129 165.751 133.323 166.078 133.361 166.448C133.372 166.551 134.45 176.881 135.716 192.389C136.976 207.824 140.359 227.627 140.393 227.826C140.5 228.448 140.147 229.052 139.6 229.183C137.091 229.785 135.322 230.956 134.344 232.663C133.159 234.731 133.305 237.268 133.637 239.034C133.802 239.913 134.464 240.527 135.247 240.527H157.957C158.797 240.527 159.582 240.149 160.166 239.464C160.75 238.777 161.056 237.873 161.027 236.918C160.531 220.653 160.372 207.65 160.541 197.167C160.55 196.589 160.932 196.108 161.437 196.036C161.48 196.03 161.523 196.027 161.565 196.027V196.028Z" fill="#371A45"/>
<path d="M207.358 127.344C208.985 128.232 210.243 130.06 210.537 132.07C210.647 132.681 210.633 133.31 210.604 133.922C210.526 133.629 210.467 133.337 210.374 133.059C209.956 131.742 209.104 130.597 207.998 130.003C207.611 129.801 207.185 129.605 206.772 129.569C205.489 129.085 206.049 126.95 207.358 127.344V127.344Z" fill="#371A45"/>
<path d="M209.996 147.277C207.866 146.385 206.035 144.618 204.805 142.479C206.371 143.901 208.296 144.857 210.299 144.996C210.323 144.996 210.355 144.997 210.359 144.992L209.996 147.277H209.996Z" fill="#371A45"/>
<path d="M205.955 155.188C200.405 155.188 196.896 152.837 194.839 150.669C192.177 147.862 191.324 144.778 191.289 144.647C191.217 144.382 191.232 144.096 191.33 143.841L194.192 136.454C194.42 135.867 195.024 135.6 195.541 135.858C196.059 136.116 196.294 136.801 196.067 137.388L193.369 144.352C194.034 146.262 197.551 154.346 208.955 152.632C209.517 152.548 210.03 152.995 210.104 153.63C210.178 154.266 209.784 154.849 209.224 154.933C208.064 155.108 206.975 155.187 205.956 155.187L205.955 155.188Z" fill="#371A45"/>
<path d="M190.306 150.658C190.172 150.658 190.035 150.627 189.904 150.563C189.384 150.311 189.144 149.628 189.366 149.039L191.328 143.85C191.551 143.261 192.152 142.988 192.672 143.241C193.191 143.494 193.432 144.176 193.21 144.765L191.248 149.954C191.081 150.394 190.703 150.658 190.306 150.658Z" fill="#371A45"/>
<path d="M123.628 82.6934L119.534 84.8117C117.136 86.0527 115.655 88.8358 115.805 91.8201L116.499 105.618C116.669 109.012 118.897 111.816 121.856 112.361L127.246 113.354" fill="white"/>
<path d="M190.692 78.3555L194.971 79.9321C197.478 80.8554 199.228 83.4301 199.378 86.4144L200.072 100.212C200.242 103.607 198.31 106.679 195.425 107.602L190.17 109.283" fill="white"/>
<g opacity="0.25">
<path d="M127.244 113.352L121.853 112.361C118.897 111.815 116.668 109.01 116.497 105.616L116.104 97.7842C116.274 101.178 118.504 103.983 121.459 104.529L126.31 105.422L127.244 113.352H127.244Z" fill="#371A45"/>
</g>
<g opacity="0.25">
<path d="M199.676 92.3799L200.07 100.212C200.241 103.606 198.31 106.68 195.425 107.603L190.168 109.283L190.304 101.28L195.031 99.7711C197.917 98.8484 199.847 95.7739 199.676 92.3799Z" fill="#371A45"/>
</g>
<path d="M157.596 134.814C177.962 134.814 194.472 116.088 194.472 92.9883C194.472 69.8889 177.962 51.1631 157.596 51.1631C137.23 51.1631 120.721 69.8889 120.721 92.9883C120.721 116.088 137.23 134.814 157.596 134.814Z" fill="white"/>
<g opacity="0.25">
<path d="M159.697 134.744C151.263 135.289 143.332 132.575 136.852 127.566C140.713 128.816 144.819 129.363 149.051 129.088C169.382 127.774 184.926 108.012 183.767 84.9501C183.086 71.454 176.837 59.8154 167.692 52.749C182.377 57.4844 193.496 72.3397 194.413 90.6051C195.572 113.667 180.03 133.429 159.697 134.743L159.697 134.744Z" fill="#371A45"/>
</g>
<path d="M194.481 91.9774C195.403 110.332 179.67 126.28 159.336 127.595C140.797 128.794 124.836 117.417 121.468 101.483C121.14 99.9437 120.931 98.3593 120.849 96.7397C119.927 78.3846 135.66 62.4418 155.994 61.1267C171.273 60.1383 184.8 67.6932 190.973 79.2948V79.2996C193.016 83.1385 194.252 87.42 194.481 91.978V91.9774Z" fill="#371A45"/>
<g opacity="0.7">
<path d="M194.481 91.9776C195.404 110.333 179.67 126.28 159.336 127.595C140.797 128.795 124.836 117.417 121.469 101.484C121.719 101.073 121.866 100.848 121.866 100.848C140.612 131.543 191.737 114.693 190.974 79.2998C193.017 83.1387 194.252 87.4202 194.481 91.9782V91.9776Z" fill="#111A28"/>
</g>
<path d="M157.546 135.976C148.237 135.976 139.369 132.151 132.366 125.065C124.812 117.421 120.334 106.899 119.758 95.435C119.182 83.9719 122.576 72.94 129.315 64.3716C136.054 55.8039 145.331 50.7251 155.438 50.0711C165.548 49.419 175.271 53.2675 182.825 60.9107C190.38 68.5546 194.857 79.077 195.433 90.5407C196.009 102.004 192.615 113.036 185.877 121.604C179.137 130.172 169.86 135.251 159.753 135.905C159.016 135.952 158.279 135.976 157.547 135.976H157.546ZM157.642 52.3221C156.948 52.3221 156.252 52.3448 155.554 52.3896C145.993 53.0077 137.217 57.8123 130.842 65.9172C124.467 74.0227 121.256 84.4586 121.801 95.303C122.347 106.147 126.582 116.101 133.728 123.332C140.874 130.563 150.076 134.205 159.636 133.586C169.197 132.968 177.973 128.163 184.349 120.058C190.723 111.953 193.934 101.517 193.389 90.6727C192.843 79.8283 188.608 69.8744 181.462 62.6433C174.838 55.9401 166.448 52.3215 157.642 52.3215V52.3221Z" fill="#371A45"/>
<path d="M120.747 95.7073C120.276 95.7073 119.881 95.2898 119.854 94.7494C119.365 85.0212 122.848 75.6311 129.661 68.3079C136.433 61.029 145.694 56.6627 155.739 56.0135C165.783 55.3637 175.422 58.5081 182.88 64.8661C190.383 71.2636 194.784 80.1437 195.274 89.8718C195.302 90.432 194.924 90.9116 194.43 90.9439C193.944 90.9791 193.513 90.5479 193.485 89.9877C193.026 80.8669 188.878 72.5219 181.804 66.4906C174.684 60.4198 165.461 57.4188 155.84 58.0423C146.218 58.6646 137.357 62.8344 130.892 69.7831C124.469 76.6876 121.183 85.5133 121.642 94.6341C121.669 95.1943 121.292 95.6739 120.798 95.7061C120.781 95.7073 120.764 95.7079 120.746 95.7079L120.747 95.7073Z" fill="#371A45"/>
<path d="M127.245 114.515C127.19 114.515 127.136 114.51 127.08 114.5L121.69 113.508C118.23 112.87 115.675 109.654 115.475 105.685L114.782 91.887C114.607 88.398 116.304 85.2065 119.107 83.7564L123.201 81.638C123.715 81.3723 124.322 81.6291 124.557 82.2126C124.792 82.7961 124.565 83.4847 124.051 83.7504L119.957 85.8688C117.928 86.9187 116.699 89.2293 116.825 91.755L117.519 105.553C117.663 108.426 119.513 110.756 122.018 111.217L127.408 112.209C127.966 112.312 128.345 112.909 128.254 113.541C128.172 114.111 127.739 114.516 127.245 114.516V114.515Z" fill="#371A45"/>
<path d="M190.17 110.445C189.723 110.445 189.313 110.11 189.185 109.598C189.032 108.981 189.349 108.34 189.892 108.166L195.148 106.485C197.59 105.704 199.195 103.151 199.051 100.278L198.357 86.4804C198.23 83.9548 196.778 81.8179 194.656 81.0361L190.376 79.4595C189.839 79.2612 189.544 78.6066 189.719 77.9969C189.894 77.3871 190.472 77.0532 191.009 77.2515L195.288 78.8282C198.219 79.908 200.225 82.8594 200.401 86.3484L201.094 100.146C201.294 104.115 199.077 107.641 195.704 108.72L190.448 110.401C190.355 110.431 190.262 110.445 190.17 110.445Z" fill="#371A45"/>
<g opacity="0.5">
<path d="M180.794 109.959C184.439 92.4309 178.323 78.9934 163.799 69.0771C188.852 75.1676 194.496 97.5432 180.794 109.959Z" fill="white"/>
</g>
<g opacity="0.5">
<path d="M134.147 96.0646C134.247 98.395 134.627 101.788 135.811 105.492C136.42 107.397 135.605 109.509 133.962 110.303C132.493 111.013 130.781 110.459 129.873 108.97C127.579 105.214 126.024 100.64 126.389 95.864C126.595 93.1663 128.925 91.3484 131.236 92.0262C132.88 92.5082 134.064 94.1416 134.147 96.0646Z" fill="white"/>
</g>
<g opacity="0.5">
<path d="M136.879 77.4746C137.731 78.5377 137.876 80.1048 137.237 81.3446L135.556 84.609C134.836 86.0083 133.324 86.6038 131.994 86.0125L131.779 85.9169C130.134 85.1859 129.434 82.9667 130.315 81.2311C130.846 80.1848 131.547 78.9617 132.448 77.658C133.556 76.055 135.672 75.9666 136.879 77.4746Z" fill="white"/>
</g>
<path d="M102.331 177.623C93.6922 177.117 94.5257 172.023 94.5257 172.023C95.0101 172.1 107.829 174.213 107.829 174.213" fill="#A7A9B7"/>
<path d="M110.315 179.582L127.608 181.225C128.261 181.288 128.903 181.01 129.354 180.471L145.558 161.106C145.922 160.671 146.125 160.094 146.125 159.494V158.161C146.125 157.014 145.392 156.035 144.394 155.849L112.35 149.884L110.314 179.582H110.315Z" fill="#A7A9B7"/>
<path d="M127.792 182.395C127.703 182.395 127.613 182.391 127.523 182.382L110.229 180.739C109.669 180.686 109.25 180.129 109.294 179.492L111.33 149.794C111.352 149.469 111.493 149.171 111.718 148.97C111.944 148.769 112.233 148.686 112.516 148.738L144.56 154.703C146.06 154.983 147.149 156.437 147.149 158.161V159.493C147.149 160.394 146.847 161.251 146.3 161.905L130.096 181.27C129.491 181.994 128.663 182.395 127.792 182.395V182.395ZM111.414 178.521L127.693 180.068C128.041 180.101 128.374 179.956 128.612 179.671L144.815 160.307C145 160.086 145.101 159.797 145.101 159.493V158.161C145.101 157.579 144.734 157.089 144.228 156.994L113.284 151.234L111.413 178.522L111.414 178.521Z" fill="#371A45"/>
<path d="M126.548 177.098L94.1501 171.964C91.947 171.616 89.9562 170.252 88.6951 168.171C88.2675 167.469 87.8558 166.737 87.4566 165.983C82.0169 155.727 79.1104 141.213 80.2925 133.223C80.5405 131.558 81.9685 130.464 83.427 130.812L119.551 139.411C121.352 139.841 122.788 141.393 123.249 143.416C123.456 144.324 123.658 145.23 123.858 146.132C126.033 155.918 127.826 165.347 129.006 174.281C129.221 175.915 127.993 177.328 126.549 177.098L126.548 177.098Z" fill="#A7A9B7"/>
<g opacity="0.6">
<path d="M82.6801 136.032C81.4264 144.483 84.7579 160.241 90.8142 170.533C89.9875 169.914 89.2661 169.117 88.6933 168.173C82.4653 157.897 79.0211 141.801 80.2906 133.225C80.5386 131.56 81.9666 130.466 83.4252 130.814L119.549 139.413C121.107 139.785 122.392 140.995 123.006 142.626C122.669 142.443 122.31 142.307 121.937 142.219L85.8152 133.62C84.354 133.272 82.9265 134.366 82.6806 136.032H82.6801Z" fill="white"/>
</g>
<path d="M126.858 178.283C126.708 178.283 126.557 178.271 126.405 178.247L94.0084 173.114C91.5052 172.717 89.2605 171.155 87.8504 168.827C81.8083 158.856 77.8856 142.464 79.283 133.031C79.4484 131.915 79.9949 130.948 80.8211 130.308C81.6519 129.665 82.6524 129.44 83.6365 129.674L119.76 138.273C121.959 138.797 123.676 140.656 124.237 143.125C126.946 155.031 128.836 165.165 130.015 174.108C130.166 175.253 129.841 176.382 129.123 177.205C128.513 177.904 127.707 178.282 126.858 178.282V178.283ZM126.688 175.948C127.054 176.004 127.41 175.868 127.669 175.573C127.928 175.275 128.046 174.867 127.991 174.452C126.822 165.591 124.946 155.533 122.255 143.707C121.889 142.099 120.772 140.888 119.339 140.547L83.2163 131.948C82.7824 131.845 82.3412 131.944 81.9752 132.227C81.613 132.508 81.3745 132.93 81.3023 133.418C80.1476 141.21 83.2453 157.129 89.538 167.513C90.6237 169.305 92.3566 170.509 94.2922 170.816L126.689 175.949L126.688 175.948Z" fill="#371A45"/>
<path d="M126.749 178.279C126.286 178.279 125.866 177.919 125.754 177.386L119.659 148.279C119.212 146.146 117.703 144.463 115.813 143.994L79.9767 135.095C79.4244 134.958 79.0747 134.339 79.1958 133.713C79.317 133.087 79.8646 132.69 80.4143 132.827L116.251 141.726C118.904 142.384 121.022 144.746 121.65 147.743L127.745 176.848C127.876 177.472 127.536 178.098 126.986 178.246C126.907 178.267 126.827 178.277 126.749 178.277L126.749 178.279Z" fill="#371A45"/>
<path d="M102.333 178.785C102.315 178.785 102.297 178.785 102.279 178.784C98.4678 178.56 95.8372 177.443 94.4597 175.464C93.2503 173.725 93.4888 172.004 93.5199 171.813C93.6231 171.183 94.1607 170.768 94.713 170.883C95.2632 170.999 95.6287 171.595 95.5355 172.218C95.5276 172.284 95.4386 173.159 96.1036 174.077C96.8008 175.04 98.4557 176.235 102.384 176.465C102.949 176.498 103.383 177.044 103.354 177.684C103.325 178.304 102.873 178.785 102.332 178.785H102.333Z" fill="#371A45"/>
<path d="M129.026 174.891C128.802 174.891 128.578 174.796 128.404 174.605C128.048 174.215 128.039 173.572 128.382 173.169L143.749 155.143C144.093 154.74 144.66 154.73 145.016 155.12C145.371 155.51 145.381 156.153 145.037 156.556L129.67 174.581C129.495 174.787 129.26 174.891 129.026 174.891V174.891Z" fill="#371A45"/>
<g opacity="0.25">
<path d="M129.025 173.876L144.392 155.851L145.588 156.592L146.123 160.526L129.352 181.065L128.51 180.067L127.938 177.124L129.025 175.521" fill="#371A45"/>
</g>
<path d="M128.22 182.001C127.73 182.001 127.298 181.602 127.212 181.035L126.652 177.317C126.556 176.685 126.931 176.086 127.488 175.978C128.045 175.87 128.573 176.294 128.669 176.927L129.23 180.645C129.325 181.277 128.95 181.876 128.393 181.984C128.335 181.996 128.277 182.001 128.22 182.001Z" fill="#371A45"/>
<path d="M129.772 161.661C129.732 161.661 129.692 161.658 129.651 161.651L126.63 161.102C126.319 161.046 126.07 160.779 126.002 160.43L125.09 155.727C125.035 155.444 125.108 155.148 125.285 154.938C125.461 154.728 125.718 154.632 125.971 154.682L132.477 155.959C132.739 156.01 132.958 156.212 133.058 156.491C133.157 156.771 133.122 157.089 132.965 157.332L130.391 161.306C130.246 161.531 130.015 161.661 129.773 161.661H129.772ZM127.389 159.477L129.43 159.847L130.992 157.435L126.834 156.619L127.389 159.476V159.477Z" fill="#371A45"/>
<path d="M129.026 170.683C128.86 170.683 128.694 170.623 128.554 170.498C128.22 170.202 128.161 169.655 128.422 169.277L131.536 164.754L127.23 164.226C126.808 164.175 126.504 163.746 126.549 163.267C126.595 162.79 126.977 162.445 127.394 162.495L133.072 163.19C133.349 163.224 133.588 163.426 133.697 163.717C133.806 164.008 133.767 164.343 133.595 164.592L129.632 170.348C129.48 170.568 129.255 170.683 129.026 170.683H129.026Z" fill="#371A45"/>
<g opacity="0.25">
<path d="M126.549 177.097L94.1505 171.963C91.9474 171.615 89.9565 170.251 88.6955 168.17C88.2679 167.468 87.8562 166.736 87.457 165.982C119.149 172.625 120.656 148.012 120.656 148.012L123.857 146.131C126.032 155.917 127.826 165.346 129.005 174.279C129.22 175.913 127.992 177.326 126.549 177.097Z" fill="#371A45"/>
</g>
<path d="M114.1 181.832C122.89 179.004 115.827 171.384 111.477 170.15C104.452 167.731 101.281 173.386 102.64 178.021C102.98 179.18 103.704 180.148 104.633 180.766C107.357 182.576 110.551 182.798 114.099 181.832H114.1Z" fill="#F9F9F9"/>
<g opacity="0.25">
<path d="M114.1 181.832C110.551 182.798 107.357 182.575 104.635 180.767C103.704 180.149 102.98 179.18 102.642 178.022C102.465 177.418 102.362 176.797 102.34 176.179C105.022 177.877 108.148 178.065 111.615 177.122C114.696 176.132 115.829 174.55 115.814 172.864C118.702 175.708 120.12 179.896 114.099 181.832H114.1Z" fill="#371A45"/>
</g>
<path d="M110.211 183.551C107.945 183.551 105.905 182.956 104.117 181.767C102.951 180.993 102.082 179.792 101.67 178.387C100.861 175.629 101.417 172.684 103.121 170.699C104.268 169.364 106.913 167.373 111.751 169.031C114.812 169.913 119.269 173.65 119.323 177.536C119.347 179.271 118.509 181.619 114.379 182.948C114.366 182.952 114.353 182.956 114.339 182.959C112.891 183.354 111.513 183.551 110.211 183.551V183.551ZM108.304 170.73C106.768 170.73 105.492 171.266 104.587 172.319C103.419 173.679 103.046 175.724 103.612 177.654C103.867 178.525 104.414 179.275 105.151 179.764C107.524 181.341 110.366 181.65 113.841 180.709C115.426 180.196 117.299 179.236 117.276 177.573C117.243 175.203 113.842 172.017 111.229 171.277C111.213 171.272 111.196 171.267 111.18 171.261C110.15 170.906 109.184 170.731 108.304 170.731V170.73Z" fill="#371A45"/>
<path d="M139.638 226.922L142.437 228.919L139.138 229.174C138.545 229.22 138.031 228.711 137.991 228.039C137.906 227.068 138.934 226.385 139.638 226.922H139.638Z" fill="#371A45"/>
<path d="M170.03 229.669C172.056 227.775 174.809 227.208 177.351 227.188C178.69 227.212 180.071 227.425 181.376 227.737L182.928 228.193C181.987 228.077 180.684 227.963 179.755 227.989C179.466 228.007 178.853 228.025 178.577 228.049C178.336 228.079 177.664 228.168 177.413 228.201C175.675 228.531 173.938 229.138 172.508 230.284C172.151 230.568 171.787 230.895 171.518 231.262C170.57 232.348 169.127 230.81 170.03 229.669Z" fill="#371A45"/>
<path d="M176.136 220.936C173.74 220.936 171.334 220.671 169.063 220.325C168.503 220.239 168.109 219.655 168.185 219.02C168.26 218.384 168.775 217.938 169.336 218.024C180.893 219.785 187.213 217.59 190.464 210.683C190.73 210.117 191.35 209.903 191.849 210.206C192.347 210.507 192.536 211.211 192.269 211.776C188.847 219.047 182.531 220.936 176.135 220.936H176.136Z" fill="#371A45"/>
<path d="M149.781 220.825C143.252 220.825 137.63 218.233 137.252 218.055C136.73 217.809 136.483 217.13 136.7 216.538C136.917 215.946 137.514 215.665 138.037 215.911C138.178 215.976 152.182 222.414 160.931 214.591C161.375 214.194 162.019 214.281 162.368 214.784C162.718 215.288 162.642 216.018 162.198 216.415C158.433 219.781 153.924 220.825 149.781 220.825Z" fill="#371A45"/>
<path d="M144.976 188.839C157.46 192.153 163.623 192.173 176.1 188.839C176.157 188.814 176.236 188.843 176.247 188.92C176.257 188.972 176.233 189.023 176.193 189.045L174.364 190.065C166.074 194.454 157.09 194.854 148.585 190.981C147.467 190.469 145.967 189.67 144.884 189.045C144.835 189.018 144.814 188.949 144.838 188.893C144.868 188.832 144.923 188.819 144.977 188.839H144.976Z" fill="#371A45"/>
<path d="M161.557 198.664C161.048 198.664 160.607 198.233 160.542 197.645L160.1 193.582C160.03 192.946 160.429 192.366 160.99 192.287C161.55 192.208 162.062 192.661 162.131 193.297L162.574 197.36C162.643 197.996 162.245 198.576 161.684 198.655C161.641 198.661 161.599 198.664 161.557 198.664Z" fill="#371A45"/>
<path d="M188.183 160.782C187.241 151.654 185.544 142.524 182.629 133.921C183.515 136.008 184.354 138.13 185.089 140.301C187.315 146.843 189.002 153.571 190.21 160.46C190.427 162.049 188.364 162.388 188.182 160.783L188.183 160.782Z" fill="#371A45"/>
<path d="M159.27 176.03L158.88 164.724C158.839 163.532 159.272 162.401 160.07 161.622L163.024 158.74C163.337 158.434 163.512 157.991 163.505 157.524L163.354 147.148L165.4 147.109L165.552 157.485C165.569 158.644 165.134 159.743 164.359 160.5L161.405 163.382C161.083 163.696 160.908 164.152 160.925 164.634L161.315 175.939L159.269 176.03H159.27Z" fill="#371A45"/>
<path d="M151.777 164.128C154.038 164.128 155.871 161.952 155.871 159.267C155.871 156.582 154.038 154.405 151.777 154.405C149.516 154.405 147.684 156.582 147.684 159.267C147.684 161.952 149.516 164.128 151.777 164.128Z" fill="#22A7F0"/>
<path d="M151.776 165.291C148.954 165.291 146.658 162.589 146.658 159.269C146.658 155.948 148.954 153.247 151.776 153.247C154.597 153.247 156.893 155.948 156.893 159.269C156.893 162.589 154.597 165.291 151.776 165.291ZM151.776 155.568C150.083 155.568 148.705 157.228 148.705 159.269C148.705 161.31 150.082 162.969 151.776 162.969C153.469 162.969 154.846 161.31 154.846 159.269C154.846 157.228 153.469 155.568 151.776 155.568Z" fill="#371A45"/>
<path d="M177.074 158.618C176.543 158.618 176.095 158.154 176.054 157.544C176.011 156.905 176.434 156.348 176.997 156.3L188.095 155.353C188.661 155.304 189.149 155.784 189.192 156.423C189.235 157.063 188.812 157.62 188.249 157.668L177.151 158.615C177.125 158.617 177.099 158.618 177.073 158.618H177.074Z" fill="#371A45"/>
<path d="M189.198 167.683H177.449C176.884 167.683 176.426 167.164 176.426 166.522C176.426 165.881 176.884 165.361 177.449 165.361H189.198C189.763 165.361 190.221 165.881 190.221 166.522C190.221 167.164 189.766 167.68 189.202 167.683H189.198Z" fill="#371A45"/>
<path d="M143.993 172.23H137.553C136.987 172.23 136.529 171.711 136.529 171.069C136.529 170.428 136.987 169.908 137.553 169.908H143.993C144.558 169.908 145.016 170.428 145.016 171.069C145.016 171.711 144.558 172.23 143.993 172.23Z" fill="#371A45"/>
<path d="M136.295 136.847C135.233 139.868 134.634 143.071 134.283 146.285C134.009 148.748 133.946 151.282 134.013 153.759L131.967 153.691C132.11 152.213 132.265 150.74 132.518 149.284C133.241 144.975 134.41 140.685 136.295 136.847Z" fill="#371A45"/>
<g opacity="0.25">
<path d="M177.341 170.576C177.262 172.204 176.241 173.565 174.836 173.916C165.822 176.163 156.634 176.673 147.292 175.623C145.887 175.466 144.738 174.262 144.495 172.686C144.311 171.504 144.145 170.312 143.996 169.11C160.576 173.435 171.927 168.303 175.442 149.001C175.826 149.477 176.1 150.072 176.215 150.739C176.837 154.335 177.773 161.538 177.341 170.576V170.576Z" fill="#371A45"/>
</g>
<g opacity="0.25">
<path d="M165.535 250C193.138 250 215.514 246.456 215.514 242.085C215.514 237.714 193.138 234.171 165.535 234.171C137.931 234.171 115.555 237.714 115.555 242.085C115.555 246.456 137.931 250 165.535 250Z" fill="#191919"/>
<path d="M194.315 238.591C193.863 239.195 193.302 239.723 192.747 240.164C191.481 241.168 189.966 241.688 188.423 241.688H171.077C169.923 241.688 168.918 240.776 168.683 239.494C168.294 237.381 168.105 234.148 169.75 231.672C169.798 231.8 169.842 231.936 169.88 232.084C171.032 236.556 180.883 237.633 186.256 233.707C191.629 229.78 186.64 209.764 185.391 199.316C184.14 188.868 179.731 187.272 179.731 187.272C182.145 183.044 183.611 177.898 184.443 172.515C184.664 171.087 183.731 169.76 182.455 169.671L180.307 169.519C180.307 169.519 181.459 171.745 178.772 175.591C176.085 179.436 160.221 179.581 154.4 179.436C148.579 179.291 147.684 175.983 147.684 175.983C147.684 175.983 152.226 176.462 153.057 176.145C153.888 175.831 171.16 175.518 174.294 174.453C177.429 173.391 177.452 169.859 177.452 169.859L177.749 162.575H182.796C184.217 162.575 185.38 161.276 185.389 159.663C185.463 147.057 183.392 136.111 183.33 135.776C185.441 141.737 187.357 149.652 189.2 158.3L190.456 161.388C190.044 161.148 189.627 160.892 189.2 160.622C189.2 160.622 190.307 177.455 189.284 187.127C188.26 196.8 194.744 231.626 194.744 231.626C194.744 231.626 195.768 236.659 194.317 238.592L194.315 238.591Z" fill="#371A45"/>
</g>
<g opacity="0.25">
<path d="M162.048 236.879C162.128 239.506 160.275 241.688 157.954 241.688H135.245C133.979 241.688 132.897 240.678 132.633 239.276C132.18 236.871 132.053 233.167 134.588 230.57C134.747 231.035 134.87 231.539 134.952 232.085C136.103 239.75 143.267 237.646 147.873 237.634C152.479 237.623 154.014 227.177 153.119 214.263C152.223 201.349 149.511 191.19 149.511 191.19L152.947 191.53L161.114 193.027C161.114 193.027 161.278 195.253 161.542 198.759C161.396 209.993 161.623 222.972 162.048 236.879Z" fill="#371A45"/>
</g>
<g opacity="0.25">
<path d="M172.889 228.919L170.781 229.801C170.768 227.677 170.509 220.891 167.879 216.053C165.167 211.065 162.454 200.719 161.746 197.909L161.736 197.872V197.869L161.342 192.642H165.469L170.778 191.19C170.778 191.19 166.812 195.689 169.754 207.298C172.697 218.906 172.889 228.919 172.889 228.919Z" fill="#371A45"/>
</g>
<g opacity="0.25">
<path d="M217.726 130.177C217.726 130.177 221.18 135.714 216.959 141.374C212.737 147.033 210.178 146.307 210.178 146.307C209.006 160.798 204.505 169.24 191.455 162.13C191.455 162.127 191.453 162.127 191.45 162.124C190.099 160.908 189.196 160.067 189.196 160.067L188.172 154.268L187.057 148.824C187.154 149.056 190.885 157.917 196.189 154.408C201.562 150.853 203.609 139.05 203.609 139.05C209.256 143.49 212.736 141.642 213.248 131.191C213.248 131.191 217.853 127.732 217.426 124.057C217.408 123.892 217.402 123.732 217.413 123.575C218.866 124.048 219.711 125.781 219.348 127.502C219.133 128.532 218.6 129.429 217.725 130.177L217.726 130.177Z" fill="#371A45"/>
</g>
<g opacity="0.25">
<path d="M124.484 149.002C124.484 149.002 129.433 151.913 135.349 139.387C135.349 139.387 133.161 147.948 133.417 151.722C133.673 155.494 130.56 153.727 130.56 153.727L125.838 152.738" fill="#371A45"/>
</g>
<path d="M106.958 152.297C107.08 152.631 107.184 152.969 107.27 153.311C106.142 154.463 103.912 156.08 101.246 157.606C98.5808 159.133 96.1455 160.189 94.7117 160.504C94.5617 160.199 94.4248 159.879 94.3026 159.545C94.2968 159.53 94.291 159.514 94.2858 159.498C94.2326 159.351 94.1831 159.203 94.1373 159.053C94.0293 158.705 93.9409 158.351 93.8709 157.996C93.8682 157.982 93.8651 157.968 93.8624 157.953C93.7608 157.425 93.7003 156.893 93.6787 156.362C93.6381 155.353 93.7392 154.351 93.9693 153.4C94.5275 151.091 95.8449 149.082 97.7357 147.999C99.6107 146.925 101.668 146.981 103.419 147.939C104.138 148.332 104.806 148.878 105.387 149.559C105.699 149.924 105.986 150.327 106.243 150.768C106.264 150.803 106.284 150.839 106.304 150.874C106.473 151.173 106.629 151.488 106.769 151.818C106.821 151.94 106.871 152.065 106.919 152.192C106.932 152.227 106.945 152.261 106.958 152.296V152.297Z" fill="white"/>
<path d="M94.7099 160.572C94.6883 160.572 94.6683 160.559 94.6573 160.538C94.5056 160.23 94.3672 159.905 94.245 159.572L94.2276 159.524C94.1755 159.38 94.1249 159.229 94.0786 159.076C93.9717 158.73 93.8812 158.372 93.8101 158.011C93.8074 157.998 93.8043 157.982 93.8011 157.967C93.7005 157.442 93.6379 156.903 93.6163 156.365C93.5758 155.357 93.6742 154.353 93.9091 153.382C94.4919 150.97 95.8757 148.986 97.706 147.937C99.521 146.898 101.612 146.876 103.443 147.878C104.177 148.279 104.845 148.829 105.428 149.512C105.744 149.881 106.033 150.291 106.291 150.731C106.312 150.766 106.332 150.802 106.353 150.839C106.525 151.143 106.682 151.462 106.821 151.79C106.874 151.913 106.924 152.039 106.973 152.166L107.012 152.272C107.133 152.604 107.239 152.948 107.325 153.293C107.332 153.318 107.325 153.345 107.308 153.362C106.125 154.57 103.869 156.18 101.271 157.667C98.6732 159.155 96.2248 160.241 94.721 160.571C94.7173 160.572 94.7136 160.572 94.7099 160.572ZM100.629 147.278C99.6489 147.278 98.6701 147.539 97.7613 148.059C95.9615 149.09 94.6004 151.043 94.026 153.418C93.7943 154.376 93.6974 155.365 93.7374 156.36C93.759 156.889 93.8201 157.421 93.9196 157.939L93.928 157.98C93.998 158.338 94.087 158.69 94.1923 159.031C94.2387 159.182 94.2882 159.33 94.3398 159.473L94.3519 159.509C94.4704 159.832 94.5999 160.138 94.741 160.428C96.2174 160.093 98.6917 158.993 101.217 157.546C103.747 156.097 106.033 154.47 107.2 153.289C107.116 152.963 107.015 152.638 106.901 152.323L106.862 152.22C106.815 152.094 106.765 151.971 106.713 151.849C106.576 151.527 106.421 151.211 106.252 150.912C106.232 150.876 106.211 150.841 106.191 150.807C105.938 150.374 105.653 149.97 105.342 149.608C104.769 148.936 104.112 148.396 103.391 148.001C102.51 147.519 101.569 147.279 100.628 147.279L100.629 147.278Z" fill="white"/>
<path d="M107.565 156.673C107.54 157.028 107.498 157.381 107.439 157.728C107.356 158.215 107.239 158.693 107.092 159.156C106.452 161.161 105.219 162.873 103.526 163.843C101.83 164.814 99.9848 164.861 98.3519 164.152C97.9934 163.996 97.6448 163.804 97.311 163.577C97.0487 163.399 96.7955 163.2 96.5527 162.981C98.2577 162.434 100.227 161.556 102.265 160.389C104.302 159.222 106.12 157.931 107.565 156.673H107.565Z" fill="white"/>
<path d="M100.632 164.704C99.8565 164.704 99.0793 164.541 98.3285 164.215C97.9662 164.058 97.6129 163.862 97.2775 163.635C97.0147 163.457 96.7578 163.254 96.5129 163.033C96.495 163.017 96.4871 162.992 96.4913 162.967C96.4956 162.941 96.5124 162.921 96.534 162.915C98.2963 162.349 100.268 161.455 102.235 160.328C104.203 159.201 106.032 157.918 107.526 156.619C107.545 156.602 107.571 156.6 107.591 156.613C107.613 156.625 107.625 156.651 107.623 156.678C107.598 157.037 107.555 157.394 107.496 157.74C107.413 158.229 107.296 158.713 107.147 159.178C106.475 161.282 105.198 162.959 103.551 163.902C102.622 164.434 101.628 164.703 100.632 164.703V164.704ZM96.6809 163.01C96.8931 163.195 97.1148 163.365 97.3396 163.518C97.6687 163.742 98.0162 163.934 98.3716 164.089C100.056 164.82 101.876 164.711 103.498 163.782C105.117 162.855 106.372 161.204 107.034 159.134C107.181 158.674 107.297 158.197 107.378 157.716C107.428 157.424 107.466 157.124 107.491 156.821C106.012 158.094 104.216 159.347 102.29 160.451C100.358 161.558 98.4211 162.441 96.6804 163.01L96.6809 163.01Z" fill="white"/>
<path d="M107.268 153.312C106.141 154.464 103.91 156.081 101.244 157.607C98.5788 159.134 96.143 160.19 94.7092 160.505C94.5592 160.2 94.4223 159.88 94.3001 159.546C94.2943 159.531 94.2891 159.515 94.2833 159.5C94.2301 159.352 94.1806 159.204 94.1348 159.055C94.0268 158.706 93.9384 158.353 93.8683 157.998C93.8657 157.983 93.8626 157.969 93.8604 157.955C93.7588 157.426 93.6983 156.894 93.6767 156.364C93.6361 155.354 93.7378 154.353 93.9673 153.401C94.4191 151.533 95.3669 149.862 96.7133 148.719C96.3631 149.401 96.0909 150.141 95.904 150.914C95.6739 151.866 95.5728 152.867 95.6133 153.877C95.6344 154.407 95.6949 154.939 95.7966 155.467C95.7992 155.482 95.8023 155.497 95.805 155.511C95.8087 155.53 95.8139 155.553 95.8202 155.581C96.1751 157.078 97.4625 157.705 98.7047 157.564C101.072 157.295 106.198 153.826 107.289 153.025C107.365 153.255 107.209 153.079 107.268 153.312Z" fill="white"/>
<path d="M94.7094 160.574C94.6878 160.574 94.6678 160.561 94.6568 160.538C94.5041 160.228 94.3656 159.903 94.2445 159.573L94.2303 159.533C94.1718 159.37 94.1228 159.223 94.0781 159.077C93.9707 158.73 93.8806 158.372 93.8095 158.012C93.8064 157.995 93.8032 157.981 93.8011 157.966C93.7005 157.444 93.6384 156.904 93.6163 156.366C93.5758 155.358 93.6742 154.354 93.9091 153.383C94.374 151.461 95.3571 149.785 96.6766 148.664C96.6992 148.645 96.7313 148.646 96.7524 148.667C96.774 148.689 96.7787 148.725 96.7645 148.753C96.4175 149.428 96.1474 150.161 95.961 150.932C95.7293 151.89 95.6324 152.88 95.6725 153.874C95.6935 154.404 95.7551 154.935 95.8546 155.453C95.8573 155.469 95.8599 155.482 95.8631 155.496C95.8668 155.515 95.8715 155.537 95.8778 155.564C96.2374 157.079 97.5538 157.627 98.698 157.496C101.02 157.233 106.118 153.803 107.255 152.968C107.271 152.957 107.29 152.954 107.307 152.961C107.324 152.967 107.338 152.982 107.344 153.002C107.379 153.107 107.385 153.181 107.313 153.227C107.313 153.232 107.314 153.252 107.324 153.294C107.331 153.319 107.324 153.346 107.307 153.363C106.124 154.572 103.868 156.181 101.271 157.669C98.6727 159.156 96.2243 160.242 94.7205 160.572C94.7168 160.573 94.7131 160.574 94.7094 160.574ZM96.5155 148.981C95.3344 150.078 94.4551 151.642 94.0254 153.42C93.7943 154.378 93.6969 155.366 93.7369 156.361C93.7585 156.891 93.8201 157.423 93.9196 157.941L93.927 157.981C93.9975 158.338 94.0865 158.691 94.1918 159.033C94.236 159.177 94.284 159.321 94.3392 159.475L94.3561 159.521C94.4698 159.831 94.5988 160.137 94.741 160.429C96.2174 160.094 98.6922 158.993 101.218 157.547C103.748 156.098 106.035 154.469 107.201 153.289C107.191 153.237 107.192 153.198 107.204 153.168C105.811 154.172 101.01 157.37 98.7106 157.631C97.5154 157.766 96.14 157.191 95.7625 155.598C95.7557 155.57 95.7504 155.545 95.7462 155.525C95.743 155.511 95.7404 155.496 95.7372 155.48C95.6361 154.956 95.574 154.418 95.5524 153.879C95.5119 152.871 95.6103 151.867 95.8452 150.896C96.0073 150.224 96.2322 149.582 96.5149 148.98L96.5155 148.981Z" fill="white"/>
<path d="M102.263 160.39C104.3 159.223 106.118 157.932 107.563 156.674C107.539 157.029 107.497 157.382 107.437 157.729C106.325 158.749 104.547 160.011 102.476 161.198C100.492 162.334 98.6422 163.17 97.309 163.578C97.0468 163.4 96.7935 163.201 96.5508 162.982C98.2557 162.435 100.225 161.557 102.263 160.39Z" fill="white"/>
<path d="M97.3085 163.646C97.2975 163.646 97.287 163.643 97.2775 163.637C97.0147 163.459 96.7578 163.256 96.5129 163.035C96.495 163.019 96.4871 162.994 96.4913 162.968C96.4956 162.943 96.5124 162.923 96.534 162.917C98.2963 162.351 100.268 161.457 102.235 160.33C104.203 159.203 106.032 157.92 107.526 156.621C107.545 156.604 107.571 156.602 107.591 156.615C107.613 156.627 107.625 156.653 107.623 156.68C107.598 157.039 107.555 157.396 107.496 157.742C107.493 157.758 107.486 157.772 107.475 157.782C106.316 158.846 104.503 160.113 102.503 161.259C100.595 162.352 98.7076 163.221 97.3243 163.644C97.3191 163.646 97.3138 163.646 97.3085 163.646ZM96.6804 163.011C96.8863 163.19 97.0995 163.356 97.3175 163.505C98.6913 163.081 100.559 162.22 102.449 161.137C104.432 160.001 106.229 158.747 107.382 157.691C107.43 157.407 107.467 157.116 107.491 156.821C106.012 158.095 104.216 159.348 102.29 160.451C100.358 161.558 98.4211 162.441 96.6804 163.01V163.011Z" fill="white"/>
<path d="M106.921 152.194C106.934 152.229 106.947 152.264 106.959 152.299C107.082 152.633 107.185 152.971 107.271 153.313C106.143 154.465 103.913 156.082 101.248 157.608C98.5821 159.135 96.1469 160.191 94.7131 160.506C94.563 160.201 94.4261 159.881 94.304 159.547C94.2982 159.532 94.2924 159.516 94.2871 159.5C95.6472 159.305 98.1262 158.282 100.844 156.726C103.668 155.108 105.976 153.357 106.921 152.194Z" fill="white"/>
<path d="M94.7109 160.575C94.6894 160.575 94.6693 160.561 94.6583 160.54C94.5066 160.232 94.3682 159.907 94.246 159.574L94.2286 159.526C94.2218 159.506 94.2239 159.485 94.2334 159.467C94.2428 159.449 94.2586 159.437 94.2776 159.434C95.6819 159.232 98.1867 158.171 100.815 156.666C103.529 155.112 105.908 153.339 106.875 152.149C106.888 152.132 106.909 152.124 106.929 152.128C106.949 152.132 106.966 152.147 106.974 152.168L107.013 152.273C107.135 152.606 107.241 152.949 107.327 153.294C107.333 153.319 107.327 153.346 107.31 153.364C106.127 154.572 103.87 156.181 101.273 157.669C98.6748 159.157 96.2263 160.242 94.7225 160.573C94.7188 160.573 94.7152 160.574 94.7115 160.574L94.7109 160.575ZM94.3703 159.557C94.484 159.863 94.6077 160.154 94.7425 160.43C96.219 160.095 98.6932 158.994 101.219 157.548C103.748 156.099 106.034 154.472 107.201 153.291C107.117 152.964 107.017 152.639 106.902 152.325L106.899 152.317C105.886 153.517 103.538 155.259 100.869 156.788C98.2778 158.272 95.8009 159.326 94.3708 159.557H94.3703Z" fill="white"/>
<path d="M93.668 156.657L93.6901 156.07C94.6384 156.127 97.1158 155.126 99.7143 153.638C102.814 151.863 104.814 150.165 105.188 149.406L105.587 149.714C105.093 150.718 102.811 152.51 99.9096 154.172C97.2079 155.719 94.7 156.718 93.668 156.657Z" fill="white"/>
<path d="M93.7602 156.728C93.727 156.728 93.6949 156.727 93.6644 156.725C93.6317 156.723 93.6059 156.691 93.6075 156.654L93.6296 156.067C93.6296 156.049 93.6375 156.032 93.6491 156.019C93.6607 156.007 93.6775 156 93.6928 156.002C93.7181 156.003 93.7444 156.004 93.7712 156.004C94.7638 156.004 97.1659 155.021 99.6865 153.577C102.776 151.808 104.766 150.123 105.135 149.373C105.143 149.356 105.157 149.344 105.173 149.34C105.189 149.335 105.207 149.339 105.22 149.35L105.62 149.658C105.645 149.678 105.653 149.717 105.639 149.748C105.139 150.763 102.847 152.566 99.935 154.233C97.3044 155.74 94.8528 156.728 93.7591 156.728H93.7602ZM93.7302 156.591C93.7412 156.591 93.7523 156.591 93.7633 156.591C94.8375 156.591 97.2665 155.61 99.8818 154.112C102.723 152.485 104.964 150.739 105.506 149.735L105.206 149.504C104.753 150.3 102.768 151.965 99.7407 153.7C97.2048 155.152 94.7796 156.141 93.7681 156.141C93.7607 156.141 93.7544 156.141 93.747 156.141L93.7296 156.592L93.7302 156.591Z" fill="white"/>
<path d="M94.0008 153.691L93.9297 153.11C94.9954 152.906 96.842 152.101 98.7492 151.009C100.747 149.865 102.475 148.605 103.258 147.722L103.572 148.158C102.756 149.079 100.983 150.376 98.9445 151.543C97.001 152.657 95.1065 153.479 94.0008 153.692V153.691Z" fill="white"/>
<path d="M94.0018 153.759C93.9892 153.759 93.9765 153.754 93.9665 153.746C93.9533 153.735 93.9449 153.718 93.9428 153.7L93.8717 153.12C93.867 153.083 93.8891 153.049 93.9212 153.043C94.9817 152.84 96.822 152.037 98.7238 150.948C100.717 149.807 102.439 148.551 103.217 147.674C103.229 147.66 103.246 147.651 103.262 147.654C103.279 147.655 103.295 147.664 103.306 147.679L103.62 148.116C103.64 148.142 103.638 148.182 103.616 148.207C102.796 149.132 101.016 150.434 98.9729 151.604C97.0242 152.721 95.1233 153.546 94.0123 153.759C94.0092 153.759 94.0055 153.76 94.0023 153.76L94.0018 153.759ZM93.9981 153.166L94.0529 153.611C95.1607 153.382 97.0152 152.571 98.9187 151.481C100.92 150.335 102.664 149.065 103.492 148.153L103.254 147.822C102.447 148.707 100.742 149.944 98.7776 151.07C96.8999 152.146 95.078 152.944 93.9986 153.166L93.9981 153.166Z" fill="white"/>
<path d="M93.8574 158.249V157.662C94.9463 157.662 97.5059 156.615 100.227 155.057C103.081 153.421 105.475 151.588 106.048 150.598L106.428 150.942C105.803 152.023 103.389 153.891 100.422 155.591C97.6017 157.207 95.0248 158.25 93.8574 158.249V158.249Z" fill="white"/>
<path d="M93.8599 158.317C93.8441 158.316 93.8278 158.31 93.8162 158.297C93.8051 158.284 93.7988 158.267 93.7988 158.249V157.661C93.7988 157.623 93.8262 157.593 93.8594 157.593H93.8604C94.9409 157.593 97.4889 156.55 100.202 154.996C103.048 153.365 105.432 151.541 105.999 150.56C106.009 150.544 106.023 150.533 106.04 150.53C106.057 150.527 106.074 150.532 106.087 150.544L106.467 150.888C106.491 150.911 106.496 150.95 106.48 150.979C105.849 152.07 103.426 153.947 100.451 155.651C97.6231 157.27 95.0367 158.317 93.8599 158.317ZM93.9189 157.728V158.18C95.1041 158.147 97.631 157.114 100.396 155.53C103.308 153.863 105.683 152.036 106.349 150.956L106.062 150.697C105.424 151.708 103.061 153.511 100.255 155.118C97.5747 156.653 95.0473 157.693 93.9189 157.729V157.728Z" fill="white"/>
<path d="M98.3553 164.3L98.3463 164.155L98.291 164.024L98.3126 164.01L98.3374 164.008C99.2783 163.918 101.07 163.182 102.902 162.132C104.744 161.077 106.316 159.898 107.004 159.054L107.169 159.263C106.462 160.129 104.865 161.331 102.999 162.399C101.115 163.479 99.3357 164.207 98.3547 164.301L98.3553 164.3Z" fill="white"/>
<path d="M98.3564 164.369C98.3421 164.369 98.3279 164.363 98.3174 164.352C98.3053 164.34 98.2974 164.323 98.2963 164.305L98.2884 164.172L98.2384 164.054C98.2247 164.022 98.2353 163.983 98.2621 163.966L98.2837 163.951C98.2916 163.946 98.2995 163.943 98.3084 163.942L98.3332 163.94C99.2673 163.851 101.051 163.118 102.877 162.072C104.713 161.019 106.279 159.845 106.962 159.007C106.973 158.994 106.99 158.985 107.006 158.985C107.023 158.985 107.039 158.994 107.05 159.008L107.214 159.218C107.235 159.244 107.234 159.283 107.213 159.309C106.503 160.18 104.899 161.387 103.027 162.46C101.137 163.543 99.3489 164.274 98.3611 164.368C98.3595 164.368 98.3579 164.368 98.3558 164.368L98.3564 164.369ZM98.379 164.072L98.4016 164.125C98.4048 164.133 98.4069 164.141 98.4074 164.15L98.4122 164.227C99.3979 164.11 101.135 163.392 102.974 162.339C104.802 161.292 106.37 160.119 107.089 159.262L107.005 159.154C106.29 159.999 104.74 161.157 102.93 162.193C101.115 163.233 99.3357 163.967 98.379 164.072Z" fill="white"/>
<path d="M107.563 156.675C107.352 159.697 105.884 162.494 103.524 163.845C101.164 165.197 98.5148 164.758 96.5508 162.983C98.2557 162.436 100.225 161.558 102.263 160.391C104.3 159.224 106.118 157.933 107.563 156.675L107.563 156.675Z" fill="white"/>
<path d="M100.632 164.947C99.1289 164.947 97.6351 164.365 96.3777 163.228C96.2966 163.155 96.2587 163.037 96.2787 162.922C96.2992 162.806 96.3751 162.714 96.4746 162.682C98.2238 162.121 100.182 161.233 102.137 160.113C104.093 158.993 105.91 157.719 107.394 156.427C107.48 156.351 107.598 156.341 107.694 156.4C107.79 156.46 107.846 156.577 107.837 156.701C107.612 159.929 106.006 162.775 103.647 164.125C102.686 164.676 101.656 164.947 100.631 164.947H100.632ZM97.1638 163.105C99.042 164.533 101.385 164.72 103.399 163.566C105.413 162.413 106.835 160.076 107.213 157.364C105.807 158.526 104.151 159.662 102.387 160.672C100.598 161.697 98.8045 162.532 97.1638 163.105Z" fill="white"/>
<path d="M110.959 151.363C111.383 152.523 110.005 154.55 107.564 156.674C106.119 157.932 104.301 159.223 102.264 160.39C100.226 161.557 98.2566 162.435 96.5516 162.982C93.6719 163.905 91.5468 163.885 91.1229 162.725C90.738 161.671 91.8385 159.904 93.871 157.997C93.941 158.352 94.0295 158.705 94.1374 159.054C93.5756 159.634 93.2997 160.094 93.3971 160.36C93.4961 160.631 93.97 160.667 94.7119 160.504C96.1456 160.189 98.5809 159.133 101.246 157.606C103.912 156.08 106.142 154.463 107.27 153.311C107.853 152.714 108.141 152.242 108.042 151.971C107.945 151.705 107.487 151.666 106.769 151.818C106.629 151.488 106.473 151.173 106.304 150.875C108.785 150.196 110.573 150.309 110.958 151.363H110.959Z" fill="white"/>
<path d="M93.1236 163.702C92.0205 163.702 91.2991 163.383 91.068 162.75C90.6852 161.703 91.6935 159.951 93.8334 157.944C93.8492 157.929 93.8702 157.924 93.8913 157.932C93.9108 157.94 93.9255 157.958 93.9303 157.981C94.0003 158.337 94.0893 158.69 94.1946 159.031C94.2025 159.056 94.1962 159.085 94.1783 159.104C93.4364 159.87 93.4053 160.203 93.4532 160.333C93.5006 160.464 93.726 160.65 94.7011 160.437C96.1718 160.114 98.6702 159.006 101.22 157.545C103.769 156.085 106.072 154.442 107.231 153.26C108.003 152.47 108.036 152.13 107.988 151.997C107.942 151.869 107.723 151.685 106.781 151.884C106.755 151.89 106.727 151.875 106.716 151.847C106.579 151.525 106.424 151.21 106.255 150.911C106.244 150.892 106.242 150.869 106.249 150.849C106.257 150.829 106.272 150.813 106.291 150.808C108.908 150.092 110.63 150.284 111.015 151.337C111.435 152.487 110.159 154.502 107.601 156.728C106.101 158.033 104.265 159.32 102.291 160.451C100.317 161.581 98.3385 162.479 96.5688 163.047C95.2024 163.485 94.0335 163.702 93.1241 163.703L93.1236 163.702ZM93.835 158.119C91.7899 160.056 90.8221 161.722 91.1791 162.698C91.575 163.783 93.5785 163.864 96.5361 162.916C98.2985 162.351 100.27 161.457 102.238 160.33C104.205 159.203 106.034 157.92 107.528 156.62C110.04 154.435 111.302 152.479 110.904 151.389C110.549 150.416 108.909 150.246 106.401 150.919C106.548 151.184 106.683 151.46 106.804 151.743C107.558 151.589 107.994 151.657 108.099 151.946C108.207 152.241 107.942 152.718 107.311 153.363C106.129 154.571 103.872 156.18 101.275 157.668C98.6765 159.156 96.2281 160.241 94.7243 160.572C93.9171 160.749 93.4527 160.686 93.3426 160.386C93.2384 160.101 93.4827 159.646 94.0688 159.034C93.9782 158.736 93.8997 158.429 93.8355 158.12L93.835 158.119Z" fill="white"/>
<path d="M94.0932 158.912C94.1074 158.959 94.1217 159.006 94.1364 159.054C93.5746 159.634 93.2981 160.093 93.3956 160.359C93.4951 160.631 93.969 160.667 94.7109 160.504C95.6618 160.295 97.054 159.76 98.6621 158.977C98.6363 159.153 98.6363 159.319 98.6621 159.472C98.0413 159.764 97.4399 160.021 96.8692 160.241C94.3881 161.196 93.0944 161.182 92.9422 160.766C92.8532 160.523 93.1107 159.909 94.0932 158.912Z" fill="white"/>
<path d="M93.6966 161.1C93.2243 161.1 92.9568 160.984 92.8863 160.792C92.7615 160.451 93.1975 159.729 94.0526 158.861C94.0678 158.846 94.0884 158.84 94.1078 158.846C94.1273 158.852 94.1431 158.868 94.1494 158.891L94.1921 159.032C94.2 159.057 94.1937 159.086 94.1758 159.104C93.4333 159.871 93.4028 160.203 93.4502 160.333C93.4976 160.464 93.7229 160.651 94.6986 160.437C95.6517 160.228 97.0502 159.687 98.6372 158.915C98.6577 158.906 98.6809 158.909 98.6977 158.924C98.7151 158.94 98.7235 158.964 98.7199 158.989C98.6951 159.158 98.6951 159.316 98.7199 159.459C98.7251 159.491 98.7104 159.522 98.684 159.535C98.0664 159.826 97.4619 160.085 96.8875 160.306C95.4126 160.873 94.3548 161.101 93.6961 161.101L93.6966 161.1ZM94.0657 159.032C93.1601 159.966 92.9226 160.535 92.9979 160.74C93.1158 161.063 94.239 161.181 96.8496 160.176C97.4077 159.962 97.9943 159.711 98.5945 159.429C98.5803 159.321 98.5782 159.206 98.5882 159.086C97.0333 159.838 95.6633 160.363 94.7218 160.571C93.9151 160.748 93.4497 160.686 93.3396 160.385C93.2354 160.1 93.4802 159.645 94.0663 159.034V159.032L94.0657 159.032Z" fill="white"/>
<path d="M93.9068 158.489L93.9658 158.582C93.4608 159.073 93.0706 159.512 92.7773 159.898C92.9959 159.493 93.3718 159.026 93.9068 158.489Z" fill="white"/>
<path d="M92.7767 159.966C92.7646 159.966 92.752 159.962 92.7414 159.953C92.7162 159.932 92.7093 159.893 92.7256 159.862C92.9478 159.45 93.3206 158.985 93.8661 158.438C93.8788 158.425 93.8962 158.419 93.9125 158.421C93.9293 158.423 93.9446 158.433 93.9546 158.449L94.0141 158.542C94.0325 158.571 94.0283 158.611 94.0046 158.634C93.5276 159.097 93.1295 159.537 92.8225 159.942C92.8109 159.958 92.7941 159.966 92.7772 159.966H92.7767Z" fill="white"/>
<path d="M94.0243 158.674L93.9648 158.582C93.9733 158.573 93.9833 158.564 93.9933 158.555L94.0243 158.674V158.674Z" fill="white"/>
<path d="M94.0252 158.742C94.0063 158.742 93.9884 158.732 93.9768 158.714L93.9178 158.622C93.8999 158.594 93.9031 158.556 93.9252 158.532C93.9347 158.522 93.9463 158.511 93.9573 158.501C93.9726 158.487 93.9931 158.483 94.0126 158.489C94.0316 158.496 94.0463 158.513 94.0521 158.535L94.0832 158.655C94.0916 158.686 94.0784 158.72 94.0521 158.735C94.0437 158.74 94.0347 158.743 94.0258 158.743L94.0252 158.742Z" fill="white"/>
<path d="M92.7817 159.897C92.5521 160.319 92.4936 160.671 92.6 160.964C92.7042 161.247 92.948 161.407 93.2866 161.474C94.1686 161.649 95.6871 161.194 96.983 160.695C97.5695 160.47 98.1882 160.203 98.8269 159.903C98.9496 160.097 99.1318 160.249 99.3682 160.361C98.4252 160.812 97.51 161.193 96.6523 161.494C93.5957 162.564 92.2677 162.276 92.0592 161.705C91.9434 161.388 92.1108 160.78 92.7817 159.897Z" fill="white"/>
<path d="M93.336 162.287C92.5362 162.287 92.1207 162.055 92.0022 161.732C91.8569 161.333 92.117 160.666 92.7352 159.854C92.7557 159.827 92.791 159.823 92.8163 159.843C92.8416 159.864 92.8484 159.903 92.8321 159.934C92.613 160.336 92.5551 160.665 92.6546 160.938C92.7441 161.182 92.96 161.34 93.296 161.407C94.0094 161.549 95.2773 161.28 96.9628 160.631C97.541 160.408 98.1602 160.143 98.8031 159.841C98.8289 159.829 98.8589 159.839 98.8747 159.864C98.989 160.045 99.1627 160.19 99.3907 160.299C99.4128 160.31 99.4276 160.334 99.4276 160.362C99.4276 160.389 99.4134 160.414 99.3912 160.425C98.4456 160.877 97.5299 161.258 96.6701 161.56C95.1741 162.084 94.0868 162.287 93.337 162.287L93.336 162.287ZM92.5251 160.372C92.166 160.936 92.0138 161.408 92.1133 161.679C92.2734 162.118 93.4071 162.559 96.6332 161.429C97.4515 161.142 98.3208 160.782 99.218 160.358C99.0464 160.258 98.9079 160.134 98.8052 159.987C98.1755 160.282 97.5683 160.542 97.0007 160.76C95.8118 161.218 94.2006 161.724 93.2744 161.541C92.8953 161.465 92.6494 161.28 92.543 160.99C92.4761 160.807 92.4698 160.6 92.5246 160.372H92.5251Z" fill="white"/>
<path d="M102.139 160.462C100.146 161.594 98.2223 162.446 96.5521 162.982C93.673 163.905 91.5473 163.886 91.1229 162.725C90.738 161.671 91.839 159.904 93.8715 157.997C93.892 158.103 93.9152 158.208 93.9394 158.313L93.8236 158.123C92.6436 159.254 91.3193 160.827 91.7137 161.903C91.8659 162.32 92.2265 162.545 92.7031 162.639C93.8251 162.861 95.5864 162.361 96.7543 161.952C97.779 161.594 98.8847 161.12 100.019 160.555C100.584 160.645 101.304 160.612 102.139 160.462H102.139Z" fill="white"/>
<path d="M93.1239 163.703C92.0214 163.703 91.2995 163.384 91.0678 162.751C90.6855 161.704 91.6938 159.952 93.8337 157.944C93.8495 157.929 93.8706 157.925 93.8916 157.932C93.9111 157.94 93.9259 157.959 93.9306 157.982C93.9511 158.087 93.9743 158.191 93.998 158.296C94.0054 158.327 93.9912 158.361 93.9648 158.374C93.939 158.389 93.9074 158.379 93.8906 158.351L93.8127 158.223C92.6606 159.335 91.3948 160.854 91.7697 161.877C91.9024 162.24 92.2199 162.474 92.7138 162.572C93.8079 162.789 95.505 162.319 96.7371 161.887C97.7575 161.53 98.8543 161.061 99.9959 160.492C100.006 160.487 100.018 160.485 100.029 160.487C100.585 160.575 101.292 160.545 102.13 160.394C102.158 160.389 102.188 160.408 102.197 160.441C102.206 160.473 102.193 160.508 102.167 160.523C100.237 161.618 98.302 162.492 96.5696 163.047C95.2033 163.485 94.0349 163.703 93.125 163.703L93.1239 163.703ZM92.1693 159.937C91.2952 161.083 90.9409 162.045 91.1794 162.699C91.5754 163.784 93.5789 163.866 96.5365 162.917C98.1614 162.395 99.9669 161.594 101.778 160.59C101.096 160.687 100.509 160.7 100.029 160.626C98.888 161.193 97.7928 161.661 96.7724 162.019C95.5276 162.455 93.8106 162.928 92.6932 162.708C92.1561 162.601 91.8081 162.34 91.6586 161.931C91.4474 161.353 91.7054 160.646 92.1693 159.938V159.937Z" fill="white"/>
<path d="M98.8211 159.904C98.1829 160.203 97.5642 160.47 96.9771 160.696C95.6807 161.195 94.1627 161.649 93.2807 161.474C92.9427 161.407 92.6984 161.247 92.5941 160.964C92.4878 160.672 92.5467 160.319 92.7758 159.898C93.0691 159.512 93.4592 159.073 93.9642 158.582L94.0237 158.674C94.0453 158.753 94.0674 158.833 94.09 158.912C93.108 159.908 92.85 160.522 92.939 160.765C93.0912 161.182 94.3849 161.195 96.866 160.241C97.4368 160.021 98.0381 159.763 98.6589 159.471C98.6715 159.548 98.6905 159.62 98.7157 159.689C98.7437 159.765 98.7789 159.837 98.8211 159.903V159.904Z" fill="white"/>
<path d="M93.7105 161.58C93.552 161.58 93.404 161.567 93.2708 161.541C92.8917 161.465 92.6458 161.28 92.5394 160.99C92.4257 160.678 92.4884 160.298 92.7253 159.862C93.0423 159.443 93.4441 158.998 93.9258 158.53C93.9385 158.518 93.9553 158.512 93.9716 158.514C93.9885 158.516 94.0032 158.527 94.0132 158.541L94.0722 158.633C94.0759 158.639 94.0791 158.647 94.0812 158.654C94.1028 158.733 94.1249 158.811 94.147 158.89C94.1544 158.916 94.1475 158.944 94.1301 158.962C93.1692 159.938 92.918 160.529 92.9949 160.739C93.1129 161.062 94.236 161.18 96.8466 160.175C97.4179 159.956 98.0203 159.697 98.6358 159.408C98.6521 159.4 98.6716 159.401 98.6874 159.411C98.7032 159.421 98.7142 159.439 98.7179 159.458C98.73 159.531 98.7474 159.598 98.7716 159.663C98.798 159.735 98.8311 159.802 98.8701 159.863C98.8812 159.88 98.8843 159.901 98.8796 159.922C98.8743 159.941 98.8617 159.958 98.8448 159.966C98.1998 160.269 97.578 160.536 96.9977 160.76C95.9804 161.151 94.653 161.579 93.711 161.579L93.7105 161.58ZM93.9548 158.682C93.4993 159.128 93.1186 159.551 92.8222 159.942C92.6089 160.336 92.5505 160.664 92.6505 160.938C92.7401 161.182 92.9559 161.339 93.2919 161.406C94.0048 161.548 95.2727 161.28 96.9587 160.631C97.5169 160.416 98.1124 160.161 98.7311 159.872C98.7042 159.823 98.6811 159.771 98.6611 159.716C98.6432 159.667 98.6284 159.617 98.6168 159.565C98.0218 159.843 97.44 160.092 96.8861 160.305C94.3544 161.279 93.0528 161.251 92.8843 160.791C92.7611 160.454 93.186 159.745 94.0217 158.89C94.0043 158.828 93.9869 158.767 93.9701 158.705L93.9553 158.681L93.9548 158.682Z" fill="white"/>
<path d="M93.9658 158.582C93.4608 159.073 93.0706 159.512 92.7773 159.898C92.9959 159.493 93.3718 159.026 93.9068 158.489L93.9658 158.582Z" fill="white"/>
<path d="M92.7767 159.966C92.7646 159.966 92.752 159.962 92.7414 159.953C92.7162 159.932 92.7093 159.893 92.7256 159.862C92.9478 159.45 93.3206 158.985 93.8661 158.438C93.8788 158.425 93.8962 158.419 93.9125 158.421C93.9293 158.423 93.9446 158.433 93.9546 158.449L94.0141 158.542C94.0325 158.571 94.0283 158.611 94.0046 158.634C93.5276 159.097 93.1295 159.537 92.8225 159.942C92.8109 159.958 92.7941 159.966 92.7772 159.966H92.7767Z" fill="white"/>
<path d="M94.0234 158.676L94.1419 158.861C94.1245 158.878 94.1066 158.896 94.0898 158.913C94.0671 158.835 94.045 158.755 94.0234 158.676Z" fill="white"/>
<path d="M94.0892 158.982C94.084 158.982 94.0787 158.981 94.0739 158.98C94.0539 158.974 94.0381 158.957 94.0318 158.935C94.0092 158.855 93.9865 158.776 93.9655 158.696C93.9571 158.664 93.9697 158.63 93.996 158.615C94.0223 158.601 94.0545 158.609 94.0713 158.636L94.1898 158.821C94.2082 158.85 94.204 158.889 94.1808 158.912L94.1298 158.964C94.1187 158.975 94.104 158.981 94.0892 158.981V158.982Z" fill="white"/>
<path d="M105.901 155.587C104.657 156.562 103.157 157.561 101.562 158.474C100.635 159.005 99.711 159.488 98.8243 159.903C98.7816 159.837 98.7469 159.765 98.719 159.69C98.6937 159.62 98.6747 159.547 98.6621 159.472C99.5493 159.058 100.475 158.575 101.404 158.042C102.984 157.137 104.469 156.149 105.698 155.184C107.897 153.457 108.735 152.222 108.583 151.807C108.492 151.559 107.936 151.401 106.645 151.701L106.592 151.35L106.575 151.233C107.252 151.076 107.781 151.026 108.17 151.084C108.571 151.144 108.822 151.319 108.928 151.609C109.304 152.636 107.489 154.339 105.9 155.587H105.901Z" fill="white"/>
<path d="M98.8237 159.973C98.8048 159.973 98.7869 159.963 98.7753 159.945C98.7311 159.875 98.6932 159.799 98.6632 159.717C98.6363 159.644 98.6163 159.566 98.6026 159.485C98.5973 159.454 98.6126 159.422 98.6384 159.41C99.523 158.997 100.444 158.517 101.377 157.983C102.955 157.079 104.437 156.092 105.664 155.129C107.983 153.309 108.647 152.162 108.527 151.835C108.465 151.664 108.001 151.456 106.657 151.769C106.64 151.773 106.624 151.769 106.611 151.758C106.598 151.748 106.588 151.732 106.586 151.714L106.516 151.246C106.511 151.21 106.531 151.176 106.563 151.168C107.252 151.007 107.78 150.958 108.177 151.017C108.597 151.08 108.868 151.271 108.983 151.584C109.297 152.442 108.27 153.808 105.934 155.644C104.683 156.625 103.18 157.624 101.588 158.536C100.657 159.069 99.7341 159.551 98.8453 159.968C98.838 159.972 98.8301 159.973 98.8227 159.973L98.8237 159.973ZM98.7305 159.514C98.7416 159.567 98.7558 159.616 98.7737 159.665C98.7937 159.72 98.818 159.772 98.8459 159.821C99.7178 159.41 100.622 158.937 101.534 158.415C103.122 157.506 104.62 156.509 105.866 155.532C108.086 153.789 109.154 152.405 108.873 151.637C108.774 151.369 108.542 151.21 108.162 151.153C107.794 151.098 107.284 151.144 106.644 151.289L106.693 151.623C107.787 151.377 108.511 151.436 108.639 151.784C108.804 152.239 107.97 153.485 105.732 155.242C104.501 156.208 103.013 157.199 101.431 158.106C100.512 158.632 99.6036 159.106 98.7305 159.515V159.514Z" fill="white"/>
<path d="M100.019 160.556C98.8839 161.121 97.7787 161.595 96.754 161.953C95.5867 162.363 93.8248 162.862 92.7028 162.64C92.2263 162.546 91.8656 162.321 91.7134 161.904C91.3195 160.828 92.6438 159.255 93.8233 158.124L93.9391 158.314C93.9575 158.396 93.977 158.476 93.9976 158.557C93.9875 158.566 93.9781 158.575 93.9691 158.584L93.9101 158.491C93.3752 159.026 92.9992 159.495 92.7807 159.9C92.1094 160.782 91.9424 161.39 92.0583 161.707C92.2673 162.278 93.5953 162.566 96.6513 161.496C97.5086 161.196 98.4237 160.814 99.3673 160.363C99.5521 160.451 99.7701 160.516 100.019 160.556Z" fill="white"/>
<path d="M93.3269 162.763C93.1004 162.763 92.8872 162.745 92.6913 162.707C92.1542 162.6 91.8062 162.339 91.6567 161.93C91.2491 160.816 92.5886 159.216 93.7839 158.071C93.7971 158.058 93.8129 158.052 93.8308 158.055C93.8476 158.058 93.8624 158.069 93.8724 158.084L93.9882 158.274C93.9924 158.281 93.995 158.288 93.9972 158.296C94.0156 158.377 94.0345 158.457 94.0545 158.537C94.0614 158.563 94.0535 158.592 94.0345 158.609C94.0261 158.617 94.0177 158.625 94.0103 158.632C93.9982 158.645 93.9808 158.651 93.9635 158.651C93.9461 158.649 93.9303 158.639 93.9203 158.623L93.8997 158.591C93.3969 159.1 93.0378 159.551 92.8314 159.934C92.2559 160.692 91.9889 161.341 92.1132 161.68C92.2732 162.119 93.4069 162.56 96.633 161.43C97.4892 161.13 98.4012 160.75 99.3432 160.299C99.3579 160.292 99.3753 160.292 99.39 160.299C99.5685 160.385 99.7828 160.449 100.027 160.487C100.053 160.492 100.074 160.515 100.078 160.545C100.081 160.576 100.067 160.605 100.042 160.617C98.8961 161.188 97.7957 161.659 96.771 162.017C95.7437 162.377 94.3947 162.762 93.3269 162.762V162.763ZM93.8113 158.224C92.6592 159.336 91.3934 160.855 91.7683 161.878C91.901 162.241 92.2185 162.475 92.7124 162.573C93.8065 162.79 95.5036 162.32 96.7357 161.888C97.7014 161.55 98.7345 161.111 99.8107 160.583C99.6475 160.546 99.499 160.497 99.3674 160.436C98.4301 160.883 97.5224 161.261 96.6688 161.56C93.578 162.642 92.2311 162.358 92.0021 161.733C91.8567 161.334 92.1169 160.667 92.735 159.854C92.9514 159.451 93.3248 158.985 93.8697 158.439C93.8792 158.43 93.8903 158.424 93.9018 158.422C93.8955 158.395 93.8897 158.368 93.8834 158.342L93.8113 158.223V158.224Z" fill="white"/>
<path d="M93.9107 158.488L93.9697 158.581C93.4647 159.072 93.0745 159.511 92.7812 159.897C92.9998 159.492 93.3757 159.025 93.9107 158.488Z" fill="white"/>
<path d="M92.7806 159.965C92.7685 159.965 92.7559 159.961 92.7453 159.952C92.7201 159.931 92.7132 159.892 92.7295 159.861C92.9517 159.449 93.3245 158.984 93.87 158.437C93.8827 158.424 93.9001 158.418 93.9164 158.42C93.9332 158.422 93.9485 158.432 93.9585 158.448L94.018 158.541C94.0364 158.57 94.0322 158.61 94.0085 158.633C93.5315 159.096 93.1334 159.536 92.8264 159.941C92.8148 159.957 92.798 159.965 92.7812 159.965H92.7806Z" fill="white"/>
<path d="M93.9355 158.312L94.0503 158.5C94.0314 158.519 94.0124 158.537 93.994 158.555C93.9735 158.474 93.954 158.393 93.9355 158.312Z" fill="white"/>
<path d="M93.9947 158.623C93.9889 158.623 93.9831 158.622 93.9779 158.62C93.9579 158.613 93.9431 158.596 93.9373 158.573C93.9163 158.492 93.8968 158.411 93.8789 158.328C93.8715 158.297 93.8857 158.263 93.9121 158.249C93.9384 158.236 93.9695 158.245 93.9863 158.273L94.1011 158.461C94.1185 158.489 94.1143 158.528 94.0911 158.551L94.0342 158.607C94.0232 158.617 94.0095 158.623 93.9953 158.623L93.9947 158.623Z" fill="white"/>
<path d="M106.805 156.192C105.422 157.341 103.74 158.492 101.941 159.522C101.295 159.893 100.65 160.238 100.013 160.554C99.7647 160.514 99.5467 160.449 99.3613 160.361C100.155 159.983 100.969 159.556 101.783 159.089C103.564 158.07 105.228 156.93 106.596 155.795C109.241 153.599 109.935 152.153 109.727 151.582C109.611 151.265 109.136 151.026 108.167 151.083C107.741 151.108 107.218 151.191 106.589 151.349C106.554 151.358 106.519 151.367 106.484 151.376L106.407 150.911C107.861 150.532 109.678 150.307 110.072 151.383C110.583 152.782 108.245 154.995 106.805 156.191V156.192Z" fill="white"/>
<path d="M100.014 160.622C100.011 160.622 100.008 160.622 100.006 160.622C99.7519 160.581 99.5276 160.514 99.3391 160.424C99.317 160.413 99.3022 160.389 99.3027 160.361C99.3027 160.334 99.317 160.309 99.3396 160.299C100.134 159.92 100.948 159.493 101.758 159.029C103.534 158.012 105.195 156.875 106.561 155.741C109.36 153.417 109.834 152.05 109.673 151.608C109.55 151.274 108.987 151.104 108.171 151.151C107.723 151.178 107.196 151.267 106.603 151.417L106.499 151.444C106.482 151.448 106.466 151.444 106.452 151.434C106.438 151.424 106.429 151.408 106.426 151.39L106.349 150.925C106.343 150.889 106.364 150.854 106.395 150.846C107.871 150.461 109.719 150.238 110.129 151.359C110.655 152.8 108.296 155.04 106.842 156.248C105.456 157.398 103.772 158.552 101.969 159.584C101.33 159.951 100.681 160.299 100.038 160.617C100.03 160.621 100.023 160.623 100.014 160.623V160.622ZM99.5239 160.358C99.6671 160.412 99.8282 160.454 100.006 160.484C100.641 160.168 101.283 159.824 101.915 159.461C103.712 158.432 105.391 157.283 106.771 156.136C108.196 154.952 110.513 152.765 110.017 151.409C109.645 150.389 107.9 150.598 106.478 150.962L106.533 151.294L106.577 151.282C107.176 151.131 107.71 151.041 108.164 151.014C109.372 150.943 109.698 151.322 109.783 151.555C110.01 152.177 109.301 153.632 106.632 155.849C105.26 156.988 103.593 158.129 101.811 159.149C101.046 159.588 100.277 159.993 99.5239 160.356V160.358Z" fill="white"/>
<path d="M110.957 151.365C111.381 152.525 110.003 154.551 107.562 156.676C106.117 157.934 104.299 159.225 102.262 160.392C100.224 161.559 98.2546 162.437 96.5497 162.984C93.67 163.907 91.5448 163.887 91.121 162.727C90.7361 161.673 91.8366 159.906 93.869 157.999C93.939 158.354 94.0275 158.707 94.1354 159.056C93.5736 159.636 93.2977 160.095 93.3951 160.362C93.4941 160.633 93.968 160.669 94.7099 160.506C96.1437 160.191 98.579 159.135 101.244 157.608C103.91 156.082 106.14 154.465 107.268 153.313C107.851 152.716 108.139 152.244 108.04 151.973C107.943 151.707 107.485 151.668 106.767 151.82C106.627 151.49 106.471 151.175 106.302 150.877C108.783 150.198 110.571 150.311 110.956 151.365H110.957Z" fill="white"/>
<path d="M93.1257 163.95C91.9193 163.95 91.1343 163.579 90.8657 162.845C90.2886 161.266 92.3895 158.979 93.6933 157.756C93.7675 157.686 93.8686 157.665 93.9587 157.701C94.0497 157.736 94.1177 157.823 94.1387 157.929C94.2067 158.276 94.2935 158.619 94.3962 158.951C94.4331 159.07 94.4036 159.202 94.3214 159.287C93.6596 159.97 93.6517 160.226 93.6522 160.247C93.6575 160.25 93.7207 160.291 93.9486 160.291C94.1019 160.291 94.3278 160.27 94.6574 160.197C96.1101 159.878 98.5865 158.779 101.12 157.328C103.653 155.877 105.939 154.248 107.083 153.079C107.775 152.372 107.784 152.109 107.784 152.087C107.776 152.093 107.715 152.042 107.487 152.042C107.341 152.042 107.126 152.062 106.818 152.128C106.695 152.154 106.573 152.083 106.519 151.956C106.386 151.643 106.235 151.336 106.07 151.045C106.022 150.96 106.013 150.853 106.047 150.759C106.08 150.665 106.151 150.595 106.238 150.571C109.009 149.812 110.777 150.051 111.212 151.244C111.679 152.521 110.41 154.591 107.73 156.923C106.22 158.238 104.372 159.534 102.387 160.671C100.4 161.809 98.408 162.712 96.6251 163.284C95.2382 163.729 94.0566 163.949 93.1257 163.949V163.95ZM93.7096 158.562C91.9709 160.271 91.0821 161.8 91.3765 162.605C91.7161 163.535 93.717 163.565 96.475 162.681C98.2242 162.12 100.182 161.231 102.137 160.111C104.093 158.992 105.911 157.717 107.394 156.426C109.751 154.375 111.049 152.435 110.701 151.484C110.412 150.693 108.908 150.547 106.737 151.084C106.802 151.211 106.864 151.34 106.923 151.471C107.47 151.374 108.114 151.354 108.296 151.852C108.447 152.264 108.179 152.803 107.453 153.545C106.257 154.767 103.982 156.391 101.369 157.887C98.7544 159.385 96.2844 160.479 94.7622 160.813C94.1651 160.943 93.3479 161.051 93.1393 160.48C93.0003 160.101 93.2157 159.616 93.8165 158.963C93.7781 158.83 93.7422 158.696 93.7091 158.561L93.7096 158.562Z" fill="white"/>
<g opacity="0.41">
<path d="M107.269 153.341C107.138 153.476 106.992 153.615 106.831 153.762C106.765 153.533 106.692 153.305 106.609 153.081C106.596 153.046 106.584 153.012 106.571 152.977C106.523 152.85 106.473 152.725 106.42 152.603C106.28 152.272 106.125 151.957 105.956 151.659C105.936 151.623 105.915 151.588 105.894 151.552C105.637 151.112 105.351 150.708 105.039 150.343C104.457 149.662 103.79 149.116 103.071 148.723C101.319 147.764 99.2616 147.708 97.3871 148.782C96.1355 149.499 95.135 150.623 94.4395 151.971C95.1282 150.29 96.256 148.876 97.7346 148.029C99.6096 146.955 101.667 147.011 103.418 147.97C104.137 148.363 104.804 148.909 105.386 149.591C105.698 149.955 105.984 150.359 106.241 150.799C106.262 150.834 106.283 150.87 106.303 150.906C106.472 151.204 106.627 151.519 106.767 151.849C106.82 151.972 106.87 152.097 106.918 152.224C106.931 152.259 106.944 152.293 106.956 152.328C107.079 152.662 107.182 153.001 107.268 153.342L107.269 153.341Z" fill="white"/>
<path d="M106.831 153.829C106.826 153.829 106.82 153.828 106.814 153.826C106.795 153.82 106.78 153.804 106.774 153.782C106.709 153.556 106.635 153.328 106.554 153.106L106.519 153.012C106.468 152.876 106.419 152.752 106.366 152.631C106.23 152.31 106.075 151.995 105.905 151.695L105.844 151.589C105.592 151.158 105.306 150.755 104.995 150.39C104.421 149.719 103.765 149.178 103.044 148.785C101.247 147.801 99.1948 147.822 97.4135 148.843C96.2141 149.53 95.2036 150.623 94.4907 152.005C94.4744 152.036 94.4385 152.047 94.4112 152.03C94.3827 152.014 94.3712 151.974 94.3843 151.941C95.1094 150.172 96.2583 148.798 97.7073 147.968C99.5229 146.928 101.614 146.906 103.444 147.908C104.179 148.31 104.847 148.86 105.429 149.542C105.746 149.914 106.036 150.324 106.291 150.76C106.312 150.795 106.333 150.832 106.353 150.868C106.524 151.171 106.682 151.491 106.821 151.818C106.874 151.942 106.925 152.068 106.973 152.195C106.986 152.23 107 152.265 107.012 152.302C107.133 152.63 107.238 152.973 107.326 153.322C107.333 153.347 107.326 153.374 107.309 153.391C107.176 153.526 107.028 153.669 106.869 153.814C106.858 153.823 106.844 153.829 106.831 153.829V153.829ZM100.281 147.925C101.24 147.925 102.2 148.17 103.097 148.661C103.83 149.062 104.498 149.612 105.082 150.295C105.399 150.665 105.689 151.075 105.945 151.513L106.007 151.621C106.179 151.926 106.336 152.246 106.475 152.572C106.527 152.695 106.578 152.821 106.626 152.949L106.665 153.053C106.737 153.248 106.802 153.447 106.861 153.646C106.982 153.534 107.096 153.424 107.201 153.318C107.117 152.989 107.016 152.665 106.902 152.352C106.89 152.317 106.877 152.282 106.863 152.249C106.816 152.123 106.766 151.999 106.714 151.877C106.577 151.554 106.422 151.239 106.254 150.941C106.234 150.906 106.214 150.87 106.193 150.835C105.941 150.405 105.656 150.002 105.344 149.637C104.771 148.965 104.115 148.425 103.392 148.03C101.596 147.047 99.5439 147.068 97.7621 148.089C96.6869 148.705 95.7786 149.627 95.0915 150.791C95.7244 149.922 96.4937 149.218 97.3603 148.721C98.286 148.19 99.2833 147.925 100.282 147.925L100.281 147.925Z" fill="white"/>
</g>
<path d="M106.956 152.298C107.078 152.632 107.182 152.97 107.268 153.312C106.14 154.464 103.909 156.081 101.244 157.607C98.5786 159.134 96.1433 160.189 94.7096 160.505C94.5595 160.2 94.4226 159.88 94.3004 159.546C94.2409 159.383 94.1856 159.22 94.1351 159.054C94.0272 158.705 93.9387 158.352 93.8687 157.997C93.0846 154.013 94.6443 149.768 97.7335 147.999C100.823 146.229 104.407 147.528 106.303 150.875C106.472 151.174 106.627 151.488 106.767 151.819C106.834 151.975 106.897 152.134 106.956 152.297L106.956 152.298Z" fill="white"/>
<path d="M94.7091 160.819C94.6101 160.819 94.5175 160.758 94.468 160.658C94.3121 160.342 94.1699 160.009 94.0446 159.667C93.983 159.498 93.9261 159.328 93.8735 159.158C93.764 158.804 93.6713 158.436 93.5986 158.065C92.7741 153.874 94.4601 149.523 97.6088 147.72C100.774 145.905 104.529 147.163 106.535 150.707C106.711 151.019 106.873 151.347 107.016 151.684C107.085 151.844 107.15 152.01 107.211 152.178C107.336 152.519 107.445 152.871 107.534 153.226C107.563 153.341 107.531 153.464 107.453 153.545C106.256 154.766 103.982 156.39 101.368 157.887C98.754 159.385 96.284 160.478 94.7618 160.812C94.7444 160.816 94.727 160.818 94.7091 160.818V160.819ZM100.623 147.525C99.6908 147.525 98.7488 147.769 97.8579 148.28C94.9324 149.956 93.368 154.014 94.1383 157.93C94.2063 158.276 94.2931 158.62 94.3958 158.952C94.4448 159.112 94.4985 159.27 94.5559 159.428C94.6465 159.675 94.7465 159.917 94.8544 160.152C96.3277 159.782 98.6977 158.716 101.119 157.329C103.56 155.93 105.77 154.368 106.952 153.21C106.879 152.943 106.795 152.677 106.7 152.419C106.643 152.261 106.582 152.107 106.518 151.957C106.385 151.644 106.234 151.337 106.069 151.046C104.786 148.779 102.732 147.525 100.623 147.525Z" fill="white"/>
<path d="M106.393 152.643C106.503 152.945 106.597 153.251 106.674 153.56C105.654 154.602 103.636 156.065 101.225 157.446C98.8136 158.828 96.61 159.782 95.3132 160.067C95.1773 159.792 95.0536 159.502 94.943 159.2C94.9377 159.186 94.9325 159.172 94.9277 159.158C94.8793 159.025 94.835 158.89 94.7935 158.755C94.696 158.439 94.6155 158.12 94.5523 157.798C94.5497 157.785 94.547 157.772 94.5449 157.759C94.4528 157.281 94.398 156.8 94.3791 156.32C94.3422 155.407 94.4338 154.5 94.6418 153.64C95.1468 151.551 96.3389 149.733 98.0491 148.754C99.7451 147.782 101.606 147.833 103.191 148.7C103.841 149.055 104.445 149.549 104.972 150.166C105.253 150.496 105.513 150.861 105.746 151.259C105.765 151.291 105.783 151.323 105.801 151.356C105.954 151.626 106.095 151.91 106.222 152.209C106.269 152.32 106.314 152.433 106.357 152.548C106.37 152.579 106.381 152.61 106.393 152.642V152.643Z" fill="#FFB200"/>
<path d="M106.94 156.603C106.917 156.924 106.879 157.243 106.826 157.557C106.751 157.998 106.646 158.431 106.512 158.849C105.933 160.663 104.817 162.212 103.286 163.089C101.751 163.968 100.082 164.01 98.6041 163.368C98.2798 163.228 97.9644 163.054 97.6621 162.848C97.4252 162.688 97.1961 162.507 96.9766 162.309C98.5188 161.815 100.301 161.021 102.144 159.965C103.987 158.909 105.632 157.74 106.939 156.603H106.94Z" fill="#FF9100"/>
<path d="M106.675 153.56C105.655 154.602 103.637 156.065 101.226 157.446C98.814 158.827 96.6109 159.782 95.3135 160.068C95.1776 159.792 95.0539 159.503 94.9433 159.201C94.9381 159.186 94.9333 159.172 94.9281 159.158C94.8801 159.024 94.8354 158.891 94.7938 158.756C94.6964 158.44 94.6163 158.121 94.5526 157.799C94.55 157.786 94.5474 157.773 94.5453 157.76C94.4531 157.282 94.3983 156.801 94.3789 156.321C94.3425 155.408 94.4342 154.502 94.6421 153.64C95.0507 151.951 95.908 150.439 97.1264 149.404C96.8094 150.022 96.563 150.691 96.394 151.391C96.1854 152.251 96.0943 153.157 96.1307 154.071C96.1496 154.551 96.2044 155.033 96.2965 155.51C96.2992 155.523 96.3018 155.536 96.3044 155.549C96.3076 155.566 96.3123 155.587 96.3187 155.612C96.6398 156.967 97.804 157.534 98.9277 157.406C101.07 157.163 105.707 154.024 106.694 153.3C106.762 153.508 106.622 153.349 106.675 153.56V153.56Z" fill="#FF9100"/>
<path d="M102.144 159.965C103.987 158.909 105.632 157.74 106.939 156.603C106.917 156.924 106.879 157.243 106.825 157.557C105.819 158.48 104.211 159.622 102.337 160.695C100.542 161.723 98.8684 162.479 97.6621 162.848C97.4252 162.688 97.1961 162.507 96.9766 162.309C98.5188 161.815 100.301 161.021 102.144 159.965Z" fill="#D66B09"/>
<path d="M106.357 152.549C106.37 152.58 106.381 152.612 106.393 152.643C106.503 152.945 106.597 153.252 106.674 153.561C105.654 154.603 103.636 156.065 101.225 157.447C98.8136 158.828 96.61 159.783 95.3132 160.068C95.1773 159.793 95.0536 159.503 94.943 159.201C94.9377 159.186 94.9325 159.173 94.9277 159.158C96.1577 158.982 98.4008 158.056 100.859 156.649C103.415 155.185 105.502 153.601 106.357 152.549H106.357Z" fill="#D66B09"/>
<path d="M94.3691 156.588L94.3891 156.057C95.2474 156.108 97.4884 155.203 99.8389 153.857C102.643 152.25 104.453 150.715 104.791 150.028L105.152 150.307C104.705 151.216 102.641 152.836 100.016 154.34C97.5716 155.74 95.3027 156.643 94.3691 156.587V156.588Z" fill="#D66B09"/>
<path d="M94.6736 153.903L94.6094 153.378C95.5735 153.194 97.2442 152.465 98.9692 151.477C100.777 150.442 102.34 149.302 103.048 148.503L103.333 148.898C102.594 149.73 100.99 150.904 99.1461 151.96C97.388 152.967 95.6741 153.712 94.6736 153.904V153.903Z" fill="#D66B09"/>
<path d="M94.5449 158.027V157.495C95.5296 157.496 97.8453 156.549 100.307 155.139C102.89 153.659 105.055 152.001 105.573 151.104L105.917 151.416C105.352 152.394 103.168 154.085 100.484 155.622C97.9327 157.083 95.6012 158.028 94.5454 158.027H94.5449Z" fill="#D66B09"/>
<path d="M98.6126 163.501L98.6047 163.369L98.5547 163.252L98.5742 163.238L98.5963 163.236C99.4472 163.155 101.068 162.489 102.726 161.539C104.392 160.585 105.815 159.517 106.438 158.754L106.586 158.944C105.947 159.727 104.502 160.814 102.814 161.781C101.11 162.757 99.5004 163.416 98.6126 163.501Z" fill="#D66B09"/>
<path d="M100.671 164.116C99.3055 164.116 97.9481 163.588 96.806 162.555L96.3848 162.175L96.9029 162.009C98.4836 161.502 100.254 160.699 102.021 159.687C103.789 158.674 105.432 157.522 106.772 156.356L107.265 155.927L107.216 156.629C107.012 159.56 105.553 162.144 103.412 163.371C102.538 163.871 101.603 164.117 100.671 164.117L100.671 164.116ZM97.5942 162.43C99.2781 163.684 101.365 163.84 103.163 162.81C104.959 161.782 106.233 159.707 106.588 157.293C105.326 158.33 103.846 159.343 102.27 160.246C100.67 161.163 99.0659 161.911 97.5942 162.43Z" fill="#371A45"/>
<path d="M110.012 151.799C110.395 152.849 109.149 154.683 106.941 156.604C105.633 157.741 103.988 158.91 102.146 159.966C100.302 161.022 98.5203 161.816 96.9781 162.31C94.3732 163.146 92.4503 163.128 92.067 162.078C91.7184 161.124 92.7141 159.525 94.5533 157.801C94.6165 158.122 94.6965 158.441 94.7945 158.757C94.2864 159.282 94.0368 159.698 94.1247 159.939C94.2142 160.185 94.6428 160.217 95.3142 160.069C96.6111 159.785 98.8146 158.829 101.226 157.448C103.637 156.067 105.655 154.605 106.675 153.562C107.203 153.023 107.464 152.596 107.374 152.35C107.286 152.109 106.872 152.073 106.222 152.212C106.095 151.913 105.955 151.628 105.802 151.358C108.047 150.744 109.664 150.847 110.012 151.8L110.012 151.799Z" fill="#FFD766"/>
<path d="M94.7536 158.628C94.7663 158.671 94.7794 158.713 94.7926 158.756C94.2839 159.281 94.0344 159.696 94.1223 159.938C94.2123 160.184 94.6415 160.216 95.3123 160.068C96.1727 159.88 97.4322 159.395 98.8865 158.688C98.8633 158.847 98.8633 158.997 98.8865 159.135C98.3252 159.399 97.7807 159.632 97.2647 159.831C95.0201 160.694 93.8501 160.682 93.7121 160.306C93.6316 160.086 93.8648 159.53 94.7531 158.629L94.7536 158.628Z" fill="#FFAA39"/>
<path d="M94.5879 158.246L94.6416 158.33C94.1846 158.774 93.8318 159.171 93.5664 159.521C93.7644 159.154 94.104 158.731 94.5879 158.246Z" fill="#FF9100"/>
<path d="M94.6943 158.413L94.6406 158.329C94.6485 158.321 94.6575 158.313 94.6659 158.305L94.6938 158.413H94.6943Z" fill="#FF9100"/>
<path d="M93.5649 159.52C93.3575 159.901 93.3043 160.22 93.4007 160.484C93.4949 160.741 93.7155 160.885 94.022 160.945C94.8202 161.104 96.1935 160.693 97.3661 160.241C97.8968 160.037 98.4565 159.796 99.0342 159.525C99.1453 159.7 99.3101 159.837 99.5239 159.938C98.6703 160.346 97.8426 160.691 97.067 160.963C94.3016 161.931 93.1005 161.672 92.9115 161.154C92.8067 160.868 92.9578 160.318 93.5655 159.519L93.5649 159.52Z" fill="#FFAA39"/>
<path d="M102.031 160.03C100.228 161.054 98.4876 161.825 96.9764 162.309C94.3716 163.145 92.4487 163.127 92.0648 162.077C91.7168 161.123 92.713 159.525 94.5517 157.8C94.5706 157.895 94.5912 157.99 94.6128 158.086L94.508 157.914C93.4407 158.938 92.2428 160.361 92.5993 161.335C92.7367 161.712 93.0631 161.915 93.4944 162.001C94.5096 162.201 96.1029 161.749 97.1591 161.379C98.0859 161.055 99.0863 160.626 100.113 160.115C100.624 160.196 101.275 160.166 102.031 160.031V160.03Z" fill="#FFAA39"/>
<path d="M99.0334 159.525C98.4558 159.796 97.8961 160.038 97.3653 160.242C96.1927 160.693 94.8195 161.104 94.0212 160.946C93.7153 160.885 93.4942 160.741 93.3999 160.485C93.3036 160.221 93.3567 159.901 93.5642 159.52C93.8296 159.171 94.1824 158.774 94.6394 158.33L94.6931 158.414C94.7126 158.486 94.7326 158.557 94.7531 158.629C93.8643 159.53 93.6316 160.086 93.7122 160.306C93.8496 160.683 95.0201 160.694 97.2648 159.831C97.7808 159.632 98.3252 159.399 98.8865 159.135C98.8976 159.204 98.915 159.27 98.9376 159.333C98.9629 159.401 98.9945 159.466 99.0329 159.526L99.0334 159.525Z" fill="#FFCF6E"/>
<path d="M94.6397 158.329C94.1826 158.773 93.8298 159.17 93.5645 159.52C93.7624 159.153 94.1021 158.73 94.5859 158.245L94.6397 158.329Z" fill="#FFEC90"/>
<path d="M94.6934 158.412L94.8008 158.58C94.785 158.595 94.7687 158.612 94.7534 158.628C94.7328 158.556 94.7128 158.485 94.6934 158.413V158.412Z" fill="#FFEC90"/>
<path d="M105.435 155.619C104.31 156.501 102.953 157.405 101.51 158.231C100.671 158.712 99.835 159.148 99.0331 159.524C98.9947 159.465 98.9631 159.4 98.9378 159.331C98.9146 159.268 98.8978 159.203 98.8867 159.133C99.6892 158.759 100.527 158.322 101.368 157.84C102.797 157.021 104.141 156.127 105.253 155.254C107.242 153.692 108 152.575 107.863 152.199C107.781 151.975 107.277 151.832 106.109 152.103L106.062 151.786L106.046 151.68C106.658 151.537 107.138 151.492 107.489 151.544C107.852 151.599 108.079 151.758 108.175 152.02C108.515 152.949 106.872 154.49 105.436 155.618L105.435 155.619Z" fill="#FFEC90"/>
<path d="M100.115 160.113C99.0883 160.624 98.0878 161.053 97.1611 161.378C96.1049 161.747 94.5115 162.199 93.4964 161.999C93.0651 161.914 92.7392 161.71 92.6012 161.333C92.2448 160.36 93.4427 158.936 94.51 157.913L94.6147 158.084C94.6316 158.159 94.649 158.231 94.6674 158.304C94.6584 158.313 94.6495 158.32 94.6421 158.329L94.5884 158.245C94.1045 158.729 93.7644 159.152 93.5669 159.519C92.9598 160.318 92.8082 160.868 92.9129 161.155C93.102 161.671 94.303 161.932 97.0684 160.964C97.844 160.692 98.6718 160.347 99.5253 159.939C99.6927 160.019 99.8902 160.077 100.115 160.113Z" fill="#FFCF6E"/>
<path d="M94.5899 158.246L94.6436 158.33C94.1865 158.774 93.8337 159.171 93.5684 159.521C93.7663 159.154 94.106 158.731 94.5899 158.246Z" fill="#FFAA39"/>
<path d="M94.6133 158.086L94.717 158.256C94.6996 158.273 94.6823 158.29 94.6659 158.306C94.6475 158.233 94.6301 158.16 94.6133 158.086Z" fill="#FFEC90"/>
<path d="M106.261 156.167C105.01 157.206 103.489 158.249 101.861 159.181C101.277 159.516 100.693 159.828 100.117 160.114C99.8922 160.078 99.6948 160.02 99.5273 159.94C100.245 159.598 100.982 159.211 101.718 158.79C103.33 157.867 104.834 156.836 106.071 155.81C108.464 153.823 109.093 152.514 108.904 151.998C108.799 151.712 108.369 151.495 107.492 151.547C107.107 151.57 106.635 151.645 106.065 151.788C106.034 151.797 106.002 151.805 105.97 151.813L105.901 151.392C107.216 151.049 108.86 150.846 109.216 151.819C109.678 153.085 107.563 155.087 106.26 156.168L106.261 156.167Z" fill="#FFEC90"/>
<path d="M93.8826 163.214C92.7779 163.214 92.0582 162.873 91.8112 162.197C91.2826 160.75 93.1918 158.67 94.3765 157.558L94.7241 157.232L94.8225 157.731C94.8836 158.042 94.9615 158.352 95.0542 158.652L95.1148 158.848L94.98 158.988C94.495 159.489 94.4039 159.732 94.3871 159.807C94.4487 159.834 94.664 159.891 95.2617 159.76C96.5738 159.472 98.8116 158.478 101.101 157.167C103.391 155.855 105.456 154.384 106.49 153.328C106.999 152.808 107.094 152.556 107.111 152.48C107.05 152.453 106.842 152.398 106.273 152.518L106.065 152.563L105.974 152.346C105.854 152.063 105.718 151.787 105.569 151.526L105.36 151.155L105.737 151.052C108.26 150.362 109.868 150.584 110.268 151.678C110.695 152.848 109.544 154.734 107.109 156.851C105.742 158.041 104.069 159.215 102.271 160.245C100.472 161.275 98.6689 162.093 97.054 162.611C95.7993 163.013 94.7288 163.213 93.8837 163.213L93.8826 163.214ZM94.3939 158.363C92.8501 159.888 92.0613 161.245 92.3214 161.957C92.6237 162.784 94.4218 162.803 96.9024 162.008C98.4831 161.501 100.253 160.697 102.02 159.685C103.789 158.672 105.432 157.52 106.772 156.354C108.894 154.507 110.065 152.766 109.756 151.918C109.501 151.22 108.166 151.092 106.235 151.565C106.284 151.663 106.331 151.762 106.377 151.862C106.878 151.776 107.459 151.765 107.629 152.228C107.772 152.62 107.534 153.103 106.86 153.793C105.775 154.9 103.716 156.371 101.35 157.726C98.9822 159.081 96.7455 160.072 95.3659 160.375C94.8173 160.496 94.0648 160.594 93.8684 160.057C93.7368 159.698 93.9242 159.264 94.475 158.664C94.4466 158.565 94.4197 158.464 94.3939 158.363V158.363Z" fill="#371A45"/>
<g opacity="0.41">
<path d="M106.674 153.589C106.555 153.71 106.424 153.837 106.279 153.97C106.219 153.762 106.152 153.557 106.078 153.353C106.066 153.322 106.054 153.29 106.043 153.259C105.999 153.144 105.954 153.031 105.907 152.92C105.78 152.621 105.639 152.336 105.487 152.066C105.468 152.034 105.45 152.002 105.431 151.969C105.198 151.571 104.938 151.206 104.657 150.876C104.13 150.26 103.527 149.766 102.876 149.41C101.292 148.543 99.4308 148.492 97.7348 149.464C96.6027 150.113 95.6971 151.129 95.0684 152.349C95.6913 150.828 96.7117 149.549 98.0497 148.783C99.7457 147.812 101.607 147.862 103.191 148.729C103.842 149.085 104.446 149.578 104.972 150.195C105.253 150.525 105.513 150.89 105.746 151.288C105.765 151.32 105.783 151.352 105.801 151.385C105.954 151.655 106.095 151.939 106.222 152.238C106.269 152.349 106.314 152.462 106.357 152.577C106.37 152.608 106.381 152.639 106.393 152.671C106.503 152.973 106.597 153.28 106.675 153.588L106.674 153.589Z" fill="white"/>
</g>
<path d="M95.1698 160.419L95.0719 160.221C94.9308 159.935 94.8018 159.632 94.6875 159.321C94.6317 159.168 94.5801 159.014 94.5322 158.859C94.4327 158.536 94.3484 158.202 94.2826 157.868C93.5339 154.063 95.0651 150.112 97.9242 148.475C100.801 146.828 104.212 147.968 106.034 151.187C106.194 151.471 106.34 151.769 106.471 152.074C106.533 152.221 106.592 152.37 106.648 152.523C106.761 152.832 106.86 153.152 106.941 153.475L106.988 153.663L106.86 153.794C105.776 154.901 103.716 156.371 101.35 157.726C98.9826 159.082 96.7458 160.073 95.3662 160.376L95.1704 160.419H95.1698ZM100.663 148.354C99.824 148.354 98.9757 148.575 98.1733 149.034C95.5368 150.544 94.1273 154.202 94.8223 157.731C94.8834 158.041 94.9613 158.351 95.054 158.652C95.0982 158.795 95.1467 158.938 95.1983 159.08C95.2773 159.297 95.3647 159.509 95.4584 159.713C96.7906 159.374 98.922 158.414 101.1 157.166C103.297 155.908 105.287 154.503 106.358 153.458C106.294 153.222 106.219 152.989 106.137 152.763C106.085 152.621 106.03 152.482 105.972 152.347C105.852 152.064 105.717 151.787 105.568 151.525C104.412 149.484 102.562 148.354 100.663 148.354Z" fill="#371A45"/>
</svg>
