<svg width="537" height="400" viewBox="0 0 537 400" fill="none" xmlns="http://www.w3.org/2000/svg">
<path d="M534.515 292.19C507.231 414.369 243.78 411.15 130.86 385.934C-129.547 327.782 59.7764 9.83488 175.441 0.273882C278.051 -8.208 559.047 182.329 534.515 292.19Z" fill="#CDB4DB"/>
<g opacity="0.3">
<path d="M357.278 86.5792C357.033 81.6484 354.394 77.1303 350.217 74.4934L345.226 71.3424C341.78 58.3955 334.732 46.6676 324.637 37.3718C310.628 24.4737 292.438 17.8038 273.412 18.5873C241.717 19.8939 215.654 41.8164 207.624 70.8701L203.123 73.7655C198.969 76.4382 196.369 80.9782 196.167 85.911C195.9 92.3999 196.413 100.349 197.54 107.174C198.484 112.897 202.512 117.511 208.054 119.217L211.976 120.425C215.823 128.486 221.134 135.697 227.551 141.729C226.897 141.795 226.243 141.854 225.588 141.922C219.378 142.578 214.707 147.774 214.723 154.009L214.752 165.995C209.263 173.353 204.959 182.618 204.975 193.584C204.99 203.181 208.407 210.666 214.878 215.339L214.904 225.43C214.916 230.184 217.691 234.294 221.696 236.266C222.793 246.353 225.849 258.129 233.602 265.605C239.065 270.872 247.229 276.591 255.476 281.772C254.145 286.788 250.149 303.263 250.812 318.052C251.052 323.397 255.416 327.584 260.748 327.584H291.778C293.951 327.584 295.94 326.616 297.27 324.991C300.824 326.585 305.086 327.455 310.028 327.581C310.11 327.583 310.19 327.584 310.271 327.584C312.692 327.584 314.978 326.652 316.73 324.945C318.564 323.156 319.575 320.76 319.575 318.197V272.2C319.575 267.727 317.44 263.455 313.861 260.772L312.713 259.911C313.22 256.564 314.605 247.035 315.469 237.495C321.724 237.246 326.784 232.283 327.083 225.975L327.29 221.592C329.078 220.913 330.77 220.053 332.338 218.987C339.523 214.102 343.212 205.542 342.728 194.884C342.222 183.755 337.505 172.221 330.09 162.608L330.476 154.488C330.71 149.563 327.942 145.154 323.751 143.067C325.5 141.505 327.181 139.848 328.79 138.101C333.368 133.13 337.157 127.628 340.111 121.752L345.674 119.987C351.2 118.234 355.19 113.585 356.086 107.854C357.153 101.023 357.598 93.069 357.277 86.5802L357.278 86.5792Z" fill="#371A45"/>
</g>
<path d="M199.171 154.004L199.351 225.426C199.365 230.977 203.869 235.469 209.419 235.469H297.378C302.753 235.469 307.181 231.247 307.435 225.878L310.828 154.39C311.08 149.059 307.128 144.459 301.82 143.894C270.408 140.552 239.209 140.691 208.202 143.96C203.062 144.502 199.157 148.835 199.17 154.004H199.171Z" fill="white"/>
<path d="M297.377 237.518H209.419C202.754 237.518 197.318 232.095 197.301 225.43L197.121 154.009C197.105 147.773 201.776 142.576 207.987 141.921C239.535 138.595 271.178 138.573 302.038 141.856C308.418 142.535 313.179 148.082 312.875 154.486L309.482 225.974C309.175 232.447 303.858 237.518 297.377 237.518ZM255.584 143.508C239.911 143.508 224.153 144.337 208.416 145.997C204.303 146.43 201.209 149.871 201.219 153.998L201.399 225.419C201.41 229.831 205.008 233.418 209.419 233.418H297.377C301.666 233.418 305.185 230.063 305.387 225.779L308.78 154.291C308.981 150.053 305.829 146.38 301.603 145.93C286.421 144.315 271.043 143.507 255.584 143.507V143.508Z" fill="#371A45"/>
<path d="M278.892 322.32C278.885 322.338 278.877 322.356 278.87 322.374C278.101 324.287 276.238 325.534 274.177 325.534H243.147C238.912 325.534 235.448 322.191 235.258 317.961C234.487 300.779 240.259 280.83 240.259 280.83C240.259 280.83 267.314 286.671 268.788 287.256C270.261 287.842 279.485 298.087 279.485 298.087" fill="white"/>
<path d="M205.971 217.286C205.971 217.286 202.444 249.687 217.422 264.128C232.401 278.57 268.895 296.915 268.895 296.915C267.481 316.284 276.015 325.109 292.48 325.531C296.572 325.635 299.925 322.288 299.925 318.195V272.198C299.925 268.346 298.111 264.72 295.031 262.409L292.9 260.811C292.9 260.811 296.999 234.817 296.511 221.663C296.022 208.51 263.043 198.557 263.043 198.557L205.973 217.287L205.971 217.286Z" fill="white"/>
<path d="M292.668 327.582C292.588 327.582 292.507 327.582 292.425 327.579C283.705 327.356 277.095 324.826 272.778 320.061C268.303 315.122 266.282 307.748 266.765 298.13C260.203 294.767 229.663 278.777 215.999 265.602C200.476 250.636 203.785 218.428 203.933 217.064C204.02 216.265 204.566 215.59 205.331 215.339L262.401 196.608C262.8 196.477 263.23 196.472 263.632 196.593C263.975 196.697 272.139 199.179 280.504 203.342C292.249 209.186 298.323 215.324 298.555 221.587C298.991 233.308 295.921 254.545 295.109 259.909L296.258 260.77C299.836 263.454 301.972 267.726 301.972 272.199V318.195C301.972 320.759 300.962 323.155 299.126 324.944C297.375 326.651 295.089 327.583 292.668 327.583V327.582ZM207.897 218.81C207.46 224.894 206.417 250.672 218.843 262.652C233.423 276.711 269.451 294.901 269.813 295.083C270.554 295.455 270.996 296.236 270.936 297.062C270.27 306.189 271.911 313.001 275.815 317.308C279.35 321.211 284.974 323.287 292.531 323.481C293.923 323.503 295.254 322.993 296.266 322.007C297.304 320.996 297.875 319.642 297.875 318.194V272.198C297.875 269.008 296.352 265.961 293.801 264.048L291.67 262.45C291.062 261.995 290.757 261.241 290.875 260.492C290.916 260.233 294.937 234.541 294.462 221.738C294.114 212.363 272.25 203.572 263.063 200.706L207.899 218.811L207.897 218.81Z" fill="#371A45"/>
<path d="M240.053 229.977C246.217 228.992 252.235 229.128 258.414 229.328C260.449 229.439 262.497 229.57 264.648 229.978C264.817 230.01 264.928 230.172 264.897 230.341C264.881 230.434 264.82 230.512 264.743 230.556C262.817 231.637 260.761 232.263 258.677 232.696C254.508 233.537 250.193 233.462 246.031 232.629C243.955 232.183 241.907 231.578 239.964 230.556C239.709 230.43 239.77 230.019 240.052 229.977H240.053Z" fill="#371A45"/>
<path d="M292.899 262.859C292.733 262.859 292.564 262.838 292.396 262.796C277.634 259.067 261.179 250.637 254.79 247.184C252.024 245.69 250.305 242.806 250.305 239.659V231.243C250.305 230.111 251.222 229.193 252.354 229.193C253.485 229.193 254.403 230.111 254.403 231.243V239.659C254.403 241.299 255.298 242.8 256.738 243.579C262.992 246.958 279.084 255.206 293.399 258.823C294.497 259.1 295.161 260.214 294.884 261.312C294.649 262.24 293.815 262.86 292.898 262.86L292.899 262.859Z" fill="#371A45"/>
<path d="M274.174 327.582H243.145C237.813 327.582 233.449 323.396 233.209 318.05C232.431 300.731 238.049 281.086 238.287 280.258C238.602 279.172 239.736 278.542 240.825 278.86C241.912 279.174 242.538 280.309 242.224 281.397C242.167 281.594 236.555 301.233 237.302 317.867C237.443 321.016 240.01 323.483 243.144 323.483H274.173C275.412 323.483 276.508 322.747 276.965 321.609C277.387 320.562 278.586 320.024 279.636 320.442C280.685 320.859 281.21 322.019 280.795 323.07C280.792 323.076 280.779 323.111 280.776 323.117C279.684 325.837 277.094 327.582 274.173 327.582H274.174Z" fill="#371A45"/>
<path d="M235.238 313.891C235.057 313.891 234.872 313.868 234.689 313.816C233.599 313.514 232.96 312.384 233.263 311.293C236.265 300.468 242.488 295.972 247.179 294.106C253.994 291.395 262.256 292.469 269.846 297.05C270.815 297.635 271.126 298.894 270.541 299.863C269.955 300.832 268.697 301.142 267.727 300.558C261.244 296.644 254.307 295.68 248.693 297.913C243.203 300.096 239.232 305.102 237.211 312.387C236.959 313.295 236.135 313.889 235.237 313.889L235.238 313.891Z" fill="#371A45"/>
<path d="M285.273 326.448C284.59 326.448 283.941 326.048 283.656 325.379C283.277 324.487 283.692 323.455 284.585 323.076C290.117 320.721 290.162 314.451 289.754 302.647C289.582 297.673 289.388 292.034 289.78 285.875C291.054 265.901 285.476 260.331 285.419 260.276C284.693 259.633 284.64 258.533 285.283 257.807C285.927 257.081 287.049 257.027 287.774 257.67C288.057 257.922 294.69 264.076 293.285 286.097C292.903 292.084 293.095 297.631 293.264 302.524C293.658 313.907 293.969 322.899 285.96 326.307C285.735 326.403 285.503 326.448 285.273 326.448Z" fill="#371A45"/>
<path d="M272.457 319.207H235.238C234.268 319.207 233.482 318.421 233.482 317.45C233.482 316.48 234.269 315.693 235.238 315.693H272.457C273.428 315.693 274.213 316.48 274.213 317.45C274.213 318.421 273.427 319.207 272.457 319.207Z" fill="#371A45"/>
<path d="M235.827 279.778C235.015 279.778 234.286 279.213 234.111 278.386C233.91 277.438 234.515 276.505 235.464 276.303C257.521 271.622 257.383 247.437 257.379 247.193C257.363 246.223 258.136 245.424 259.106 245.408C259.116 245.408 259.126 245.408 259.135 245.408C260.091 245.408 260.875 246.176 260.89 247.136C260.895 247.415 260.967 254.033 258.008 261.363C254.036 271.2 246.493 277.555 236.194 279.741C236.071 279.767 235.948 279.779 235.828 279.779L235.827 279.778Z" fill="#371A45"/>
<g opacity="0.3">
<path d="M210.25 216.412C210.25 216.412 228.107 229.585 250.354 219.437L255.16 216.412C255.16 216.412 263.924 222.364 279.485 227.049C279.485 227.049 278.476 240.54 277.003 255.457L294.265 260.81L296.509 221.663C279.119 219.869 264.291 216.019 253.478 208.953C253.478 208.953 228.84 219.194 210.251 216.412H210.25Z" fill="#371A45"/>
</g>
<g opacity="0.3">
<path d="M242.453 230.602H239.964C237.284 230.602 235.137 232.843 235.282 235.518C235.564 240.703 238.482 249.056 252.357 255.932C274.215 266.763 287.57 267.132 291.699 278.023C295.828 288.913 293.277 322.867 270.354 311.843C270.354 311.843 275.727 326.853 292.901 324.691C292.901 324.691 300.756 325.603 299.926 314.625C299.097 303.647 299.241 269.251 299.241 269.251C299.241 269.251 298.805 259.986 289.437 258.984C280.07 257.982 262.108 248.679 262.108 248.679C262.108 248.679 253.369 236.853 262.45 230.604H242.454L242.453 230.602Z" fill="#371A45"/>
</g>
<g opacity="0.3">
<path d="M249.731 286.492C265.97 305.149 267.07 318.88 244.498 324.904H274.174C274.174 324.904 278.677 324.311 276.406 321.407C274.135 318.504 264.697 307.649 268.892 296.916L249.731 286.493V286.492Z" fill="#371A45"/>
</g>
<path d="M313.584 217.291C294.071 230.564 252.696 209.387 252.696 209.387C220.787 224.903 189.466 222.268 189.424 193.58C189.412 186.308 191.438 179.781 194.465 174.095C194.471 174.089 194.477 174.089 194.477 174.083C203.394 157.351 221.01 147.867 221.01 147.867C221.01 147.867 253.977 135.812 281.26 143.329C285.177 144.412 288.971 145.888 292.537 147.867C320.967 163.633 333.098 204.019 313.584 217.291Z" fill="white"/>
<path d="M296.68 223.714C278.375 223.715 257.395 213.977 252.678 211.667C242.467 216.526 232.248 219.584 223.069 220.525C213.183 221.54 204.725 220.053 198.607 216.232C191.272 211.65 187.386 203.817 187.371 193.581C187.352 181.292 193.018 169.165 203.756 158.511C211.777 150.551 219.707 146.243 220.04 146.064C220.127 146.017 220.215 145.977 220.308 145.944C220.756 145.78 231.455 141.905 245.836 139.927C259.218 138.087 278.354 137.66 293.532 146.077C302.507 151.054 310.311 158.586 316.103 167.859C321.523 176.538 324.728 186.136 325.125 194.882C325.609 205.54 321.919 214.1 314.735 218.986C309.689 222.417 303.361 223.715 296.68 223.715V223.714ZM252.694 207.337C253.014 207.337 253.335 207.413 253.628 207.562C254.032 207.769 294.148 228.029 312.431 215.596C318.394 211.541 321.449 204.251 321.031 195.067C320.358 180.255 310.013 159.902 291.544 149.66C265.076 134.983 224.588 148.781 221.857 149.742C219.713 150.947 191.43 167.369 191.47 193.576C191.484 202.454 194.616 208.907 200.778 212.758C211.658 219.553 231.208 217.557 251.798 207.544C252.081 207.407 252.388 207.337 252.694 207.337Z" fill="#371A45"/>
<path d="M251.692 207.598C258.236 203.978 264.813 200.525 271.527 197.239C278.311 193.954 285.06 190.773 292.279 188.403L290.947 190.992C290.447 189.662 289.703 188.416 288.835 187.29C284.42 181.492 277.115 181.13 270.628 183.245C266.624 184.459 262.505 185.579 258.437 186.503C248.591 188.754 238.596 190.408 228.481 190.899C224.977 190.994 221.388 191.076 217.748 190.39C216.911 190.187 216.359 189.419 216.399 188.589L217.126 172.958C217.134 172.796 217.272 172.67 217.435 172.678C217.575 172.685 217.687 172.787 217.711 172.92L220.488 188.319L218.79 186.434C225.035 187.337 231.754 186.677 238.09 185.97C244.608 185.16 251.103 183.998 257.514 182.51C262.389 181.467 267.163 179.91 271.976 178.646C279.343 176.8 287.304 178.501 292.066 184.768C293.072 186.062 293.916 187.468 294.559 188.979C294.64 189.208 294.764 189.453 294.844 189.72C295.207 190.801 294.603 191.977 293.511 192.311C286.618 194.572 279.892 197.738 273.328 200.918C266.705 204.16 260.13 207.61 253.683 211.178C251.284 212.417 249.359 208.993 251.692 207.596V207.598Z" fill="#371A45"/>
<path d="M292.896 188.309H295.286L293.237 190.359C293.35 189.31 293.523 188.261 293.663 187.212C293.946 185.206 294.701 179.843 294.994 177.771C295.036 177.441 295.537 177.435 295.579 177.771C295.876 179.871 296.624 185.184 296.91 187.212C297.05 188.261 297.223 189.31 297.336 190.359C297.446 191.375 296.711 192.287 295.695 192.397C295.469 192.416 293.18 192.406 292.897 192.408C290.188 192.323 290.188 188.394 292.897 188.309H292.896Z" fill="#371A45"/>
<path d="M218.444 190.504C218.244 190.504 218.04 190.474 217.839 190.413C216.757 190.08 216.151 188.933 216.484 187.851C217.775 183.665 220.119 180.85 223.454 179.485C228.966 177.229 236.701 178.967 247.796 184.954C248.791 185.492 249.163 186.735 248.626 187.73C248.088 188.726 246.845 189.097 245.85 188.56C236.19 183.348 229.178 181.57 225.006 183.279C222.832 184.169 221.325 186.06 220.4 189.058C220.129 189.939 219.319 190.505 218.443 190.505L218.444 190.504Z" fill="#371A45"/>
<path d="M208.562 219.7C207.891 219.7 207.251 219.313 206.959 218.661C197.233 196.956 216.435 186.985 216.63 186.887C217.497 186.451 218.553 186.8 218.989 187.666C219.424 188.532 219.076 189.586 218.212 190.024C217.523 190.375 201.836 198.635 210.165 217.225C210.562 218.11 210.165 219.149 209.28 219.546C209.047 219.65 208.803 219.7 208.563 219.7H208.562Z" fill="#371A45"/>
<path d="M296.509 223.419C295.976 223.419 295.45 223.177 295.104 222.719C294.521 221.944 294.677 220.842 295.451 220.259C298.96 217.617 300.945 214.341 301.351 210.523C302.331 201.29 294.045 191.606 293.962 191.509C293.328 190.776 293.406 189.668 294.138 189.032C294.87 188.396 295.978 188.474 296.614 189.206C296.997 189.647 305.979 200.119 304.846 210.88C304.337 215.712 301.887 219.811 297.564 223.065C297.248 223.303 296.877 223.418 296.509 223.418V223.419Z" fill="#371A45"/>
<path d="M233.578 183.313C233.453 183.313 233.328 183.302 233.201 183.279C232.088 183.072 231.353 182.002 231.56 180.889L232.689 174.816C233.198 172.073 235.507 170.013 238.303 169.807C250.302 168.922 262.782 168.919 275.393 169.797C278.424 170.008 280.826 172.35 281.105 175.366L281.521 179.886C281.625 181.014 280.795 182.011 279.669 182.115C278.548 182.22 277.544 181.39 277.441 180.263L277.024 175.743C276.932 174.737 276.126 173.956 275.109 173.885C262.691 173.021 250.408 173.024 238.604 173.894C237.663 173.964 236.888 174.651 236.718 175.565L235.589 181.639C235.406 182.625 234.545 183.314 233.577 183.314L233.578 183.313Z" fill="#371A45"/>
<path d="M256.528 186.602C256.031 186.602 255.538 186.392 255.191 185.984L252.136 182.401C251.866 182.082 251.717 181.679 251.717 181.261V172.104C251.717 171.133 252.503 170.348 253.473 170.348C254.442 170.348 255.229 171.134 255.229 172.104V180.615L257.864 183.706C258.493 184.445 258.405 185.554 257.666 186.182C257.335 186.464 256.93 186.602 256.527 186.602H256.528Z" fill="#371A45"/>
<path d="M263.086 185.017C262.229 185.017 261.479 184.39 261.351 183.517C261.307 183.217 261.285 182.936 261.285 182.658C261.285 179.416 263.922 176.779 267.164 176.779C269.5 176.779 271.617 178.164 272.555 180.308C272.943 181.197 272.538 182.232 271.65 182.621C270.761 183.011 269.725 182.604 269.337 181.716C268.958 180.851 268.105 180.292 267.165 180.292C265.86 180.292 264.799 181.353 264.799 182.657C264.799 182.762 264.808 182.875 264.827 183.004C264.968 183.963 264.305 184.856 263.345 184.997C263.259 185.01 263.172 185.016 263.087 185.016L263.086 185.017Z" fill="#371A45"/>
<g opacity="0.3">
<path d="M313.582 217.29C294.069 230.563 252.694 209.386 252.694 209.386C220.785 224.901 189.464 222.266 189.422 193.579C189.41 186.307 191.436 179.779 194.463 174.094C194.469 174.088 194.475 174.088 194.475 174.082C197.443 169.984 199.504 167.133 199.504 167.133C199.504 167.133 192.391 187.625 203.321 199.726C214.246 211.828 244.011 207.73 259.134 198.163C274.256 188.603 286.832 192.566 286.832 192.566L277.869 195.482C276.991 208.216 301.726 204.117 301.726 204.117C316.948 198.701 309.606 172.496 295.286 162.11C271.808 169.452 251.083 166.132 232.635 153.954L281.257 143.328C285.174 144.411 288.968 145.886 292.534 147.865C320.964 163.632 333.095 204.018 313.581 217.29H313.582Z" fill="#371A45"/>
</g>
<g opacity="0.3">
<path d="M269.248 171.487C269.248 171.487 270.845 178.796 257.525 184.065C257.525 184.065 280.531 177.381 284.372 181.284C288.213 185.187 288.643 184.065 288.643 184.065C288.643 184.065 288.994 170.16 272.309 171.185" fill="#371A45"/>
</g>
<g opacity="0.3">
<path d="M228.544 179.677C228.544 179.677 218.591 176.457 216.688 167.236C216.688 167.236 216.615 179.74 219.213 186.441C219.213 186.441 220.786 178.653 228.544 179.677Z" fill="#371A45"/>
</g>
<path d="M199.509 119.863L191.054 117.262C186.295 115.793 182.772 111.756 181.958 106.841C181.644 104.912 181.377 102.898 181.164 100.861C180.629 95.7301 180.431 90.4453 180.613 85.9948C180.787 81.7222 183.031 77.8037 186.632 75.4889L194.85 70.2012L196.696 89.8785L199.509 119.863Z" fill="white"/>
<g opacity="0.3">
<path d="M199.507 119.862L191.052 117.261C186.294 115.793 182.771 111.756 181.957 106.841C181.642 104.912 181.376 102.898 181.162 100.86C183.706 100.625 189.467 99.4473 189.528 93.5878C189.56 90.5641 192.837 89.3849 196.694 89.8781L199.507 119.862Z" fill="#371A45"/>
</g>
<path d="M199.51 121.911C199.31 121.911 199.107 121.881 198.906 121.82L190.452 119.217C184.911 117.51 180.882 112.896 179.938 107.174C178.812 100.351 178.299 92.4012 178.565 85.9103C178.767 80.9776 181.368 76.4375 185.521 73.7648L193.742 68.4761C194.694 67.8646 195.961 68.139 196.574 69.0906C197.186 70.0421 196.911 71.3099 195.959 71.9224L187.738 77.2111C184.706 79.1619 182.808 82.477 182.659 86.0774C182.404 92.3057 182.898 99.942 183.982 106.505C184.671 110.684 187.612 114.053 191.658 115.298L200.113 117.901C201.194 118.234 201.801 119.382 201.468 120.463C201.196 121.344 200.386 121.909 199.51 121.909V121.911Z" fill="#371A45"/>
<path d="M337.626 86.6821C337.79 90.022 337.749 93.8391 337.507 97.712C337.299 101.035 336.953 104.401 336.461 107.538C335.687 112.462 332.201 116.525 327.455 118.032L319.02 120.707L321.454 92.1249L323.255 71.0078L331.52 76.2269C335.138 78.5109 337.418 82.4096 337.626 86.6821Z" fill="white"/>
<g opacity="0.3">
<path d="M337.507 97.712C337.299 101.035 336.953 104.401 336.461 107.538C335.687 112.462 332.201 116.525 327.455 118.032L319.02 120.707L321.454 92.125L328.03 91.8535C328.03 91.8535 332.197 99.4809 337.507 97.711V97.712Z" fill="#371A45"/>
</g>
<path d="M319.018 122.757C318.149 122.757 317.343 122.199 317.065 121.327C316.723 120.248 317.32 119.097 318.399 118.754L326.83 116.078C330.865 114.798 333.779 111.404 334.432 107.22C335.459 100.647 335.887 93.0054 335.579 86.781C335.401 83.1816 333.474 79.8825 330.425 77.9575L322.159 72.7393C321.203 72.1348 320.916 70.87 321.52 69.9125C322.124 68.956 323.389 68.6696 324.347 69.2732L332.612 74.4913C336.788 77.1282 339.428 81.6464 339.673 86.5771C339.994 93.065 339.549 101.017 338.482 107.851C337.587 113.582 333.598 118.23 328.071 119.983L319.639 122.659C319.434 122.724 319.225 122.755 319.019 122.755L319.018 122.757Z" fill="#371A45"/>
<path d="M258.748 159.05C296.987 159.05 327.985 128.051 327.985 89.8129C327.985 51.5745 296.987 20.5762 258.748 20.5762C220.51 20.5762 189.512 51.5745 189.512 89.8129C189.512 128.051 220.51 159.05 258.748 159.05Z" fill="white"/>
<g opacity="0.3">
<path d="M327.924 86.9605C329.5 125.166 299.805 157.414 261.6 158.99C248.539 159.529 236.175 156.411 225.492 150.551C230.649 151.539 235.996 151.955 241.463 151.73C279.668 150.154 309.362 117.905 307.787 79.7001C306.75 54.555 292.428 33.0998 271.865 21.8164C302.705 27.7385 326.574 54.2289 327.924 86.9615V86.9605Z" fill="#371A45"/>
</g>
<path d="M193.322 112.436C213.181 145.802 274.985 157.136 317.424 126.61C327.137 110.099 330.467 92.7821 326.311 74.5216C302.376 35.2852 231.415 24.8419 193.984 65.3481C188.13 80.7986 187.915 96.4948 193.322 112.435V112.436Z" fill="#371A45"/>
<g opacity="0.35">
<path d="M317.423 126.61C274.983 157.134 213.181 145.802 193.32 112.433C192.607 110.333 191.994 108.233 191.479 106.145C204.805 121.825 224.96 131.43 247.114 130.517C284.95 128.957 314.434 97.3168 313.473 59.5977C318.549 63.9408 322.905 68.9392 326.31 74.5202C330.467 92.7817 327.135 110.1 317.422 126.61H317.423Z" fill="#101928"/>
</g>
<path d="M258.712 161.099C220.745 161.099 189.101 131.028 187.522 92.7495C185.903 53.4752 216.537 20.2057 255.81 18.5869C295.091 16.9652 328.354 47.6018 329.973 86.8751C331.593 126.149 300.958 159.418 261.685 161.038C260.691 161.078 259.697 161.099 258.711 161.099H258.712ZM258.782 22.6238C257.85 22.6238 256.919 22.6427 255.98 22.6815C218.963 24.2077 190.091 55.5653 191.617 92.5804C193.143 129.597 224.512 158.464 261.516 156.943C298.532 155.417 327.405 124.059 325.878 87.0441C324.391 50.9676 294.563 22.6238 258.782 22.6238Z" fill="#371A45"/>
<path d="M260.497 146.234C253.59 146.234 246.663 145.541 239.861 144.125C218.224 139.622 200.681 128.412 191.728 113.369C191.212 112.503 191.496 111.383 192.363 110.867C193.229 110.351 194.35 110.635 194.866 111.502C203.297 125.667 219.968 136.255 240.605 140.551C266.969 146.037 295.279 140.272 316.334 125.129C317.152 124.54 318.294 124.726 318.881 125.545C319.47 126.363 319.284 127.503 318.466 128.092C302.035 139.91 281.362 146.232 260.498 146.232L260.497 146.234Z" fill="#371A45"/>
<path d="M321.022 61.0895C320.587 61.0895 320.153 60.9085 319.844 60.5545C305.016 43.6026 283.698 33.919 259.816 33.2876C236.861 32.6771 214.28 40.8772 200.858 54.6772C200.255 55.2966 199.265 55.3106 198.646 54.708C198.026 54.1055 198.012 53.1151 198.615 52.4957C212.628 38.0891 236.114 29.5291 259.899 30.1595C284.664 30.8138 306.79 40.8772 322.201 58.4943C322.769 59.1446 322.704 60.133 322.053 60.7027C321.756 60.9622 321.389 61.0895 321.024 61.0895H321.022Z" fill="#371A45"/>
<g opacity="0.5">
<path d="M201.666 99.9911C199.426 64.3819 223.389 48.3049 258.366 48.4859C260.258 48.4958 260.876 51.0293 259.187 51.8834C238 62.5862 216.755 81.5506 204.992 100.814C204.079 102.31 201.777 101.741 201.666 99.9921V99.9911Z" fill="white"/>
</g>
<g opacity="0.5">
<path d="M300.566 103.606C298.919 105.927 296.893 107.99 294.502 109.804C292.169 111.574 291.884 114.984 293.817 117.185C295.536 119.143 298.455 119.495 300.586 117.998C303.697 115.812 306.653 112.951 309.043 109.516C310.776 107.027 309.926 103.576 307.256 102.136L307.141 102.073C304.876 100.851 302.057 101.508 300.566 103.606Z" fill="white"/>
</g>
<g opacity="0.5">
<path d="M280.235 129.155C283.305 129.028 285.709 126.884 285.606 124.366C285.502 121.847 282.929 119.908 279.859 120.035C276.789 120.161 274.385 122.305 274.489 124.824C274.593 127.342 277.165 129.281 280.235 129.155Z" fill="white"/>
</g>
<path d="M178.365 325.242C205.274 323.614 232.195 323.127 259.137 323.456C272.598 323.587 286.06 323.194 299.522 323.374C312.984 323.626 326.446 324.068 339.908 325.242C340.07 325.255 340.19 325.398 340.176 325.56C313.563 328.706 286.075 327.393 259.137 327.613C245.674 327.698 232.212 327.85 218.751 327.446C205.289 327.115 191.827 326.674 178.365 325.826C178.203 325.816 178.08 325.677 178.09 325.515C178.099 325.366 178.22 325.25 178.365 325.241V325.242Z" fill="#371A45"/>
</svg>
