<svg width="300" height="300" viewBox="0 0 300 300" fill="none" xmlns="http://www.w3.org/2000/svg">
<circle cx="150" cy="150" r="150" fill="#BDE0FE" fill-opacity="0.996078"/>
<g opacity="0.3">
<path d="M145.017 250C173.643 250 196.85 246.325 196.85 241.792C196.85 237.259 173.643 233.584 145.017 233.584C116.39 233.584 93.1836 237.259 93.1836 241.792C93.1836 246.325 116.39 250 145.017 250Z" fill="#191919"/>
</g>
<path d="M93.9492 155.066C93.9492 155.066 94.3974 138.992 98.759 131.162C99.7072 129.46 101.263 128.315 103.009 127.952C106.032 127.326 111.675 126.209 116.348 125.577C123.09 124.665 110.129 152.306 109.422 155.121C108.714 157.936 104.44 168.653 104.44 168.653L98.2234 172.479" fill="white"/>
<path d="M98.224 173.568C97.8837 173.568 97.5538 173.362 97.3795 172.998C97.1266 172.47 97.2997 171.809 97.7654 171.523L103.698 167.871C104.421 166.046 107.887 157.257 108.498 154.823C108.659 154.184 109.227 152.782 110.3 150.152C111.85 146.354 113.974 141.152 115.505 136.409C117.906 128.971 117.326 127.196 117.091 126.829C117.046 126.759 116.94 126.595 116.461 126.658C111.791 127.29 106.137 128.411 103.181 129.024C101.675 129.336 100.358 130.327 99.5691 131.744C95.3992 139.229 94.9114 154.942 94.9068 155.1C94.8898 155.701 94.4458 156.177 93.9172 156.153C93.3874 156.134 92.9719 155.632 92.9888 155.031C93.0074 154.363 93.497 138.569 97.9466 130.581C99.0213 128.652 100.803 127.303 102.836 126.882C105.813 126.265 111.512 125.134 116.234 124.496C117.554 124.316 118.273 124.971 118.644 125.55C120.583 128.579 117.555 137.559 112.041 151.066C111.199 153.131 110.47 154.915 110.344 155.42C109.625 158.279 105.49 168.661 105.314 169.101C105.227 169.318 105.081 169.496 104.897 169.61L98.6803 173.436C98.5346 173.526 98.3779 173.569 98.2234 173.569L98.224 173.568Z" fill="#191919"/>
<path d="M100.555 152.387C100.555 152.387 91.9101 149.257 90.2585 156.517C88.6074 163.776 89.287 174.022 89.287 174.022C89.287 174.022 89.7987 180.686 97.6571 181.183C105.515 181.679 100.555 152.387 100.555 152.387Z" fill="white"/>
<path d="M97.8482 182.277C97.7671 182.277 97.6861 182.274 97.604 182.269C89.0147 181.726 88.3375 174.192 88.3317 174.116C88.3026 173.677 87.658 163.594 89.33 156.244C89.798 154.185 90.8027 152.661 92.3157 151.713C95.7687 149.551 100.641 151.275 100.847 151.35C101.182 151.471 101.431 151.791 101.498 152.182C101.891 154.504 105.213 175.03 100.836 180.709C100.043 181.738 99.0137 182.277 97.8482 182.277ZM96.5345 152.803C95.4167 152.803 94.2267 153.001 93.2382 153.622C92.1939 154.278 91.5231 155.314 91.1874 156.789C89.5958 163.786 90.2374 173.84 90.2438 173.941C90.2631 174.156 90.8266 179.662 97.71 180.096C98.3936 180.141 98.9263 179.879 99.3902 179.277C102.467 175.284 100.76 159.749 99.7212 153.26C99.0528 153.076 97.8429 152.803 96.5339 152.803L96.5345 152.803Z" fill="#191919"/>
<g opacity="0.3">
<path d="M105.637 126.929C105.637 126.929 112.105 131.705 104.971 142.287L116.097 129.149L113.669 126.207" fill="#191919"/>
</g>
<path d="M100.798 129.09C103 131.148 104.915 133.689 106.013 136.69C106.042 136.77 106.009 136.861 105.939 136.894C105.876 136.925 105.804 136.896 105.769 136.832C104.279 134.311 102.107 132.35 99.7704 130.928C98.543 130.155 99.6538 128.16 100.798 129.09Z" fill="#191919"/>
<path d="M201.785 132.148C201.785 132.148 198.871 161.326 191.804 164.667C191.804 164.667 183.596 170.986 175.122 164.869L171.628 163.236L171.625 163.233L171.916 173.135L176.188 205.746L176.724 209.835L176.984 213.867V213.87L177.89 227.914C178.662 228.3 179.338 228.839 179.909 229.477C182.625 232.514 182.937 237.789 179.566 239.564H158.579C157.064 239.564 155.72 238.46 155.251 236.827L148.96 215.037L148.637 213.923L148.167 212.297H142.086L135.384 236.771C134.926 238.43 133.571 239.564 132.039 239.564H111.6C110.478 239.564 109.473 238.794 109.042 237.621C108.403 235.879 107.943 233.222 109.584 230.733C110.172 229.837 111.032 228.965 112.253 228.161L112.422 225.924L112.567 223.974L113.517 211.289L113.89 206.348L114.001 204.86L107.695 162.852L114.275 131.623L119.829 127.686L165.689 130.618C165.689 130.618 174.588 135.01 178.085 143.551L184.009 129.008C183.511 127.151 183.112 125.211 183.065 122.976C183.065 122.976 178.254 120.084 180.148 116.036C181.168 113.858 182.587 114.191 183.683 114.961C187.422 119.919 192.979 123.059 199.182 123.059C202.067 123.059 204.812 122.378 207.301 121.152L208 121.297C208 121.297 209.527 120.838 210.87 121.185C211.503 121.35 212.097 121.691 212.47 122.342C213.636 124.381 210.454 127.851 201.785 132.148Z" fill="white"/>
<g opacity="0.3">
<path d="M179.565 239.564H158.579C157.064 239.564 155.72 238.46 155.251 236.827L148.96 215.037C148.954 214.435 148.843 214.068 148.636 213.923C148.29 213.678 147.853 213.017 147.448 212.297C146.804 211.14 146.238 209.835 146.238 209.835L176.188 205.746L176.724 209.835L176.984 213.867V213.87C176.984 213.87 167.685 217.026 158.369 217.772C156.822 217.896 155.684 219.458 155.881 221.203C156.345 225.301 157.831 231.934 162.591 233.284C169.587 235.268 180.333 236.094 179.909 229.477C182.624 232.514 182.936 237.789 179.565 239.564H179.565Z" fill="#191919"/>
</g>
<g opacity="0.3">
<path d="M144.294 212.296H142.085L135.383 236.771C134.926 238.43 133.571 239.563 132.038 239.563H111.599C110.477 239.563 109.472 238.793 109.041 237.62C108.403 235.878 107.942 233.221 109.583 230.732C109.044 236.744 127.632 238.684 130.295 232.018C131.881 228.042 132.389 223.793 132.514 220.661C132.62 218.031 130.947 215.735 128.653 215.33C118.757 213.585 113.516 211.289 113.516 211.289L113.889 206.348C114.481 206.569 116.89 206.348 117.639 206.348C118.388 206.348 141.368 208.992 143.504 210.753C143.853 211.041 144.11 211.586 144.293 212.297L144.294 212.296Z" fill="#191919"/>
</g>
<g opacity="0.3">
<path d="M116.186 130.269C133.791 154.128 168.392 148.34 169.055 132.72L116.186 130.269Z" fill="#191919"/>
</g>
<path d="M179.566 240.653H158.58C156.643 240.653 154.939 239.251 154.34 237.165L147.473 213.386H142.793L136.301 237.095C135.714 239.224 134.001 240.653 132.04 240.653H111.601C110.092 240.653 108.74 239.627 108.157 238.04C106.632 233.879 107.793 230.072 111.339 227.518L113.035 204.907L106.75 163.036C106.728 162.891 106.732 162.743 106.763 162.6L113.342 131.37C113.401 131.092 113.553 130.851 113.767 130.7L119.321 126.763C119.49 126.644 119.684 126.588 119.884 126.599L165.744 129.531C165.857 129.538 165.969 129.569 166.073 129.62C166.42 129.792 174.013 133.608 178.023 141.111L182.986 128.926C182.618 127.502 182.229 125.692 182.127 123.607C181.637 123.249 180.859 122.612 180.18 121.748C178.648 119.798 178.336 117.588 179.301 115.525C179.84 114.374 180.548 113.657 181.406 113.394C182.27 113.128 183.206 113.345 184.189 114.036C184.273 114.095 184.348 114.168 184.412 114.254C188.111 119.158 193.494 121.97 199.183 121.97C201.869 121.97 204.472 121.359 206.919 120.153C207.094 120.067 207.287 120.041 207.474 120.081L207.978 120.186C208.843 119.977 211.941 119.417 213.275 121.749C213.674 122.446 213.767 123.261 213.543 124.106C212.871 126.64 209.215 129.596 202.671 132.894C202.456 134.834 201.714 141.011 200.378 147.405C198.183 157.909 195.451 164.04 192.255 165.632C191.316 166.304 183.077 171.837 174.679 165.838L172.634 164.882L172.874 173.036L177.674 209.675C177.677 209.702 177.679 209.729 177.681 209.755L178.807 227.213C181.265 228.726 182.955 231.799 182.979 234.91C183 237.477 181.902 239.533 179.969 240.552C179.842 240.618 179.704 240.653 179.565 240.653H179.566ZM142.086 211.209H148.168C148.583 211.209 148.951 211.512 149.08 211.959L156.164 236.489C156.505 237.678 157.476 238.476 158.58 238.476H179.342C180.85 237.566 181.069 235.878 181.061 234.93C181.042 232.427 179.578 229.951 177.502 228.909C177.178 228.746 176.96 228.394 176.933 227.993L175.77 209.954L170.967 173.295C170.962 173.254 170.959 173.212 170.958 173.17L170.666 163.268C170.655 162.899 170.811 162.548 171.078 162.338C171.346 162.127 171.69 162.085 171.991 162.226L175.488 163.862C175.539 163.886 175.59 163.915 175.637 163.95C183.488 169.618 191.189 163.826 191.266 163.766C191.319 163.725 191.376 163.69 191.435 163.662C196.805 161.123 200.038 139.963 200.832 132.025C200.87 131.639 201.087 131.306 201.401 131.151C210.237 126.771 211.521 124.172 211.705 123.48C211.781 123.193 211.731 123.048 211.666 122.933C211.029 121.822 208.929 122.148 208.244 122.35C208.108 122.39 207.965 122.395 207.828 122.368L207.412 122.282C204.802 123.52 202.036 124.147 199.183 124.147C192.986 124.147 187.118 121.109 183.059 115.806C182.717 115.585 182.274 115.385 181.907 115.496C181.582 115.595 181.276 115.948 180.997 116.546C179.578 119.578 183.356 121.917 183.517 122.015C183.822 122.2 184.017 122.558 184.026 122.95C184.073 125.219 184.509 127.126 184.928 128.691C184.997 128.947 184.98 129.222 184.881 129.464L178.957 144.007C178.8 144.392 178.46 144.639 178.087 144.639H178.086C177.713 144.639 177.373 144.393 177.216 144.009C174.153 136.527 166.612 132.304 165.457 131.693L120.081 128.792L115.118 132.309L108.675 162.89L114.949 204.678C114.962 204.769 114.966 204.861 114.959 204.953L113.21 228.254C113.183 228.608 113.006 228.926 112.735 229.103C109.646 231.131 108.702 233.856 109.929 237.203C110.213 237.976 110.87 238.475 111.602 238.475H132.04C133.159 238.475 134.135 237.66 134.469 236.446L141.171 211.974C141.296 211.518 141.667 211.208 142.088 211.208L142.086 211.209Z" fill="#191919"/>
<path d="M170.927 153.565L171.149 172.016C171.179 174.519 169.413 176.577 167.206 176.612L135.449 177.102C133.242 177.136 131.428 175.134 131.398 172.63L131.176 154.179C131.146 151.676 132.912 149.618 135.119 149.584L166.876 149.093C169.083 149.059 170.897 151.062 170.927 153.565Z" fill="white"/>
<path d="M135.395 178.191C132.692 178.191 130.475 175.718 130.439 172.644L130.217 154.195C130.199 152.693 130.698 151.273 131.621 150.196C132.545 149.12 133.783 148.516 135.107 148.496L166.862 148.005C168.189 147.991 169.438 148.55 170.387 149.598C171.336 150.645 171.868 152.049 171.886 153.552L172.108 172.001C172.145 175.101 169.952 177.659 167.218 177.701L135.462 178.191C135.44 178.191 135.417 178.191 135.394 178.191L135.395 178.191ZM166.931 150.181C166.917 150.181 166.902 150.181 166.888 150.181L135.133 150.672C134.321 150.684 133.563 151.054 132.997 151.714C132.431 152.374 132.125 153.244 132.136 154.165L132.357 172.614C132.38 174.515 133.772 176.044 135.437 176.014L167.191 175.523C168.867 175.498 170.212 173.93 170.189 172.03L169.967 153.581C169.956 152.66 169.63 151.799 169.048 151.158C168.477 150.527 167.726 150.181 166.93 150.181H166.931Z" fill="#191919"/>
<path d="M142.524 177.924C139.896 177.924 137.74 175.52 137.704 172.531L137.483 154.081C137.465 152.621 137.95 151.24 138.848 150.194C139.746 149.148 140.95 148.56 142.238 148.54H142.25C142.699 148.54 143.065 148.949 143.072 149.46C143.078 149.975 142.715 150.399 142.261 150.405C141.413 150.419 140.619 150.805 140.028 151.495C139.436 152.184 139.117 153.094 139.129 154.056L139.35 172.505C139.374 174.475 140.794 176.058 142.525 176.058C142.543 176.058 142.561 176.058 142.58 176.058C143.029 176.058 143.396 176.468 143.402 176.979C143.408 177.493 143.045 177.917 142.591 177.924C142.569 177.924 142.547 177.924 142.525 177.924L142.524 177.924Z" fill="#191919"/>
<path d="M155.713 177.566C155.339 177.566 155.033 177.225 155.028 176.799L154.897 165.923L149.749 163.006C149.52 162.876 149.374 162.612 149.371 162.321L149.215 149.365C149.21 148.936 149.512 148.583 149.891 148.577C149.894 148.577 149.897 148.577 149.9 148.577C150.274 148.577 150.58 148.918 150.586 149.344L150.735 161.827L155.883 164.744C156.113 164.874 156.259 165.138 156.262 165.429L156.398 176.778C156.404 177.207 156.101 177.56 155.722 177.566C155.719 177.566 155.716 177.566 155.713 177.566V177.566Z" fill="#191919"/>
<path d="M167.032 160.028C167.062 162.472 165.937 164.486 164.486 164.667C164.426 164.678 164.363 164.682 164.3 164.682L161.18 164.731C159.664 164.754 158.409 162.774 158.341 160.284C158.337 160.244 158.337 160.203 158.336 160.163C158.306 157.613 159.528 155.529 161.069 155.505L164.189 155.457C164.252 155.456 164.315 155.458 164.375 155.466C165.517 155.573 166.486 156.818 166.863 158.529C166.968 159 167.026 159.503 167.032 160.028Z" fill="#1DAEEF"/>
<g opacity="0.6">
<path d="M166.918 158.826C166.433 157.758 165.676 157.042 164.823 156.965C164.762 156.954 164.699 156.951 164.636 156.952L161.516 157.001C159.975 157.024 158.753 159.109 158.784 161.661C158.784 161.701 158.785 161.741 158.788 161.782C158.798 162.152 158.835 162.509 158.894 162.853C158.567 162.131 158.362 161.244 158.337 160.284C158.333 160.244 158.333 160.203 158.333 160.163C158.302 157.613 159.524 155.529 161.065 155.505L164.185 155.457C164.248 155.456 164.311 155.458 164.372 155.466C165.513 155.573 166.482 156.818 166.859 158.529C166.88 158.625 166.9 158.724 166.918 158.826Z" fill="white"/>
</g>
<path d="M161.151 165.509C159.22 165.509 157.685 163.176 157.649 160.174C157.613 157.15 159.11 154.759 161.058 154.728L164.178 154.68C164.27 154.678 164.366 154.683 164.457 154.695C166.269 154.865 167.681 157.154 167.716 160.018C167.75 162.881 166.393 165.212 164.559 165.44C164.496 165.452 164.401 165.459 164.307 165.46L161.187 165.508C161.175 165.508 161.163 165.508 161.151 165.508V165.509ZM164.214 156.235H164.196L161.076 156.283C159.937 156.301 158.995 158.073 159.02 160.153C159.044 162.22 160.019 163.954 161.152 163.954H161.169L164.288 163.906C164.32 163.906 164.351 163.905 164.382 163.899C165.5 163.759 166.369 162.029 166.345 160.04C166.321 158.048 165.411 156.345 164.317 156.242C164.271 156.236 164.24 156.235 164.214 156.235H164.214Z" fill="#191919"/>
<path d="M164.268 165.46C163.305 165.46 162.412 164.875 161.749 163.81C161.133 162.819 160.785 161.511 160.768 160.123C160.732 157.101 162.229 154.71 164.176 154.68C164.188 154.68 164.2 154.68 164.213 154.68C166.143 154.68 167.677 157.013 167.713 160.016C167.73 161.404 167.413 162.723 166.821 163.732C166.176 164.831 165.283 165.444 164.305 165.46C164.293 165.46 164.281 165.46 164.268 165.46ZM164.212 156.234H164.195C163.056 156.252 162.114 158.024 162.14 160.102C162.152 161.179 162.412 162.177 162.87 162.913C163.272 163.561 163.782 163.917 164.287 163.905C164.799 163.897 165.294 163.529 165.681 162.87C166.121 162.12 166.356 161.115 166.343 160.038C166.318 157.97 165.344 156.235 164.211 156.235L164.212 156.234Z" fill="#191919"/>
<g opacity="0.3">
<path d="M167.03 160.028C167.059 162.472 165.934 164.486 164.483 164.667C164.423 164.678 164.36 164.682 164.297 164.682L161.177 164.731C159.661 164.754 158.406 162.774 158.338 160.284C158.496 160.201 158.6 160.158 158.6 160.158L161.103 160.12L161.462 159.707C163.77 163.54 166.035 162.868 166.703 158.426L166.861 158.529C166.965 159 167.023 159.503 167.03 160.028Z" fill="#191919"/>
</g>
<g opacity="0.3">
<path d="M171.031 162.091L171.124 169.89C171.155 172.393 169.389 174.451 167.182 174.485L135.425 174.975C133.218 175.01 131.403 173.007 131.373 170.504L131.279 162.705L138.407 162.595C141.13 172.44 166.231 177.302 171.03 162.091L171.031 162.091Z" fill="#191919"/>
</g>
<path d="M117.957 129.008C104.779 137.759 96.982 149.018 91.8289 161.508C91.8289 161.508 86.7778 173.296 91.8289 181.89C91.8289 181.89 94.2574 185.525 100.231 186.269C106.205 187.012 111.45 186.186 110.649 180.072C110.649 180.072 113.344 180.072 113.781 176.932C114.218 173.792 112.543 172.057 112.543 172.057C112.543 172.057 116.986 158.671 125.801 151.069" fill="white"/>
<path d="M118.443 129.947C108.262 136.624 99.7444 146.414 94.3332 158.271C93.9765 159.022 93.5085 160.061 93.1921 160.82C91.3638 164.92 90.3305 169.685 90.5928 174.227C90.7502 176.712 91.3959 179.158 92.6034 181.243C94.793 183.991 98.3585 185.102 101.587 185.317C104.877 185.577 110.562 185.635 109.7 180.231C109.626 179.634 109.992 179.082 110.519 178.997C111.344 178.959 112.232 178.532 112.59 177.642C113.183 176.095 112.903 174.122 111.909 172.875C111.901 172.866 111.886 172.849 111.896 172.86C111.896 172.861 111.645 171.673 111.645 171.673C112.581 168.493 113.938 165.516 115.517 162.695C117.339 159.415 119.557 156.37 122.172 153.86C123.3 152.802 124.517 151.861 125.802 151.07C124.175 153.128 122.636 155.1 121.244 157.307C119.01 160.711 117.053 164.417 115.316 168.173C114.69 169.528 114.008 171.088 113.441 172.44L113.19 171.253C113.19 171.253 113.279 171.352 113.28 171.354C115.951 174.586 115.195 180.98 110.649 181.16L111.598 179.911C112.174 183.887 110.201 186.554 106.79 187.259C105.005 187.663 103.225 187.629 101.444 187.488C98.7537 187.29 96.0617 186.612 93.7236 185.03C92.7503 184.361 91.7689 183.546 91.0375 182.5C90.1405 180.952 89.4715 179.222 89.0979 177.421C88.0606 172.471 88.8462 167.277 90.3894 162.589C90.9926 160.811 91.861 158.945 92.6378 157.25C95.0564 152.059 97.9873 147.166 101.446 142.788C106.044 136.928 111.534 132.02 117.474 128.069C117.931 127.765 118.519 127.938 118.787 128.457C119.055 128.976 118.901 129.644 118.443 129.947Z" fill="#191919"/>
<path d="M109.98 180.852C109.842 180.636 109.493 180.092 109.36 179.884C109.343 179.857 109.299 179.789 109.282 179.763C109.169 179.48 108.886 179.295 108.545 179.372C107.755 179.638 107.054 180.471 106.533 181.229C106.859 180.155 107.252 179.143 108.108 178.403C108.731 177.888 109.734 177.954 110.374 178.56C110.423 178.597 110.683 178.8 110.737 178.841L111.318 179.292C112.515 180.345 110.943 182.18 109.98 180.853V180.852Z" fill="#191919"/>
<path d="M116.565 163.923C116.301 163.923 116.046 163.758 115.917 163.473C110.257 150.955 97.2137 151.825 97.0814 151.834C96.6828 151.862 96.3325 151.522 96.3045 151.067C96.2766 150.612 96.5784 150.218 96.9794 150.185C97.1199 150.175 111.108 149.215 117.213 162.719C117.397 163.125 117.255 163.623 116.898 163.832C116.792 163.894 116.678 163.923 116.566 163.923H116.565Z" fill="#191919"/>
<path d="M183.061 94.9428C183.224 108.562 177.882 120.839 169.339 129.131C169.336 129.128 169.336 129.131 169.336 129.131H169.333C162.473 135.787 153.548 139.872 143.75 140.022C121.747 140.362 103.669 120.731 103.375 96.1729C103.08 71.6146 120.68 51.433 142.682 51.0932C157.568 50.8632 170.658 59.7738 177.658 73.1661L177.661 73.1694C181.009 79.5707 182.965 86.9986 183.06 94.9428H183.061Z" fill="white"/>
<g opacity="0.3">
<path d="M165.686 130.618C159.62 134.979 152.424 137.556 144.679 137.676C122.676 138.015 104.599 118.384 104.304 93.8261C104.23 87.6694 105.281 81.7817 107.249 76.4175C109.631 70.8543 113.018 65.9257 117.154 61.9305C117.987 61.1247 118.849 60.3586 119.74 59.6328C116.732 63.0939 114.225 67.101 112.353 71.4995C112.348 71.5087 112.342 71.5213 112.339 71.5305C109.798 77.485 108.414 84.162 108.498 91.1953C108.793 115.754 126.87 135.385 148.873 135.045C154.899 134.952 160.597 133.371 165.686 130.618Z" fill="#191919"/>
</g>
<path d="M183.058 94.9416C183.221 108.561 177.88 120.838 169.336 129.13L169.333 129.134V129.13H169.33C164.101 132.763 157.916 134.904 151.274 135.007C132.147 135.302 116.438 118.586 116.187 97.6716C115.935 76.7549 131.238 59.5624 150.365 59.2675C161.35 59.0977 171.207 64.5379 177.655 73.1649L177.657 73.1682C181.006 79.5695 182.962 86.9974 183.057 94.9416H183.058Z" fill="#191919"/>
<path d="M183.059 94.9423C183.222 108.561 177.88 120.839 169.337 129.131L169.334 129.134V129.131H169.331C164.101 132.763 157.917 134.905 151.274 135.008C139.256 135.193 128.585 128.662 122.254 118.593C128.452 122.826 135.764 125.217 143.568 125.097C153.366 124.945 162.292 120.861 169.152 114.206H169.157C176.106 107.461 180.938 98.0789 182.409 87.4854C182.806 89.9054 183.028 92.3961 183.058 94.9423H183.059Z" fill="#0A0B06"/>
<path d="M143.184 141.115C132.503 141.115 122.429 136.551 114.758 128.22C106.945 119.734 102.562 108.359 102.416 96.1875C102.115 71.0694 120.173 50.3523 142.671 50.0046C165.169 49.6516 183.718 69.8094 184.02 94.9276C184.166 107.098 180.057 118.605 172.45 127.329C164.848 136.048 154.66 140.942 143.765 141.111C143.572 141.113 143.377 141.115 143.185 141.115H143.184ZM143.243 52.1773C143.06 52.1773 142.88 52.1787 142.697 52.1813C121.256 52.5125 104.048 72.24 104.335 96.1578C104.474 107.741 108.647 118.569 116.086 126.647C123.529 134.731 133.359 139.096 143.738 138.933C154.127 138.773 163.839 134.108 171.086 125.798C178.328 117.493 182.239 106.539 182.101 94.9567C181.816 71.2432 164.436 52.176 143.243 52.176L143.243 52.1773Z" fill="#191919"/>
<path d="M148.311 139.679C138.802 139.679 129.925 135.855 122.826 128.585C114.713 120.277 109.981 108.23 110.479 97.1471C111.164 81.8841 118.774 66.9193 129.866 59.0227C140.028 51.7885 152.264 50.9787 164.319 56.7422C164.738 56.9425 164.934 57.4891 164.758 57.9644C164.582 58.4383 164.099 58.6624 163.68 58.4615C148.88 51.3866 137.599 55.7216 130.741 60.6032C120.089 68.1864 112.78 82.5683 112.121 97.2423C111.648 107.779 116.172 119.259 123.928 127.2C132.213 135.685 143.04 139.265 154.414 137.276C154.863 137.197 155.283 137.547 155.352 138.056C155.421 138.566 155.114 139.042 154.664 139.121C152.525 139.494 150.402 139.679 148.311 139.679Z" fill="#191919"/>
<path d="M150.773 135.944C141.499 135.944 132.752 132.061 126.091 124.973C119.3 117.747 115.491 108.055 115.366 97.6845C115.109 76.2892 130.806 58.6366 150.356 58.3352C161.228 58.1633 171.401 63.353 178.284 72.5617C178.578 72.955 178.535 73.5433 178.189 73.8765C177.843 74.2096 177.323 74.1614 177.03 73.7681C170.465 64.9857 160.751 60.038 150.378 60.2006C131.735 60.4888 116.767 77.292 117.012 97.6594C117.13 107.519 120.754 116.736 127.217 123.612C133.688 130.498 142.228 134.215 151.265 134.074C157.537 133.977 163.637 131.993 168.903 128.334C169.037 128.242 169.179 128.208 169.335 128.197C169.789 128.197 170.157 128.614 170.157 129.129C170.157 129.48 169.984 129.8 169.711 129.96C164.205 133.771 157.835 135.838 151.286 135.938C151.116 135.941 150.943 135.942 150.773 135.942L150.773 135.944Z" fill="#191919"/>
<path d="M118.528 100.67C118.583 105.275 117.645 109.404 116.135 112.139H116.132C114.964 114.253 113.45 115.534 111.783 115.559L105.801 115.651C101.977 115.71 98.7994 109.138 98.7015 100.976C98.6036 92.8103 101.622 86.1459 105.446 86.0871L111.428 85.9945C114.523 85.9469 117.196 90.2442 118.151 96.2159C118.378 97.6212 118.509 99.1152 118.528 100.67Z" fill="white"/>
<path d="M105.75 116.739C101.361 116.739 97.8493 109.846 97.7427 100.99C97.636 92.0906 101.015 85.0659 105.434 84.9978L111.416 84.9053C111.437 84.9053 111.459 84.9053 111.48 84.9053C115.87 84.9053 119.381 91.7984 119.488 100.655C119.537 104.778 118.825 108.683 117.48 111.65C116.036 114.838 114.018 116.613 111.796 116.647L105.814 116.739C105.793 116.739 105.771 116.739 105.75 116.739H105.75ZM111.481 87.082C111.468 87.082 111.455 87.082 111.442 87.082L105.461 87.1746C102.228 87.2241 99.5733 93.5376 99.6624 100.96C99.751 108.353 102.535 114.562 105.751 114.563C105.764 114.563 105.777 114.563 105.789 114.563L111.771 114.47C113.249 114.448 114.67 113.093 115.774 110.655C116.977 107.999 117.615 104.458 117.569 100.685C117.481 93.2917 114.697 87.082 111.481 87.082Z" fill="#191919"/>
<path d="M105.802 116.583C105.352 116.583 104.986 116.174 104.979 115.663C104.973 115.148 105.337 114.725 105.791 114.718C109.097 114.667 111.814 108.281 111.724 100.774C111.679 96.9747 110.95 93.429 109.673 90.7882C108.485 88.3338 106.989 86.9847 105.458 87.0178C105.01 87.027 104.631 86.6125 104.625 86.0976C104.619 85.5827 104.982 85.1596 105.436 85.1523C105.457 85.1523 105.479 85.1523 105.5 85.1523C107.643 85.1523 109.635 86.832 111.115 89.8912C112.52 92.7944 113.32 96.6508 113.369 100.749C113.475 109.562 110.156 116.517 105.813 116.585H105.802V116.583Z" fill="#191919"/>
<g opacity="0.3">
<path d="M112.198 98.4356C112.296 106.598 109.277 113.266 105.453 113.324C102.512 113.37 99.9532 109.494 98.8867 103.987C98.7882 103.108 98.7282 102.204 98.709 101.275C99.9789 105.426 102.184 108.162 104.659 108.124C108.48 108.065 111.501 101.4 111.403 93.2353C111.402 93.1355 111.401 93.0363 111.397 92.9365C111.642 93.7317 111.853 94.5778 112.022 95.4676C112.127 96.4267 112.186 97.4183 112.198 98.4349V98.4356Z" fill="#191919"/>
</g>
<g opacity="0.3">
<path d="M118.529 100.67C118.585 105.275 117.647 109.404 116.136 112.139L110.283 112.23C112.928 107.779 114.001 102.662 112.173 96.3084L118.152 96.2158C118.38 97.6212 118.511 99.1151 118.529 100.67Z" fill="#191919"/>
</g>
<g opacity="0.66">
<path d="M171.215 112.859C177.687 102.871 176.139 84.3349 166.856 76.5361C165.637 75.5115 163.946 76.7913 164.287 78.4683C166.128 87.5269 169.772 99.8583 168.733 111.748C168.595 113.333 170.384 114.142 171.215 112.859Z" fill="white"/>
</g>
<g opacity="0.66">
<path d="M137.506 95.9723C138.277 92.0948 136.706 88.3898 133.998 87.6971C131.29 87.0043 128.47 89.586 127.699 93.4635C126.928 97.341 128.498 101.046 131.206 101.739C133.914 102.432 136.735 99.8498 137.506 95.9723Z" fill="white"/>
</g>
<g opacity="0.66">
<path d="M135.423 112.47C136.141 115.065 136.128 117.19 134.491 117.772C132.854 118.355 130.944 116.724 130.226 114.13C129.508 111.535 130.254 108.959 131.891 108.377C133.528 107.794 134.705 109.876 135.423 112.47Z" fill="white"/>
</g>
<path d="M156.956 205.973C156.091 209.182 154.908 211.909 153.422 213.866L153.425 213.869C145.979 214.077 138.237 213.667 130.83 212.643C130.836 212.639 130.838 212.639 130.838 212.639C129.096 211.261 127.659 208.459 126.721 204.79C124.253 195.139 125.209 179.493 132.977 167.978C139.577 169.557 147.536 170.238 154.762 170.106C159.215 180.706 159.707 195.77 156.956 205.973Z" fill="#F93A43"/>
<path d="M109.663 207.472C108.055 206.857 106.519 206.196 105.065 205.492C98.587 202.352 93.6595 196.026 92.0568 188.246C91.9228 187.605 91.812 186.95 91.7246 186.286C91.5177 184.713 91.4507 183.093 91.5935 181.474C91.6692 181.612 91.7479 181.751 91.8295 181.89C91.8295 181.89 94.2569 185.526 100.23 186.269C100.933 186.355 101.623 186.421 102.296 186.461C102.489 189.581 103.008 193.491 104.252 197.421C105.374 200.944 107.078 204.48 109.663 207.472Z" fill="#FFBB24"/>
<path d="M130.839 212.641C130.839 212.641 130.836 212.641 130.83 212.644H130.828C123.178 211.58 115.891 209.858 109.663 207.472C104.197 201.146 102.661 192.377 102.297 186.461C107.353 186.745 111.356 185.47 110.648 180.072C110.648 180.072 113.344 180.072 113.781 176.933C114.218 173.793 112.542 172.058 112.542 172.058C112.542 172.058 114.664 165.669 118.88 159.214C119.944 163.339 125.614 166.217 132.978 167.979C122.255 183.873 124.51 207.634 130.839 212.641Z" fill="#E1DAEA"/>
<path d="M189.688 205.026C187.112 206.936 183.75 208.539 179.819 209.835C182.17 206.417 183.601 202.458 184.257 198.339C186.259 185.78 181.051 171.743 172.822 167.05C174.008 166.415 174.81 165.688 175.118 164.869C175.118 164.869 184.079 168.931 191.801 164.667C192.41 165.004 192.99 165.387 193.538 165.817C203.833 173.786 203.568 196.555 189.688 205.026Z" fill="#0DA9FF"/>
<path d="M179.82 209.834C172.5 212.247 163.222 213.592 153.425 213.87L153.422 213.867C159.626 205.687 160.614 184.041 154.762 170.107C162.461 169.972 169.323 168.917 172.82 167.05H172.823C183.75 173.28 189.348 195.993 179.82 209.834Z" fill="#E1DAEA"/>
<path d="M184.258 198.339C183.602 202.457 182.171 206.417 179.82 209.834C172.5 212.247 163.222 213.592 153.425 213.87L153.422 213.867C154.908 211.91 156.091 209.183 156.957 205.974C159.707 195.771 159.215 180.707 154.762 170.107C162.461 169.972 169.323 168.917 172.82 167.05H172.823C181.052 171.743 186.259 185.78 184.258 198.339Z" fill="white"/>
<g opacity="0.55">
<path d="M120.126 177.021C142.806 184.85 164.865 185.168 186.308 173.864C188.282 172.824 190.607 172.874 192.465 174.158C196.884 177.211 196.245 184.967 190.887 188.934C190.527 189.201 190.142 189.423 189.743 189.605C169.041 199.046 142.804 202.234 118.237 193.976C115.893 193.188 113.843 191.471 112.635 189.059C111.856 187.502 111.456 185.802 111.451 184.156C111.435 179.096 115.859 175.548 120.126 177.021Z" fill="white"/>
</g>
<path d="M130.839 212.641C130.839 212.641 130.836 212.641 130.83 212.644H130.828C123.178 211.58 115.891 209.858 109.663 207.472C107.079 204.481 105.374 200.944 104.252 197.421C103.008 193.491 102.489 189.581 102.297 186.461C107.353 186.745 111.356 185.47 110.648 180.072C110.648 180.072 113.344 180.072 113.781 176.933C114.218 173.793 112.542 172.058 112.542 172.058C112.542 172.058 114.664 165.669 118.88 159.214C119.944 163.339 125.614 166.217 132.978 167.979C125.209 179.494 124.254 195.14 126.722 204.791C127.66 208.46 129.097 211.263 130.839 212.641Z" fill="white"/>
<path d="M149.546 215.021C133.423 215.021 116.455 212.192 104.688 206.493C97.8311 203.169 92.7596 196.44 91.1225 188.494C90.6062 185.999 90.443 183.601 90.6388 181.367C90.6796 180.903 90.9763 180.519 91.3766 180.414C91.777 180.308 92.1925 180.505 92.4093 180.901C92.4735 181.018 92.5399 181.136 92.6081 181.253C92.8167 181.547 95.0576 184.531 100.335 185.188C104.797 185.743 107.707 185.261 108.986 183.754C109.671 182.947 109.904 181.796 109.699 180.233C109.658 179.92 109.739 179.602 109.922 179.363C110.104 179.123 110.369 178.985 110.648 178.985C110.834 178.981 112.538 178.886 112.833 176.764C113.179 174.281 111.942 172.912 111.889 172.855C111.61 172.553 111.509 172.084 111.645 171.675C111.734 171.408 113.863 165.069 118.11 158.567C118.327 158.235 118.69 158.072 119.049 158.144C119.408 158.216 119.7 158.513 119.802 158.91C121.089 163.904 131.439 167.787 146.169 168.801C161.342 169.846 173.14 167.342 174.238 164.441C174.444 163.898 174.993 163.641 175.476 163.86C175.561 163.898 184.146 167.686 191.382 163.69C191.648 163.544 191.958 163.544 192.223 163.69C197.917 166.839 201.548 174.123 201.7 182.699C201.874 192.589 197.462 201.498 190.18 205.963C182.026 211.987 166.238 215.022 149.545 215.022L149.546 215.021ZM92.4962 184.093C92.5486 185.349 92.7136 186.655 92.9916 187.997C94.4905 195.273 99.1447 201.438 105.442 204.491C116.255 209.727 132.722 212.833 149.606 212.833C149.838 212.833 150.067 212.833 150.299 212.831C167.393 212.745 181.922 209.487 189.165 204.115C189.188 204.097 189.211 204.081 189.235 204.067C197.203 199.203 199.908 189.862 199.782 182.741C199.648 175.193 196.597 168.788 191.785 165.878C185.116 169.294 177.843 167.064 175.514 166.184C172.027 170.925 156.334 171.68 146.053 170.972C140.479 170.588 123.043 168.796 118.716 161.348C115.92 165.959 114.216 170.309 113.65 171.851C114.226 172.723 115.089 174.52 114.729 177.102C114.389 179.543 112.91 180.618 111.686 180.993C111.735 182.74 111.294 184.173 110.369 185.262C108.633 187.309 105.282 187.992 100.127 187.35C96.3508 186.88 93.8891 185.312 92.4968 184.092L92.4962 184.093Z" fill="#191919"/>
<g opacity="0.3">
<path d="M189.687 205.027C187.112 206.937 183.749 208.54 179.818 209.836C172.498 212.249 163.22 213.594 153.423 213.871C145.978 214.08 138.235 213.67 130.828 212.645H130.825C123.176 211.581 115.888 209.859 109.661 207.473C108.053 206.858 106.517 206.197 105.063 205.493C98.5851 202.353 93.6575 196.027 92.0549 188.247C91.9208 187.606 91.8101 186.951 91.7227 186.287C94.3481 190.712 98.7278 194.431 104.25 197.422C110.553 200.836 118.348 203.305 126.719 204.792C136.493 206.534 147.056 206.944 156.955 205.975C167.34 204.964 176.997 202.436 184.256 198.341C196.034 191.697 201.504 180.933 193.537 165.818C203.832 173.787 203.567 196.556 189.687 205.027Z" fill="#191919"/>
</g>
<path d="M111.893 227.151C115.393 226.043 119.803 226.425 122.184 229.868C120.868 228.547 119.154 227.891 117.429 227.897C115.773 227.898 114.094 228.36 112.611 229.169C111.331 229.872 110.539 227.655 111.893 227.151V227.151Z" fill="#191919"/>
<path d="M177.416 228.861C174.724 226.9 171.051 227.051 168.405 229.07L167.836 229.484L168.332 228.961C170.208 226.941 172.856 225.896 175.454 226.171C176.464 226.282 177.469 226.509 178.401 226.988C179.618 227.733 178.575 229.723 177.416 228.86V228.861Z" fill="#191919"/>
<path d="M194.603 147.138C185.094 147.138 179.511 139.224 179.445 139.129C179.148 138.698 179.215 138.075 179.596 137.738C179.976 137.401 180.525 137.476 180.822 137.907C181.11 138.323 187.944 147.935 199.581 144.384C200.047 144.244 200.527 144.555 200.652 145.084C200.777 145.613 200.501 146.157 200.035 146.299C198.106 146.887 196.292 147.138 194.602 147.138H194.603Z" fill="#191919"/>
<path d="M178.972 143.962C177.632 146.753 176.304 149.56 175.072 152.419C175.705 149.304 176.442 146.223 177.195 143.139C177.647 141.605 179.595 142.505 178.972 143.961V143.962Z" fill="#191919"/>
<path d="M168.863 150.664L169.056 145.368L170.756 150.305L168.863 150.664Z" fill="#191919"/>
<path d="M185.967 117.547C185.145 116.754 184.382 115.888 183.68 114.959C180.623 110.917 178.781 105.662 178.781 99.9212C178.781 88.7863 185.717 79.4858 194.957 77.2812C194.91 78.2265 195.286 79.142 195.974 79.9419C195.974 79.9419 177.141 88.945 185.967 117.547Z" fill="#F93A43"/>
<path d="M219.578 99.9206C219.578 107.175 216.634 113.653 212.025 117.89C221.102 95.0952 207.52 81.0914 207.52 81.0914C208.082 80.632 208.502 80.0867 208.738 79.4785C215.186 83.362 219.578 91.0596 219.578 99.9206Z" fill="#FFBB24"/>
<path d="M212.024 117.891C211.832 118.066 211.637 118.235 211.445 118.396C211.156 118.641 210.865 118.876 210.573 119.097C210.474 119.173 210.378 119.246 210.279 119.319C210.183 119.388 210.084 119.461 209.985 119.53C209.889 119.6 209.789 119.669 209.69 119.738C209.478 119.884 209.265 120.026 209.049 120.158C208.944 120.228 208.837 120.294 208.729 120.356L208.501 120.495C208.452 120.525 208.402 120.555 208.35 120.584C208.257 120.641 208.166 120.694 208.076 120.74C207.817 120.885 207.557 121.021 207.298 121.15C206.986 121.302 206.671 121.447 206.354 121.583C205.716 121.854 205.063 122.092 204.396 122.293C204.27 122.33 204.148 122.366 204.023 122.399C203.959 122.419 203.894 122.439 203.83 122.452C203.714 122.485 203.594 122.515 203.475 122.544C203.315 122.584 203.151 122.62 202.988 122.653C202.778 122.7 202.569 122.739 202.359 122.776C209.553 115.455 208.096 91.4367 203.335 82.6021L203.422 82.5691C202.834 82.6187 202.222 82.6154 201.592 82.5526C200.736 82.4666 199.923 82.2816 199.18 82.0171C199.18 82.0171 187.562 96.3084 192.536 121.801C191.274 121.308 190.071 120.68 188.937 119.93C188.818 119.854 188.704 119.778 188.59 119.699C187.667 119.061 186.789 118.34 185.968 117.547C177.141 88.9446 195.974 79.9415 195.974 79.9415C195.287 79.1417 194.911 78.2262 194.957 77.2809C194.963 77.2809 194.972 77.2776 194.978 77.2776C196.333 76.9537 197.74 76.7852 199.18 76.7852C200.182 76.7852 201.17 76.8678 202.134 77.0297C202.353 77.0595 202.572 77.0991 202.79 77.1454C202.959 77.1818 203.125 77.2181 203.291 77.2545C203.457 77.2941 203.621 77.3338 203.787 77.3768C204.608 77.5949 205.413 77.8659 206.194 78.1898C206.348 78.2559 206.505 78.322 206.66 78.3914C206.969 78.5303 207.278 78.679 207.586 78.8376C207.779 78.9368 207.971 79.0392 208.163 79.145C208.356 79.2541 208.548 79.3631 208.737 79.4788C208.501 80.087 208.082 80.6323 207.519 81.0917C207.519 81.0917 221.101 95.0955 212.024 117.891Z" fill="white"/>
<path d="M212.025 117.891C211.833 118.066 211.637 118.235 211.445 118.397C211.157 118.641 210.865 118.876 210.574 119.097C210.475 119.173 210.379 119.246 210.28 119.319C210.183 119.388 210.084 119.461 209.985 119.53C209.889 119.6 209.79 119.669 209.691 119.738C209.478 119.884 209.265 120.026 209.05 120.158C208.945 120.228 208.837 120.294 208.729 120.356L208.502 120.495C208.452 120.525 208.403 120.555 208.351 120.585C208.257 120.641 208.167 120.694 208.077 120.74C207.817 120.885 207.558 121.021 207.299 121.15C206.984 121.308 206.672 121.454 206.354 121.583C205.708 121.867 205.055 122.102 204.396 122.293C204.271 122.33 204.149 122.366 204.023 122.399C203.959 122.419 203.895 122.439 203.831 122.452C203.714 122.485 203.595 122.515 203.475 122.544C203.315 122.584 203.152 122.62 202.989 122.654C202.779 122.7 202.569 122.739 202.359 122.776C209.554 115.455 208.097 91.4368 203.336 82.6022L203.423 82.5692H203.429L207.514 81.0951C207.514 81.0918 207.517 81.0918 207.517 81.0918H207.52C207.52 81.0918 221.102 95.0955 212.025 117.891Z" fill="white"/>
<path d="M208.737 79.4787C208.501 80.0869 208.081 80.6322 207.519 81.0916H207.516C207.516 81.0916 207.513 81.0916 207.513 81.0949C206.516 81.9047 205.074 82.4401 203.428 82.569H203.422L203.334 82.602C208.096 91.4366 209.553 115.455 202.358 122.776C201.324 122.961 200.26 123.057 199.179 123.057C196.851 123.057 194.619 122.614 192.535 121.801C187.561 96.3083 199.179 82.017 199.179 82.017C199.176 82.017 199.173 82.0137 199.17 82.0137C199.095 81.984 199.019 81.9542 198.943 81.9245C198.512 81.7659 198.107 81.5742 197.731 81.3527C197.658 81.3131 197.588 81.2701 197.521 81.2304C197.375 81.1445 197.235 81.052 197.101 80.9561C197.023 80.9032 196.947 80.847 196.871 80.7875C196.798 80.7281 196.725 80.6719 196.653 80.6124C196.492 80.4802 196.344 80.3414 196.204 80.1959C196.157 80.1497 196.114 80.1001 196.07 80.0505C196.038 80.0175 196.006 79.9778 195.974 79.9414C195.286 79.1416 194.91 78.2261 194.957 77.2808C194.962 77.2808 194.971 77.2775 194.977 77.2775C197.407 76.7553 199.797 76.6529 202.134 77.0296C202.352 77.0594 202.571 77.099 202.789 77.1453C202.958 77.1817 203.125 77.218 203.291 77.2544C203.457 77.294 203.62 77.3337 203.786 77.3767C204.593 77.5816 205.397 77.8526 206.193 78.1897C206.347 78.2558 206.505 78.3219 206.659 78.3913C206.968 78.5302 207.277 78.6789 207.586 78.8375C207.778 78.9367 207.97 79.0391 208.163 79.1449C208.355 79.254 208.547 79.363 208.737 79.4787Z" fill="#0DA9FF"/>
<path d="M199.179 124.146C192.929 124.146 187.014 121.056 182.951 115.668C179.644 111.295 177.822 105.702 177.822 99.9221C177.822 86.5648 187.403 75.6982 199.179 75.6982C210.956 75.6982 220.536 86.5648 220.536 99.9221C220.536 109.581 215.49 118.306 207.679 122.149C204.99 123.474 202.131 124.146 199.179 124.146ZM199.179 77.8743C188.461 77.8743 179.741 87.7645 179.741 99.9221C179.741 105.183 181.398 110.272 184.408 114.252C188.107 119.156 193.491 121.969 199.179 121.969C201.865 121.969 204.468 121.358 206.915 120.152C214.024 116.654 218.617 108.713 218.617 99.9214C218.617 87.7645 209.898 77.8737 199.179 77.8737L199.179 77.8743Z" fill="#191919"/>
<g opacity="0.3">
<path d="M219.577 99.9199C219.577 109.425 214.524 117.592 207.297 121.149C204.809 122.375 202.064 123.056 199.179 123.056C192.975 123.056 187.418 119.916 183.68 114.958C180.623 110.916 178.781 105.661 178.781 99.9199C178.781 99.0638 178.822 98.2144 178.904 97.3815C181.713 106.791 188.951 113.491 197.439 113.491C208.253 113.491 217.039 102.62 217.222 89.1221C218.726 92.3446 219.577 96.0198 219.577 99.9199Z" fill="#191919"/>
</g>
<g opacity="0.55">
<path d="M210.087 95.6023C210.087 100.087 204.869 103.722 198.431 103.722C191.994 103.722 186.775 100.087 186.775 95.6023C186.775 91.1179 191.994 91.5483 198.431 91.5483C204.869 91.5483 210.087 91.1179 210.087 95.6023Z" fill="white"/>
</g>
<g opacity="0.3">
<path d="M90.0168 167.978C90.0291 167.929 90.5297 178.728 98.5309 179.978C106.532 181.228 107.692 175.499 107.692 175.499C107.692 175.499 109.868 175.885 109.663 172.414C109.459 168.944 113.198 153.851 127.088 147.984C127.088 147.984 120.455 161.948 128.337 166.63C121.037 164.351 116.908 168.279 114.461 175.499C114.461 175.499 114.953 183.438 111.453 187.897C107.953 192.355 94.5364 190.232 91.5315 183.967L90.4691 179.977C90.4691 179.977 88.7714 172.914 90.0174 167.978L90.0168 167.978Z" fill="#191919"/>
</g>
<g opacity="0.3">
<path d="M201.783 132.148C201.783 132.148 198.87 161.325 191.803 164.667C191.803 164.667 183.594 170.986 175.121 164.868L171.627 163.235L171.624 163.232L171.146 158.423L170.508 150.931C170.508 150.931 174.684 161.619 184.687 157.653C194.694 153.687 195.976 131.43 195.976 131.43C195.976 131.43 195.81 128.733 201.201 128.291C206.592 127.851 210.866 124.272 210.767 121.846C210.756 121.555 210.793 121.34 210.869 121.185C211.502 121.35 212.096 121.69 212.469 122.341C213.635 124.381 210.453 127.851 201.783 132.148Z" fill="#191919"/>
</g>
<path d="M112.566 223.975C112.81 224.464 112.796 225.102 112.42 225.925L112.566 223.975Z" fill="#191919"/>
<path d="M206.316 161.173C208.227 158.74 211.613 155.445 216.109 155.132C217.198 155.056 218.297 155.337 219.203 156.027C220.038 156.664 220.836 157.722 220.904 159.45C221.049 163.173 217.698 164.991 215.768 164.991C214.249 164.991 210.746 164.377 207.299 164.014C206.067 163.885 205.494 162.22 206.317 161.173L206.316 161.173Z" fill="#0DA9FF"/>
<g opacity="0.55">
<path d="M214.559 159.753C215.968 159.281 216.983 158.41 216.826 157.808C216.669 157.206 215.4 157.101 213.992 157.573C212.583 158.045 211.568 158.916 211.725 159.517C211.882 160.119 213.151 160.225 214.559 159.753Z" fill="white"/>
</g>
<g opacity="0.3">
<path d="M215.769 164.991C214.251 164.991 210.748 164.377 207.301 164.013C206.264 163.904 205.692 162.707 206.028 161.706C206.284 161.904 206.602 162.02 206.957 161.997C210.413 161.792 213.959 161.828 215.46 161.58C217.109 161.309 219.636 159.521 219.895 156.686C220.437 157.327 220.857 158.216 220.903 159.449C221.049 163.173 217.698 164.991 215.769 164.991Z" fill="#191919"/>
</g>
<path d="M215.769 166.079C214.82 166.079 213.206 165.862 211.337 165.611C210.063 165.439 208.62 165.246 207.211 165.098C206.28 165 205.488 164.326 205.146 163.34C204.803 162.35 204.977 161.243 205.601 160.448C207.752 157.709 211.312 154.375 216.052 154.045C217.394 153.953 218.705 154.334 219.739 155.123C221.058 156.13 221.793 157.609 221.863 159.402C221.928 161.049 221.424 162.556 220.408 163.762C219.058 165.362 217.105 166.079 215.769 166.079ZM216.451 156.208C216.358 156.208 216.264 156.211 216.169 156.217C212.082 156.502 208.945 159.462 207.034 161.896C206.829 162.156 206.894 162.434 206.932 162.542C206.969 162.649 207.087 162.898 207.388 162.93C208.822 163.081 210.278 163.277 211.563 163.449C213.371 163.692 214.933 163.902 215.769 163.902C216.696 163.902 218.111 163.337 219.022 162.257C219.677 161.481 219.987 160.552 219.946 159.499C219.903 158.394 219.485 157.553 218.669 156.93C218.052 156.46 217.274 156.208 216.451 156.208L216.451 156.208Z" fill="#191919"/>
<path d="M95.4072 207.166C92.3417 206.057 87.4217 205.074 82.933 207.681C81.8455 208.313 80.9282 209.294 80.4025 210.545C79.9182 211.7 79.681 213.235 80.4853 214.945C82.2174 218.626 86.3604 218.209 88.2201 216.96C89.6835 215.977 92.7502 213.119 95.8897 210.54C97.0116 209.618 96.7266 207.644 95.4066 207.166L95.4072 207.166Z" fill="#0DA9FF"/>
<g opacity="0.55">
<path d="M86.7387 211.114C88.3331 210.658 89.5028 209.736 89.3512 209.054C89.1997 208.373 87.7842 208.19 86.1898 208.646C84.5953 209.103 83.4256 210.025 83.5772 210.706C83.7288 211.388 85.1442 211.57 86.7387 211.114Z" fill="white"/>
</g>
<g opacity="0.3">
<path d="M88.2213 216.961C89.6842 215.979 92.7497 213.12 95.8886 210.54C96.8333 209.764 96.782 208.241 95.9556 207.493C95.8082 207.85 95.5605 208.167 95.2061 208.375C91.7729 210.414 88.3746 212.743 86.804 213.475C85.0783 214.281 81.7448 214.193 80.0692 211.628C79.8693 212.596 79.9124 213.725 80.4871 214.942C82.2197 218.625 86.3628 218.209 88.2219 216.961H88.2213Z" fill="#191919"/>
</g>
<path d="M85.0674 218.94C84.4409 218.94 83.7963 218.853 83.164 218.652C81.6097 218.158 80.3905 217.053 79.6392 215.456C78.8233 213.722 78.7878 211.862 79.5367 210.077C80.1259 208.673 81.1766 207.478 82.4961 206.712C87.1946 203.984 92.2695 204.888 95.6987 206.129C96.658 206.476 97.3533 207.391 97.513 208.517C97.6721 209.641 97.2658 210.753 96.4534 211.421C95.1684 212.477 93.874 213.598 92.7323 214.588C91.0614 216.035 89.6184 217.286 88.7098 217.896C87.8292 218.487 86.4952 218.94 85.0674 218.94V218.94ZM89.3043 207.108C87.3642 207.108 85.3203 207.519 83.3709 208.65C82.425 209.2 81.6784 210.039 81.2699 211.013C80.7798 212.182 80.8002 213.3 81.3328 214.432C81.8387 215.507 82.629 216.222 83.6821 216.556C85.1332 217.018 86.8181 216.637 87.7325 216.023C88.5437 215.479 89.9448 214.264 91.5679 212.858C92.7189 211.862 94.0232 210.731 95.3281 209.658C95.6538 209.391 95.6398 209.013 95.6189 208.863C95.5973 208.712 95.5052 208.344 95.1171 208.203C93.4923 207.616 91.463 207.108 89.3055 207.108H89.3043Z" fill="#191919"/>
<path d="M207.033 174.904C206.075 173.403 207.3 171.362 208.887 171.806C210.192 172.171 211.814 172.895 212.927 174.33C215.077 177.098 213.4 179.287 211.798 179.246C210.195 179.206 208.046 176.478 207.063 174.95C207.053 174.935 207.043 174.919 207.033 174.904V174.904Z" fill="#0DA9FF"/>
<g opacity="0.3">
<path d="M211.76 179.246C210.158 179.206 208.01 176.476 207.025 174.949C207.016 174.933 207.005 174.92 206.996 174.903C206.568 174.232 206.576 173.456 206.856 172.841C207.96 174.351 209.668 176.238 210.997 176.272C211.886 176.295 212.795 175.634 213.063 174.566C214.942 177.223 213.316 179.286 211.76 179.246Z" fill="#191919"/>
</g>
<path d="M211.842 180.239C211.821 180.239 211.799 180.239 211.777 180.238C209.459 180.178 206.854 176.309 206.356 175.535L206.325 175.486C205.673 174.465 205.654 173.128 206.277 172.08C206.903 171.025 208.01 170.541 209.096 170.844C210.43 171.218 212.292 172.011 213.583 173.675C215.273 175.851 214.822 177.628 214.549 178.291C214.068 179.463 212.986 180.239 211.843 180.239L211.842 180.239ZM208.444 172.735C208.031 172.735 207.795 173.07 207.726 173.187C207.646 173.322 207.41 173.804 207.741 174.322L207.766 174.363C208.968 176.231 210.796 178.228 211.817 178.255C212.29 178.252 212.765 177.938 212.964 177.454C213.236 176.789 212.99 175.913 212.27 174.985C211.278 173.707 209.768 173.074 208.677 172.769C208.594 172.746 208.516 172.735 208.444 172.735Z" fill="#191919"/>
<path d="M97.913 220.094C97.8652 218.241 95.7963 217.473 94.7781 218.922C93.9406 220.113 93.0455 221.81 92.9347 223.717C92.7209 227.398 95.2263 227.973 96.4741 226.831C97.7218 225.689 97.9573 222.041 97.9141 220.15C97.9141 220.131 97.913 220.112 97.913 220.094Z" fill="#0DA9FF"/>
<g opacity="0.3">
<path d="M96.5021 226.806C97.7504 225.666 97.9835 222.016 97.9421 220.125C97.9404 220.106 97.9421 220.088 97.9404 220.068C97.9188 219.24 97.494 218.631 96.9421 218.338C96.8797 220.299 96.5417 222.976 95.5066 223.922C94.8149 224.555 93.739 224.661 92.9523 224C92.8928 227.406 95.2904 227.915 96.5021 226.807V226.806Z" fill="#191919"/>
</g>
<path d="M95.1352 228.348C94.6678 228.348 94.201 228.226 93.7791 227.979C93.2068 227.641 91.8937 226.545 92.0616 223.652C92.1898 221.44 93.2377 219.523 94.0938 218.304C94.7914 217.311 95.9284 216.93 96.992 217.332C98.0492 217.731 98.7532 218.804 98.7859 220.065L98.7876 220.125C98.8098 221.083 98.8272 225.951 97.0223 227.602C96.4856 228.094 95.8101 228.347 95.1352 228.347V228.348ZM96.1376 219.159C95.9348 219.159 95.6761 219.234 95.461 219.54C94.7605 220.537 93.905 222.084 93.8059 223.783C93.7342 225.016 94.011 225.881 94.5839 226.219C95.0018 226.465 95.5525 226.399 95.9238 226.06C96.7187 225.333 97.0917 222.486 97.0392 220.177L97.0381 220.129C97.0381 220.129 97.0381 220.126 97.0381 220.124C97.0212 219.483 96.5753 219.266 96.4389 219.214C96.3836 219.193 96.2729 219.159 96.1371 219.159L96.1376 219.159Z" fill="#191919"/>
</svg>
