<svg width="250" height="200" viewBox="0 0 250 200" fill="none" xmlns="http://www.w3.org/2000/svg">
<path d="M244.722 139.182C243.289 138.883 240.247 138.316 236.88 138.148C233.275 137.969 229.293 138.245 226.512 139.786C223.694 141.347 222.331 143.81 219.573 145.9C218.296 146.871 216.721 147.759 214.564 148.446C212.639 149.059 210.906 149.264 209.216 149.365C204.7 149.637 200.501 149.174 193.816 153.798C193.148 154.261 192.342 154.702 191.442 155.112C191.193 155.232 190.931 155.344 190.666 155.456C190.651 155.464 190.636 155.471 190.625 155.474C184.377 158.113 174.706 159.676 174.706 159.676L124.947 81.9922L234.659 122.383L245.105 138.622C245.281 138.898 245.041 139.253 244.721 139.182H244.722Z" fill="#F91C1C"/>
<g opacity="0.2">
<path d="M244.724 139.184C243.291 138.885 240.249 138.318 236.882 138.15C233.277 137.971 229.294 138.247 226.514 139.788C223.696 141.349 222.333 143.812 219.575 145.902C218.298 146.873 216.723 147.761 214.566 148.448C212.641 149.061 210.908 149.266 209.217 149.366C204.701 149.639 200.503 149.176 193.818 153.8C193.15 154.263 192.344 154.704 191.444 155.114C191.195 155.234 190.933 155.346 190.668 155.458C190.653 155.466 190.638 155.473 190.627 155.476C184.379 158.115 174.708 159.678 174.708 159.678L124.949 81.9941L234.661 122.385L245.107 138.624C245.283 138.9 245.043 139.255 244.723 139.184H244.724Z" fill="#371A45"/>
</g>
<g opacity="0.35">
<path d="M236.88 138.15C233.275 137.971 229.292 138.247 226.512 139.788C223.694 141.348 222.331 143.811 219.573 145.902C220.42 143.972 221.234 140.658 218.692 137.885C213.9 132.656 204.001 129.136 204.069 128.226C204.281 125.367 225.096 133.988 236.879 138.15H236.88Z" fill="#371A45"/>
</g>
<g opacity="0.35">
<path d="M209.217 149.365C204.701 149.638 200.502 149.175 193.818 153.799C193.149 154.262 192.344 154.702 191.444 155.113C191.164 155.221 190.903 155.333 190.667 155.456C190.652 155.464 190.637 155.471 190.626 155.475C191.779 153.709 195.15 152.127 193.328 146.67C191.086 139.941 181.06 132.67 181.277 131.785C181.859 129.393 197.793 141.934 209.217 149.364V149.365Z" fill="#371A45"/>
</g>
<path d="M173.978 161.308L121.295 79.0566L235.645 121.155L246.362 137.815C246.77 138.449 246.758 139.26 246.33 139.881C245.904 140.5 245.152 140.8 244.416 140.646C238.679 139.438 231.153 138.922 227.236 141.093C225.828 141.874 224.825 142.92 223.664 144.133C221.732 146.149 219.544 148.434 215.017 149.871C212.252 150.749 209.877 150.845 207.579 150.935C203.76 151.087 200.153 151.232 194.666 155.029C189.193 158.816 175.525 161.059 174.945 161.152L173.978 161.308ZM128.601 84.9286L175.429 158.037C178.608 157.462 188.818 155.444 192.966 152.574C199.166 148.283 203.382 148.115 207.458 147.953C209.655 147.865 211.73 147.782 214.112 147.026C217.913 145.818 219.658 143.997 221.507 142.068C222.725 140.796 223.984 139.482 225.788 138.482C230.447 135.899 237.805 136.494 242.443 137.244L233.674 123.611L128.601 84.9286H128.601ZM243.848 139.427C243.848 139.427 243.85 139.43 243.851 139.432L243.848 139.427Z" fill="#371A45"/>
<path d="M139.233 89.6964C139.233 89.6964 198.657 109.712 245.592 139.379C245.592 139.379 253.129 126.598 241.862 115.733C241.862 115.733 220.333 113.52 189.847 101.287C160.249 89.409 137.24 75.8496 137.24 75.8496L139.232 89.6964H139.233Z" fill="#F91C1C"/>
<g opacity="0.35">
<path d="M246.321 137.885C246.362 137.716 246.402 137.545 246.44 137.369C248.407 128.43 242.428 119.661 233.427 117.998C224.648 116.376 208.584 112.659 188.716 104.686C163.948 94.7428 143.794 83.6279 137.875 80.2652L137.24 75.8496C137.24 75.8496 160.25 89.409 189.851 101.289C220.333 113.52 241.864 115.734 241.864 115.734C250.814 124.363 247.9 134.201 246.321 137.885Z" fill="white"/>
</g>
<path d="M245.461 140.72C245.111 140.72 244.765 140.623 244.465 140.433C198.276 111.32 139.347 91.3107 138.758 91.1124L137.887 90.8188L135.322 72.9863L138 74.5642C138.229 74.6996 161.261 88.2057 190.406 99.9015C220.313 111.903 241.803 114.226 242.016 114.248L242.528 114.301L242.899 114.659C253.813 125.183 248.32 137.379 247.109 139.717C246.869 140.179 246.445 140.52 245.946 140.656C245.787 140.699 245.623 140.719 245.461 140.719V140.72ZM140.582 88.5822C148.047 91.1709 201.747 110.224 244.979 137.23C246.427 133.819 248.981 125.005 241.18 117.157C237.66 116.718 217.008 113.795 189.293 102.674C165.699 93.2048 146.075 82.5539 139.155 78.6634L140.582 88.5831V88.5822Z" fill="#371A45"/>
<path d="M101.082 142.235C104.232 154.104 107.455 159.7 107.455 159.7C107.455 159.7 112.674 171.119 123.833 176.776C131.011 180.414 140.161 179.668 140.161 179.668C140.161 179.668 144.839 194.537 151.074 197.549C157.31 200.56 167.774 196.396 166.095 185.495C164.978 178.24 160.412 167.435 157.374 163.932C153.57 159.548 137.891 141.466 136.008 134.453" fill="white"/>
<g opacity="0.35">
<path d="M101.084 142.235C104.234 154.104 107.457 159.7 107.457 159.7C107.457 159.7 112.676 171.119 123.835 176.776C131.012 180.414 140.163 179.668 140.163 179.668C140.163 179.668 144.841 194.537 151.076 197.549C157.312 200.56 167.776 196.396 166.097 185.495C164.98 178.24 160.414 167.435 157.376 163.932C153.572 159.548 137.893 141.466 136.01 134.453" fill="#371A45"/>
</g>
<path d="M155.444 200C153.694 200 151.968 199.636 150.426 198.891C144.612 196.083 140.386 184.964 139.1 181.212C136.311 181.286 129.155 181.145 123.159 178.105C111.975 172.436 106.612 161.415 106.128 160.38C105.745 159.698 102.666 154.017 99.6401 142.616C99.4287 141.819 99.9031 141.001 100.7 140.79C101.496 140.579 102.314 141.053 102.526 141.85C105.575 153.339 108.719 158.899 108.751 158.953L108.815 159.076C108.864 159.184 113.972 170.099 124.509 175.441C131.233 178.849 139.953 178.183 140.04 178.177L141.228 178.08L141.586 179.217C142.835 183.182 147.092 193.964 151.724 196.201C154.604 197.592 158.532 197.145 161.276 195.116C164.05 193.064 165.237 189.727 164.619 185.719C163.514 178.54 159.016 168.1 156.245 164.907C143.169 149.833 135.875 139.716 134.566 134.837C134.352 134.041 134.825 133.221 135.621 133.008C136.418 132.795 137.237 133.267 137.45 134.064C138.12 136.561 141.747 143.636 158.501 162.951C161.895 166.862 166.472 178.123 167.572 185.265C168.644 192.225 165.2 195.929 163.052 197.518C160.843 199.151 158.117 199.999 155.444 199.999V200Z" fill="#371A45"/>
<path d="M102.608 85.9948L31.9598 17.6605C31.9598 17.6605 21.772 3.68353 8.76997 13.9195C-3.99263 23.9658 2.99238 34.0733 7.47344 38.8252L73.6558 92.6146C73.6558 92.6146 78.9529 139.228 106.875 155.832C125.851 167.115 144.206 158.067 144.206 158.067C144.206 158.067 149.424 169.486 160.584 175.143C167.762 178.781 176.912 178.035 176.912 178.035C176.912 178.035 181.589 192.904 187.825 195.916C194.06 198.927 204.524 194.763 202.846 183.862C201.728 176.607 197.162 165.802 194.124 162.299C190.321 157.915 174.641 139.833 172.758 132.82C162.572 94.8713 134.276 77.9937 134.276 77.9937L102.608 85.9939L102.608 85.9948Z" fill="white"/>
<path d="M203.024 186.041C203.084 195.308 193.623 198.716 187.822 195.913C181.59 192.905 176.909 178.035 176.909 178.035C176.909 178.035 167.761 178.781 160.584 175.142C149.425 169.484 144.206 158.067 144.206 158.067C144.206 158.067 125.85 167.114 106.876 155.831C106.592 155.664 106.309 155.488 106.028 155.312C87.8298 143.91 79.4915 119.68 75.9645 104.908C74.2215 97.6072 73.6545 92.6133 73.6545 92.6133L63.7671 84.5773L54.2013 76.8025L7.47296 38.8222C7.40918 38.755 7.34628 38.6877 7.2825 38.6169C2.7962 33.7873 -3.814 23.8222 8.76775 13.9165C21.7715 3.67879 31.9602 17.6567 31.9602 17.6567L55.5966 40.5207L102.605 85.9918L134.274 77.9933C134.274 77.9933 137.875 80.1434 142.971 84.6297C144.553 86.0215 146.281 87.6413 148.088 89.4926C155.239 96.8078 163.655 107.744 169.432 122.647C170.671 125.853 171.795 129.242 172.754 132.817C174.639 139.83 190.318 157.913 194.122 162.295C197.159 165.799 201.728 176.605 202.844 183.861C202.964 184.618 203.02 185.346 203.023 186.04L203.024 186.041Z" fill="white"/>
<g opacity="0.35">
<path d="M203.025 186.041C203.085 195.308 193.624 198.716 187.823 195.913C181.591 192.905 176.91 178.035 176.91 178.035C176.91 178.035 167.762 178.781 160.585 175.142C149.425 169.484 144.207 158.067 144.207 158.067C144.207 158.067 125.851 167.114 106.877 155.831C106.593 155.664 106.31 155.488 106.029 155.312C112.411 156.817 121.843 158.171 130.102 155.891C144.181 152.009 144.181 147.396 149.518 148.247C154.859 149.095 149.85 159.728 161.839 168.088C174.764 177.105 187.49 168.734 189.565 170.94C191.645 173.146 183.18 176.904 184.105 185.018C184.918 192.128 199.445 195.92 203.024 186.041H203.025Z" fill="#371A45"/>
</g>
<g opacity="0.35">
<path d="M63.7678 84.5789L7.47366 38.8247C7.40988 38.7574 7.34698 38.6901 7.2832 38.6194L18.9284 22.1113C18.9284 22.1113 26.5014 51.686 40.2661 56.5384C51.2245 60.4009 52.7168 41.7358 52.7168 41.7358L63.7678 84.5789Z" fill="#371A45"/>
</g>
<path d="M192.194 198.369C190.444 198.369 188.718 198.006 187.176 197.261C181.361 194.453 177.135 183.333 175.85 179.582C173.062 179.66 165.906 179.514 159.909 176.475C150.561 171.736 145.28 163.259 143.515 159.999C138.821 161.899 122.806 167.042 106.114 157.116C91.3042 148.31 82.8619 131.251 78.3869 118.492C74.1374 106.375 72.5919 95.9984 72.2503 93.3966L6.45666 39.9227L6.38851 39.851C1.88386 35.0738 -0.313425 30.0581 0.0360437 25.3455C0.372407 20.8024 3.00128 16.5633 7.84842 12.748C11.9154 9.54599 16.1605 8.225 20.4642 8.81735C27.6065 9.80197 32.3829 15.7491 33.0853 16.6717L103.05 84.3454L134.511 76.3976L135.042 76.7148C135.338 76.8912 142.395 81.1469 150.791 90.1614C158.522 98.4631 168.859 112.536 174.201 132.436C174.872 134.935 178.498 142.011 195.252 161.323C198.645 165.234 203.222 176.495 204.322 183.637C205.393 190.597 201.95 194.301 199.803 195.89C197.594 197.523 194.867 198.371 192.196 198.371L192.194 198.369ZM177.977 176.453L178.335 177.588C179.584 181.554 183.842 192.336 188.473 194.572C191.353 195.963 195.281 195.517 198.025 193.487C200.799 191.436 201.986 188.098 201.369 184.089C200.264 176.91 195.766 166.471 192.995 163.277C179.92 148.206 172.626 138.088 171.315 133.207C162.162 99.1044 137.846 82.0975 134.018 79.5988L102.167 87.6453L30.8304 18.6435L30.7543 18.5396C30.7124 18.4828 26.351 12.6309 20.0353 11.7712C16.5729 11.2986 13.0922 12.4169 9.69361 15.0929C5.53231 18.3692 3.28436 21.8927 3.01177 25.5648C2.65444 30.3944 5.77781 34.8335 8.49231 37.7306L75.0696 91.8415L75.1386 92.447C75.191 92.9056 80.6838 138.522 107.638 154.55C125.658 165.265 143.371 156.815 143.547 156.728L144.924 156.054L145.563 157.447C145.612 157.556 150.72 168.47 161.257 173.812C167.959 177.209 176.702 176.555 176.789 176.548L177.975 176.452L177.977 176.453Z" fill="#371A45"/>
<path d="M136.459 140.251C136.503 143.864 134.622 147.287 131.588 148.488C123.985 151.504 111.202 154.993 97.4896 151.921C94.3024 151.209 91.4167 149.216 89.3233 146.226C86.7888 142.606 83.4042 136.667 80.6941 127.993C79.7086 124.836 81.8098 121.518 84.5907 121.816C91.4769 122.563 104.253 122.477 121.746 116.147C125.147 114.915 128.771 116.949 130.17 120.895L133.694 130.815L135.888 137C136.266 138.063 136.452 139.165 136.46 140.251H136.459Z" fill="white"/>
<g opacity="0.35">
<path d="M136.458 140.251C136.502 143.864 134.621 147.287 131.587 148.488C123.984 151.504 111.201 154.994 97.4886 151.922C94.3015 151.209 91.4157 149.216 89.3224 146.226C89.1695 146.01 89.0166 145.786 88.8594 145.551C89.9794 146.204 91.1772 146.678 92.4196 146.954C106.136 150.026 118.919 146.536 126.522 143.521C127.831 143.002 128.925 142.069 129.746 140.889C128.314 140.519 127.048 139.281 126.518 137.601L126.418 137.283C125.548 134.537 126.963 131.778 129.385 131.483C129.78 131.434 130.176 131.383 130.572 131.327L125.112 115.949C127.306 116.475 129.236 118.259 130.169 120.894L133.693 130.815L135.887 136.999C135.936 137.134 135.977 137.264 136.018 137.399C136.052 137.507 136.086 137.615 136.112 137.724C136.176 137.944 136.224 138.168 136.268 138.388C136.287 138.481 136.306 138.578 136.321 138.675C136.343 138.791 136.358 138.907 136.373 139.026C136.391 139.161 136.406 139.299 136.418 139.434C136.433 139.572 136.44 139.706 136.447 139.844C136.455 139.979 136.459 140.117 136.459 140.251H136.458Z" fill="#371A45"/>
</g>
<path d="M108.534 154.616C104.874 154.616 101.059 154.251 97.1648 153.379C93.6063 152.582 90.3877 150.345 88.103 147.08C85.6236 143.538 82.0791 137.429 79.2728 128.44C78.5957 126.27 79.0317 123.881 80.4112 122.202C81.533 120.837 83.1161 120.157 84.7525 120.333C92.1429 121.133 104.474 120.812 121.241 114.743C123.108 114.067 125.133 114.166 126.941 115.019C129.056 116.019 130.704 117.927 131.58 120.393L137.298 136.501C139.209 141.885 136.848 148.011 132.141 149.877C126.158 152.25 117.853 154.616 108.534 154.616ZM84.2449 123.291C83.4979 123.291 82.9737 123.786 82.7177 124.097C81.9812 124.994 81.748 126.349 82.1228 127.549C84.8154 136.173 88.1913 141.999 90.5493 145.368C92.4059 148.02 94.9876 149.831 97.8174 150.465C110.886 153.393 123.098 150.252 131.041 147.101C134.241 145.833 135.849 141.346 134.485 137.5L128.766 121.393C128.158 119.681 127.057 118.376 125.667 117.719C124.567 117.2 123.388 117.141 122.258 117.55C104.953 123.813 92.1359 124.133 84.4319 123.301C84.3681 123.294 84.3061 123.29 84.2458 123.29L84.2449 123.291Z" fill="#371A45"/>
<g opacity="0.35">
<path d="M166.692 118.976C159.845 122.433 144.103 129.69 129.389 131.484C126.965 131.779 125.55 134.536 126.42 137.284L126.521 137.603C127.2 139.748 129.07 141.173 130.969 140.986C146.32 139.474 163.755 132.823 171.106 129.778C173.074 128.963 173.921 126.374 172.983 124.038L171.975 121.528C171.025 119.162 168.625 118.001 166.692 118.977V118.976Z" fill="#371A45"/>
</g>
<path d="M167.065 115.244C160.218 118.701 144.476 125.958 129.762 127.751C127.338 128.047 125.923 130.803 126.793 133.552L126.894 133.871C127.574 136.015 129.443 137.44 131.342 137.253C146.693 135.742 164.128 129.091 171.479 126.046C173.447 125.231 174.294 122.641 173.356 120.306L172.348 117.796C171.398 115.429 168.998 114.269 167.065 115.245V115.244Z" fill="white"/>
<path d="M131.012 138.761C128.589 138.761 126.309 136.962 125.472 134.32L125.37 134.001C124.777 132.127 125.009 130.096 125.99 128.569C126.828 127.265 128.103 126.448 129.581 126.267C144.259 124.477 160.213 117.028 166.392 113.909C167.596 113.301 168.978 113.238 170.283 113.73C171.813 114.307 173.07 115.585 173.733 117.237L174.742 119.747C175.988 122.85 174.78 126.293 172.051 127.423C165.08 130.311 147.172 137.194 131.489 138.737C131.33 138.753 131.17 138.761 131.012 138.761ZM167.738 116.575C161.42 119.766 145.088 127.385 129.942 129.232C129.199 129.323 128.748 129.8 128.502 130.183C127.995 130.972 127.888 132.062 128.217 133.1L128.317 133.418C128.778 134.872 130.012 135.883 131.196 135.766C146.481 134.262 164.059 127.501 170.908 124.665C172.112 124.166 172.599 122.424 171.97 120.86L170.962 118.35C170.61 117.473 169.978 116.807 169.229 116.524C168.866 116.388 168.312 116.285 167.737 116.575H167.738Z" fill="#371A45"/>
<g opacity="0.35">
<path d="M126.792 133.548L126.893 133.867C127.574 136.011 129.443 137.438 131.342 137.253C146.693 135.738 164.13 129.088 171.48 126.046C173.447 125.229 174.293 122.642 173.354 120.307L172.346 117.793C172.32 117.725 172.291 117.66 172.262 117.6C172.176 119.167 171.353 120.554 170.009 121.118C162.659 124.159 145.224 130.816 129.871 132.324C128.679 132.443 127.497 131.922 126.618 130.986C126.466 131.786 126.515 132.67 126.792 133.549V133.548Z" fill="#371A45"/>
</g>
<path d="M4.3457 34.9056C4.3457 34.9056 7.53199 38.9263 12.0698 38.2282C19.6122 37.068 30.1173 28.9987 27.9567 23.3199C26.163 18.6055 21.0162 18.5968 22.8396 14.916" fill="white"/>
<g opacity="0.35">
<path d="M12.07 38.2282C7.53132 38.9263 4.34766 34.9065 4.34766 34.9065L4.35552 34.8986C5.57255 35.4962 7.06915 35.8841 8.75184 35.6264C16.2951 34.4653 26.801 26.4004 24.6404 20.7198C23.8716 18.6973 22.4833 17.5397 21.2925 16.5882L22.8415 14.916C21.0164 18.5994 26.1632 18.6073 27.9586 23.3216C30.1201 28.9987 19.6133 37.068 12.07 38.2282Z" fill="#371A45"/>
</g>
<path d="M5.51503 33.9779L5.67142 34.1553C5.73257 34.2234 5.7981 34.2925 5.86625 34.3606C5.9973 34.4986 6.14232 34.6314 6.28473 34.7625C6.57479 35.022 6.87883 35.2683 7.19597 35.4876C7.82764 35.9315 8.50473 36.2853 9.19843 36.5107C9.893 36.7379 10.6015 36.834 11.3057 36.8008L11.8334 36.7536L12.4284 36.647C12.8268 36.5614 13.2252 36.4696 13.6227 36.3534C15.2154 35.8983 16.7828 35.2159 18.2715 34.3947C19.7594 33.5708 21.1817 32.6089 22.4643 31.515C23.7416 30.4247 24.9228 29.2033 25.7204 27.8509C26.1188 27.1799 26.4115 26.481 26.5539 25.8196C26.6989 25.153 26.6666 24.5571 26.5024 24.0163C26.4762 23.8931 26.394 23.7053 26.3355 23.5419C26.2595 23.3803 26.1931 23.2143 26.1057 23.0588C25.9406 22.7416 25.7632 22.428 25.5405 22.1309C25.108 21.5281 24.5619 20.962 23.939 20.346C23.6289 20.035 23.2846 19.7292 22.9491 19.357C22.6163 18.9822 22.245 18.5873 21.9689 18.0247C21.8256 17.7565 21.7216 17.4341 21.6605 17.1161C21.6107 16.7893 21.6185 16.4599 21.6771 16.1603C21.7907 15.5539 22.0825 15.0909 22.39 14.6986C22.563 14.4776 22.8819 14.4391 23.1029 14.6121C23.2584 14.7336 23.324 14.9275 23.2881 15.1092L23.282 15.1407C23.2008 15.5539 23.1667 15.9515 23.2375 16.2485C23.3091 16.5482 23.4402 16.7316 23.6507 16.937C24.0727 17.3493 24.8302 17.7801 25.5946 18.2946C26.3731 18.8014 27.183 19.4339 27.8836 20.2307C28.2331 20.6274 28.5581 21.0633 28.8325 21.5307C28.974 21.7623 29.0919 22.006 29.2151 22.248C29.3217 22.5023 29.4397 22.7207 29.527 23.0326C29.9184 24.2033 29.8992 25.4736 29.6083 26.55C29.3235 27.6377 28.8403 28.5848 28.2978 29.4427C27.1987 31.1542 25.8497 32.553 24.3977 33.7927C22.943 35.0316 21.3704 36.094 19.7131 37.0122C18.054 37.9261 16.3049 38.694 14.4387 39.2287C13.973 39.3641 13.496 39.4759 13.0146 39.5782L12.2816 39.7092L11.4665 39.787C10.3753 39.8429 9.27706 39.6856 8.2636 39.3519C7.24752 39.0199 6.31706 38.5245 5.47833 37.9365C5.05635 37.6447 4.66058 37.3232 4.28053 36.9834C4.09182 36.8104 3.90573 36.6383 3.72662 36.4513C3.63664 36.3604 3.54665 36.2661 3.45753 36.1673C3.36405 36.0651 3.28978 35.9813 3.17096 35.8371C2.64938 35.1993 2.74374 34.2601 3.38152 33.7385C4.00445 33.2292 4.91481 33.3069 5.44339 33.9054L5.51153 33.9832L5.51503 33.9779Z" fill="#371A45"/>
<path d="M36.3245 24.9006C31.9606 17.6596 26.9841 17.2437 21.1419 20.5462C16.8801 22.9558 14.7082 27.1887 16.0982 29.6586C17.7686 32.6282 25.9637 27.6998 26.2284 27.9348C26.4931 28.1698 24.4313 32.1905 25.5216 35.7088" fill="white"/>
<path d="M36.111 25.0288C35.7213 24.6819 35.357 24.3298 35.0075 23.9751L34.451 23.4789C34.2702 23.3129 34.1007 23.1373 33.9137 22.9826C33.1615 22.3745 32.4433 21.7673 31.6649 21.3357C31.2944 21.0824 30.889 20.9321 30.5134 20.7347C30.1141 20.6036 29.7367 20.4263 29.3348 20.3581C28.5502 20.1545 27.7456 20.1143 26.9208 20.2113C26.5128 20.2332 26.0917 20.3406 25.6758 20.414C25.2582 20.5433 24.8345 20.6246 24.4125 20.7949C23.5668 21.0736 22.7228 21.4816 21.8902 21.9062C20.3264 22.7537 18.9136 23.9725 18.0382 25.4333C17.5961 26.1505 17.3131 26.9342 17.2423 27.6262C17.2266 27.9634 17.2327 28.2875 17.3297 28.5322C17.3506 28.672 17.438 28.7628 17.4764 28.8816C17.5009 28.9122 17.5009 28.8974 17.5157 28.9079C17.5402 28.921 17.7429 28.9926 18.0697 28.9891C18.3903 28.9917 18.7887 28.9393 19.1993 28.8493C20.0311 28.6755 20.9178 28.3688 21.8072 28.0386C22.7027 27.7039 23.5895 27.3195 24.5322 26.936C24.7725 26.8373 25.0049 26.7403 25.2967 26.6302C25.3736 26.6022 25.4513 26.5734 25.564 26.5385L25.6549 26.5114L25.7903 26.4773C25.8427 26.4651 25.9511 26.4458 26.0288 26.4389C26.1328 26.4292 26.2446 26.4292 26.3521 26.4389C26.3704 26.4406 26.4726 26.445 26.6849 26.5096C26.8562 26.5655 27.023 26.6573 27.1593 26.7647C27.2895 26.8713 27.3096 26.9028 27.3839 26.9884C27.445 27.0627 27.5001 27.1448 27.5481 27.2304C27.6425 27.3885 27.7098 27.6358 27.7063 27.6472C27.7325 27.7747 27.7464 27.9093 27.7464 28.0359L27.7351 28.2028C27.7298 28.2605 27.7211 28.3173 27.7159 28.34C27.6897 28.4824 27.6643 28.5706 27.639 28.6597C27.5411 28.976 27.4555 29.2032 27.3664 29.4417L27.1043 30.124C26.4255 31.9098 25.8252 33.6082 25.7597 35.6378V35.6456C25.7545 35.7898 25.6348 35.9025 25.4906 35.8972C25.405 35.8946 25.3299 35.85 25.2844 35.7845C24.6589 34.8768 24.3549 33.7532 24.2526 32.6498C24.1557 31.5411 24.2614 30.4324 24.4606 29.384L24.7698 27.9459C24.7742 27.9119 24.7768 27.8778 24.7698 27.8961C24.7707 27.8883 24.7655 27.9136 24.762 27.9398C24.7594 27.9643 24.7576 27.9888 24.7585 28.0132C24.755 28.1093 24.7655 28.2124 24.7891 28.3085L24.8258 28.4404C24.852 28.5217 24.8869 28.6038 24.9306 28.6825C24.9743 28.7611 25.0258 28.8362 25.0826 28.9035C25.1534 28.983 25.1717 29.0048 25.2941 29.1088C25.4225 29.2136 25.5824 29.3019 25.7466 29.3552C25.9511 29.4163 26.0472 29.419 26.0568 29.4216C26.1476 29.4321 26.2446 29.4321 26.3328 29.4216C26.38 29.4198 26.4569 29.405 26.4788 29.3997L26.5224 29.3901V29.3919L26.4377 29.4329L25.8209 29.7387C24.9341 30.1991 23.9897 30.657 23.0103 31.0641C22.0274 31.473 21.0017 31.8285 19.8589 32.0653C19.2841 32.1754 18.6769 32.2575 17.9893 32.2374C17.3166 32.2103 16.4839 32.0845 15.6741 31.5166C15.28 31.2336 14.934 30.8361 14.7148 30.4254C14.5592 30.0803 14.3819 29.7326 14.3102 29.3727C14.1041 28.651 14.118 27.9459 14.1844 27.2855C14.3601 25.9723 14.8729 24.854 15.481 23.8589C16.7364 21.887 18.4453 20.3695 20.363 19.2075C21.3022 18.6772 22.2502 18.146 23.3099 17.7633C23.8219 17.5484 24.3828 17.4016 24.9324 17.2522C25.2137 17.1884 25.5055 17.1447 25.7912 17.0923C25.9362 17.0696 26.0769 17.0373 26.2245 17.0242L26.671 16.9988C27.2607 16.9447 27.867 16.991 28.4664 17.0434C29.0622 17.1596 29.6615 17.2609 30.2242 17.4846C30.5099 17.5807 30.7938 17.682 31.0533 17.8297C31.3171 17.9677 31.5862 18.097 31.8387 18.2482C32.3166 18.5845 32.8111 18.8999 33.2095 19.3045C34.0657 20.0593 34.7114 20.9583 35.274 21.8704C35.5422 22.3343 35.7746 22.814 36.0018 23.2893C36.1984 23.7812 36.381 24.2757 36.5382 24.7745C36.581 24.9091 36.5059 25.0532 36.3705 25.0952C36.2813 25.1231 36.1887 25.1004 36.1241 25.0427L36.1119 25.0314L36.111 25.0288Z" fill="#371A45"/>
<path d="M140.086 178.36C140.465 178.257 140.947 178.163 141.384 178.067L142.726 177.778C143.617 177.571 144.514 177.371 145.392 177.091C146.274 176.82 147.119 176.456 147.956 176.031C148.801 175.609 149.563 175.051 150.363 174.435L150.374 174.427C150.458 174.362 150.578 174.378 150.642 174.461C150.687 174.519 150.693 174.593 150.666 174.655C150.247 175.598 149.655 176.506 148.907 177.269C148.156 178.024 147.305 178.708 146.375 179.24C145.449 179.775 144.469 180.233 143.445 180.528C142.934 180.679 142.415 180.802 141.886 180.876C141.348 180.96 140.848 181 140.24 180.976C139.515 180.946 138.952 180.335 138.982 179.611C139.005 179.025 139.41 178.544 139.946 178.397L140.088 178.359L140.086 178.36Z" fill="#371A45"/>
<path d="M176.836 176.727C177.215 176.624 177.697 176.53 178.134 176.434L179.476 176.145C180.367 175.938 181.263 175.738 182.142 175.458C183.024 175.187 183.869 174.823 184.706 174.398C185.551 173.976 186.312 173.418 187.113 172.802L187.124 172.794C187.208 172.729 187.328 172.745 187.392 172.829C187.437 172.886 187.443 172.961 187.415 173.023C186.997 173.965 186.404 174.873 185.655 175.637C184.905 176.392 184.054 177.076 183.124 177.607C182.197 178.142 181.218 178.6 180.193 178.895C179.682 179.046 179.163 179.169 178.634 179.243C178.096 179.327 177.595 179.367 176.988 179.343C176.263 179.313 175.7 178.702 175.73 177.978C175.753 177.393 176.158 176.912 176.694 176.765L176.836 176.726V176.727Z" fill="#371A45"/>
<path d="M198.386 133.761C193.131 135.291 186.644 134.093 186.644 134.093C186.644 134.093 186.364 141.822 182.016 140.333C180.613 139.852 179.445 136.989 178.63 134.25C177.41 130.156 174.931 126.535 171.461 124.045C170.789 123.564 170.114 123.097 169.434 122.649C158.028 115.102 145.946 112.091 145.946 112.091L144.077 94.8288L142.972 84.6322L142.92 84.1543C144.909 84.5352 147.283 85.3897 149.884 86.5726C162.97 92.511 181.747 106.69 185.897 110.385C190.876 114.818 205.704 113.061 207.354 122.142C208.499 128.445 205.346 131.737 198.385 133.761H198.386Z" fill="white"/>
<g opacity="0.35">
<path d="M198.387 133.758C193.132 135.289 186.645 134.09 186.645 134.09C186.645 134.09 186.365 141.82 182.017 140.331C180.614 139.85 179.446 136.987 178.631 134.248C177.411 130.154 174.932 126.533 171.462 124.043C170.79 123.562 170.115 123.095 169.435 122.647C158.029 115.1 145.947 112.089 145.947 112.089C148.477 110.315 151.673 109.783 154.637 110.656C157.829 111.596 162.154 113.294 167.919 117.109C168.599 117.557 169.274 118.024 169.946 118.505C173.417 120.994 175.896 124.615 177.116 128.709C177.93 131.449 179.098 134.311 180.502 134.793C183.012 135.652 183.907 133.411 184.215 131.362C184.447 129.814 185.835 128.704 187.394 128.833C189.989 129.047 193.778 129.121 196.872 128.22C202.858 126.481 206.027 123.805 206.072 119.08C206.695 119.939 207.139 120.946 207.356 122.14C208.501 128.444 205.348 131.736 198.387 133.759V133.758Z" fill="#371A45"/>
</g>
<path d="M146.066 111.609C147.321 111.637 148.523 111.822 149.724 112.05C150.919 112.287 152.098 112.588 153.258 112.948C155.572 113.681 157.836 114.573 160.037 115.604C161.146 116.102 162.221 116.675 163.3 117.233L164.894 118.123L165.69 118.569L166.474 119.039L168.042 119.976L169.578 120.968L170.346 121.464L171.098 121.985L172.602 123.03C174.686 124.541 176.492 126.465 177.837 128.671C178.514 129.772 179.085 130.939 179.525 132.156C179.636 132.46 179.744 132.765 179.836 133.075L180.098 133.944C180.264 134.494 180.441 135.036 180.631 135.566C181.013 136.611 181.467 137.666 181.996 138.401C182.061 138.485 182.125 138.58 182.188 138.641L182.28 138.746C182.309 138.768 182.336 138.792 182.362 138.817C182.42 138.882 182.45 138.873 182.483 138.913C182.506 138.904 182.464 138.918 182.59 138.946C182.954 139.05 183.204 139.052 183.379 138.973C183.564 138.914 183.793 138.719 184.019 138.386C184.241 138.054 184.442 137.617 184.597 137.138C184.756 136.661 184.876 136.143 184.969 135.615C185.059 135.096 185.127 134.515 185.151 134.038L185.237 132.341L186.914 132.624C187.879 132.787 188.959 132.905 189.991 132.972C191.034 133.038 192.079 133.067 193.114 133.028C194.148 132.99 195.171 132.896 196.17 132.734C197.167 132.568 198.101 132.297 199.11 131.971C201.054 131.31 202.914 130.44 204.228 129.183C204.871 128.548 205.357 127.827 205.66 127.014C205.967 126.203 206.092 125.302 206.089 124.359C206.055 123.881 206.047 123.406 205.957 122.917C205.895 122.412 205.802 121.99 205.667 121.57C205.399 120.735 204.953 119.992 204.344 119.347C203.124 118.048 201.28 117.178 199.329 116.524C197.365 115.866 195.266 115.399 193.128 114.879C192.058 114.618 190.974 114.345 189.878 114.004C188.785 113.661 187.672 113.257 186.573 112.653L186.163 112.421L185.757 112.153C185.485 111.985 185.227 111.756 184.967 111.549L184.361 111.027L183.751 110.514C182.926 109.832 182.079 109.161 181.23 108.494C179.525 107.164 177.791 105.86 176.042 104.577C172.543 102.012 168.984 99.5266 165.359 97.1494C161.73 94.7843 158.063 92.4708 154.254 90.4675C152.339 89.4855 150.388 88.6057 148.497 87.6438C146.581 86.7107 144.745 85.7637 142.825 84.6401L142.804 84.6279C142.557 84.4829 142.473 84.1649 142.618 83.9176C142.705 83.77 142.856 83.6808 143.014 83.6634C143.593 83.604 144.194 83.5734 144.765 83.6284C145.051 83.6546 145.343 83.6712 145.63 83.7079C145.914 83.7472 146.194 83.8023 146.476 83.8538C147.603 84.0679 148.68 84.4139 149.729 84.8175C151.838 85.6012 153.784 86.6941 155.705 87.7915C157.627 88.8879 159.545 89.9756 161.425 91.1236C163.307 92.2664 165.16 93.4494 166.997 94.6533C170.671 97.0629 174.269 99.5756 177.808 102.17C179.577 103.469 181.331 104.789 183.067 106.142C183.934 106.823 184.797 107.506 185.654 108.215L186.297 108.755L186.931 109.301C187.254 109.564 187.601 109.825 188.019 110.041C189.664 110.94 191.752 111.464 193.835 111.978C195.935 112.491 198.105 112.967 200.282 113.694C201.369 114.06 202.461 114.492 203.525 115.064C204.586 115.635 205.627 116.355 206.518 117.299C207.409 118.235 208.114 119.407 208.509 120.65C208.71 121.267 208.843 121.919 208.915 122.495C209.019 123.081 209.041 123.698 209.076 124.309C209.085 125.546 208.921 126.84 208.455 128.072C207.997 129.305 207.23 130.428 206.315 131.321C204.447 133.091 202.223 134.054 200.062 134.802C199.507 134.966 198.992 135.159 198.404 135.299C197.827 135.461 197.25 135.568 196.672 135.677C195.517 135.865 194.364 135.969 193.218 136.011C192.071 136.054 190.932 136.023 189.798 135.951C188.654 135.874 187.561 135.76 186.375 135.559L188.138 134.145C188.101 134.861 188.025 135.466 187.914 136.124C187.8 136.77 187.653 137.419 187.435 138.074C187.219 138.728 186.937 139.395 186.496 140.056C186.058 140.702 185.403 141.4 184.457 141.756C183.998 141.942 183.495 142.016 183.031 142.011C182.797 142.006 182.567 141.991 182.356 141.949C182.133 141.918 181.934 141.863 181.737 141.804C181.569 141.768 181.265 141.637 181.014 141.508C180.806 141.374 180.567 141.225 180.415 141.076L180.164 140.848L179.956 140.62C179.811 140.465 179.705 140.315 179.589 140.162C179.148 139.554 178.837 138.956 178.556 138.361C178.279 137.766 178.04 137.173 177.826 136.581C177.613 135.988 177.42 135.396 177.241 134.803L176.987 133.958C176.911 133.695 176.818 133.438 176.724 133.181C176.353 132.153 175.869 131.165 175.296 130.233C174.155 128.362 172.63 126.736 170.852 125.446C167.075 122.71 162.945 120.459 158.681 118.52C154.443 116.503 150.077 114.839 145.83 112.573L145.818 112.567C145.57 112.434 145.476 112.126 145.609 111.877C145.702 111.701 145.885 111.603 146.071 111.607L146.066 111.609Z" fill="#371A45"/>
<g opacity="0.35">
<path d="M149.885 86.5729C149.575 87.1137 149.254 87.6519 148.926 88.1848C148.653 88.6252 148.374 89.0655 148.09 89.4945C146.851 91.379 145.511 93.156 144.078 94.8283C133.403 107.287 117.723 113.762 101.94 113.102C100.936 113.057 99.932 112.987 98.9282 112.885C96.17 112.609 93.4197 112.113 90.7025 111.389C88.4555 110.788 86.2241 110.034 84.0329 109.12C81.4879 108.06 78.998 106.791 76.5796 105.298C76.3743 105.172 76.1725 105.041 75.9672 104.91C74.2242 97.61 73.6572 92.6161 73.6572 92.6161L63.7699 84.5801L54.204 76.8053C50.4341 65.1828 50.7181 52.3136 55.6002 40.5234L102.609 85.9946L134.278 77.9961C134.278 77.9961 137.879 80.1462 142.974 84.6325L142.922 84.1546C144.911 84.5355 147.285 85.39 149.886 86.5729H149.885Z" fill="#371A45"/>
</g>
<g opacity="0.7">
<path d="M56.0243 38.8906C55.0528 41.3255 54.3766 43.5412 53.9258 45.244C54.3932 43.0117 55.1044 40.8861 56.0243 38.8906Z" fill="white"/>
</g>
<path d="M51.1172 69.9926C53.7731 78.3694 58.532 86.1171 65.227 92.384C66.5925 93.6613 68.0332 94.8765 69.5534 96.021C70.2917 96.5802 71.0552 97.1219 71.8346 97.6531C74.1909 99.2414 76.6284 100.611 79.1288 101.769C81.2807 102.772 83.4815 103.613 85.7059 104.303C88.3915 105.137 91.12 105.742 93.8624 106.129C94.8628 106.267 95.864 106.378 96.8661 106.461C115.205 107.963 133.793 99.7848 144.805 83.4402C161.032 59.3662 154.667 26.6969 130.597 10.4711C125.959 7.34948 121 5.05521 115.903 3.57783C115.308 3.3996 114.707 3.23798 114.103 3.08858C112.489 2.6797 110.866 2.34858 109.236 2.09783C105.467 1.51859 101.665 1.35871 97.9041 1.60159C94.1438 1.8401 90.4149 2.48312 86.7979 3.51406C85.6473 3.84168 84.508 4.206 83.3784 4.61401C81.6861 5.22558 80.0235 5.9184 78.3923 6.70732C70.2619 10.6109 63.0306 16.6628 57.6269 24.684C48.2917 38.5317 46.4352 55.2214 51.1181 69.9926H51.1172Z" fill="white"/>
<g opacity="0.35">
<path d="M144.804 83.4387C133.794 99.786 115.203 107.964 96.8643 106.46C95.8622 106.377 94.8618 106.266 93.8623 106.128C91.119 105.742 88.3914 105.135 85.7049 104.304C83.4805 103.613 81.2789 102.772 79.1287 101.77C76.6274 100.612 74.1908 99.2425 71.8327 97.6542C71.056 97.1204 70.2916 96.5813 69.5516 96.0231C68.0314 94.8768 66.5933 93.6589 65.226 92.3833C58.5319 86.1156 53.7704 78.3705 51.1153 69.9911C49.6554 65.3895 48.8307 60.5992 48.6699 55.7669C51.3862 63.7033 56.0131 71.0264 62.3997 77.0067C63.7635 78.2866 65.2042 79.5002 66.7252 80.6464C67.4617 81.2056 68.2262 81.7446 69.0064 82.2776C71.3653 83.8659 73.8011 85.2358 76.2998 86.3943C78.4534 87.3955 80.6524 88.2369 82.8759 88.928C85.5616 89.7597 88.2927 90.3652 91.0334 90.7522C92.0355 90.8902 93.0367 91.0003 94.038 91.0833C112.375 92.5878 130.964 84.4102 141.978 68.0621C148.406 58.5277 151.284 47.6444 150.927 36.9707C156.09 52.0241 154.383 69.2293 144.804 83.4378V83.4387Z" fill="#371A45"/>
</g>
<path d="M101.161 108.13C99.6931 108.13 98.2209 108.071 96.7436 107.95C95.7161 107.863 94.6791 107.749 93.6578 107.608C90.8017 107.204 87.9789 106.573 85.2618 105.73C82.9404 105.01 80.6645 104.133 78.4969 103.122C75.9126 101.926 73.3886 100.501 70.9991 98.8913C70.1167 98.2902 69.3513 97.7415 68.6506 97.2112C67.1226 96.0606 65.626 94.8025 64.2063 93.4745C57.4973 87.1937 52.479 79.2302 49.6937 70.4445C44.6692 54.5979 47.1094 37.6146 56.3878 23.8507C61.7521 15.8881 69.1373 9.49543 77.7456 5.36209C79.3724 4.57579 81.0978 3.85151 82.8697 3.21024C84.0098 2.79961 85.1927 2.41869 86.3879 2.07884C90.1072 1.0182 93.9504 0.356827 97.8077 0.112199C101.702 -0.139419 105.624 0.0326923 109.462 0.623295C111.132 0.880154 112.817 1.22351 114.468 1.64287C115.126 1.80537 115.738 1.97137 116.33 2.14873C121.654 3.69251 126.738 6.07763 131.428 9.2342C156.146 25.8969 162.701 59.5603 146.041 84.2756C135.955 99.2469 119.053 108.131 101.16 108.131L101.161 108.13ZM52.5401 69.5412C55.1716 77.841 59.9113 85.3625 66.2472 91.2938C67.5891 92.5493 69.0036 93.7384 70.4513 94.8287C71.1153 95.3319 71.8413 95.8509 72.6757 96.4197C74.9271 97.9372 77.3114 99.2827 79.7559 100.414C81.8047 101.369 83.9539 102.197 86.1468 102.877C88.7119 103.673 91.3775 104.27 94.0701 104.651C95.0338 104.783 96.0184 104.893 96.9899 104.974C115.404 106.485 133.254 97.911 143.565 82.606C159.305 59.2554 153.112 27.4511 129.76 11.7093C125.328 8.72573 120.525 6.47253 115.485 5.01088C114.927 4.84401 114.362 4.69024 113.743 4.53822C112.173 4.13982 110.583 3.81657 109.007 3.57369C105.383 3.01628 101.679 2.85465 97.9982 3.09142C94.3515 3.32207 90.7205 3.94762 87.2057 4.94972C86.076 5.27123 84.9586 5.63031 83.884 6.01822C82.2092 6.62367 80.5798 7.30776 79.0421 8.05126C70.9082 11.9557 63.9328 17.9954 58.8646 25.5186C50.0982 38.5232 47.7935 54.5682 52.541 69.5412H52.5401Z" fill="#371A45"/>
<path d="M101.161 108.13C99.6931 108.13 98.2209 108.071 96.7436 107.95C95.7161 107.863 94.6791 107.749 93.6578 107.608C90.8017 107.204 87.9789 106.573 85.2618 105.73C82.9404 105.01 80.6645 104.133 78.4969 103.122C75.9126 101.926 73.3886 100.501 70.9991 98.8913C70.1167 98.2902 69.3513 97.7415 68.6506 97.2112C67.1226 96.0606 65.626 94.8025 64.2063 93.4745C57.4973 87.1937 52.479 79.2302 49.6937 70.4445C44.6692 54.5979 47.1094 37.6146 56.3878 23.8507C61.7521 15.8881 69.1373 9.49543 77.7456 5.36209C79.3724 4.57579 81.0978 3.85151 82.8697 3.21024C84.0098 2.79961 85.1927 2.41869 86.3879 2.07884C90.1072 1.0182 93.9504 0.356827 97.8077 0.112199C101.702 -0.139419 105.624 0.0326923 109.462 0.623295C111.132 0.880154 112.817 1.22351 114.468 1.64287C115.126 1.80537 115.738 1.97137 116.33 2.14873C121.654 3.69251 126.738 6.07763 131.428 9.2342C156.146 25.8969 162.701 59.5603 146.041 84.2756C135.955 99.2469 119.053 108.131 101.16 108.131L101.161 108.13ZM52.5401 69.5412C55.1716 77.841 59.9113 85.3625 66.2472 91.2938C67.5891 92.5493 69.0036 93.7384 70.4513 94.8287C71.1153 95.3319 71.8413 95.8509 72.6757 96.4197C74.9271 97.9372 77.3114 99.2827 79.7559 100.414C81.8047 101.369 83.9539 102.197 86.1468 102.877C88.7119 103.673 91.3775 104.27 94.0701 104.651C95.0338 104.783 96.0184 104.893 96.9899 104.974C115.404 106.485 133.254 97.911 143.565 82.606C159.305 59.2554 153.112 27.4511 129.76 11.7093C125.328 8.72573 120.525 6.47253 115.485 5.01088C114.927 4.84401 114.362 4.69024 113.743 4.53822C112.173 4.13982 110.583 3.81657 109.007 3.57369C105.383 3.01628 101.679 2.85465 97.9982 3.09142C94.3515 3.32207 90.7205 3.94762 87.2057 4.94972C86.076 5.27123 84.9586 5.63031 83.884 6.01822C82.2092 6.62367 80.5798 7.30776 79.0421 8.05126C70.9082 11.9557 63.9328 17.9954 58.8646 25.5186C50.0982 38.5232 47.7935 54.5682 52.541 69.5412H52.5401Z" fill="#371A45"/>
<path d="M56.8011 82.2056C82.9964 109.137 127.028 101.954 136.191 65.8889C142.424 41.3527 123.213 16.3054 99.2642 11.827C81.8335 8.56819 63.3903 13.0108 50.9361 38.681C50.9361 38.681 47.1776 50.8959 48.9677 59.851C50.7579 68.8061 54.0097 77.2135 54.0097 77.2135L56.8002 82.2056H56.8011Z" fill="#371A45"/>
<g opacity="0.35">
<path d="M136.19 65.886C127.028 101.95 82.9952 109.133 56.8007 82.2045L56.2363 81.1919C88.3778 93.5098 125.36 79.9399 135.302 43.6484C137.616 50.6946 138.112 58.3139 136.19 65.8869V65.886Z" fill="#111A28"/>
</g>
<path d="M94.2361 105.371C89.0789 105.371 83.8482 104.656 78.7206 103.204L78.4995 103.122C75.9117 101.924 73.3877 100.5 70.9991 98.8903C70.1167 98.2892 69.3513 97.7405 68.6506 97.2102C67.1217 96.0596 65.626 94.8015 64.2063 93.4735C57.4973 87.1927 52.479 79.2292 49.6937 70.4435C44.6692 54.5969 47.1094 37.6136 56.3878 23.8497C61.7521 15.8871 69.1373 9.49442 77.7456 5.36108L77.8854 5.29381L78.0356 5.25712C84.8005 3.59801 92.2983 3.51676 100.32 5.01686C114.614 7.68942 128.047 16.9547 136.255 29.8003C143.8 41.6089 146.194 55.0398 142.997 67.6198C139.524 81.2875 131.606 92.0189 120.1 98.6526C112.395 103.095 103.434 105.373 94.2361 105.373V105.371ZM79.6476 100.363C93.1152 104.144 107.31 102.579 118.609 96.064C129.401 89.8417 136.833 79.7516 140.104 66.8824C143.095 55.1115 140.834 42.5122 133.738 31.4061C125.967 19.2429 113.269 10.4738 99.7717 7.95065C92.2284 6.54054 85.2067 6.59733 78.8971 8.11926C70.827 12.0246 63.9022 18.0372 58.8638 25.5167C50.0973 38.5213 47.7926 54.5663 52.5401 69.5393C55.1716 77.8383 59.9113 85.3606 66.2472 91.292C67.5891 92.5474 69.0036 93.7365 70.4513 94.8268C71.1153 95.3301 71.8413 95.849 72.6757 96.4178C74.8939 97.9126 77.2423 99.2415 79.6484 100.362L79.6476 100.363Z" fill="#371A45"/>
<path d="M94.1165 99.992C80.205 99.992 66.2551 94.0659 55.7309 83.2454L55.5937 83.1048L52.618 77.7509C52.4834 77.4032 49.2989 69.1208 47.5044 60.1429C45.6618 50.9231 49.3522 38.7546 49.5094 38.2409L49.5933 38.0286C60.5168 15.514 77.3219 6.20506 99.5385 10.3585C112.299 12.7445 124.291 21.0147 131.617 32.4799C138.354 43.0242 140.493 55.0188 137.638 66.2551C133.516 82.4757 122.16 94.1838 106.479 98.3783C102.423 99.4634 98.2717 99.992 94.1165 99.992ZM58.0076 81.3033C70.9144 94.4791 89.1741 99.916 105.708 95.4934C120.314 91.5864 130.896 80.6611 134.743 65.5195C137.392 55.0914 135.389 43.9285 129.1 34.0866C122.21 23.3028 110.953 15.5298 98.989 13.2923C78.2926 9.42279 62.5953 18.1473 52.3314 39.2229C51.9784 40.4198 48.8227 51.5102 50.4312 59.5567C52.0728 67.771 55.0057 75.6288 55.3657 76.5776L58.0068 81.3024L58.0076 81.3033Z" fill="#371A45"/>
<path d="M159.321 69.3529C161.186 59.1395 156.682 49.7612 149.261 48.4058C141.839 47.0504 134.311 54.2312 132.446 64.4446C130.58 74.6579 135.085 84.0363 142.506 85.3916C149.927 86.747 157.456 79.5662 159.321 69.3529Z" fill="white"/>
<path d="M144.291 87.0371C143.979 87.0371 143.666 87.0249 143.352 86.9987C140.025 86.727 137.048 85.0775 134.741 82.2284C131.375 78.0706 129.919 72.0039 130.747 65.5832C132.171 54.5365 140.085 46.1047 148.395 46.7801C151.722 47.0518 154.699 48.7013 157.006 51.5503C160.372 55.7081 161.828 61.7749 161 68.1955C159.63 78.8255 152.248 87.0371 144.291 87.0371ZM147.432 49.7261C140.956 49.7261 134.889 56.8142 133.709 65.9642C132.996 71.4971 134.25 76.8746 137.062 80.3492C138.843 82.5482 141.102 83.8185 143.596 84.0221C150.339 84.5708 156.816 77.3009 158.039 67.8129C158.752 62.2799 157.499 56.9024 154.686 53.4279C152.906 51.2288 150.646 49.9585 148.153 49.7549C147.913 49.7357 147.671 49.7252 147.433 49.7252L147.432 49.7261Z" fill="#371A45"/>
<path d="M161.148 70.312C162.776 62.8517 159.228 55.7416 153.222 54.4311C147.217 53.1206 141.029 58.106 139.401 65.5662C137.773 73.0265 141.321 80.1366 147.327 81.4471C153.332 82.7576 159.52 77.7722 161.148 70.312Z" fill="white"/>
<g opacity="0.35">
<path d="M138.808 73.9289C138.475 71.1218 138.91 68.2134 139.921 65.56C141.22 71.8968 146.42 75.0839 152.01 72.7294C155.622 71.2101 158.565 67.7224 160.127 63.6152C160.212 64.0145 160.276 64.4312 160.327 64.8567C161.172 72.0051 157.039 79.8315 151.096 82.3354C145.152 84.8402 139.652 81.0729 138.807 73.9289H138.808Z" fill="#371A45"/>
</g>
<path d="M148.675 85.316C148.458 85.316 148.241 85.3081 148.022 85.2915C145.536 85.108 143.299 83.8762 141.553 81.7287C138.827 78.3755 137.632 73.1204 138.356 67.6713C139.591 58.3798 145.711 51.4822 152.274 51.9653C154.76 52.1488 156.997 53.3807 158.743 55.529C161.469 58.8822 162.664 64.1373 161.94 69.5864C160.747 78.5695 154.993 85.3169 148.675 85.3169V85.316ZM151.645 54.9279C146.95 54.9279 142.281 60.8069 141.316 68.0645C140.698 72.7141 141.653 77.1183 143.871 79.845C145.085 81.339 146.597 82.1926 148.243 82.314C153.063 82.6705 157.988 76.6614 158.981 69.1924C159.599 64.5427 158.644 60.1394 156.427 57.4118C155.213 55.9178 153.701 55.0642 152.055 54.9428C151.919 54.9332 151.782 54.9279 151.646 54.9279H151.645Z" fill="#371A45"/>
<g opacity="0.7">
<path d="M109.867 23.2166C109.867 23.2166 86.1604 20.3309 70.7532 31.4081C70.7366 31.4195 70.7209 31.4317 70.7043 31.4431C67.4638 33.7775 64.9136 36.9472 63.2973 40.5992C61.1594 45.4288 60.3941 49.0703 59.8445 52.302C58.1758 62.1308 59.2321 67.0496 59.2321 67.0496C54.523 60.9068 52.3737 54.4757 53.6825 46.2754C53.8136 45.4673 53.9787 44.639 54.1753 43.7942C54.2198 43.5994 54.2687 43.4072 54.3203 43.2141C54.3159 43.2114 54.3194 43.2071 54.3247 43.2027C54.8427 41.5191 55.6063 39.3323 56.6748 36.9385C59.8917 29.715 65.8519 20.5921 76.1009 17.6295C95.264 12.0895 110.85 22.3289 109.867 23.2175V23.2166Z" fill="white"/>
</g>
<g opacity="0.7">
<path d="M124.002 58.5418C127.866 58.1806 130.656 54.2379 130.236 49.7354C129.815 45.2329 126.342 41.8756 122.478 42.2367C118.614 42.5979 115.824 46.5406 116.244 51.0431C116.665 55.5456 120.139 58.9029 124.002 58.5418Z" fill="white"/>
</g>
<g opacity="0.7">
<path d="M125.221 68.5336C126.798 68.2504 127.809 66.5308 127.479 64.6929C127.149 62.8549 125.603 61.5946 124.026 61.8778C122.449 62.161 121.437 63.8806 121.768 65.7185C122.098 67.5564 123.644 68.8168 125.221 68.5336Z" fill="white"/>
</g>
<path d="M109.814 135.707C109.947 136.308 111.875 140.969 111.875 140.969C111.875 140.969 113.411 140.626 115.298 140.206C117.655 139.68 119.02 136.813 118.348 133.803C117.677 130.792 115.222 128.778 112.864 129.304C111.274 129.659 109.441 130.068 109.441 130.068C109.441 130.068 109.595 134.728 109.814 135.707Z" fill="#22A7F0"/>
<g opacity="0.35">
<path d="M109.816 135.707C109.949 136.308 111.877 140.969 111.877 140.969C111.877 140.969 113.413 140.626 115.3 140.206C117.657 139.68 119.022 136.813 118.35 133.803C117.679 130.792 115.224 128.778 112.866 129.304C111.275 129.659 109.443 130.068 109.443 130.068C109.443 130.068 109.597 134.728 109.816 135.707Z" fill="#371A45"/>
</g>
<path d="M111.877 141.843C111.53 141.843 111.208 141.635 111.07 141.303C110.611 140.194 109.103 136.523 108.963 135.898C108.733 134.869 108.587 130.583 108.571 130.097C108.557 129.677 108.843 129.307 109.254 129.215L112.676 128.451C115.5 127.822 118.428 130.136 119.203 133.612C119.57 135.257 119.41 136.926 118.75 138.311C118.055 139.768 116.898 140.743 115.49 141.058L112.067 141.822C112.003 141.836 111.94 141.843 111.877 141.843ZM110.668 135.516C110.749 135.847 111.57 137.921 112.405 139.957L115.11 139.353C115.982 139.158 116.715 138.522 117.173 137.561C117.666 136.527 117.781 135.26 117.499 133.993C116.933 131.458 114.941 129.736 113.058 130.158L110.344 130.763C110.413 132.54 110.542 134.942 110.669 135.516H110.668Z" fill="#371A45"/>
<path d="M111.868 140.978C114.225 140.452 115.592 137.585 114.92 134.575C114.248 131.565 111.793 129.551 109.436 130.077C107.079 130.603 105.713 133.47 106.384 136.48C107.056 139.49 109.511 141.504 111.868 140.978Z" fill="#22A7F0"/>
<g opacity="0.35">
<path d="M114.926 134.567C115.599 137.575 114.233 140.444 111.877 140.97C109.517 141.497 107.062 139.483 106.392 136.47C106.3 136.064 106.248 135.658 106.23 135.26C107.298 137.193 109.189 138.317 111.018 137.906C113.054 137.452 114.353 135.252 114.23 132.717C114.538 133.272 114.774 133.896 114.926 134.568V134.567Z" fill="#371A45"/>
</g>
<path d="M114.927 134.567C114.973 134.772 115.009 134.976 115.034 135.18C114.04 132.926 111.975 131.556 109.984 132.001C107.788 132.493 106.449 135.017 106.829 137.795C106.644 137.38 106.498 136.937 106.392 136.47C105.72 133.462 107.085 130.594 109.441 130.067C111.799 129.544 114.253 131.556 114.926 134.567H114.927Z" fill="white"/>
<path d="M111.11 141.928C110.011 141.928 108.916 141.515 107.949 140.722C106.763 139.75 105.907 138.307 105.54 136.662C104.764 133.187 106.43 129.847 109.253 129.216C112.074 128.589 115.004 130.9 115.78 134.377C116.147 136.023 115.986 137.691 115.327 139.076C114.632 140.533 113.475 141.509 112.067 141.823C111.75 141.894 111.429 141.929 111.11 141.929V141.928ZM110.208 130.858C110.017 130.858 109.824 130.879 109.634 130.921C107.751 131.342 106.679 133.746 107.245 136.281C107.528 137.547 108.171 138.645 109.057 139.372C109.88 140.047 110.813 140.312 111.686 140.117C112.558 139.922 113.291 139.286 113.749 138.324C114.242 137.29 114.357 136.024 114.075 134.757C113.566 132.478 111.906 130.858 110.208 130.858Z" fill="#371A45"/>
<path d="M104.992 153.502C104.507 153.502 104.061 153.181 103.924 152.691L101.028 142.375C100.869 141.81 100.445 141.353 99.9188 141.182L95.872 139.872C94.9424 139.571 94.2374 138.813 93.9866 137.846L90.2193 123.307C90.0656 122.713 90.422 122.107 91.0161 121.954C91.6076 121.8 92.2157 122.156 92.3695 122.751L96.1367 137.289C96.1953 137.515 96.356 137.696 96.5561 137.76L100.603 139.071C101.846 139.473 102.805 140.484 103.167 141.776L106.063 152.093C106.228 152.683 105.883 153.297 105.294 153.462C105.193 153.49 105.093 153.503 104.993 153.503L104.992 153.502Z" fill="#371A45"/>
</svg>
