<svg width="250" height="200" viewBox="0 0 250 200" fill="none" xmlns="http://www.w3.org/2000/svg">
<path d="M159.6 78.9711C159.6 78.9711 181.316 77.3067 187.703 81.7281C199.214 89.6971 202.441 132.823 193.502 148.107C186.94 159.326 146.727 153.536 146.727 153.536" fill="white"/>
<g opacity="0.35">
<path d="M193.504 148.106C186.943 159.325 146.729 153.534 146.729 153.534L150.252 133.117C159 134.151 189.044 136.945 194.637 127.382C196.382 124.402 197.663 120.361 198.507 115.73C199.133 128.33 197.588 141.124 193.504 148.106H193.504Z" fill="#371A45"/>
</g>
<path d="M168.182 156.286C168.005 156.286 167.829 156.286 167.65 156.285C156.815 156.24 146.651 154.794 146.549 154.78C145.863 154.681 145.387 154.044 145.486 153.358C145.584 152.672 146.224 152.195 146.907 152.294C157.86 153.87 187.388 156.076 192.419 147.474C201.194 132.471 197.642 90.1363 186.99 82.7621C182.054 79.3452 165.616 79.7714 159.698 80.2247C159.005 80.2766 158.403 79.7599 158.349 79.068C158.296 78.3769 158.814 77.773 159.505 77.7203C160.41 77.6512 181.742 76.0748 188.419 80.697C194.076 84.6132 198.228 96.3422 199.525 112.072C200.51 124.033 199.731 139.947 194.588 148.742C191.659 153.749 182.776 156.286 168.182 156.286Z" fill="#371A45"/>
<path d="M197.463 117.235L186.311 118.097C185.315 118.175 184.497 118.912 184.321 119.894C183.678 123.494 182.624 131.885 186.131 134.648C189.041 136.941 193.757 136.66 196.516 134.314C199.602 131.691 199.885 123.463 199.826 119.39C199.808 118.124 198.725 117.137 197.463 117.235Z" fill="white"/>
<g opacity="0.35">
<path d="M184.32 119.897C183.675 123.496 182.623 131.887 186.13 134.648C189.04 136.942 193.756 136.662 196.515 134.315C198.411 132.7 199.249 128.966 199.599 125.384C199.1 127.175 198.314 128.629 197.335 129.585C191.726 135.06 187.515 128.629 187.515 128.629C187.515 128.629 186.79 130.195 186.21 130.285C183.784 130.66 184.269 123.061 184.611 119.135C184.469 119.361 184.367 119.618 184.319 119.897H184.32Z" fill="#371A45"/>
</g>
<path d="M191.029 137.488C188.967 137.488 186.927 136.876 185.355 135.637C181.45 132.56 182.257 124.316 183.086 119.676C183.361 118.132 184.648 116.969 186.215 116.848L197.367 115.985C198.315 115.912 199.258 116.236 199.959 116.876C200.66 117.515 201.069 118.425 201.083 119.373C201.166 125.101 200.583 132.508 197.33 135.273C195.601 136.743 193.302 137.487 191.029 137.487V137.488ZM197.56 118.489L186.408 119.352C185.982 119.385 185.632 119.7 185.557 120.118C184.334 126.97 184.839 132.034 186.909 133.664C189.282 135.534 193.31 135.395 195.703 133.36C197.602 131.745 198.674 126.53 198.571 119.41C198.568 119.149 198.459 118.908 198.266 118.732C198.073 118.556 197.824 118.469 197.561 118.49L197.56 118.489Z" fill="#371A45"/>
<path d="M191.175 137.2C190.928 137.06 190.805 136.963 190.641 136.841C190.49 136.724 190.344 136.605 190.209 136.48C189.934 136.232 189.683 135.97 189.451 135.696C188.99 135.145 188.581 134.562 188.264 133.938C187.605 132.704 187.207 131.375 187.011 130.046C186.928 129.379 186.854 128.716 186.85 128.053C186.816 127.387 186.85 126.75 186.874 126.096C186.904 125.447 186.958 124.797 187.044 124.148C187.141 123.49 187.234 122.871 187.475 122.185C187.536 122.013 187.725 121.923 187.898 121.984C188.058 122.041 188.148 122.209 188.109 122.371L188.098 122.414C187.968 122.951 187.921 123.609 187.899 124.219C187.879 124.842 187.892 125.468 187.926 126.094C187.996 127.355 188.131 128.587 188.424 129.76C188.719 130.934 189.19 132.046 189.838 133.004C190.15 133.491 190.53 133.922 190.928 134.311C191.128 134.505 191.341 134.684 191.559 134.841C191.666 134.923 191.777 134.994 191.885 135.062C191.983 135.122 192.127 135.2 192.161 135.211C192.752 135.392 193.085 136.019 192.904 136.61C192.723 137.202 192.096 137.534 191.504 137.353C191.426 137.33 191.352 137.297 191.284 137.259L191.176 137.197L191.175 137.2Z" fill="#371A45"/>
<path d="M172.687 86.7796C172.211 86.7796 171.756 86.5073 171.544 86.0466C171.255 85.4164 171.532 84.671 172.163 84.3822C182.344 79.7189 188.584 81.1118 188.844 81.1727C189.518 81.3323 189.936 82.0086 189.777 82.6841C189.618 83.3579 188.944 83.775 188.272 83.6187C188.194 83.6014 182.51 82.4052 173.209 86.6653C173.039 86.7426 172.861 86.7796 172.686 86.7796H172.687Z" fill="#371A45"/>
<path d="M115.189 86.9062C115.189 86.9062 105.216 116.847 77.8457 126.512V144.879H115.189V86.9062Z" fill="white"/>
<path d="M115.19 86.9043V144.877H77.8477V126.51C105.216 116.846 115.19 86.9043 115.19 86.9043Z" fill="white"/>
<g opacity="0.35">
<path d="M115.191 98.6152V144.878H82.2344C106.29 132.932 115.191 98.6152 115.191 98.6152Z" fill="#371A45"/>
</g>
<path d="M116.444 146.134H76.5898V125.623L77.4274 125.328C103.88 115.986 113.899 86.8021 113.997 86.5084L116.444 79.1836V146.135V146.134ZM79.1008 143.622H113.932V93.1471C112.551 96.0464 110.546 99.7817 107.819 103.791C102.423 111.721 93.0948 122.175 79.1008 127.392V143.623V143.622Z" fill="#371A45"/>
<path d="M185.175 144.877H103.797C103.797 144.877 108.277 122.354 112.346 98.0402C112.977 94.2729 113.599 90.4611 114.192 86.6839C119.14 55.1525 166.3 75.7144 166.3 75.7144C166.3 75.7144 168.143 78.2352 170.677 83.2087C175.924 93.4913 184.14 114.263 185.176 144.877H185.175Z" fill="white"/>
<path d="M186.474 146.136H102.266L102.564 144.635C102.624 144.335 108.587 114.288 112.95 86.4904C114.088 79.2421 117.473 74.0251 123.013 70.9842C138.584 62.4385 165.658 74.0646 166.803 74.564L167.115 74.6997L167.315 74.9745C167.496 75.2222 171.798 81.178 176.331 92.8106C180.496 103.499 185.629 121.201 186.429 144.837L186.474 146.136ZM105.323 143.624H183.87C182.188 102.558 167.346 79.4798 165.477 76.7311C162.384 75.4484 137.845 65.7039 124.219 73.1883C119.398 75.8359 116.441 80.4424 115.43 86.8804C111.616 111.18 106.583 137.19 105.323 143.625V143.624Z" fill="#371A45"/>
<g opacity="0.35">
<path d="M142.338 148.289C142.21 148.97 142.091 149.639 141.98 150.298C142.087 149.639 142.207 148.97 142.338 148.289Z" fill="#371A45"/>
</g>
<g opacity="0.35">
<path d="M111.31 118.35C110.547 125.21 110.104 131.156 110.013 136.117C109.887 131.495 110.336 125.533 111.31 118.35Z" fill="#371A45"/>
</g>
<path d="M111.699 132.554C113.979 130.274 113.979 126.578 111.699 124.298C109.419 122.018 105.723 122.018 103.443 124.298C101.163 126.578 101.163 130.274 103.443 132.554C105.723 134.834 109.419 134.834 111.699 132.554Z" fill="white"/>
<g opacity="0.35">
<path d="M101.734 128.576C101.818 131.799 104.498 134.347 107.721 134.263C110.944 134.179 113.491 131.495 113.407 128.272C113.384 127.381 113.163 126.537 112.781 125.791C111.896 127.786 109.919 129.207 107.591 129.268C105.262 129.329 103.214 128.013 102.231 126.066C101.888 126.831 101.711 127.685 101.734 128.575V128.576Z" fill="#371A45"/>
</g>
<path d="M107.569 135.292C103.865 135.292 100.804 132.328 100.707 128.603C100.66 126.77 101.329 125.028 102.592 123.697C103.854 122.367 105.559 121.609 107.393 121.561C109.234 121.515 110.969 122.182 112.299 123.445C113.629 124.708 114.388 126.413 114.436 128.246C114.534 132.031 111.536 135.191 107.751 135.29C107.69 135.292 107.63 135.292 107.569 135.292V135.292ZM107.575 123.614C107.532 123.614 107.489 123.614 107.447 123.616C106.161 123.65 104.968 124.181 104.083 125.113C103.199 126.046 102.73 127.266 102.763 128.55C102.833 131.202 105.056 133.291 107.697 133.233C110.349 133.164 112.45 130.951 112.38 128.299C112.347 127.015 111.815 125.82 110.884 124.936C109.983 124.081 108.812 123.614 107.576 123.614H107.575Z" fill="#371A45"/>
<g opacity="0.35">
<path d="M110.402 134.113C111.399 127.559 111.588 121.482 111.312 116.072C111.177 119.196 110.881 122.475 110.36 125.888C109.754 129.892 109.567 134.071 109.939 138.174C110.043 136.809 110.2 135.451 110.402 134.113Z" fill="#371A45"/>
</g>
<path d="M116.02 145.42L146.509 146.986C150.118 147.173 153.225 144.372 153.411 140.758L154.244 124.534C154.407 121.37 152.277 118.598 149.32 117.833C148.902 117.722 148.466 117.656 148.016 117.632L117.531 116.065C113.918 115.879 110.811 118.68 110.63 122.294L109.966 135.144L109.792 138.518C109.605 142.131 112.412 145.234 116.02 145.42Z" fill="white"/>
<g opacity="0.35">
<path d="M116.02 145.421L146.509 146.988C150.118 147.174 153.225 144.373 153.411 140.76L154.244 124.535C154.407 121.372 152.277 118.599 149.32 117.834C147.53 118.894 146.393 119.574 146.393 119.574C144.239 132.521 140.197 138.824 124.011 138.258C117.025 138.011 112.673 136.72 109.966 135.144L109.792 138.518C109.605 142.132 112.412 145.234 116.02 145.42V145.421Z" fill="#371A45"/>
</g>
<path d="M146.851 148.254C146.715 148.254 146.579 148.25 146.443 148.243L115.957 146.676C113.875 146.569 111.956 145.652 110.551 144.096C109.147 142.54 108.433 140.536 108.54 138.455L109.374 122.228C109.595 117.917 113.29 114.592 117.595 114.811L148.081 116.378C152.393 116.6 155.72 120.288 155.498 124.6L154.664 140.827C154.557 142.908 153.641 144.828 152.084 146.232C150.629 147.544 148.784 148.254 146.851 148.254V148.254ZM146.572 145.734C149.496 145.887 152.005 143.625 152.156 140.697L152.99 124.47C153.14 121.542 150.88 119.037 147.951 118.886L117.466 117.319C116.055 117.245 114.694 117.733 113.636 118.687C112.577 119.642 111.955 120.945 111.882 122.356L111.047 138.583C110.975 139.994 111.46 141.355 112.416 142.413C113.371 143.472 114.674 144.095 116.085 144.167L146.572 145.734Z" fill="#371A45"/>
<path d="M114.803 145.238C115.194 145.34 115.598 145.401 116.02 145.42L146.509 146.987C149.154 147.122 151.528 145.656 152.681 143.436C153.101 142.629 153.36 141.723 153.407 140.759L153.781 133.551L153.904 131.173L154.246 124.534C154.432 120.922 151.626 117.819 148.017 117.632L141.43 117.295C144.437 118.023 146.611 120.819 146.449 124.014L146.002 132.778L145.617 140.243C145.43 143.851 142.323 146.658 138.715 146.471L114.805 145.237L114.803 145.238Z" fill="white"/>
<g opacity="0.35">
<path d="M114.803 145.239C115.194 145.341 115.598 145.402 116.02 145.421L146.509 146.988C150.118 147.174 153.225 144.373 153.407 140.76L153.903 131.174C153.049 132.828 151.565 134.837 149.349 134.941C148.133 135.001 146.988 134.07 146 132.779L145.615 140.244C145.428 143.852 142.322 146.659 138.713 146.472L114.804 145.238L114.803 145.239Z" fill="#371A45"/>
</g>
<path d="M146.854 148.253C146.718 148.253 146.58 148.25 146.443 148.243L115.955 146.675C115.467 146.652 114.972 146.579 114.49 146.456L114.865 143.985L138.777 145.217C140.186 145.289 141.546 144.804 142.604 143.849C143.663 142.894 144.286 141.59 144.357 140.179L145.192 123.952C145.322 121.404 143.615 119.117 141.132 118.514L141.492 116.039L148.078 116.376C150.16 116.485 152.079 117.402 153.484 118.957C154.889 120.514 155.603 122.518 155.495 124.599L154.66 140.825C154.554 142.906 153.639 144.827 152.081 146.231C150.627 147.543 148.784 148.253 146.853 148.253L146.854 148.253ZM144.388 145.622L146.573 145.735C147.982 145.808 149.341 145.323 150.4 144.368C151.459 143.412 152.082 142.109 152.154 140.698L152.988 124.471C153.061 123.059 152.576 121.7 151.62 120.641C150.665 119.583 149.361 118.96 147.949 118.887L145.986 118.786C147.155 120.242 147.802 122.109 147.7 124.083L146.866 140.309C146.762 142.344 145.883 144.227 144.387 145.623L144.388 145.622Z" fill="#371A45"/>
<path d="M134.003 131.643C133.976 132.243 134.598 137.127 134.598 137.127C134.598 137.127 136.132 137.197 138.017 137.283C140.372 137.391 142.391 135.04 142.529 132.033C142.666 129.025 140.869 126.5 138.514 126.393C136.925 126.32 135.095 126.236 135.095 126.236C135.095 126.236 134.047 130.665 134.002 131.643L134.003 131.643Z" fill="#22A7F0"/>
<g opacity="0.35">
<path d="M134.003 131.643C133.976 132.243 134.598 137.127 134.598 137.127C134.598 137.127 136.132 137.197 138.017 137.283C140.372 137.391 142.391 135.04 142.529 132.033C142.666 129.025 140.869 126.5 138.514 126.393C136.925 126.32 135.095 126.236 135.095 126.236C135.095 126.236 134.047 130.665 134.002 131.643L134.003 131.643Z" fill="#371A45"/>
</g>
<path d="M138.171 138.228C138.106 138.228 138.041 138.227 137.975 138.223L135.6 138.115C134.534 138.066 133.665 137.262 133.534 136.204C133.037 132.163 133.055 131.753 133.063 131.599C133.089 131.026 133.385 129.491 133.944 127.037C134.178 126.007 135.125 125.29 136.171 125.343L138.559 125.451C139.993 125.517 141.295 126.272 142.225 127.578C143.104 128.814 143.547 130.411 143.471 132.074C143.314 135.515 140.956 138.227 138.172 138.227L138.171 138.228ZM134.944 131.683C134.943 131.767 134.959 132.36 135.404 135.974C135.422 136.118 135.541 136.227 135.687 136.233L138.062 136.342C139.906 136.425 141.476 134.472 141.59 131.989C141.646 130.745 141.327 129.566 140.69 128.671C140.104 127.847 139.316 127.372 138.473 127.334L136.086 127.225C135.937 127.221 135.812 127.316 135.781 127.456C135.038 130.72 134.954 131.516 134.945 131.683H134.944Z" fill="#371A45"/>
<path d="M139.099 131.862C139.236 128.854 137.438 126.33 135.084 126.222C132.729 126.115 130.71 128.466 130.572 131.473C130.435 134.48 132.233 137.005 134.587 137.112C136.942 137.22 138.962 134.869 139.099 131.862Z" fill="#22A7F0"/>
<path d="M139.112 131.876C139.084 132.501 138.973 133.095 138.794 133.647C138.854 130.72 137.083 128.296 134.776 128.19C132.911 128.106 131.256 129.565 130.581 131.672C130.578 131.61 130.581 131.549 130.585 131.487C130.723 128.479 132.742 126.131 135.097 126.238C137.451 126.345 139.247 128.869 139.112 131.877L139.112 131.876Z" fill="white"/>
<g opacity="0.35">
<path d="M139.111 131.875C138.973 134.883 136.954 137.235 134.599 137.128C132.245 137.018 130.445 134.493 130.584 131.486C130.612 130.902 130.71 130.343 130.869 129.822C131.457 131.727 132.878 133.096 134.599 133.175C136.495 133.26 138.175 131.753 138.824 129.59C139.044 130.29 139.147 131.066 139.11 131.875H139.111Z" fill="#371A45"/>
</g>
<path d="M134.757 138.072C134.69 138.072 134.623 138.071 134.556 138.067C131.687 137.936 129.483 134.966 129.643 131.444C129.804 127.923 132.257 125.159 135.139 125.296C136.573 125.362 137.875 126.117 138.805 127.423C139.685 128.658 140.127 130.255 140.051 131.919C139.976 133.582 139.389 135.133 138.401 136.283C137.406 137.442 136.119 138.071 134.758 138.071L134.757 138.072ZM131.525 131.53C131.412 134.014 132.81 136.102 134.642 136.186C135.479 136.223 136.312 135.823 136.972 135.055C137.688 134.223 138.113 133.078 138.17 131.833C138.227 130.588 137.907 129.41 137.271 128.515C136.684 127.691 135.897 127.216 135.053 127.177C133.208 127.094 131.639 129.047 131.525 131.53H131.525Z" fill="#371A45"/>
<path d="M125.505 146.733C125.495 146.733 125.487 146.733 125.478 146.733C124.958 146.719 124.548 146.286 124.562 145.766L124.861 135.005L119.799 131.447L120.528 116.234C120.552 115.714 121.002 115.323 121.513 115.338C122.033 115.363 122.434 115.805 122.409 116.324L121.73 130.501L126.772 134.046L126.446 145.818C126.431 146.329 126.013 146.734 125.505 146.734V146.733Z" fill="#371A45"/>
<path d="M180.714 124.258C180.714 124.258 183.535 126.503 183.659 129.968C183.802 133.973 181.297 135.597 181.297 135.597C181.297 135.597 170.332 141.211 152.74 137.481C152.74 137.481 147.562 130.936 153.329 127.243C153.329 127.243 171.897 129.793 180.714 124.258Z" fill="white"/>
<g opacity="0.35">
<path d="M183.656 129.971C183.799 133.971 181.296 135.595 181.296 135.595C181.296 135.595 170.332 141.211 152.736 137.48C152.736 137.48 151.034 135.322 150.672 132.792C150.755 132.917 150.808 132.982 150.808 132.982C163.668 135.711 172.985 133.444 177.068 132.026C179.904 131.042 181.799 128.467 181.733 125.592C181.732 125.553 181.73 125.513 181.729 125.473C181.728 125.406 181.726 125.34 181.714 125.275C182.537 126.258 183.584 127.896 183.657 129.971H183.656Z" fill="#371A45"/>
</g>
<path d="M164.656 140.027C161.069 140.027 156.99 139.668 152.479 138.711L152.036 138.617L151.754 138.262C151.634 138.109 148.812 134.491 149.438 130.753C149.751 128.888 150.832 127.352 152.651 126.186L153.041 125.937L153.499 126C153.679 126.024 171.72 128.422 180.046 123.196L180.799 122.723L181.495 123.277C181.629 123.383 184.771 125.929 184.914 129.924C185.082 134.587 182.107 136.57 181.98 136.652L181.87 136.717C181.523 136.894 175.24 140.027 164.657 140.027H164.656ZM153.476 136.353C169.383 139.593 179.708 134.963 180.656 134.514C180.941 134.297 182.51 132.965 182.404 130.015C182.336 128.105 181.236 126.601 180.525 125.824C171.929 130.484 156.624 128.913 153.643 128.551C152.655 129.277 152.088 130.137 151.915 131.169C151.567 133.245 152.904 135.503 153.475 136.354L153.476 136.353Z" fill="#371A45"/>
<g opacity="0.35">
<path d="M170.679 83.2106C163.21 93.383 152.008 100.048 139.788 101.97C138.891 102.108 137.989 102.224 137.085 102.315C134.599 102.557 132.077 102.607 129.544 102.447C127.45 102.315 125.34 102.046 123.239 101.621C120.803 101.137 118.376 100.453 115.971 99.5617C115.177 99.2631 114.392 98.9496 113.625 98.6164C113.195 98.4313 112.768 98.2396 112.348 98.0421C112.979 94.2748 113.601 90.4631 114.194 86.6859C119.142 55.1545 166.302 75.7163 166.302 75.7163C166.302 75.7163 168.145 78.2372 170.679 83.2106Z" fill="#371A45"/>
</g>
<path d="M90.4189 73.2858C94.526 80.0651 100.344 85.8473 107.544 89.9199C109.013 90.75 110.533 91.5094 112.11 92.1898C112.876 92.523 113.66 92.8365 114.456 93.1368C116.859 94.0286 119.287 94.7123 121.725 95.1961C123.825 95.6182 125.932 95.8889 128.029 96.0213C130.56 96.1817 133.081 96.1324 135.567 95.8897C136.474 95.7983 137.375 95.6823 138.272 95.5441C154.668 92.9665 169.228 81.8488 175.412 65.181C184.526 40.6288 172.007 13.3395 147.459 4.22601C142.73 2.4744 137.896 1.51591 133.112 1.30282C132.554 1.27238 131.992 1.25839 131.431 1.25674C129.929 1.24029 128.436 1.29541 126.954 1.42211C123.527 1.71501 120.159 2.38225 116.914 3.3934C113.668 4.40043 110.536 5.7563 107.583 7.42892C106.644 7.96041 105.723 8.52234 104.818 9.11965C103.465 10.0148 102.154 10.9757 100.892 12.0132C94.5935 17.1619 89.5386 24.0038 86.5043 32.1835C81.261 46.3066 83.1772 61.333 90.4197 73.2874L90.4189 73.2858Z" fill="white"/>
<path d="M130.963 96.2415C129.978 96.2415 128.995 96.2103 128.019 96.1486C125.885 96.0136 123.759 95.7355 121.698 95.3209C119.238 94.8322 116.785 94.1378 114.411 93.2558C113.538 92.9267 112.768 92.6165 112.058 92.3064C110.51 91.6383 108.97 90.8723 107.481 90.0307C100.447 86.0519 94.5095 80.2845 90.3103 73.3513C82.7345 60.8457 81.3029 45.8242 86.3842 32.1379C89.3205 24.2207 94.3096 17.2274 100.811 11.9134C102.039 10.9031 103.364 9.9273 104.747 9.01159C105.633 8.42663 106.565 7.85564 107.519 7.31675C110.479 5.64001 113.626 4.2792 116.874 3.27135C120.151 2.25033 123.538 1.58556 126.941 1.29513C128.42 1.16925 129.932 1.11331 131.43 1.12976C132.031 1.13223 132.583 1.14704 133.117 1.17666C137.999 1.39386 142.838 2.38032 147.501 4.10725C172.078 13.2322 184.651 40.6491 175.528 65.2251C169.552 81.3319 155.284 92.9975 138.289 95.6697C137.396 95.8079 136.483 95.9248 135.578 96.0161C134.043 96.1658 132.499 96.2407 130.963 96.2407V96.2415ZM90.5258 73.2213C94.7037 80.1167 100.609 85.8536 107.605 89.811C109.087 90.6486 110.619 91.4096 112.159 92.0752C112.866 92.3837 113.632 92.6922 114.5 93.0197C116.862 93.8959 119.3 94.5878 121.748 95.0732C123.797 95.4854 125.913 95.7627 128.035 95.896C130.517 96.0539 133.047 96.0087 135.553 95.7643C136.454 95.673 137.361 95.557 138.25 95.4196C155.154 92.7622 169.347 81.1583 175.291 65.1371C184.365 40.6919 171.859 13.4206 147.413 4.3442C142.775 2.6255 137.961 1.6448 133.105 1.42924C132.574 1.40044 132.026 1.38563 131.428 1.38317C129.937 1.36836 128.435 1.42266 126.963 1.54771C123.578 1.83649 120.209 2.49798 116.95 3.51406C113.719 4.51698 110.588 5.87038 107.644 7.53889C106.695 8.07531 105.768 8.643 104.887 9.22468C103.51 10.1346 102.193 11.1063 100.971 12.1108C94.5046 17.3969 89.5418 24.3524 86.6211 32.2276C81.567 45.8406 82.9904 60.7832 90.5267 73.2222L90.5258 73.2213Z" fill="#371A45"/>
<g opacity="0.35">
<path d="M175.408 65.182C169.226 81.8515 154.664 92.97 138.268 95.5451C137.372 95.685 136.471 95.801 135.566 95.8915C133.079 96.1359 130.559 96.1836 128.027 96.0248C125.931 95.8907 123.822 95.6217 121.724 95.1996C119.285 94.7158 116.858 94.0321 114.453 93.1403C113.659 92.8375 112.874 92.5265 112.107 92.1941C110.53 91.5121 109.011 90.7502 107.541 89.9217C100.341 85.8484 94.5223 80.0686 90.4151 73.2868C88.1584 69.5631 86.4175 65.5374 85.25 61.3357C89.3168 67.716 94.9287 73.1552 101.797 77.041C103.265 77.8736 104.785 78.6313 106.362 79.3134C107.127 79.6466 107.911 79.9576 108.709 80.2595C111.114 81.1514 113.541 81.835 115.977 82.3196C118.078 82.7401 120.183 83.0107 122.281 83.144C124.812 83.3028 127.335 83.2534 129.819 83.0107C130.728 82.9186 131.629 82.8034 132.525 82.6635C148.921 80.0884 163.48 68.9715 169.665 52.3004C173.275 42.5765 173.488 32.4231 170.908 23.1426C178.63 35.2434 180.789 50.6895 175.408 65.1812V65.182Z" fill="#371A45"/>
</g>
<path d="M130.962 97.0903C129.958 97.0903 128.958 97.059 127.965 96.9956C125.793 96.8582 123.628 96.5752 121.53 96.1532C119.028 95.6562 116.532 94.9495 114.115 94.0519C113.224 93.7162 112.442 93.4003 111.718 93.0852C110.145 92.4056 108.579 91.6264 107.062 90.7708C99.9022 86.7205 93.8592 80.8494 89.5834 73.7928C81.8727 61.0642 80.4165 45.7753 85.5882 31.8455C88.5772 23.7876 93.6551 16.6693 100.273 11.2606C101.522 10.2338 102.871 9.23997 104.278 8.30864C105.181 7.71215 106.129 7.13212 107.1 6.58253C110.112 4.87617 113.316 3.49068 116.622 2.46473C119.956 1.42561 123.405 0.749318 126.868 0.453133C128.375 0.324785 129.916 0.266372 131.438 0.284472C132.047 0.286941 132.614 0.302574 133.162 0.332193C138.122 0.552686 143.049 1.55643 147.795 3.31462C172.81 12.6025 185.606 40.5081 176.321 65.5218C170.24 81.9157 155.717 93.7886 138.42 96.5078C137.51 96.6485 136.583 96.7669 135.663 96.8607C134.099 97.0137 132.527 97.0903 130.962 97.0903ZM91.2495 72.7841C95.3516 79.5561 101.151 85.1894 108.021 89.076C109.476 89.8979 110.981 90.6466 112.493 91.2998C113.19 91.6034 113.942 91.907 114.797 92.2295C117.113 93.0893 119.508 93.768 121.911 94.2452C123.925 94.65 126.003 94.9223 128.087 95.054C130.525 95.2087 133.009 95.1659 135.47 94.9248C136.353 94.836 137.245 94.7216 138.12 94.5858C154.72 91.9761 168.659 80.5804 174.496 64.8455C183.408 40.838 171.126 14.0555 147.117 5.1411C142.562 3.45366 137.834 2.49023 133.066 2.27796C132.541 2.24917 132.007 2.23518 131.423 2.23271C129.956 2.21955 128.478 2.27138 127.034 2.39397C123.71 2.67782 120.401 3.32695 117.199 4.32494C114.026 5.30975 110.951 6.6393 108.059 8.27737C107.127 8.80475 106.217 9.36174 105.351 9.93272C103.999 10.827 102.706 11.7798 101.507 12.7662C95.1542 17.9585 90.2811 24.7897 87.413 32.5234C82.4495 45.8929 83.8473 60.5673 91.2486 72.7849L91.2495 72.7841Z" fill="#371A45"/>
<path d="M130.962 97.3717C129.952 97.3717 128.946 97.3396 127.947 97.2771C125.763 97.1397 123.585 96.8542 121.475 96.4297C118.959 95.9303 116.449 95.2186 114.017 94.3169C113.121 93.9787 112.335 93.6612 111.606 93.3444C110.025 92.6615 108.449 91.8775 106.925 91.0169C99.7231 86.9427 93.6431 81.0371 89.3435 73.9393C81.5875 61.1367 80.123 45.7581 85.3244 31.7477C88.3307 23.6429 93.4382 16.4834 100.096 11.0418C101.351 10.0093 102.707 9.00968 104.124 8.07258C105.032 7.4728 105.987 6.88866 106.962 6.3366C109.993 4.62037 113.214 3.22665 116.539 2.19494C119.893 1.15006 123.361 0.468839 126.845 0.171831C128.362 0.0426611 129.912 -0.0124621 131.442 0.00234721C132.055 0.00481542 132.625 0.0204446 133.178 0.0508859C138.166 0.273025 143.12 1.28253 147.894 3.05059C173.055 12.3928 185.926 40.4613 176.587 65.6206C170.469 82.1099 155.862 94.0519 138.465 96.7876C137.549 96.9299 136.617 97.0484 135.692 97.1422C134.118 97.296 132.536 97.3733 130.962 97.3733V97.3717ZM91.4916 72.6369C95.5691 79.3677 101.333 84.9665 108.16 88.8292C109.607 89.6462 111.102 90.3899 112.606 91.0391C113.298 91.341 114.046 91.643 114.897 91.9638C117.197 92.8178 119.578 93.4917 121.967 93.9664C123.969 94.3687 126.033 94.6394 128.105 94.7702C130.528 94.9241 132.997 94.8813 135.442 94.6419C136.318 94.553 137.207 94.4395 138.076 94.3054C154.574 91.7113 168.429 80.3846 174.23 64.746C183.088 40.885 170.881 14.2645 147.018 5.40526C142.491 3.7277 137.791 2.77004 133.052 2.55942C132.53 2.53144 132 2.51663 131.422 2.51416C129.955 2.49853 128.492 2.55201 127.056 2.6746C123.753 2.9568 120.464 3.60182 117.283 4.59322C114.128 5.57228 111.072 6.89442 108.198 8.52179C107.272 9.04588 106.367 9.59958 105.507 10.1673C104.163 11.0558 102.878 12.0036 101.686 12.9835C95.3725 18.1445 90.529 24.9338 87.6782 32.6206C82.7443 45.9095 84.1339 60.4941 91.4908 72.6369H91.4916Z" fill="#371A45"/>
<path d="M97.9955 82.7883C126.68 100.837 163.758 85.1882 164.132 51.6238C164.387 28.7887 142.225 10.909 120.278 12.069C104.304 12.9132 89.0787 20.7251 83.6108 45.8753C83.6108 45.8753 82.9098 57.3821 86.3809 64.8534C89.852 72.3239 94.4882 79.0045 94.4882 79.0045L97.9947 82.7891L97.9955 82.7883Z" fill="#371A45"/>
<path d="M164.13 51.6236C163.757 85.1872 126.678 100.835 97.9952 82.7889L97.2852 82.0213C128.079 85.9951 157.62 66.2453 158.629 32.3164C162.155 38.0023 164.207 44.5777 164.13 51.6244V51.6236Z" fill="#220F2D"/>
<path d="M123.661 96.4918C123 96.4918 122.339 96.4794 121.675 96.4539L121.478 96.4309C118.959 95.9307 116.449 95.2198 114.017 94.3173C113.121 93.9791 112.335 93.6616 111.606 93.3448C110.025 92.6619 108.449 91.8779 106.925 91.0173C99.7231 86.9431 93.6431 81.0375 89.3435 73.9397C81.5875 61.1371 80.123 45.7585 85.3244 31.7481C88.3307 23.6433 93.4382 16.4838 100.096 11.0422L100.197 10.96L100.313 10.8999C105.879 8.01457 112.423 6.35511 119.763 5.96678C132.845 5.27568 146.557 10.5363 156.462 20.0389C165.566 28.7714 170.508 40.0149 170.377 51.6962C170.234 64.3918 165.582 75.4585 156.921 83.6998C148.32 91.8869 136.291 96.4926 123.662 96.4926L123.661 96.4918ZM121.87 93.9479C134.504 94.407 146.647 90.0102 155.189 81.8808C163.346 74.1166 167.73 63.6695 167.865 51.6682C167.987 40.688 163.321 30.0985 154.723 21.8514C145.309 12.821 132.289 7.81793 119.894 8.4753C112.965 8.84142 106.806 10.3873 101.584 13.0703C95.3223 18.219 90.515 24.977 87.6799 32.6218C82.7459 45.9107 84.1355 60.4954 91.4924 72.6381C95.5699 79.369 101.334 84.9677 108.161 88.8304C109.607 89.6474 111.103 90.3912 112.606 91.0403C113.299 91.3423 114.047 91.6442 114.898 91.9651C117.167 92.8067 119.514 93.4748 121.87 93.9487V93.9479Z" fill="#371A45"/>
<path d="M123.778 91.6313C114.749 91.6313 105.539 89.0174 97.3254 83.849L97.1855 83.761L93.4552 79.718C93.2635 79.4416 88.7171 72.863 85.2402 65.3802C81.6761 57.709 82.3261 46.2795 82.3557 45.7966L82.382 45.6065C87.167 23.5933 99.8948 11.8866 120.21 10.8129C131.88 10.2016 144.124 14.8904 152.964 23.3696C161.091 31.165 165.503 41.204 165.387 51.6355C165.219 66.6974 157.766 79.3453 144.939 86.3362C138.443 89.8764 131.171 91.6305 123.778 91.6305V91.6313ZM98.8022 81.8103C112.945 90.644 130.149 91.5367 143.737 84.1312C155.742 77.588 162.717 65.734 162.875 51.6076C162.984 41.877 158.846 32.4921 151.225 25.1821C142.878 17.1743 131.336 12.7406 120.343 13.3206C101.329 14.3252 89.3901 25.3343 84.8593 46.0409C84.8058 47.1311 84.3854 57.5749 87.5192 64.3213C90.7139 71.1969 94.9699 77.4818 95.4709 78.2141L98.803 81.8094L98.8022 81.8103Z" fill="#371A45"/>
<path d="M173.803 67.3697C180.597 66.9815 185.672 59.0871 185.138 49.737C184.604 40.3869 178.663 33.1218 171.868 33.51C165.074 33.8982 159.999 41.7926 160.534 51.1427C161.068 60.4928 167.009 67.7579 173.803 67.3697Z" fill="white"/>
<g opacity="0.35">
<path d="M174.684 67.2795C168.398 68.2684 162.502 62.5233 160.91 54.1996C162.16 54.5485 163.462 54.639 164.784 54.4316C171.522 53.3703 179.406 45.3963 178.386 36.0994C178.317 35.4749 174.976 34.4416 174.86 33.8418C179.987 35.2701 184.213 41.0506 185.035 48.5227C186.055 57.8221 181.422 66.2174 174.684 67.2787V67.2795Z" fill="#371A45"/>
</g>
<path d="M173.258 68.6472C170.863 68.6472 168.515 67.8105 166.387 66.184C162.573 63.269 160.02 58.2816 159.385 52.501C158.293 42.5607 163.408 33.5295 170.788 32.3678C173.736 31.9038 176.674 32.7109 179.281 34.7044C183.095 37.6193 185.646 42.6068 186.281 48.3865C187.374 58.3268 182.259 67.358 174.879 68.5197C174.338 68.6053 173.796 68.6472 173.258 68.6472H173.258ZM172.394 34.7537C171.989 34.7537 171.584 34.785 171.179 34.8492C165.105 35.8052 160.935 43.6006 161.882 52.227C162.435 57.2531 164.69 61.7247 167.913 64.1888C169.961 65.7545 172.236 66.3946 174.49 66.0392C180.564 65.0831 184.735 57.2877 183.787 48.6613C183.235 43.6352 180.981 39.1636 177.757 36.6995C176.077 35.4152 174.243 34.7537 172.394 34.7537Z" fill="#371A45"/>
<path d="M177.252 64.8559C182.796 64.7291 187.152 58.6024 186.982 51.1715C186.812 43.7406 182.18 37.8195 176.637 37.9463C171.093 38.073 166.737 44.1997 166.907 51.6306C167.077 59.0615 171.709 64.9827 177.252 64.8559Z" fill="white"/>
<path d="M177.086 65.0117C176.119 65.0117 175.147 64.8241 174.188 64.4481C168.798 62.3328 165.635 54.7719 167.137 47.5927C167.978 43.5728 170.122 40.3698 173.018 38.805C175.15 37.6532 177.456 37.5067 179.687 38.3821C185.076 40.4974 188.239 48.0583 186.737 55.2375C185.897 59.2574 183.753 62.4604 180.856 64.0252C179.641 64.6817 178.369 65.0117 177.086 65.0117ZM176.79 38.0818C175.55 38.0818 174.319 38.401 173.143 39.0362C170.315 40.564 168.219 43.7019 167.394 47.6461C165.917 54.7052 169.007 62.1329 174.284 64.2029C176.44 65.0487 178.669 64.9072 180.732 63.7932C183.56 62.2654 185.656 59.1266 186.481 55.1824C187.958 48.1233 184.867 40.6965 179.591 38.6256C178.665 38.262 177.724 38.081 176.79 38.081V38.0818Z" fill="#371A45"/>
<g opacity="0.35">
<path d="M168.132 58.1194C167.244 55.7293 167.008 53.0867 167.331 50.5461C169.815 55.8256 175.051 57.5155 179.452 54.2648C182.296 52.1652 184.135 48.4826 184.634 44.5508C184.792 44.8823 184.937 45.2345 185.073 45.5965C187.331 51.6839 185.371 59.4226 180.692 62.8805C176.013 66.3385 170.391 64.2043 168.133 58.1202L168.132 58.1194Z" fill="#371A45"/>
</g>
<path d="M177.36 66.1339C175.589 66.1339 173.843 65.5102 172.25 64.2975C169.168 61.951 167.017 57.6218 166.497 52.715C165.611 44.3543 169.473 37.0517 175.289 36.0891C177.483 35.7271 179.681 36.3252 181.648 37.8218C184.73 40.1682 186.881 44.4975 187.401 49.4043C188.287 57.765 184.425 65.0676 178.609 66.0302C178.193 66.0993 177.776 66.133 177.361 66.133L177.36 66.1339ZM176.521 38.4997C176.246 38.4997 175.972 38.5219 175.698 38.5672C171.344 39.2879 168.274 45.646 168.995 52.4509C169.444 56.6831 171.229 60.364 173.771 62.2991C175.173 63.3662 176.704 63.8006 178.198 63.5529C182.552 62.8322 185.623 56.4741 184.901 49.6692C184.453 45.4371 182.668 41.7553 180.125 39.8202C178.979 38.9481 177.748 38.4989 176.52 38.4989L176.521 38.4997Z" fill="#371A45"/>
<g opacity="0.7">
<path d="M131.99 19.8056C131.99 19.8056 110.594 22.31 99.4384 35.2928C99.4269 35.3068 99.4153 35.3199 99.403 35.3339C97.0574 38.0687 95.495 41.3893 94.8533 44.9345C94.005 49.6224 94.107 52.9775 94.3111 55.9279C94.9355 64.8998 96.906 68.9872 96.906 68.9872C91.4735 64.602 88.2236 59.4204 87.6296 51.9524C87.5729 51.2161 87.5416 50.455 87.5342 49.6726C87.5317 49.4924 87.5342 49.3139 87.5383 49.1337C87.5342 49.1321 87.5358 49.128 87.54 49.123C87.6362 47.5368 87.8419 45.4577 88.2697 43.1318C89.5557 36.1155 92.8441 26.8523 101.2 22.078C116.824 13.1513 132.663 18.8183 131.989 19.8072L131.99 19.8056Z" fill="white"/>
</g>
<g opacity="0.7">
<path d="M151.89 47.7544C155.2 46.617 156.81 42.5677 155.484 38.71C154.159 34.8523 150.401 32.647 147.09 33.7844C143.78 34.9217 142.17 38.971 143.495 42.8288C144.821 46.6865 148.579 48.8917 151.89 47.7544Z" fill="white"/>
</g>
<g opacity="0.7">
<path d="M155.079 56.2573C156.401 55.674 156.922 53.9519 156.243 52.4107C155.563 50.8695 153.94 50.093 152.617 50.6763C151.295 51.2596 150.774 52.9818 151.453 54.5229C152.133 56.0641 153.756 56.8406 155.079 56.2573Z" fill="white"/>
</g>
<path d="M245.287 139.883C229.206 174.745 181.927 199.999 126.103 199.999C70.2798 199.999 23.0012 174.745 6.91992 139.883H245.287Z" fill="#371A45"/>
<path d="M163.525 178.718L162.042 178.946C161.745 178.993 161.511 179.225 161.466 179.522L161.237 181.006L161.009 179.522C160.962 179.225 160.73 178.992 160.433 178.946L158.949 178.718L160.433 178.489C160.73 178.443 160.963 178.21 161.009 177.913L161.237 176.43L161.466 177.913C161.512 178.21 161.745 178.444 162.042 178.489L163.525 178.718Z" fill="#FFE266"/>
<path d="M125.267 172.136L123.784 172.364C123.487 172.41 123.253 172.643 123.208 172.94L122.979 174.424L122.751 172.94C122.705 172.643 122.472 172.41 122.175 172.364L120.691 172.136L122.175 171.907C122.472 171.861 122.705 171.628 122.751 171.331L122.979 169.848L123.208 171.331C123.254 171.628 123.487 171.862 123.784 171.907L125.267 172.136Z" fill="#FFE266"/>
<path d="M139.492 186.807L138 187.037C137.7 187.083 137.466 187.318 137.42 187.617L137.19 189.11L136.959 187.617C136.913 187.318 136.679 187.083 136.379 187.037L134.887 186.807L136.379 186.576C136.678 186.53 136.913 186.296 136.959 185.996L137.19 184.504L137.42 185.996C137.466 186.296 137.7 186.53 138 186.576L139.492 186.807Z" fill="#FFE266"/>
<path d="M207.11 169.962L205.098 170.273C204.695 170.336 204.378 170.652 204.316 171.055L204.005 173.067L203.694 171.055C203.632 170.652 203.316 170.335 202.913 170.273L200.9 169.962L202.913 169.651C203.316 169.589 203.633 169.273 203.694 168.87L204.005 166.857L204.316 168.87C204.379 169.273 204.695 169.59 205.098 169.651L207.11 169.962Z" fill="#FFE266"/>
<path d="M26.0689 146.102L24.3231 146.372C23.9734 146.426 23.6986 146.7 23.6451 147.05L23.3753 148.795L23.1054 147.05C23.0511 146.7 22.7772 146.425 22.4275 146.372L20.6816 146.102L22.4275 145.832C22.7772 145.778 23.0519 145.504 23.1054 145.154L23.3753 143.408L23.6451 145.154C23.6994 145.504 23.9734 145.779 24.3231 145.832L26.0689 146.102Z" fill="#FFE266"/>
<path d="M101.428 166.448L99.5368 166.74C99.1575 166.798 98.8605 167.096 98.8021 167.474L98.51 169.366L98.218 167.474C98.1596 167.095 97.8617 166.798 97.4833 166.74L95.5918 166.448L97.4833 166.155C97.8626 166.097 98.1596 165.8 98.218 165.421L98.51 163.529L98.8021 165.421C98.8605 165.8 99.1575 166.097 99.5368 166.155L101.428 166.448Z" fill="#FFE266"/>
<path d="M184.815 179.211L183.015 179.489C182.654 179.545 182.371 179.828 182.315 180.189L182.037 181.989L181.759 180.189C181.703 179.828 181.42 179.545 181.06 179.489L179.26 179.211L181.06 178.933C181.42 178.877 181.703 178.594 181.759 178.234L182.037 176.434L182.315 178.234C182.371 178.594 182.654 178.877 183.015 178.933L184.815 179.211Z" fill="#FFE266"/>
<path d="M75.0683 166.005L73.5849 166.234C73.2878 166.28 73.0542 166.512 73.0089 166.809L72.7802 168.293L72.5515 166.809C72.5054 166.512 72.2726 166.279 71.9756 166.234L70.4922 166.005L71.9756 165.776C72.2726 165.73 72.5063 165.497 72.5515 165.2L72.7802 163.717L73.0089 165.2C73.055 165.497 73.2878 165.731 73.5849 165.776L75.0683 166.005Z" fill="#FFE266"/>
<path d="M78.9518 184.353L77.9653 183.222C77.7678 182.995 77.4462 182.922 77.1705 183.042L75.7949 183.641L76.9262 182.655C77.1524 182.457 77.2257 182.136 77.1055 181.86L76.5066 180.484L77.493 181.616C77.6905 181.843 78.0122 181.915 78.2878 181.795L79.6634 181.196L78.5322 182.183C78.3059 182.38 78.2327 182.702 78.3528 182.977L78.9518 184.353Z" fill="#FFE266"/>
<path d="M107.066 186.173L105.349 186.438C105.005 186.491 104.735 186.761 104.682 187.105L104.417 188.822L104.152 187.105C104.098 186.761 103.829 186.491 103.485 186.438L101.768 186.173L103.485 185.908C103.829 185.854 104.098 185.584 104.152 185.24L104.417 183.523L104.682 185.24C104.735 185.584 105.005 185.854 105.349 185.908L107.066 186.173Z" fill="#FFE266"/>
<path d="M52.9061 171.661L51.4228 171.89C51.1257 171.936 50.8921 172.169 50.8468 172.466L50.6181 173.949L50.3894 172.466C50.3433 172.169 50.1105 171.935 49.8135 171.89L48.3301 171.661L49.8135 171.432C50.1105 171.386 50.3441 171.153 50.3894 170.856L50.6181 169.373L50.8468 170.856C50.8929 171.153 51.1257 171.387 51.4228 171.432L52.9061 171.661Z" fill="#FFE266"/>
<path d="M229.146 147.762L227.391 148.033C227.04 148.087 226.763 148.363 226.709 148.715L226.438 150.47L226.167 148.715C226.113 148.364 225.838 148.087 225.485 148.033L223.73 147.762L225.485 147.492C225.837 147.437 226.113 147.162 226.167 146.81L226.438 145.055L226.709 146.81C226.763 147.161 227.039 147.437 227.391 147.492L229.146 147.762Z" fill="#FFE266"/>
<path d="M193.588 170.07H137.119L139.979 162.952L144.23 152.381L180.646 152.763L189.017 163.957L193.588 170.07Z" fill="white"/>
<path d="M196.096 171.323H135.26L143.387 151.115L181.282 151.515L196.096 171.323ZM138.978 168.812H191.082L180.014 154.013L145.077 153.644L138.978 168.812Z" fill="#371A45"/>
<path d="M185.854 166.013C184.112 166.018 182.371 165.984 180.628 165.971L175.404 165.864C173.663 165.839 171.919 165.762 170.185 165.721C168.446 165.688 166.707 165.669 164.967 165.668C161.487 165.617 158.005 165.627 154.523 165.598L149.299 165.553C147.558 165.519 145.817 165.508 144.074 165.462C145.814 165.368 147.555 165.319 149.296 165.25L154.52 165.124C158.002 165.055 161.487 165.049 164.971 165.051C166.713 165.071 168.456 165.109 170.199 165.161C171.946 165.231 173.682 165.292 175.421 165.392L180.637 165.67C182.376 165.785 184.114 165.879 185.853 166.012L185.854 166.013Z" fill="#371A45"/>
<path d="M183.526 162.173C181.925 162.19 180.324 162.167 178.723 162.164L173.919 162.091C170.716 162.038 167.521 161.903 164.321 161.811L154.728 161.486C153.129 161.433 151.533 161.386 149.934 161.422C148.335 161.417 146.734 161.433 145.131 161.41C148.323 161.209 151.528 160.975 154.735 161.012C157.94 161.009 161.141 161.096 164.342 161.195C167.541 161.304 170.742 161.454 173.937 161.621L178.731 161.866C180.329 161.969 181.928 162.052 183.526 162.175V162.173Z" fill="#371A45"/>
<path d="M181.12 158.861C179.648 158.853 178.18 158.805 176.712 158.779L172.311 158.632L163.507 158.366L154.705 158.056C153.238 158 151.773 157.955 150.305 157.938C148.833 157.885 147.363 157.853 145.898 157.782C148.838 157.671 151.769 157.57 154.713 157.581C157.653 157.58 160.59 157.659 163.527 157.75C166.464 157.858 169.398 157.968 172.332 158.161L176.731 158.479C178.195 158.608 179.659 158.715 181.121 158.862L181.12 158.861Z" fill="#371A45"/>
<path d="M178.966 155.68C176.305 155.951 173.627 155.846 170.962 155.807C168.296 155.754 165.632 155.663 162.968 155.583L154.978 155.292C153.646 155.238 152.314 155.189 150.984 155.162C149.661 155.116 148.299 155.124 147.002 155.036L150.983 154.86C152.319 154.826 153.653 154.822 154.987 154.818C157.656 154.816 160.323 154.886 162.989 154.967C165.654 155.062 168.319 155.169 170.981 155.335C172.312 155.418 173.641 155.496 174.973 155.559C176.303 155.631 177.634 155.714 178.966 155.68Z" fill="#371A45"/>
<path d="M221.825 161.222H165.355L172.471 143.533L177.915 143.59L208.883 143.919L221.825 161.222Z" fill="white"/>
<path d="M132.214 142.781L111.91 161.108C111.91 161.108 130.007 160.176 138.406 160.2C145.255 160.22 168.162 161.974 168.162 161.974L173.49 143.534L132.214 142.781Z" fill="white"/>
<g opacity="0.35">
<path d="M189.017 163.955H168.692L168.475 164.708C168.475 164.708 148.005 163.139 139.98 162.95L144.232 152.379L180.648 152.762L189.018 163.955H189.017Z" fill="#371A45"/>
</g>
<path d="M221.825 161.222H165.355L172.471 143.533L177.915 143.59L208.883 143.919L221.825 161.222Z" fill="white"/>
<path d="M224.333 162.478H163.496L171.623 142.27L209.518 142.669L224.333 162.478ZM167.214 159.966H219.318L208.251 145.167L173.313 144.799L167.214 159.966Z" fill="#371A45"/>
<path d="M214.089 157.166C212.346 157.172 210.605 157.138 208.863 157.125L203.638 157.018C201.898 156.993 200.153 156.916 198.419 156.875C196.681 156.842 194.941 156.823 193.201 156.822C189.721 156.771 186.239 156.781 182.757 156.753L177.534 156.707C175.792 156.673 174.051 156.662 172.309 156.616C174.049 156.522 175.79 156.473 177.531 156.405L182.754 156.278C186.237 156.209 189.721 156.203 193.205 156.206C194.948 156.225 196.69 156.263 198.434 156.315C200.18 156.385 201.916 156.447 203.656 156.546L208.872 156.824C210.61 156.939 212.349 157.033 214.087 157.166H214.089Z" fill="#371A45"/>
<path d="M211.761 153.327C210.16 153.343 208.559 153.32 206.958 153.318L202.154 153.244C198.951 153.19 195.755 153.056 192.556 152.963L182.962 152.638C181.363 152.585 179.768 152.539 178.168 152.575C176.569 152.57 174.969 152.585 173.365 152.562C176.557 152.362 179.763 152.126 182.97 152.164C186.174 152.162 189.376 152.248 192.576 152.348C195.776 152.456 198.976 152.607 202.172 152.773L206.966 153.018C208.564 153.122 210.162 153.205 211.761 153.328V153.327Z" fill="#371A45"/>
<path d="M209.354 150.427C207.882 150.418 206.415 150.371 204.946 150.344L200.545 150.198L191.741 149.931L182.939 149.621C181.472 149.566 180.007 149.521 178.539 149.504C177.068 149.452 175.598 149.42 174.133 149.349C177.072 149.238 180.003 149.137 182.948 149.147C185.887 149.146 188.824 149.225 191.762 149.316C194.698 149.425 197.633 149.534 200.567 149.727L204.965 150.046C206.429 150.174 207.894 150.282 209.355 150.428L209.354 150.427Z" fill="#371A45"/>
<path d="M207.202 147.656C204.542 147.929 201.863 147.823 199.198 147.783C196.532 147.73 193.868 147.639 191.204 147.559L183.214 147.269C181.883 147.215 180.551 147.165 179.22 147.139C177.897 147.093 176.536 147.1 175.238 147.013L179.219 146.837C180.556 146.802 181.889 146.798 183.224 146.795C185.893 146.793 188.559 146.862 191.225 146.943C193.891 147.039 196.555 147.145 199.218 147.312C200.548 147.395 201.878 147.473 203.209 147.535C204.539 147.608 205.87 147.69 207.202 147.656Z" fill="#371A45"/>
<path d="M1.09112 138.771L8.82814 138.631L16.5652 138.525L32.0384 138.317L62.9848 138.058C73.3003 137.954 83.6158 137.946 93.9321 137.893L124.879 137.842L155.825 137.892C166.141 137.947 176.456 137.952 186.772 138.057L217.719 138.317L233.192 138.525L240.929 138.632L248.666 138.772C249.28 138.783 249.768 139.29 249.757 139.904C249.746 140.503 249.261 140.983 248.666 140.995L240.929 141.134L233.192 141.241L217.719 141.449L186.772 141.709C176.457 141.814 166.141 141.819 155.825 141.874L124.879 141.924L93.9321 141.873C83.6166 141.82 73.3012 141.812 62.9848 141.708L32.0384 141.449L16.5652 141.241L8.82814 141.135L1.09112 140.995C0.477359 140.984 -0.010523 140.478 0.000172546 139.864C0.0108681 139.264 0.497104 138.785 1.09112 138.773V138.771Z" fill="#371A45"/>
<path d="M105.707 158.422L123.471 141.907C123.542 141.841 123.582 141.748 123.582 141.651V138.685C123.582 138.484 123.413 138.324 123.212 138.337L66.3896 141.804L40.0176 158.423H105.707L105.707 158.422Z" fill="#3E8DFF"/>
<g opacity="0.3">
<path d="M123.583 140.275V141.653C123.583 141.751 123.542 141.845 123.471 141.911L105.707 158.425H40.0195L44.826 155.396H104.507L123.583 140.275H123.583Z" fill="#6B184E"/>
</g>
<path d="M106.202 159.678H35.6699L65.9927 140.57L123.136 137.082C123.579 137.059 124.012 137.213 124.334 137.515C124.655 137.817 124.839 138.243 124.839 138.684V141.651C124.839 142.094 124.653 142.522 124.33 142.824L106.202 159.677V159.678ZM44.3671 157.166H105.214L122.327 141.257V139.649L66.7875 143.037L44.3671 157.165V157.166Z" fill="#371A45"/>
<path d="M105.707 151.444L123.582 138.316H66.3896L40.0176 151.444H105.707Z" fill="#3E8DFF"/>
<path d="M101.097 149.786L112.726 141.246H75.521L58.3652 149.786H101.097Z" fill="white"/>
<path d="M105.978 152.265H36.5195L66.1965 137.492H122.518C123.025 137.492 123.473 137.816 123.632 138.299C123.79 138.782 123.621 139.308 123.211 139.609L105.978 152.266V152.265ZM43.5177 150.62H105.439L121.073 139.138H66.584L43.5177 150.62Z" fill="#371A45"/>
<path d="M104.013 159.2H29.2878C28.804 159.2 28.3614 159.003 28.0413 158.673C27.8307 158.459 27.6744 158.183 27.5954 157.872L15.0273 106.866C14.4842 104.665 16.1478 102.539 18.4153 102.539H88.1777C90.4756 102.539 92.488 104.036 93.17 106.206C93.2046 106.31 93.2359 106.417 93.2614 106.523L105.707 157.036C105.98 158.135 105.145 159.199 104.015 159.199L104.013 159.2Z" fill="#3E8DFF"/>
<g opacity="0.3">
<path d="M104.013 159.199H29.2875C28.8037 159.199 28.3611 159.002 28.041 158.672C37.2022 159.115 69.0446 159.365 84.2496 142.961C93.9859 132.456 94.1422 115.998 93.1689 106.205C93.2035 106.309 93.2347 106.416 93.2602 106.522L105.706 157.035C105.979 158.134 105.144 159.198 104.013 159.198L104.013 159.199Z" fill="#6B184E"/>
</g>
<g opacity="0.35">
<path d="M18.848 108.398L31.366 159.2H29.2878C28.484 159.2 27.7871 158.651 27.5954 157.872L15.0273 106.866C14.4842 104.665 16.1478 102.539 18.4153 102.539H88.1777C90.5258 102.539 92.5793 104.102 93.2137 106.351C92.994 106.323 92.7743 106.307 92.5481 106.307H20.4869C19.3911 106.307 18.5839 107.334 18.848 108.399V108.398Z" fill="white"/>
</g>
<path d="M104.013 160.454H29.2885C27.9038 160.454 26.7059 159.516 26.3752 158.171L13.8078 107.165C13.4565 105.739 13.7741 104.258 14.68 103.102C15.5858 101.946 16.9474 101.283 18.416 101.283H88.1784C91.1723 101.283 93.764 103.314 94.4806 106.221L106.927 156.735C107.149 157.637 106.948 158.573 106.375 159.304C105.802 160.035 104.942 160.454 104.013 160.454V160.454ZM18.416 103.795C17.7249 103.795 17.0832 104.107 16.657 104.651C16.23 105.195 16.0811 105.893 16.2456 106.564L28.8129 157.57C28.8672 157.79 29.0622 157.943 29.2885 157.943H104.013C104.22 157.943 104.343 157.825 104.398 157.755C104.453 157.685 104.538 157.537 104.488 157.335L92.042 106.822C91.6026 105.039 90.0139 103.794 88.1784 103.794H18.416V103.795Z" fill="#371A45"/>
<g opacity="0.35">
<path d="M177.913 143.59L172.82 161.222H165.354L172.469 143.533L177.913 143.59Z" fill="#371A45"/>
</g>
<path d="M132.214 142.781L111.91 161.108C111.91 161.108 130.007 160.176 138.406 160.2C145.255 160.22 168.162 161.974 168.162 161.974L173.49 143.534L132.214 142.781Z" fill="white"/>
<path d="M169.082 163.305L168.064 163.227C167.835 163.21 145.124 161.476 138.4 161.457C130.143 161.44 112.153 162.354 111.972 162.363L108.441 162.545L131.738 141.518L175.147 142.309L169.081 163.305H169.082ZM138.085 158.946C138.193 158.946 138.3 158.946 138.406 158.946C144.476 158.963 162.667 160.302 167.236 160.645L171.825 144.76L132.685 144.047L115.361 159.684C120.97 159.42 131.934 158.946 138.085 158.946Z" fill="#371A45"/>
<path d="M143.123 143.034C143.131 145.824 142.586 148.568 141.542 150.987L141.107 151.989C140.61 153.139 139.364 153.139 138.867 151.989L138.419 150.951C137.385 148.557 136.84 145.838 136.84 143.073V114.539C136.84 113.558 138.227 112.762 139.941 112.762C141.655 112.762 143.039 113.559 143.039 114.539C143.039 114.586 143.037 114.633 143.028 114.68L143.123 143.034Z" fill="#371A45"/>
<path d="M164.848 156.735C163.125 156.707 161.406 156.64 159.685 156.594L154.529 156.388C151.094 156.219 147.655 156.111 144.216 156.011C140.779 155.87 137.34 155.766 133.902 155.658C132.182 155.593 130.47 155.583 128.746 155.551C127.024 155.5 125.302 155.469 123.582 155.399C127.025 155.287 130.46 155.18 133.91 155.184C137.355 155.194 140.795 155.303 144.237 155.395L149.396 155.614C151.116 155.685 152.835 155.782 154.552 155.917L159.704 156.294C161.419 156.442 163.135 156.57 164.848 156.736V156.735Z" fill="#371A45"/>
<path d="M166.673 153.696C164.502 153.671 162.335 153.608 160.171 153.504C159.088 153.461 158.007 153.396 156.925 153.341C155.843 153.28 154.764 153.202 153.683 153.159L147.197 152.841C145.034 152.747 142.873 152.622 140.703 152.563C142.867 152.383 145.041 152.347 147.209 152.36C149.379 152.37 151.547 152.44 153.714 152.543C155.883 152.66 158.041 152.84 160.201 153.025C162.362 153.21 164.519 153.433 166.672 153.695L166.673 153.696Z" fill="#371A45"/>
<path d="M172.19 86.9062C172.19 86.9062 177.943 99.5616 178.913 113.925C179.9 128.553 178.47 149.349 144.405 146.529C132.464 145.54 133.044 140.466 132.6 134.48C132.051 127.063 132.898 118.546 141.564 118.228C157.225 117.653 161.902 114.238 164.128 104.635" fill="white"/>
<g opacity="0.35">
<path d="M179.043 122.088C178.381 135.164 172.456 148.85 144.407 146.53C132.464 145.541 133.045 140.467 132.602 134.48C132.301 130.421 132.42 126.031 134.009 122.838C134.025 123.72 134.068 124.603 134.135 125.469C134.577 131.453 133.997 136.53 145.937 137.516C167.462 139.299 175.958 131.651 179.044 122.088H179.043Z" fill="#371A45"/>
</g>
<path d="M160.367 111.143C160.626 110.601 160.931 110.102 161.23 109.583C161.526 109.064 161.851 108.547 162.152 108.004C162.765 106.92 163.325 105.768 163.988 104.602C164.029 104.528 164.123 104.501 164.196 104.543C164.243 104.57 164.271 104.618 164.274 104.668C164.349 106.016 164.205 107.354 163.88 108.679C163.712 109.338 163.509 110.001 163.203 110.624C162.899 111.247 162.528 111.852 162.029 112.354C161.624 112.763 160.966 112.765 160.558 112.36C160.235 112.04 160.166 111.562 160.351 111.175L160.367 111.143V111.143Z" fill="#371A45"/>
<path d="M150.304 148.04C148.392 148.04 146.391 147.953 144.303 147.781C132.119 146.772 131.77 141.198 131.432 135.807C131.406 135.401 131.381 134.989 131.349 134.573C130.837 127.647 131.83 122.893 134.384 120.038C136.106 118.114 138.506 117.083 141.519 116.972C151.483 116.606 156.737 115.072 159.655 111.675C160.107 111.148 160.9 111.089 161.425 111.541C161.952 111.992 162.011 112.785 161.559 113.312C158.134 117.301 152.355 119.088 141.611 119.482C139.273 119.568 137.521 120.298 136.255 121.713C134.179 124.032 133.393 128.178 133.853 134.387C133.884 134.813 133.911 135.235 133.937 135.65C134.269 140.948 134.489 144.448 144.508 145.278C157.011 146.312 166.071 144.159 171.436 138.875C178.004 132.407 178.212 122.189 177.66 114.01C176.717 100.036 171.104 87.5512 171.047 87.4261C170.76 86.7951 171.04 86.0505 171.671 85.7634C172.303 85.4762 173.047 85.7552 173.334 86.387C173.572 86.9119 179.192 99.4159 180.166 113.841C180.754 122.555 180.494 133.48 173.199 140.665C168.22 145.568 160.534 148.041 150.303 148.041L150.304 148.04Z" fill="#371A45"/>
<path d="M174.246 138.816C174.228 138.816 174.21 138.816 174.191 138.815C173.498 138.785 172.96 138.199 172.991 137.506C173.884 116.854 161.144 113.504 160.601 113.372C159.929 113.208 159.514 112.531 159.675 111.858C159.837 111.186 160.511 110.77 161.183 110.928C161.343 110.966 165.161 111.9 168.833 115.72C172.157 119.179 176.013 125.786 175.501 137.614C175.472 138.289 174.916 138.816 174.247 138.816H174.246Z" fill="#371A45"/>
<path d="M70.6628 120.17C70.6315 119.305 70.6143 118.428 70.3172 117.589C70.2284 117.506 70.1461 117.42 70.0573 117.338C69.7973 117.287 69.5406 117.206 69.2748 117.181C67.4015 116.986 65.5446 117.078 63.7115 117.518C61.3206 118.092 59.2103 119.174 57.5311 121.002C56.9231 121.662 56.3858 122.384 55.8313 123.09C55.6824 123.282 55.5598 123.37 55.2998 123.296C54.6885 123.122 54.0542 123.099 53.4232 123.162C51.7324 123.339 50.3157 124.107 49.0503 125.196C47.6796 126.378 46.6512 127.838 45.7199 129.374C45.3225 130.026 45.6088 130.642 46.3657 130.777C46.8429 130.857 47.3193 130.934 47.7965 131.014C48.9392 131.203 50.0787 131.389 51.2182 131.577C51.2207 131.611 51.2264 131.628 51.224 131.645C51.2182 131.668 51.2125 131.694 51.2009 131.717C50.8356 132.368 51.0265 132.891 51.581 133.324C51.6411 133.373 51.6954 133.433 51.7497 133.487C52.05 133.779 52.3552 134.073 52.672 134.376C52.352 134.71 52.0319 135.001 51.7612 135.335C51.6238 135.504 51.5152 135.735 51.4873 135.952C51.4362 136.304 51.6617 136.62 51.9875 136.752C52.333 136.895 52.6588 136.838 52.9213 136.581C53.2553 136.258 53.5696 135.915 53.9069 135.567C54.338 135.987 54.7469 136.384 55.155 136.775C55.6232 137.221 55.9062 137.266 56.4887 137.006C56.594 136.955 56.7001 136.915 56.826 136.863C56.8548 136.991 56.8803 137.094 56.9 137.191C57.2143 138.75 57.5229 140.313 57.8454 141.867C57.9968 142.604 58.6369 142.867 59.2588 142.447C59.8216 142.07 60.381 141.676 60.9265 141.265C62.1828 140.314 63.2911 139.214 64.1023 137.852C65.1159 136.138 65.5478 134.331 64.9217 132.365C64.8962 132.288 64.9415 132.142 65.0048 132.091C65.5561 131.606 66.127 131.143 66.6783 130.655C67.9239 129.546 68.8577 128.209 69.5143 126.682C70.4086 124.605 70.7451 122.423 70.6628 120.173V120.17ZM51.892 129.953C50.5724 129.733 49.2042 129.504 47.7989 129.27C48.9615 127.591 50.2326 126.085 52.1232 125.246C52.9402 124.883 53.9283 124.755 54.5454 124.903C53.6683 126.576 52.7888 128.251 51.892 129.953ZM63.4449 134.823C63.2796 135.891 62.7941 136.814 62.154 137.668C61.3568 138.718 60.372 139.562 59.2893 140.358C59.0005 138.924 58.715 137.522 58.4353 136.148C60.1087 135.189 61.7452 134.252 63.3906 133.309C63.5305 133.78 63.5247 134.303 63.4449 134.823ZM68.5517 124.161C68.1831 125.597 67.6179 126.94 66.7005 128.119C65.9921 129.024 65.1496 129.792 64.2471 130.498C61.7995 132.412 59.0893 133.886 56.2896 135.208C56.1522 135.27 56.0641 135.276 55.9498 135.159C55.7013 134.899 55.4298 134.654 55.1698 134.4C55.1526 134.386 55.1443 134.359 55.1155 134.311C55.1814 134.239 55.2529 134.168 55.3237 134.094C56.803 132.557 58.2913 131.023 59.7706 129.484C60.1992 129.044 60.1244 128.41 59.6217 128.113C59.2704 127.905 58.859 127.97 58.5389 128.296C57.6479 129.216 56.7594 130.136 55.8716 131.058C55.2093 131.743 54.552 132.426 53.8641 133.14C53.5441 132.832 53.2389 132.552 52.9558 132.252C52.9073 132.197 52.9246 132.04 52.9674 131.957C53.6585 130.492 54.3413 129.021 55.0719 127.573C55.7943 126.136 56.6573 124.779 57.6397 123.506C58.5595 122.303 59.5879 121.21 60.9158 120.45C61.7674 119.962 62.6641 119.582 63.6119 119.334C63.6975 119.308 63.8374 119.377 63.9122 119.448C65.083 120.568 66.2431 121.69 67.4056 122.816C67.7544 123.15 68.1 123.493 68.4562 123.821C68.5615 123.921 68.5879 124.015 68.5508 124.161H68.5517ZM68.8659 122.301C67.7067 121.179 66.5754 120.088 65.4417 118.992C65.4392 118.963 65.4417 118.929 65.4417 118.897C66.5639 118.862 67.6894 118.831 68.8265 118.797C68.9861 120.002 68.9754 121.13 68.8668 122.301L68.8659 122.301Z" fill="#371A45"/>
<path d="M68.4574 123.821C68.1004 123.493 67.7548 123.149 67.4068 122.815C66.2443 121.69 65.085 120.568 63.9135 119.448C63.8394 119.376 63.6995 119.308 63.6132 119.334C62.6645 119.582 61.7678 119.962 60.917 120.45C59.5891 121.209 58.5607 122.304 57.6409 123.506C56.6586 124.779 55.7955 126.136 55.0731 127.572C54.3417 129.02 53.6597 130.492 52.9686 131.957C52.9258 132.04 52.9085 132.197 52.9571 132.251C53.2401 132.551 53.5453 132.831 53.8654 133.14C54.554 132.426 55.2105 131.743 55.8728 131.058C56.7614 130.135 57.6491 129.215 58.5401 128.296C58.8602 127.97 59.2716 127.904 59.6229 128.113C60.1256 128.41 60.1996 129.044 59.7718 129.484C58.2925 131.023 56.8042 132.557 55.3249 134.093C55.2533 134.168 55.1817 134.239 55.1167 134.311C55.1455 134.359 55.1538 134.385 55.171 134.4C55.431 134.654 55.7025 134.9 55.951 135.159C56.0654 135.276 56.1534 135.27 56.2908 135.207C59.0897 133.885 61.7998 132.411 64.2483 130.498C65.1508 129.793 65.9933 129.025 66.7017 128.119C67.6182 126.939 68.1843 125.597 68.5529 124.161C68.5899 124.015 68.5644 123.92 68.4583 123.821H68.4574ZM65.8123 126.2C64.6786 127.357 62.8332 127.394 61.6822 126.277C60.5254 125.163 60.4966 123.319 61.6164 122.151C62.7164 121.005 64.5642 120.98 65.7235 122.094C66.872 123.202 66.9148 125.073 65.8123 126.201V126.2Z" fill="white"/>
<path d="M68.8664 122.301C67.7063 121.18 66.575 120.088 65.4421 118.991C65.4405 118.961 65.4421 118.929 65.4421 118.896C66.5652 118.864 67.6907 118.831 68.8285 118.797C68.9881 120.001 68.9758 121.13 68.8672 122.3L68.8664 122.301Z" fill="#DB2C2C"/>
<path d="M54.5461 124.905C53.6674 126.577 52.7879 128.252 51.8928 129.955C50.5706 129.733 49.2032 129.506 47.7988 129.273C48.9622 127.591 50.2325 126.085 52.124 125.248C52.9401 124.883 53.9274 124.756 54.5461 124.905Z" fill="#DB2C2C"/>
<path d="M62.1527 137.668C61.3563 138.72 60.3723 139.563 59.2887 140.359C58.9999 138.926 58.7153 137.523 58.4355 136.149C60.1098 135.189 61.7454 134.254 63.3925 133.309C63.5324 133.781 63.5242 134.302 63.446 134.825C63.2806 135.893 62.7952 136.815 62.1527 137.669V137.668Z" fill="#DB2C2C"/>
<path d="M65.7232 122.093C64.5639 120.979 62.7161 121.004 61.6161 122.149C60.4963 123.318 60.5251 125.162 61.6819 126.276C62.8329 127.393 64.6783 127.356 65.812 126.199C66.9145 125.071 66.8717 123.2 65.7232 122.092V122.093ZM64.7894 125.266C64.2151 125.854 63.2443 125.869 62.6412 125.297C62.0184 124.709 62.0126 123.706 62.6272 123.09C63.2015 122.507 64.1921 122.501 64.7779 123.078C65.3892 123.678 65.3916 124.649 64.7894 125.266Z" fill="#371A45"/>
<path d="M64.7903 125.265C64.216 125.853 63.2452 125.867 62.6413 125.296C62.0209 124.708 62.0143 123.706 62.6281 123.089C63.2032 122.507 64.1938 122.5 64.7779 123.077C65.3892 123.677 65.3942 124.649 64.7903 125.265Z" fill="#22A7F0"/>
</svg>
