<svg width="201" height="264" viewBox="0 0 201 264" fill="none" xmlns="http://www.w3.org/2000/svg">
<path d="M105.881 192.881C105.138 192.893 104.339 192.944 103.494 193.028C94.4086 193.924 80.3171 198.584 80.3171 198.584L64.2897 221.888C63.3943 223.185 61.7288 223.713 60.2505 223.168C47.8616 218.583 36.989 212.761 27.9088 205.463C26.7471 204.529 26.3159 202.958 26.8444 201.563C27.0431 201.044 27.2756 200.46 27.5419 199.835C29.0334 196.375 31.6364 191.634 35.3887 189.394C41.6763 185.646 50.11 190.712 50.11 190.712C50.11 190.712 61.3751 174.182 65.0722 170.062C68.7692 165.942 81.201 160.871 81.201 160.871L103.419 176.577C103.419 176.577 114.616 192.74 105.882 192.879L105.881 192.881Z" fill="#F8F8F8"/>
<path d="M183.979 171.061C183.954 173.807 182.999 176.466 181.275 178.604C177.227 183.632 168.433 191.686 154.333 190.443C151.105 190.161 148.265 187.925 145.772 184.371C132.568 165.58 128.98 109.85 128.98 109.85L147.255 94.8496C147.255 94.8496 165.108 95.4795 171.658 101.344C174.519 103.905 177.375 112.398 179.619 123.701C180.734 129.321 181.702 135.638 182.437 142.268C183.024 147.542 183.463 153.014 183.721 158.486C183.924 162.707 184.013 166.929 183.979 171.061Z" fill="#F8F8F8"/>
<path d="M157.227 192.096C156.244 192.096 155.237 192.052 154.199 191.961C145.027 191.153 137.744 176.956 132.555 149.763C128.778 129.974 127.473 110.147 127.46 109.949C127.407 109.109 128.043 108.385 128.882 108.33C129.723 108.281 130.446 108.913 130.501 109.753C130.513 109.949 131.809 129.611 135.552 149.215C140.317 174.168 147.035 188.27 154.467 188.925C167.9 190.105 176.285 182.368 180.087 177.649C181.593 175.779 182.434 173.434 182.455 171.047C182.716 140.05 176.177 107.437 170.642 102.479C164.581 97.052 147.376 96.3775 147.204 96.3718C146.363 96.3421 145.705 95.6355 145.735 94.7953C145.765 93.9543 146.482 93.3013 147.312 93.3269C148.063 93.3533 165.793 94.0475 172.675 100.209C179.524 106.342 185.758 140.78 185.502 171.073C185.477 174.144 184.396 177.158 182.461 179.56C178.57 184.389 170.308 192.092 157.228 192.094L157.227 192.096Z" fill="#371A45"/>
<path d="M183.722 158.486C178.013 162.171 168.096 164.82 164.264 161.93L164.745 141.613L164.99 131.409C164.99 131.409 172.157 126.143 179.619 123.701C183.067 122.573 184.99 127.627 186.114 133.927C186.126 134.003 186.139 134.087 186.156 134.172C187.423 141.456 187.647 150.296 187.926 153.161C188.091 154.859 186.354 156.782 183.722 158.484V158.486Z" fill="#F8F8F8"/>
<path d="M169.006 164.681C166.782 164.681 164.789 164.235 163.344 163.145C162.672 162.637 162.539 161.683 163.046 161.011C163.553 160.339 164.508 160.205 165.18 160.712C167.801 162.69 175.507 161.394 181.67 157.939C185.052 156.042 186.497 154.209 186.409 153.309C186.331 152.515 186.26 151.327 186.171 149.823C185.812 143.791 184.86 127.769 181.215 125.288C180.858 125.045 180.533 125.005 180.092 125.149C172.96 127.484 165.958 132.585 165.888 132.637C165.21 133.134 164.256 132.988 163.758 132.309C163.26 131.631 163.406 130.678 164.085 130.18C164.386 129.959 171.538 124.743 179.143 122.253C180.481 121.815 181.789 121.993 182.928 122.768C187.435 125.835 188.534 138.248 189.211 149.642C189.299 151.113 189.368 152.276 189.44 153.011C189.683 155.495 187.453 158.188 183.159 160.596C179.411 162.698 173.695 164.679 169.005 164.68L169.006 164.681Z" fill="#371A45"/>
<g opacity="0.25">
<path d="M183.721 158.484C183.923 162.706 184.012 166.927 183.979 171.06C183.953 173.806 182.998 176.464 181.274 178.602C177.226 183.631 168.433 191.684 154.332 190.442C151.104 190.159 148.265 187.924 145.771 184.37C146.004 176.139 147.153 175.534 148.066 167.535C149.051 158.865 150.741 153.232 151.869 151.964L164.744 141.612L165.361 141.117C165.361 141.117 165.817 145.943 172.434 145.715C175.831 145.596 179.664 144.362 182.436 142.267C185.064 140.276 186.733 137.508 186.154 134.171C187.422 141.455 187.646 150.296 187.925 153.16C188.09 154.858 186.353 156.781 183.721 158.484V158.484Z" fill="#371A45"/>
</g>
<path d="M184.475 129.485C182.124 130.205 179.744 131.019 177.465 131.951C175.904 132.637 174.095 133.321 172.9 134.46C172.843 134.516 172.829 134.555 172.786 134.604C172.781 134.633 172.764 134.623 172.755 134.654C172.676 134.993 172.635 135.427 172.604 135.788C172.465 138.236 172.539 140.778 172.602 143.286C172.679 145.802 172.789 148.32 172.923 150.838C172.543 148.346 172.188 145.848 171.865 143.344C171.556 140.832 171.232 138.345 171.125 135.756C171.123 135.343 171.112 134.867 171.172 134.445C171.197 134.101 171.377 133.728 171.574 133.455C172.936 131.788 174.755 130.952 176.52 129.945C178.803 128.741 181.108 127.69 183.492 126.697C185.422 125.976 186.44 128.829 184.475 129.486V129.485Z" fill="#371A45"/>
<path d="M61.4475 224.907C60.8704 224.907 60.2866 224.807 59.721 224.597C46.8886 219.851 35.8634 213.815 26.9514 206.653C25.2694 205.302 24.6519 203.039 25.4154 201.023C26.7783 197.426 29.7836 190.963 34.6044 188.087C40.1228 184.795 46.8465 187.384 49.616 188.731C52.242 184.904 60.7376 172.609 63.935 169.046C67.8217 164.715 80.1001 159.675 80.6204 159.462C81.3995 159.144 82.2883 159.518 82.6066 160.297C82.924 161.076 82.5505 161.965 81.7714 162.284C78.4033 163.658 69.0411 167.918 66.2024 171.081C62.6142 175.079 51.4761 191.407 51.3639 191.571C50.9088 192.238 50.0126 192.435 49.32 192.019C49.245 191.974 41.5796 187.473 36.1652 190.703C32.1375 193.106 29.4868 198.876 28.2648 202.102C27.9697 202.88 28.2088 203.754 28.8593 204.277C37.5149 211.232 48.2539 217.108 60.7772 221.738C61.6058 222.045 62.5317 221.75 63.0314 221.024L79.0604 197.721C79.2492 197.447 79.5221 197.242 79.8379 197.138C80.5338 196.908 96.9924 191.5 105.856 191.357C107.178 191.335 107.419 190.867 107.498 190.714C108.617 188.536 104.976 181.509 102.163 177.445C101.684 176.753 101.856 175.804 102.548 175.325C103.24 174.846 104.189 175.019 104.668 175.71C106.007 177.643 112.566 187.516 110.208 192.106C109.682 193.131 108.508 194.362 105.904 194.404C98.3165 194.526 84.0775 198.977 81.2775 199.875L65.542 222.751C64.593 224.131 63.0479 224.906 61.4467 224.906L61.4475 224.907Z" fill="#371A45"/>
<g opacity="0.25">
<path d="M106.48 185.909C106.48 186.86 105.846 187.388 105.106 189.29C104.798 190.08 104.215 191.445 103.492 193.03C94.4066 193.925 80.3151 198.586 80.3151 198.586L64.2878 221.889C63.3924 223.186 61.7269 223.715 60.2486 223.17C47.8597 218.585 36.9871 212.762 27.9069 205.465C26.7452 204.531 26.314 202.959 26.8425 201.565C27.0412 201.045 27.2737 200.462 27.54 199.837L31.6385 202.249C45.8784 209.999 56.2481 210.539 61.2676 201.121C61.2676 201.121 70.986 188.022 78.7445 182.614C86.5022 177.201 85.4592 168.585 85.4592 168.585L104.157 183.586C104.791 184.114 106.481 184.959 106.481 185.91L106.48 185.909Z" fill="#371A45"/>
</g>
<path d="M80.4934 199.431C80.3945 199.431 80.2939 199.419 80.1933 199.394C64.7225 195.634 55.3628 183.528 54.972 183.014C54.5482 182.457 54.6554 181.662 55.2127 181.237C55.7701 180.814 56.5649 180.922 56.9887 181.477C57.0901 181.61 66.228 193.39 80.7919 196.93C81.4721 197.095 81.8901 197.781 81.7244 198.461C81.5834 199.041 81.0648 199.43 80.4934 199.43V199.431Z" fill="#371A45"/>
<path d="M49.7064 166.714C49.7064 166.714 61.6847 164.256 71.1771 157.281L47.8496 159.058" fill="#F8F8F8"/>
<g opacity="0.25">
<path d="M49.7064 166.715C49.7064 166.715 61.6847 164.257 71.1771 157.282L47.8496 159.059" fill="#371A45"/>
</g>
<path d="M49.7059 168.238C48.9977 168.238 48.3636 167.742 48.2152 167.021C48.0454 166.197 48.5764 165.392 49.4 165.222C49.5171 165.198 61.1771 162.739 70.2755 156.053C70.954 155.556 71.9071 155.701 72.4051 156.379C72.9031 157.057 72.7572 158.011 72.0795 158.509C62.4296 165.599 50.5156 168.103 50.0135 168.206C49.9104 168.227 49.8073 168.237 49.7051 168.237L49.7059 168.238Z" fill="#371A45"/>
<path d="M148.205 201.684L131.663 223.301C127.538 228.689 119.966 230.122 114.233 226.495C109.146 223.276 104.848 217.275 102.202 210.945C100.216 206.209 99.1601 201.286 99.3802 197.2C99.4561 195.755 99.9673 194.369 100.783 193.178L102.481 190.697C102.481 190.697 87.6031 186.164 84.4 162.953V156.894C84.4 156.894 76.6546 156.379 76.0882 155.369C75.5259 154.359 68.3594 129.711 68.3594 129.711C68.3594 129.711 78.0612 113.929 92.0051 107.806C98.5796 104.92 107.762 103.813 115.625 103.445C124.44 103.035 131.602 103.559 131.602 103.559L143.999 102.904C143.999 102.904 154.542 105.909 160.174 115.906C165.812 125.908 167.502 143.553 162.431 152.549C169.019 174.961 166.192 192.357 148.204 201.683L148.205 201.684Z" fill="#F8F8F8"/>
<path d="M121.117 229.995C118.455 229.995 115.782 229.276 113.419 227.781C103.611 221.572 97.3462 206.637 97.8598 197.117C97.9505 195.437 98.5269 193.776 99.5278 192.316L100.167 191.383C95.8695 189.293 85.5419 182.355 82.8919 163.159C82.8821 163.09 82.8771 163.021 82.8771 162.951V158.309C75.6545 157.713 75.0782 156.68 74.7608 156.111C74.1968 155.101 69.5912 139.403 66.8967 130.136C66.7763 129.724 66.8365 129.278 67.0616 128.912C67.4681 128.251 77.1782 112.654 91.3941 106.41C105.522 100.205 130.65 101.963 131.714 102.04C132.553 102.101 133.183 102.832 133.122 103.671C133.061 104.51 132.335 105.144 131.491 105.079C131.239 105.061 106.052 103.301 92.6194 109.2C80.7392 114.418 71.8734 127.135 70.0158 129.951C72.5577 138.681 76.4807 151.963 77.334 154.377C78.3927 154.761 81.7385 155.189 84.5022 155.374C85.3019 155.427 85.9244 156.092 85.9244 156.894V162.845C88.9899 184.746 102.788 189.199 102.927 189.241C103.391 189.382 103.76 189.736 103.921 190.194C104.081 190.651 104.014 191.158 103.74 191.558L102.042 194.037C101.357 195.037 100.963 196.158 100.903 197.28C100.436 205.94 106.387 219.722 115.049 225.205C120.049 228.37 126.814 227.126 130.452 222.373L146.997 200.757C147.133 200.579 147.307 200.434 147.505 200.331C163.497 192.041 167.902 176.551 160.971 152.977C160.855 152.582 160.903 152.157 161.105 151.799C165.616 143.797 164.521 126.717 158.851 116.654C153.608 107.348 143.682 104.395 143.582 104.367C142.774 104.134 142.307 103.291 142.538 102.483C142.77 101.675 143.611 101.207 144.419 101.438C144.874 101.567 155.631 104.732 161.505 115.159C167.002 124.915 169.18 142.823 164.069 152.721C167.467 164.529 168.102 174.244 166.01 182.402C163.728 191.306 158.077 198.193 149.21 202.877L132.871 224.226C129.999 227.979 125.574 229.994 121.116 229.994L121.117 229.995Z" fill="#371A45"/>
<path d="M95.6744 134.171H127.812C130.694 134.171 133.029 136.507 133.029 139.387V158.847C133.029 161.678 130.772 163.992 127.941 164.063L95.8031 164.86C92.872 164.933 90.457 162.577 90.457 159.645V139.387C90.457 136.506 92.7928 134.171 95.6736 134.171H95.6744Z" fill="#F8F8F8"/>
<path d="M95.6689 166.387C93.9012 166.387 92.2382 165.711 90.9676 164.472C89.6559 163.192 88.9336 161.479 88.9336 159.647V139.39C88.9336 135.673 91.957 132.649 95.6738 132.649H127.812C131.529 132.649 134.552 135.673 134.552 139.39V158.849C134.552 162.537 131.665 165.497 127.979 165.588L95.8412 166.385C95.7835 166.387 95.7258 166.388 95.6689 166.388V166.387ZM95.6747 135.696C93.6382 135.696 91.9818 137.353 91.9818 139.389V159.646C91.9818 160.65 92.3775 161.589 93.0965 162.29C93.8154 162.991 94.7595 163.368 95.767 163.338L127.905 162.541C129.925 162.49 131.506 160.869 131.506 158.848V139.388C131.506 137.352 129.849 135.695 127.814 135.695H95.6755L95.6747 135.696Z" fill="#371A45"/>
<path d="M86.4127 134.522H118.551C121.432 134.522 123.767 136.858 123.767 139.739V159.199C123.767 162.029 121.51 164.344 118.679 164.415L86.5413 165.212C83.6103 165.284 81.1953 162.929 81.1953 159.996V139.739C81.1953 136.857 83.5311 134.522 86.4119 134.522H86.4127Z" fill="#F8F8F8"/>
<path d="M108.559 166.145C107.759 166.145 107.1 165.507 107.081 164.702C107.018 162.089 106.939 157.995 107.015 155.884C104.697 155.305 97.7485 154.388 91.5038 153.742C90.7766 153.667 90.2135 153.072 90.1788 152.341L89.3337 134.593C89.295 133.777 89.9249 133.084 90.7403 133.045C91.559 133.009 92.2492 133.637 92.2879 134.453L93.0728 150.933C108.687 152.591 109.341 153.5 109.737 154.048C110.002 154.416 110.099 154.877 110.002 155.313C109.901 155.959 109.94 160.565 110.038 164.63C110.058 165.447 109.413 166.125 108.596 166.145C108.584 166.145 108.572 166.145 108.559 166.145H108.559ZM107.112 154.674C107.105 154.707 107.099 154.739 107.094 154.771C107.1 154.735 107.106 154.703 107.112 154.674Z" fill="#371A45"/>
<path d="M86.4091 166.738C84.6414 166.738 82.9776 166.061 81.7079 164.822C80.3961 163.543 79.6738 161.829 79.6738 159.997V139.74C79.6738 136.023 82.6973 133 86.4149 133H118.553C122.27 133 125.293 136.023 125.293 139.74V159.2C125.293 162.887 122.406 165.847 118.72 165.939L86.5823 166.736C86.5246 166.738 86.4668 166.738 86.41 166.738L86.4091 166.738ZM86.4141 136.047C84.3776 136.047 82.7203 137.704 82.7203 139.739V159.996C82.7203 161.001 83.1161 161.939 83.8351 162.641C84.554 163.341 85.5088 163.712 86.5056 163.689L118.644 162.892C120.664 162.842 122.245 161.22 122.245 159.2V139.74C122.245 137.704 120.588 136.047 118.552 136.047H86.4141V136.047Z" fill="#371A45"/>
<path d="M122.761 153.242L122.642 155.473C122.566 156.914 121.403 158.059 119.959 158.114L79.0688 159.572L22.5488 161.592C21.0062 161.647 19.7134 160.438 19.6631 158.891L19.5913 156.571C19.5617 155.663 19.9756 154.843 20.6352 154.315H20.6393C21.0911 153.947 21.6575 153.719 22.2833 153.698L78.6516 151.741L78.7654 151.737L119.88 150.309C121.515 150.254 122.846 151.606 122.761 153.242H122.761Z" fill="#BCC4CC"/>
<g opacity="0.61">
<path d="M122.758 153.242L122.678 154.789C122.365 153.555 121.224 152.638 119.876 152.685L78.7996 154.113L78.7402 151.738L119.875 150.31C121.51 150.255 122.842 151.607 122.757 153.243L122.758 153.242Z" fill="white"/>
</g>
<path d="M79.1531 159.361L79.06 159.353L20.6386 154.316H20.6345L18.4158 149.461L1.55156 112.564C1.1121 111.605 1.22588 110.489 1.85167 109.64L3.1618 107.857C3.67711 107.159 4.48017 106.725 5.34671 106.682L54.3119 104.091C57.6462 103.914 60.7133 105.891 61.9302 109.001L62.0316 109.254L78.6502 151.741L78.9371 156.106L79.1523 159.36L79.1531 159.361Z" fill="#BCC4CC"/>
<g opacity="0.61">
<path d="M78.6964 152.449L62.7745 111.749C61.5576 108.639 58.4896 106.662 55.1562 106.839L6.191 109.43C5.32445 109.472 4.52222 109.907 4.00608 110.605L2.69596 112.388C2.37523 112.828 2.18477 113.335 2.14272 113.854L1.55156 112.566C1.1121 111.607 1.22588 110.491 1.85167 109.642L3.1618 107.859C3.67711 107.161 4.48017 106.726 5.34671 106.684L54.3119 104.093C57.6461 103.916 60.7133 105.893 61.9302 109.003L78.6502 151.744L78.6964 152.45V152.449Z" fill="white"/>
</g>
<path d="M22.4459 162.884C21.4087 162.884 20.4267 162.497 19.6649 161.785C18.8668 161.038 18.4092 160.026 18.3745 158.934L18.3028 156.612C18.2327 154.374 19.9971 152.489 22.2356 152.412L119.834 149.022C120.976 148.981 122.084 149.426 122.883 150.239C123.682 151.052 124.105 152.171 124.046 153.31L123.929 155.541C123.818 157.665 122.13 159.326 120.004 159.402L22.5951 162.882C22.5448 162.884 22.4954 162.884 22.4459 162.884V162.884ZM22.3255 154.988C21.5027 155.017 20.8546 155.71 20.8802 156.533L20.9519 158.854C20.9643 159.256 21.1325 159.628 21.426 159.902C21.7195 160.177 22.1021 160.317 22.5028 160.305L119.911 156.825C120.693 156.797 121.313 156.187 121.354 155.406L121.471 153.175C121.493 152.751 121.342 152.35 121.043 152.046C120.746 151.743 120.35 151.582 119.923 151.6L22.3247 154.989L22.3255 154.988Z" fill="#371A45"/>
<path d="M79.1535 160.649C78.4799 160.649 77.9135 160.126 77.8681 159.445L77.3775 152.026L60.7293 109.471C59.7135 106.875 57.1576 105.232 54.3782 105.377L5.41387 107.967C4.93071 107.993 4.48796 108.231 4.20186 108.621L2.89091 110.403C2.54462 110.874 2.48031 111.496 2.72354 112.028L21.8057 153.78C22.1017 154.427 21.8164 155.193 21.1692 155.489C20.5219 155.786 19.7568 155.499 19.4608 154.852L0.37867 113.1C-0.252894 111.719 -0.085519 110.1 0.814006 108.876L2.12495 107.094C2.87112 106.08 4.02047 105.46 5.27782 105.393L54.2422 102.803C58.1396 102.602 61.7096 104.899 63.1311 108.532L79.8518 151.273C79.8997 151.396 79.9294 151.526 79.9376 151.658L80.4414 159.275C80.4884 159.986 79.9508 160.6 79.2401 160.647C79.2112 160.648 79.1824 160.649 79.1543 160.649H79.1535Z" fill="#371A45"/>
<g opacity="0.25">
<path d="M79.0704 159.57L22.5503 161.59C21.0077 161.645 19.7149 160.436 19.6646 158.889L19.5929 156.569C19.5632 155.661 19.9771 154.841 20.6367 154.313L18.418 149.457C44.6369 148.802 61.1252 139.274 59.3377 114.986V107.803L62.0338 109.252L78.6524 151.739L78.7661 151.735C78.8296 153.29 78.889 154.765 78.9393 156.104C78.9855 157.313 79.0283 158.407 79.0621 159.349C79.0663 159.425 79.0663 159.497 79.0704 159.57Z" fill="#371A45"/>
</g>
<path d="M28.4138 163.303C28.4138 163.303 30.8791 153.937 40.8085 155.556C50.7387 157.176 53.0622 167.036 46.0902 170.627C39.1183 174.219 16.9344 173.656 19.7517 156.049C19.7517 156.049 20.5968 161.19 28.4138 163.303Z" fill="#F8F8F8"/>
<g opacity="0.25">
<path d="M46.0888 170.625C41.2721 173.105 29.1949 173.604 23.1191 167.87C29.0052 169.447 35.7916 168.678 39.1168 166.966C43.8156 164.544 44.293 159.276 41.0602 155.604C50.7744 157.344 53.0014 167.063 46.0888 170.625Z" fill="#371A45"/>
</g>
<path d="M36.9612 173.895C32.2871 173.895 27.1958 172.837 23.4988 170.159C20.4135 167.924 16.9977 163.62 18.2468 155.809C18.3647 155.071 19.0004 154.528 19.7482 154.526C19.749 154.526 19.7507 154.526 19.7515 154.526C20.4976 154.526 21.1342 155.066 21.2545 155.803C21.2826 155.944 22.0213 159.464 27.4605 161.411C29.0403 157.683 33.2345 152.778 41.054 154.053C46.6886 154.972 50.7987 158.529 51.5243 163.116C52.1047 166.781 50.2892 170.178 46.7883 171.982C44.5276 173.147 40.8924 173.895 36.962 173.895H36.9612ZM21.2133 161.209C21.6816 163.896 23.0429 166.066 25.2855 167.691C31.0759 171.886 41.223 171.421 45.3917 169.273C47.7192 168.074 48.8867 165.95 48.5132 163.592C48.1207 161.113 45.8031 157.915 40.5618 157.06C32.095 155.677 29.9719 163.363 29.8854 163.691C29.7823 164.083 29.5267 164.418 29.1755 164.621C28.8242 164.824 28.4062 164.879 28.0146 164.774C24.8287 163.913 22.6702 162.573 21.2125 161.209H21.2133Z" fill="#371A45"/>
<path d="M142.228 140.987C141.671 145.712 139.625 150.296 136.688 152.549L122.761 147.879C122.761 147.879 119.469 151.682 111.179 150.837C102.885 149.992 99.0812 141.592 99.0812 141.592C99.0812 141.592 95.5442 148.936 91.2642 145.978C90.0984 145.171 89.536 144.178 89.3497 143.139C89.109 141.786 89.5022 140.354 90.0382 139.15C90.6763 137.718 91.6097 136.437 92.7301 135.338L100.666 127.525C107.355 118.724 116.723 125.062 123.2 128.792H139.046C141.902 131.62 142.777 136.369 142.228 140.987Z" fill="#F8F8F8"/>
<path d="M136.691 154.072C136.528 154.072 136.365 154.046 136.207 153.993L123.12 149.606C121.591 150.82 117.791 153.043 111.025 152.354C104.806 151.72 100.924 147.36 99.0465 144.566C98.0266 145.955 96.4996 147.536 94.5917 148.04C93.1612 148.418 91.7118 148.139 90.4008 147.232C87.6247 145.312 87.0031 142.221 88.6512 138.529C89.3438 136.977 90.3571 135.537 91.6639 134.252L99.5239 126.516C106.602 117.319 116.292 122.989 122.712 126.745C123.018 126.924 123.319 127.099 123.613 127.271H139.05C139.452 127.271 139.837 127.429 140.122 127.711C142.82 130.381 144.184 134.808 143.867 139.857C143.501 145.669 141.048 151.125 137.619 153.757C137.349 153.964 137.023 154.072 136.691 154.072H136.691ZM122.763 146.356C122.925 146.356 123.088 146.382 123.247 146.435L136.36 150.831C138.776 148.554 140.54 144.198 140.825 139.666C141.07 135.781 140.186 132.418 138.388 130.319H123.204C122.937 130.319 122.675 130.249 122.444 130.115C122.032 129.878 121.607 129.63 121.173 129.376C113.331 124.787 106.93 121.806 101.881 128.45C101.837 128.508 101.789 128.563 101.737 128.614L93.8002 136.424C92.7663 137.442 91.9698 138.568 91.4331 139.771C89.9086 143.189 91.5246 144.306 92.1331 144.726C92.8933 145.252 93.4539 145.189 93.8093 145.096C95.5679 144.634 97.259 141.865 97.7124 140.932C97.9705 140.401 98.5221 140.065 99.1042 140.074C99.6945 140.082 100.228 140.429 100.472 140.967C100.506 141.041 104.04 148.58 111.334 149.324C118.633 150.068 121.583 146.916 121.611 146.885C121.906 146.544 122.329 146.358 122.763 146.358V146.356Z" fill="#371A45"/>
<path d="M97.7499 140.861L103.416 133.726L100.42 142.33C100.139 143.136 99.2579 143.562 98.4523 143.282C97.4588 142.957 97.0903 141.665 97.7507 140.862L97.7499 140.861Z" fill="#371A45"/>
<path d="M121.371 147.257L124.963 143.549L124.152 148.502L121.371 147.257Z" fill="#371A45"/>
<g opacity="0.25">
<path d="M142.232 140.988C141.674 145.713 139.629 150.297 136.692 152.549L122.765 147.88C122.765 147.88 119.473 151.683 111.183 150.838C102.888 149.993 99.085 141.593 99.085 141.593C99.085 141.593 95.548 148.936 91.268 145.979C90.1022 145.172 89.5399 144.179 89.3535 143.139L89.8227 142.67C89.8227 142.67 92.992 144.783 96.4442 140.063C99.8246 135.44 104.219 131.562 104.396 131.409C104.287 131.68 100.855 140.266 107.781 144.289C114.825 148.375 123.347 137.177 123.347 137.177C123.347 137.177 128.418 141.614 140.672 140.98C141.229 140.95 141.749 140.954 142.231 140.988H142.232Z" fill="#371A45"/>
</g>
<path d="M101.558 189.489C105.91 186.355 112.852 183.205 118.081 185.917C120.494 187.368 122.58 189.339 124.399 191.453C126.184 193.53 127.724 195.78 128.981 198.163C125.81 194.791 122.384 191.722 118.363 189.484C116.85 188.659 115.269 188.021 113.524 187.987C109.906 188.005 106.33 189.855 103.41 191.907C101.774 193.115 99.9574 190.765 101.557 189.489H101.558Z" fill="#371A45"/>
<path d="M123.998 229.664C123.406 229.664 122.846 229.306 122.619 228.719C122.324 227.958 122.702 227.101 123.464 226.806C123.853 226.655 124.405 226.331 124.701 225.26C126.217 219.776 119.26 205.25 114.009 198.507C108.554 191.503 104.164 192.187 103.98 192.219C103.181 192.391 102.408 191.878 102.237 191.079C102.067 190.28 102.589 189.492 103.388 189.322C103.641 189.268 109.653 188.101 116.342 196.691C121.32 203.083 129.556 218.798 127.551 226.049C127.076 227.768 126.032 228.983 124.532 229.565C124.356 229.633 124.176 229.665 123.998 229.665V229.664Z" fill="#371A45"/>
<path d="M114.585 185.44C114.555 185.469 114.528 185.5 114.505 185.534C114.497 185.544 114.473 185.585 114.481 185.571C114.53 185.491 114.652 185.279 114.704 185.194C116.915 181.452 119.558 177.987 122.517 174.803C126.599 170.326 132.381 167.109 138.448 166.519C139.963 166.432 141.468 166.49 142.924 166.755C141.444 166.868 140.004 167.082 138.617 167.477C134.497 168.663 130.899 171.103 127.838 174.047C126.818 175.021 125.772 175.966 124.757 176.961C122.24 179.486 120.087 182.376 118.165 185.376C117.991 185.655 117.487 186.467 117.325 186.748L117.185 186.984L117.111 187.109C115.988 189.102 113.173 187.244 114.585 185.439V185.44Z" fill="#371A45"/>
<path d="M141.353 211.906C140.744 211.906 140.207 211.465 140.103 210.845C137.603 195.775 128.185 183.516 119.112 183.516C118.412 183.516 117.844 182.948 117.844 182.248C117.844 181.547 118.411 180.979 119.112 180.979C129.545 180.979 139.864 193.916 142.605 210.43C142.72 211.121 142.253 211.773 141.562 211.888C141.492 211.9 141.422 211.906 141.353 211.906Z" fill="#371A45"/>
<path d="M138.793 127.294L147.256 127.387L139.308 130.298C136.973 130.983 136.362 127.428 138.793 127.295V127.294Z" fill="#371A45"/>
<path d="M152.774 157.62C144.988 157.62 136.636 154.179 136.103 153.956C135.327 153.631 134.962 152.739 135.287 151.963C135.611 151.187 136.504 150.82 137.279 151.146C142.31 153.248 156.425 157.425 161.257 151.579C161.793 150.93 162.754 150.84 163.402 151.376C164.051 151.912 164.141 152.872 163.606 153.52C161.054 156.607 156.996 157.62 152.774 157.62Z" fill="#371A45"/>
<path d="M134.348 128.68L133.982 121.822L137.279 127.847C137.693 128.604 137.415 129.554 136.658 129.967C135.683 130.532 134.383 129.797 134.348 128.68V128.68Z" fill="#371A45"/>
<path d="M82.0333 134.721C82.2815 132.448 82.6805 130.293 83.2049 128.093C83.7326 125.946 84.4029 123.813 85.3519 121.822C84.6676 125.03 84.6329 128.269 84.7995 131.508C84.8613 132.574 84.9487 133.669 85.0798 134.684C85.2571 136.944 81.9121 136.989 82.0325 134.721H82.0333Z" fill="#371A45"/>
<g opacity="0.25">
<path d="M162.436 152.549C169.024 174.961 166.196 192.357 148.208 201.683L131.666 223.3C127.542 228.687 119.969 230.12 114.236 226.494C109.149 223.275 104.851 217.274 102.206 210.944C102.7 211.342 103.198 211.777 103.701 212.245C120.882 228.302 119.112 205.062 119.112 205.062C135.608 219.315 127.06 195.863 126.925 195.483L133.031 200.275C133.031 200.275 134.476 196.473 147.259 185.274C160.045 174.077 152.54 160.766 152.54 160.766C143.455 162.562 133.031 155.907 133.031 156.105C133.031 156.304 124.757 155.062 124.441 155.273C124.124 155.484 124.369 148.415 124.369 148.415L137.447 152.843L142.235 140.986C145.691 140.936 153.305 140.906 153.305 140.906C161.989 122.736 145.89 112.786 145.89 112.786C126.25 121.426 102.152 115.13 101.256 114.877L115.631 103.443C124.446 103.033 131.607 103.557 131.607 103.557L144.005 102.902C144.005 102.902 154.548 105.907 160.18 115.904C165.817 125.906 167.507 143.551 162.437 152.547L162.436 152.549Z" fill="#371A45"/>
</g>
<g opacity="0.25">
<path d="M177.223 101.398C177.223 101.398 177.181 101.381 177.096 101.348C177.138 101.326 177.223 101.398 177.223 101.398Z" fill="#371A45"/>
</g>
<path d="M111.198 114.794C142.416 114.794 167.724 89.4864 167.724 58.268C167.724 27.0497 142.416 1.74219 111.198 1.74219C79.9793 1.74219 54.6719 27.0497 54.6719 58.268C54.6719 89.4864 79.9793 114.794 111.198 114.794Z" fill="#F8F8F8"/>
<g opacity="0.25">
<path d="M164.039 78.3409C152.951 107.528 120.306 122.199 91.1233 111.113C81.8098 107.575 73.9771 101.841 67.9863 94.7229C71.8565 97.4907 76.1488 99.8125 80.8056 101.581C109.989 112.667 142.634 97.9969 153.72 68.8139C161.27 48.9402 156.873 27.4604 144.084 12.2773C164.48 26.8404 173.356 53.8146 164.039 78.3409Z" fill="#371A45"/>
</g>
<path d="M58.7127 79.939C61.8755 87.2185 67.1753 95.0405 75.9076 102.444C100.923 119.108 134.618 112.665 148.868 78.0295L146.617 49.3239C145.418 44.8996 142.968 40.7021 139.606 36.8995C118.997 13.6009 64.2162 5.10859 55.2358 50.239C55.2358 50.239 51.6674 63.7262 58.7119 79.9382L58.7127 79.939Z" fill="#371A45"/>
<g opacity="0.7">
<path d="M58.7118 79.938C61.8745 87.2174 67.1744 95.0394 75.9066 102.443C100.922 119.106 134.617 112.664 148.867 78.0284L146.616 49.3228C145.417 44.8985 142.967 40.701 139.606 36.8984C147.165 76.1329 98.9736 116.034 59.0597 80.1086L58.7109 79.938H58.7118Z" fill="#111A28"/>
</g>
<path d="M108.877 116.064C107.786 116.064 106.675 116.029 105.538 115.953C104.752 115.902 104.156 115.223 104.208 114.437C104.259 113.651 104.933 113.05 105.724 113.107C120.037 114.043 132.297 108.84 142.17 97.6447C148.918 89.9942 152.192 81.9966 152.765 80.5133L151.563 45.1259C146.021 32.5647 134.814 22.4589 119.972 16.6487C104.779 10.7007 88.3056 10.4113 75.9036 15.8728C75.1821 16.1902 74.3403 15.8637 74.0237 15.1423C73.7063 14.4217 74.0328 13.5799 74.7542 13.2625C87.8349 7.50087 105.128 7.77378 121.012 13.9921C136.662 20.119 148.479 30.8597 154.287 44.2363C154.359 44.4004 154.398 44.5768 154.404 44.7557L155.625 80.7005C155.632 80.8802 155.604 81.0583 155.543 81.2273C155.408 81.6066 152.146 90.6151 144.376 99.4561C137.589 107.178 126.044 116.062 108.877 116.063V116.064Z" fill="#371A45"/>
<path d="M103.961 112.615C94.0817 112.615 84.0525 109.541 75.1348 103.601C74.4941 103.174 74.321 102.309 74.7472 101.668C75.1743 101.028 76.0401 100.855 76.6799 101.281C89.0275 109.506 103.595 111.937 116.646 107.951C130.13 103.833 141.061 93.1325 147.453 77.8034L145.237 49.5653C143.009 41.5017 136.005 33.5733 125.998 27.7961C116.009 22.0296 104.042 18.9344 93.1681 19.2988C81.7555 19.6839 61.829 24.2499 56.6009 50.5101C56.4509 51.2654 55.717 51.7559 54.9618 51.6051C54.2066 51.455 53.7168 50.7204 53.8669 49.966C57.9597 29.4071 72.2498 17.2137 93.0742 16.512C117.431 15.695 143.07 30.855 147.963 48.9609C147.985 49.0442 148 49.1291 148.006 49.2157L150.259 77.9189C150.276 78.1374 150.241 78.3558 150.158 78.5587C143.461 94.8383 131.849 106.224 117.461 110.618C113.077 111.957 108.534 112.617 103.96 112.617L103.961 112.615Z" fill="#371A45"/>
<path d="M111.221 116.538C104.237 116.538 97.24 115.264 90.5154 112.71C60.4963 101.307 45.3519 67.6061 56.7555 37.5879C62.2797 23.0462 73.1358 11.5255 87.3254 5.14888C101.514 -1.22777 117.337 -1.69691 131.879 3.82722C161.898 15.2308 177.042 48.9313 165.639 78.9504C160.114 93.492 149.258 105.013 135.069 111.389C127.441 114.817 119.341 116.538 111.222 116.538H111.221ZM111.175 3.42486C103.532 3.42486 95.9084 5.04417 88.7287 8.27125C75.3735 14.2728 65.1555 25.1157 59.9562 38.8032C49.2229 67.0578 63.4776 98.777 91.7323 109.51C105.42 114.71 120.313 114.268 133.667 108.266C147.022 102.265 157.24 91.4217 162.439 77.7342C173.173 49.4796 158.918 17.7604 130.664 7.02626C124.336 4.62203 117.748 3.42404 111.176 3.42404L111.175 3.42486Z" fill="#371A45"/>
<path d="M169.56 62.56C169.694 72.6963 164.659 80.8621 156.774 80.9652C148.889 81.0691 142.389 72.9354 142.256 62.7991C142.122 52.6627 148.407 44.3617 156.291 44.2578C164.176 44.1539 169.426 52.4236 169.56 62.56Z" fill="#F8F8F8"/>
<g opacity="0.25">
<path d="M156.774 80.9651C148.891 81.0674 142.391 72.9362 142.26 62.8006C142.218 59.5884 142.818 56.5551 143.915 53.915C145.222 62.4741 151.145 68.9052 158.159 68.8153C163.375 68.7444 167.344 65.1521 169.396 59.7921C169.495 60.6949 169.551 61.6208 169.562 62.5599C169.693 72.6954 164.663 80.8604 156.774 80.9659V80.9651Z" fill="#371A45"/>
</g>
<path d="M156.624 82.6781C152.335 82.6781 148.31 80.593 145.272 76.7912C142.293 73.0645 140.615 68.1035 140.545 62.8218C140.4 51.7579 147.454 42.6628 156.27 42.5466C160.57 42.5021 164.482 44.6359 167.237 48.5901C169.769 52.222 171.202 57.1756 171.272 62.5373C171.424 74.0943 165.337 82.5643 156.798 82.6765C156.74 82.6765 156.681 82.6773 156.624 82.6773V82.6781ZM156.441 45.9691C156.399 45.9691 156.357 45.9691 156.315 45.9691C149.386 46.0598 143.848 53.5998 143.968 62.7764C144.028 67.3004 145.44 71.5186 147.946 74.6533C150.351 77.6627 153.478 79.2977 156.752 79.2532C163.309 79.1674 167.975 72.1559 167.849 62.5818C167.787 57.8971 166.573 53.6229 164.429 50.5467C162.969 48.4508 160.401 45.9674 156.44 45.9674L156.441 45.9691Z" fill="#371A45"/>
<path d="M161.542 79.7699C154.642 79.7699 148.947 72.0642 148.818 62.5132C148.76 57.9488 149.96 53.6243 152.196 50.3354C154.539 46.889 157.739 44.9671 161.207 44.9226C161.907 44.9135 162.614 44.9886 163.303 45.1419C163.363 45.1551 163.423 45.1724 163.481 45.1939C164.222 45.4627 164.606 46.2822 164.336 47.0226C164.084 47.7176 163.348 48.0961 162.648 47.9188C162.184 47.8182 161.706 47.7712 161.241 47.7754C158.734 47.8075 156.358 49.2867 154.554 51.9399C152.644 54.7498 151.62 58.4922 151.67 62.4761C151.778 70.4663 156.196 76.918 161.538 76.918C161.568 76.918 161.597 76.918 161.627 76.918C162.358 76.9081 163.062 76.7787 163.719 76.533C164.457 76.2576 165.279 76.6327 165.554 77.3707C165.829 78.1086 165.454 78.9306 164.716 79.206C163.752 79.5663 162.725 79.7559 161.666 79.7708C161.625 79.7708 161.582 79.7708 161.541 79.7708L161.542 79.7699Z" fill="#371A45"/>
<g opacity="0.5">
<path d="M96.8839 28.1351C80.121 38.5831 70.3829 53.0621 68.6531 72.1351C68.5146 73.6646 66.3495 73.874 65.9232 72.3982C58.9414 48.205 62.3721 27.2867 96.0684 25.5519C97.5121 25.4777 98.1107 27.3691 96.8839 28.1342V28.1351Z" fill="white"/>
</g>
<g opacity="0.5">
<path d="M129.489 63.4775L129.19 63.5022C126.455 63.7281 123.999 61.8359 123.507 59.1365C123.451 58.8273 123.394 58.528 123.334 58.2395C122.747 55.3628 124.574 52.5488 127.45 51.9585L127.676 51.9123C130.367 51.3599 133.039 52.9454 133.847 55.5714C133.965 55.9573 134.078 56.3423 134.185 56.7249C135.084 59.9528 132.828 63.2029 129.489 63.4783V63.4775Z" fill="white"/>
</g>
<g opacity="0.5">
<path d="M118.572 95.8395C115.99 94.2927 115.194 90.9106 116.831 88.3844C119.635 84.0541 121.275 79.6703 122.159 75.533C122.779 72.6283 125.598 70.7517 128.502 71.3742C128.751 71.4278 129 71.4814 129.249 71.5341C132.18 72.1624 134.037 75.0885 133.315 77.9965C131.516 85.2397 128.133 90.918 125.632 94.3875C124.014 96.6326 120.947 97.2609 118.572 95.8395Z" fill="white"/>
</g>
<g opacity="0.25">
<path d="M90.457 180.374C90.457 180.374 109.19 185.628 123.768 174.782L117.017 184.853L114.613 186.442C109.533 186.726 105.411 187.881 102.834 190.442C97.6755 188.552 93.4079 185.397 90.4579 180.373L90.457 180.374Z" fill="#371A45"/>
</g>
<g opacity="0.25">
<path d="M84.4762 125.042C84.4762 125.042 78.1498 130.689 74.832 141.978L79.1549 151.329L80.6686 150.306C80.6686 150.306 81.3728 138.635 81.1971 138.424C81.0207 138.212 83.0786 136.047 83.5552 132.931C84.0318 129.815 83.998 127.895 83.998 127.895" fill="#371A45"/>
</g>
<path d="M51.3166 189.786L53.8733 195.627L48.8983 191.64C48.2222 191.098 48.1134 190.11 48.6551 189.434C49.3543 188.514 50.8821 188.729 51.3166 189.786Z" fill="#371A45"/>
<path d="M154.261 109.825C153.931 109.825 153.599 109.719 153.32 109.499C152.659 108.979 152.544 108.021 153.064 107.359C160.292 98.1745 171.418 99.7674 171.888 99.8391C172.72 99.9669 173.29 100.745 173.162 101.576C173.035 102.407 172.258 102.976 171.428 102.851C171.024 102.791 161.565 101.484 155.459 109.243C155.158 109.625 154.712 109.825 154.261 109.825V109.825Z" fill="#371A45"/>
<g opacity="0.25">
<path d="M154.867 95.5699C154.867 95.5699 146.202 99.5596 158.35 112.786C153.985 108.317 149.456 104.837 144.635 103.11L151.343 95.1494" fill="#371A45"/>
</g>
<path d="M45.8103 122.174C46.0024 122.594 46.1657 123.019 46.3001 123.448C44.5266 124.895 41.02 126.925 36.8291 128.842C32.6382 130.759 28.8092 132.085 26.555 132.481C26.3184 132.098 26.104 131.697 25.9119 131.277C25.9029 131.257 25.8938 131.238 25.8855 131.218C25.8014 131.032 25.7239 130.847 25.6522 130.659C25.4824 130.22 25.343 129.777 25.2334 129.331C25.2292 129.313 25.2243 129.295 25.2202 129.277C25.0602 128.614 24.9654 127.945 24.9316 127.279C24.8681 126.012 25.0272 124.754 25.3884 123.559C26.2665 120.659 28.3376 118.135 31.3099 116.776C34.2575 115.427 37.4928 115.498 40.2458 116.701C41.3762 117.195 42.4258 117.88 43.3401 118.736C43.8299 119.193 44.2809 119.7 44.6849 120.253C44.7179 120.297 44.75 120.342 44.7822 120.387C45.0477 120.762 45.2917 121.157 45.5127 121.572C45.5951 121.726 45.6735 121.883 45.7485 122.042C45.7691 122.085 45.7897 122.128 45.8095 122.173L45.8103 122.174Z" fill="white"/>
<path d="M46.7645 127.67C46.7257 128.116 46.6589 128.559 46.5658 128.995C46.4355 129.607 46.2533 130.208 46.0208 130.788C45.0141 133.306 43.0748 135.456 40.4142 136.673C37.7478 137.894 34.8455 137.952 32.2781 137.062C31.7141 136.866 31.1666 136.625 30.6414 136.339C30.2292 136.116 29.831 135.866 29.4492 135.591C32.1297 134.904 35.2265 133.803 38.4296 132.337C41.6328 130.872 44.4913 129.25 46.7636 127.671L46.7645 127.67Z" fill="white"/>
<path d="M46.3012 123.447C44.5285 124.894 41.0211 126.924 36.8302 128.841C32.6393 130.758 28.8103 132.084 26.5562 132.48C26.3204 132.097 26.1052 131.695 25.9131 131.276C25.904 131.257 25.8957 131.238 25.8867 131.218C25.8034 131.032 25.7251 130.846 25.6533 130.659C25.4835 130.221 25.3442 129.778 25.2345 129.331C25.2304 129.313 25.2254 129.295 25.2221 129.277C25.0622 128.613 24.9674 127.945 24.9336 127.279C24.8701 126.012 25.0292 124.754 25.3903 123.559C26.1002 121.213 27.5901 119.115 29.7074 117.68C29.1566 118.536 28.7287 119.466 28.4352 120.437C28.0732 121.632 27.9141 122.889 27.9784 124.157C28.0114 124.823 28.107 125.491 28.267 126.154C28.2711 126.173 28.2761 126.191 28.2802 126.209C28.286 126.233 28.2942 126.263 28.3041 126.297C28.8623 128.177 30.8856 128.964 32.8388 128.786C36.5614 128.449 44.6209 124.092 46.3358 123.087C46.4546 123.375 46.2097 123.154 46.3028 123.448L46.3012 123.447Z" fill="white"/>
<path d="M38.4316 132.338C41.6347 130.872 44.4933 129.25 46.7656 127.671C46.7268 128.117 46.6601 128.56 46.5669 128.996C44.819 130.277 42.0231 131.863 38.7672 133.352C35.6481 134.78 32.7393 135.829 30.6434 136.34C30.2311 136.117 29.8329 135.867 29.4512 135.592C32.1316 134.905 35.2284 133.804 38.4316 132.338V132.338Z" fill="white"/>
<path d="M45.7505 122.044C45.7711 122.088 45.7917 122.131 45.8115 122.175C46.0036 122.595 46.1669 123.019 46.3013 123.449C44.5278 124.896 41.0212 126.926 36.8303 128.843C32.6393 130.76 28.8104 132.085 26.5562 132.481C26.3196 132.099 26.1052 131.697 25.9131 131.277C25.904 131.258 25.895 131.239 25.8867 131.218C28.0246 130.972 31.9229 129.689 36.1954 127.735C40.6361 125.703 44.2647 123.503 45.7505 122.044Z" fill="white"/>
<path d="M24.9149 127.648L24.9495 126.912C26.441 126.983 30.3359 125.727 34.4205 123.858C39.2941 121.628 42.4387 119.497 43.0266 118.544L43.654 118.931C42.8765 120.191 39.2892 122.441 34.7272 124.528C30.4794 126.471 26.5358 127.726 24.9141 127.648H24.9149Z" fill="white"/>
<path d="M25.4453 123.924L25.334 123.195C27.0102 122.939 29.9132 121.928 32.9111 120.556C36.0524 119.119 38.7691 117.538 40.0001 116.428L40.494 116.976C39.2111 118.132 36.4235 119.76 33.2186 121.227C30.1631 122.625 27.1842 123.659 25.4461 123.925L25.4453 123.924Z" fill="white"/>
<path d="M25.2227 129.646V128.908C26.9343 128.909 30.9587 127.594 35.2378 125.637C39.7264 123.584 43.4894 121.281 44.3897 120.037L44.9875 120.469C44.0047 121.827 40.2103 124.173 35.5453 126.307C31.1104 128.336 27.0588 129.646 25.2235 129.644L25.2227 129.646Z" fill="white"/>
<path d="M32.292 137.247L32.278 137.064L32.1914 136.9L32.2252 136.882L32.264 136.879C33.7431 136.766 36.5604 135.842 39.4412 134.524C42.3377 133.199 44.8095 131.718 45.8912 130.658L46.1493 130.922C45.0387 132.01 42.5273 133.518 39.5946 134.86C36.633 136.214 33.8346 137.13 32.292 137.248V137.247Z" fill="white"/>
<path d="M46.7656 127.67C46.4333 131.463 44.1264 134.976 40.4153 136.673C36.7043 138.371 32.5389 137.82 29.4512 135.591C32.1316 134.904 35.2284 133.803 38.4316 132.337C41.6347 130.872 44.4933 129.25 46.7656 127.671V127.67Z" fill="white"/>
<path d="M52.1011 121.002C52.7681 122.46 50.6013 125.004 46.7641 127.671C44.4918 129.25 41.6333 130.873 38.4301 132.338C35.2269 133.803 32.1301 134.906 29.4497 135.592C24.9224 136.751 21.5807 136.726 20.9145 135.268C20.3093 133.945 22.0391 131.725 25.2357 129.331C25.3454 129.777 25.4847 130.221 25.6545 130.659C24.7715 131.387 24.337 131.965 24.4904 132.298C24.6462 132.639 25.3915 132.684 26.5582 132.48C28.8124 132.084 32.6413 130.758 36.8322 128.841C41.0232 126.924 44.5297 124.895 46.3032 123.448C47.2201 122.699 47.6735 122.106 47.5177 121.765C47.3652 121.431 46.6446 121.381 45.5158 121.573C45.2949 121.158 45.0508 120.762 44.7853 120.388C48.6869 119.535 51.4967 119.677 52.1027 121L52.1011 121.002Z" fill="white"/>
<path d="M25.5845 130.481C25.6068 130.541 25.6291 130.6 25.6521 130.66C24.7683 131.388 24.3338 131.964 24.4871 132.299C24.6438 132.64 25.3891 132.684 26.555 132.48C28.0498 132.218 30.2388 131.546 32.7667 130.563C32.7263 130.784 32.7263 130.993 32.7667 131.184C31.7913 131.55 30.8448 131.874 29.9478 132.15C26.0471 133.349 24.013 133.333 23.7739 132.809C23.6338 132.504 24.0386 131.733 25.5837 130.481H25.5845Z" fill="white"/>
<path d="M25.2966 129.951L25.3898 130.068C24.5958 130.684 23.9824 131.236 23.5215 131.721C23.8653 131.212 24.4556 130.625 25.2974 129.951H25.2966Z" fill="white"/>
<path d="M25.4818 130.183L25.3887 130.068C25.4019 130.056 25.4175 130.045 25.4332 130.034L25.4818 130.184V130.183Z" fill="white"/>
<path d="M23.5195 131.72C23.1592 132.249 23.0668 132.692 23.2342 133.059C23.3975 133.415 23.7817 133.614 24.3135 133.699C25.7003 133.919 28.0872 133.349 30.1254 132.722C31.048 132.439 32.0209 132.105 33.0243 131.728C33.2172 131.971 33.5041 132.162 33.8752 132.303C32.3919 132.869 30.9532 133.348 29.6051 133.725C24.7991 135.069 22.7115 134.708 22.3833 133.99C22.2011 133.592 22.4641 132.829 23.5195 131.721V131.72Z" fill="white"/>
<path d="M38.2327 132.428C35.0996 133.85 32.0745 134.92 29.4485 135.593C24.9212 136.753 21.5795 136.727 20.9125 135.269C20.3073 133.946 22.0388 131.727 25.2345 129.333C25.2675 129.466 25.3029 129.598 25.3409 129.73L25.1586 129.491C23.3035 130.911 21.2217 132.887 21.8409 134.239C22.08 134.761 22.6472 135.044 23.3967 135.163C25.1611 135.442 27.9306 134.813 29.7659 134.301C31.377 133.85 33.115 133.255 34.9001 132.545C35.7881 132.658 36.9193 132.616 38.2327 132.429V132.428Z" fill="white"/>
<path d="M33.025 131.727C32.0216 132.104 31.0487 132.438 30.1261 132.721C28.0879 133.348 25.7018 133.918 24.3142 133.698C23.7824 133.614 23.3982 133.415 23.2349 133.058C23.0675 132.692 23.1599 132.248 23.5202 131.719C23.9811 131.234 24.5945 130.682 25.3885 130.066L25.4817 130.182C25.5155 130.282 25.5501 130.381 25.5856 130.48C24.0413 131.733 23.6364 132.503 23.7758 132.808C24.0149 133.331 26.0489 133.348 29.9496 132.149C30.8467 131.874 31.7924 131.55 32.7686 131.183C32.7884 131.278 32.818 131.369 32.8576 131.457C32.9013 131.552 32.9566 131.642 33.0233 131.724L33.025 131.727Z" fill="white"/>
<path d="M25.3898 130.067C24.5958 130.683 23.9824 131.235 23.5215 131.72C23.8653 131.211 24.4556 130.624 25.2974 129.95L25.3906 130.067H25.3898Z" fill="white"/>
<path d="M25.4824 130.184L25.6688 130.416C25.6407 130.438 25.6135 130.46 25.5871 130.482C25.5517 130.383 25.5162 130.283 25.4832 130.184H25.4824Z" fill="white"/>
<path d="M44.1528 126.306C42.1971 127.531 39.8391 128.785 37.331 129.932C35.8732 130.599 34.4205 131.204 33.0263 131.727C32.9595 131.643 32.9042 131.554 32.8605 131.459C32.821 131.371 32.7913 131.281 32.7715 131.185C34.1665 130.665 35.6218 130.059 37.0836 129.39C39.5678 128.253 41.9028 127.011 43.8354 125.8C47.2925 123.633 48.6101 122.083 48.3718 121.561C48.2283 121.248 47.3535 121.05 45.3236 121.427L45.242 120.986L45.2148 120.839C46.2784 120.641 47.112 120.579 47.7221 120.651C48.3528 120.727 48.7469 120.947 48.9143 121.312C49.5046 122.602 46.6511 124.74 44.1537 126.306L44.1528 126.306Z" fill="white"/>
<path d="M34.901 132.545C33.116 133.255 31.3779 133.85 29.7669 134.3C27.9307 134.814 25.1621 135.442 23.3976 135.163C22.6482 135.044 22.0817 134.762 21.8418 134.239C21.2226 132.887 23.3045 130.911 25.1596 129.491L25.3418 129.729C25.3707 129.832 25.4012 129.934 25.4333 130.035C25.4176 130.046 25.402 130.057 25.3888 130.068L25.2956 129.951C24.4546 130.624 23.8635 131.212 23.5197 131.721C22.4643 132.829 22.2013 133.592 22.3835 133.99C22.7117 134.708 24.8001 135.069 29.6053 133.725C30.9533 133.348 32.3921 132.868 33.8753 132.303C34.1664 132.414 34.5094 132.495 34.9002 132.545H34.901Z" fill="white"/>
<path d="M25.2986 129.952L25.3917 130.069C24.5978 130.685 23.9843 131.237 23.5234 131.722C23.8673 131.213 24.4576 130.626 25.2994 129.952H25.2986Z" fill="white"/>
<path d="M25.3418 129.729L25.5224 129.964C25.4927 129.988 25.4622 130.01 25.4333 130.034C25.4012 129.933 25.3707 129.831 25.3418 129.729Z" fill="white"/>
<path d="M45.5799 127.066C43.4057 128.509 40.7607 129.955 37.9327 131.249C36.9169 131.714 35.9019 132.147 34.9018 132.544C34.511 132.494 34.168 132.413 33.877 132.302C35.1244 131.827 36.404 131.291 37.6853 130.705C40.4853 129.425 43.1014 127.994 45.2509 126.569C49.4105 123.811 50.5021 121.995 50.1739 121.278C49.9917 120.881 49.2447 120.581 47.7211 120.651C47.0508 120.684 46.2304 120.787 45.241 120.986C45.1866 120.998 45.1313 121.008 45.0761 121.02L44.9549 120.435C47.2412 119.96 50.0981 119.678 50.7165 121.029C51.5203 122.785 47.8439 125.565 45.5799 127.066Z" fill="white"/>
<path d="M52.1011 121.002C52.7681 122.46 50.6013 125.004 46.7641 127.671C44.4918 129.25 41.6333 130.873 38.4301 132.338C35.2269 133.803 32.1301 134.906 29.4497 135.592C24.9224 136.751 21.5807 136.726 20.9145 135.268C20.3093 133.945 22.0391 131.725 25.2357 129.331C25.3454 129.777 25.4847 130.221 25.6545 130.659C24.7715 131.387 24.337 131.965 24.4904 132.298C24.6462 132.639 25.3915 132.684 26.5582 132.48C28.8124 132.084 32.6413 130.758 36.8322 128.841C41.0232 126.924 44.5297 124.895 46.3032 123.448C47.2201 122.699 47.6735 122.106 47.5177 121.765C47.3652 121.431 46.6446 121.381 45.5158 121.573C45.2949 121.158 45.0508 120.762 44.7853 120.388C48.6869 119.535 51.4967 119.677 52.1027 121L52.1011 121.002Z" fill="white"/>
<g opacity="0.41">
<path d="M46.3049 123.485C46.0988 123.654 45.8688 123.83 45.6173 124.013C45.5143 123.726 45.398 123.44 45.2686 123.158C45.2479 123.114 45.2273 123.071 45.2075 123.028C45.1325 122.868 45.0542 122.711 44.9717 122.558C44.7508 122.143 44.5059 121.747 44.2412 121.372C44.2091 121.327 44.1769 121.282 44.1439 121.239C43.7399 120.686 43.2881 120.178 42.7984 119.721C41.8832 118.865 40.8344 118.18 39.704 117.686C36.9502 116.482 33.7157 116.411 30.7673 117.76C28.7992 118.66 27.2261 120.071 26.1328 121.764C27.2154 119.653 28.9889 117.878 31.314 116.814C34.2615 115.466 37.4969 115.536 40.2498 116.74C41.3802 117.234 42.4298 117.919 43.345 118.775C43.8339 119.233 44.2858 119.739 44.6898 120.292C44.7227 120.337 44.7549 120.382 44.787 120.426C45.0525 120.802 45.2966 121.196 45.5176 121.611C45.6 121.765 45.6783 121.922 45.7534 122.081C45.7748 122.125 45.7946 122.168 45.8144 122.212C46.0065 122.631 46.1697 123.057 46.3041 123.485H46.3049Z" fill="white"/>
</g>
<path d="M45.8104 122.174C46.0026 122.594 46.1658 123.019 46.3002 123.448C44.5267 124.895 41.0201 126.925 36.8292 128.842C32.6383 130.759 28.8093 132.085 26.5552 132.481C26.3185 132.098 26.1042 131.697 25.9121 131.277C25.8181 131.072 25.7315 130.866 25.6523 130.659C25.4825 130.221 25.3432 129.778 25.2335 129.332C24.0009 124.329 26.4529 118.998 31.31 116.777C36.1671 114.556 41.8034 116.185 44.7823 120.389C45.0478 120.765 45.2918 121.159 45.5128 121.574C45.6175 121.77 45.7165 121.97 45.8104 122.175V122.174Z" fill="white"/>
<path d="M44.9203 122.609C45.0935 122.989 45.2419 123.374 45.3639 123.761C43.7594 125.07 40.5876 126.907 36.7957 128.641C33.0047 130.376 29.5402 131.576 27.5012 131.934C27.2877 131.587 27.0931 131.225 26.9191 130.844C26.9109 130.826 26.9026 130.809 26.8952 130.791C26.8193 130.623 26.7493 130.454 26.6841 130.285C26.5308 129.889 26.4046 129.488 26.3049 129.084C26.3007 129.068 26.2966 129.051 26.2933 129.035C26.149 128.434 26.0625 127.83 26.032 127.227C25.9742 126.08 26.1185 124.943 26.445 123.862C27.239 121.238 29.1131 118.955 31.8018 117.725C34.469 116.505 37.3952 116.568 39.886 117.657C40.9083 118.104 41.8582 118.723 42.686 119.499C43.1287 119.912 43.5368 120.371 43.9029 120.871C43.9326 120.912 43.9614 120.952 43.9903 120.993C44.2302 121.331 44.452 121.689 44.6516 122.064C44.7258 122.204 44.7967 122.346 44.8651 122.489C44.8841 122.529 44.9022 122.567 44.9203 122.608V122.609Z" fill="#FFB200"/>
<path d="M45.7838 127.581C45.7483 127.985 45.6889 128.385 45.604 128.78C45.4861 129.334 45.3212 129.877 45.111 130.402C44.1999 132.681 42.4462 134.626 40.0387 135.727C37.6262 136.831 35.001 136.884 32.6784 136.078C32.168 135.901 31.6725 135.683 31.1976 135.424C30.8249 135.222 30.4646 134.997 30.1191 134.748C32.544 134.127 35.3456 133.13 38.2437 131.804C41.1418 130.478 43.7275 129.011 45.7829 127.582L45.7838 127.581Z" fill="#FF9100"/>
<path d="M45.3647 123.76C43.7611 125.069 40.5884 126.906 36.7966 128.64C33.0055 130.375 29.541 131.575 27.5012 131.933C27.2877 131.586 27.0931 131.223 26.9191 130.843C26.9109 130.825 26.9034 130.808 26.8952 130.79C26.8193 130.622 26.7493 130.453 26.6841 130.284C26.5308 129.888 26.4046 129.487 26.3049 129.083C26.3007 129.067 26.2966 129.05 26.2933 129.035C26.149 128.434 26.0625 127.83 26.032 127.227C25.9742 126.081 26.1185 124.943 26.4459 123.862C27.0881 121.74 28.4362 119.841 30.3515 118.542C29.8527 119.317 29.466 120.158 29.2005 121.036C28.8732 122.117 28.7289 123.255 28.7866 124.402C28.8163 125.004 28.9028 125.609 29.0471 126.208C29.0513 126.225 29.0554 126.241 29.0595 126.258C29.0644 126.279 29.0719 126.306 29.0818 126.338C29.5864 128.039 31.4176 128.75 33.1845 128.59C36.5517 128.285 43.8435 124.343 45.3944 123.434C45.5016 123.695 45.2806 123.496 45.3647 123.76Z" fill="#FF9100"/>
<path d="M38.2446 131.803C41.1427 130.478 43.7283 129.01 45.7838 127.581C45.7483 127.985 45.6889 128.385 45.604 128.78C44.0226 129.939 41.4939 131.373 38.5471 132.721C35.7249 134.012 33.0939 134.961 31.1976 135.424C30.8249 135.222 30.4646 134.997 30.1191 134.748C32.544 134.127 35.3456 133.13 38.2437 131.804L38.2446 131.803Z" fill="#D66B09"/>
<path d="M44.8664 122.489C44.8853 122.529 44.9035 122.568 44.9216 122.608C45.0948 122.987 45.2432 123.372 45.3652 123.76C43.7607 125.069 40.5889 126.905 36.797 128.64C33.006 130.375 29.5415 131.574 27.5025 131.932C27.2889 131.586 27.0944 131.223 26.9204 130.843C26.9122 130.825 26.9039 130.808 26.8965 130.789C28.8308 130.568 32.3571 129.406 36.2224 127.638C40.2401 125.8 43.5224 123.81 44.8664 122.489Z" fill="#D66B09"/>
<path d="M26.0184 127.56L26.0497 126.894C27.3986 126.958 30.9225 125.822 34.6179 124.131C39.0273 122.114 41.8718 120.186 42.4036 119.323L42.9717 119.674C42.2684 120.815 39.0224 122.85 34.8958 124.738C31.0528 126.496 27.4852 127.63 26.0176 127.56H26.0184Z" fill="#D66B09"/>
<path d="M26.4971 124.191L26.3965 123.532C27.9127 123.3 30.5396 122.385 33.2513 121.144C36.0934 119.844 38.5504 118.413 39.6643 117.409L40.1112 117.905C38.9503 118.95 36.4281 120.424 33.5292 121.75C30.7647 123.015 28.0702 123.95 26.4971 124.191V124.191Z" fill="#D66B09"/>
<path d="M26.2949 129.369V128.702C27.8433 128.702 31.4843 127.513 35.3553 125.742C39.416 123.885 42.8203 121.802 43.6349 120.677L44.1758 121.068C43.287 122.296 39.8538 124.418 35.6332 126.348C31.6212 128.184 27.9563 129.369 26.2949 129.369Z" fill="#D66B09"/>
<path d="M32.6903 136.244L32.6779 136.079L32.5996 135.931L32.6301 135.915L32.6647 135.912C34.0029 135.81 36.5514 134.974 39.1576 133.782C41.7779 132.583 44.0139 131.243 44.9934 130.284L45.2268 130.522C44.2217 131.506 41.9502 132.871 39.297 134.085C36.6174 135.311 34.0862 136.139 32.6903 136.245V136.244Z" fill="#D66B09"/>
<path d="M35.9271 137.034C33.79 137.034 31.6653 136.373 29.8778 135.083L29.1621 134.566L30.0171 134.347C32.5054 133.709 35.2906 132.7 38.0724 131.427C40.8535 130.155 43.4383 128.707 45.5481 127.241L46.2729 126.737L46.1954 127.617C45.8722 131.31 43.5792 134.562 40.2112 136.102C38.8458 136.726 37.3832 137.034 35.9271 137.034V137.034ZM31.1195 134.906C33.7702 136.458 37.0443 136.642 39.8665 135.35C42.6888 134.059 44.6907 131.462 45.2497 128.441C43.2552 129.754 40.912 131.037 38.4163 132.179C35.9197 133.321 33.4173 134.256 31.1195 134.906Z" fill="#371A45"/>
<path d="M50.6115 121.548C51.215 122.866 49.2552 125.168 45.7833 127.582C43.7278 129.01 41.1414 130.478 38.2441 131.804C35.346 133.13 32.5443 134.126 30.1195 134.747C26.0234 135.796 23.0008 135.774 22.3973 134.455C21.8498 133.258 23.4147 131.251 26.3062 129.084C26.406 129.487 26.5313 129.888 26.6855 130.285C25.8865 130.945 25.4941 131.467 25.6326 131.769C25.7736 132.077 26.4472 132.118 27.5034 131.933C29.5423 131.575 33.0069 130.376 36.7979 128.641C40.5898 126.906 43.7616 125.07 45.3661 123.761C46.1955 123.083 46.6061 122.547 46.4651 122.239C46.3266 121.936 45.6753 121.892 44.6537 122.065C44.4542 121.69 44.2332 121.332 43.9925 120.993C47.5221 120.222 50.0649 120.35 50.6123 121.548H50.6115Z" fill="#FFD766"/>
<path d="M26.6257 130.125C26.6455 130.179 26.6661 130.232 26.6868 130.286C25.887 130.945 25.4945 131.466 25.633 131.769C25.7749 132.078 26.4493 132.118 27.5038 131.933C28.856 131.696 30.8364 131.088 33.1236 130.199C33.0873 130.399 33.0865 130.588 33.1236 130.761C32.2406 131.092 31.3847 131.385 30.5734 131.635C27.0446 132.719 25.2043 132.704 24.9883 132.231C24.8613 131.955 25.2282 131.258 26.6249 130.125H26.6257Z" fill="#FFAA39"/>
<path d="M26.362 129.644L26.4461 129.749C25.7271 130.306 25.1722 130.805 24.7559 131.244C25.0667 130.784 25.601 130.252 26.362 129.644Z" fill="#FF9100"/>
<path d="M26.5294 129.855L26.4453 129.75C26.4577 129.74 26.4717 129.73 26.4857 129.72L26.5302 129.855H26.5294Z" fill="#FF9100"/>
<path d="M24.7552 131.243C24.4287 131.722 24.3454 132.123 24.4971 132.454C24.6447 132.777 24.9926 132.957 25.4733 133.034C26.7282 133.233 28.8876 132.717 30.7311 132.15C31.5655 131.894 32.4461 131.591 33.3539 131.251C33.5287 131.471 33.7875 131.643 34.1239 131.771C32.7825 132.283 31.4806 132.717 30.2612 133.058C25.9136 134.274 24.0247 133.947 23.7279 133.299C23.563 132.938 23.8012 132.247 24.756 131.245L24.7552 131.243Z" fill="#FFAA39"/>
<path d="M38.0639 131.884C35.2293 133.17 32.4928 134.138 30.1175 134.746C26.0222 135.795 22.9988 135.773 22.3952 134.454C21.8478 133.257 23.4143 131.249 26.305 129.083C26.3347 129.203 26.3668 129.322 26.4015 129.442L26.2366 129.226C24.5587 130.511 22.6747 132.299 23.2354 133.521C23.4514 133.995 23.9642 134.25 24.6428 134.357C26.239 134.609 28.7439 134.042 30.4052 133.577C31.8629 133.169 33.4352 132.631 35.0496 131.989C35.8535 132.091 36.8758 132.053 38.0648 131.883L38.0639 131.884Z" fill="#FFAA39"/>
<path d="M33.3552 131.251C32.4474 131.592 31.5668 131.894 30.7324 132.151C28.8889 132.718 26.7295 133.233 25.4746 133.035C24.9931 132.959 24.646 132.777 24.4984 132.455C24.3475 132.124 24.4308 131.723 24.7565 131.244C25.1737 130.805 25.7286 130.306 26.4467 129.749L26.5308 129.854C26.5613 129.944 26.5926 130.034 26.6248 130.124C25.2273 131.257 24.8612 131.954 24.9882 132.23C25.2042 132.703 27.0445 132.718 30.5733 131.634C31.3846 131.384 32.2404 131.091 33.1235 130.76C33.1408 130.846 33.168 130.929 33.2043 131.008C33.2439 131.095 33.2942 131.175 33.3543 131.25L33.3552 131.251Z" fill="#FFCF6E"/>
<path d="M26.4461 129.75C25.7271 130.307 25.1722 130.806 24.7559 131.245C25.0667 130.785 25.601 130.253 26.362 129.645L26.4461 129.75Z" fill="#FFEC90"/>
<path d="M26.5332 129.855L26.7014 130.066C26.6767 130.085 26.6511 130.105 26.6272 130.125C26.595 130.035 26.5629 129.945 26.5332 129.854V129.855Z" fill="#FFEC90"/>
<path d="M43.4194 126.347C41.65 127.455 39.5162 128.59 37.248 129.627C35.9288 130.231 34.6146 130.778 33.3539 131.251C33.2937 131.176 33.2434 131.094 33.2038 131.009C33.1676 130.929 33.1412 130.847 33.123 130.76C34.3845 130.29 35.7021 129.741 37.0237 129.137C39.2705 128.108 41.3837 126.985 43.1316 125.889C46.2597 123.928 47.4511 122.525 47.2351 122.054C47.1057 121.772 46.3142 121.592 44.478 121.933L44.4038 121.534L44.3791 121.401C45.3413 121.223 46.0948 121.166 46.6473 121.232C47.2178 121.3 47.574 121.5 47.7257 121.829C48.26 122.996 45.6777 124.93 43.4185 126.347H43.4194Z" fill="#FFEC90"/>
<path d="M35.0498 131.989C33.4355 132.631 31.8623 133.169 30.4055 133.577C28.7449 134.041 26.2393 134.609 24.643 134.357C23.9653 134.25 23.4525 133.995 23.2356 133.521C22.675 132.299 24.5589 130.511 26.2368 129.227L26.4017 129.442C26.4281 129.534 26.4553 129.626 26.485 129.718C26.471 129.728 26.4569 129.739 26.4446 129.748L26.3605 129.643C25.5995 130.251 25.0652 130.783 24.7544 131.243C23.7996 132.246 23.5613 132.937 23.7262 133.297C24.023 133.946 25.9119 134.272 30.2595 133.056C31.4789 132.715 32.7808 132.281 34.1223 131.769C34.3853 131.87 34.6953 131.943 35.049 131.989H35.0498Z" fill="#FFCF6E"/>
<path d="M26.36 129.643L26.4441 129.748C25.7252 130.305 25.1703 130.804 24.7539 131.243C25.0647 130.783 25.599 130.251 26.36 129.643Z" fill="#FFAA39"/>
<path d="M26.4023 129.443L26.5656 129.657C26.5384 129.678 26.5112 129.699 26.4856 129.72C26.4559 129.628 26.4287 129.537 26.4023 129.443Z" fill="#FFEC90"/>
<path d="M44.7104 127.033C42.7432 128.338 40.3513 129.647 37.7921 130.818C36.8736 131.239 35.9551 131.631 35.0498 131.99C34.6961 131.945 34.3861 131.871 34.123 131.771C35.2518 131.341 36.4094 130.856 37.5678 130.326C40.1015 129.168 42.4678 127.873 44.4119 126.584C48.1749 124.089 49.1619 122.446 48.8659 121.798C48.701 121.438 48.0249 121.167 46.6463 121.231C46.0403 121.26 45.2974 121.354 44.4029 121.534C44.3534 121.544 44.3031 121.554 44.2536 121.564L44.144 121.036C46.2126 120.605 48.7974 120.35 49.3564 121.573C50.0836 123.161 46.7576 125.676 44.7096 127.034L44.7104 127.033Z" fill="#FFEC90"/>
<path d="M25.2036 135.911C23.7187 135.911 22.4613 135.589 22.021 134.626C21.1768 132.78 24.1878 130.154 26.0578 128.752L26.5574 128.378L26.7067 128.984C26.8023 129.373 26.9243 129.759 27.0694 130.135L27.1774 130.413L26.9474 130.603C26.2631 131.168 26.0817 131.469 26.0339 131.583C26.1542 131.623 26.5145 131.685 27.4297 131.524C29.4976 131.161 33.0206 129.912 36.6237 128.263C40.2267 126.615 43.4753 124.766 45.1028 123.439C45.8226 122.851 46.0114 122.538 46.0601 122.421C45.9422 122.383 45.5942 122.322 44.7211 122.471L44.4267 122.521L44.2866 122.258C44.0978 121.904 43.885 121.558 43.6533 121.231L43.2922 120.721L43.9023 120.588C46.1854 120.089 50.1413 119.528 50.9864 121.374C51.9206 123.415 48.2747 126.351 46.018 127.919C43.8694 129.413 41.24 130.885 38.4145 132.178C35.5889 133.47 32.7552 134.497 30.2207 135.146C28.8141 135.506 26.8658 135.91 25.2028 135.91L25.2036 135.911ZM26.0718 129.783C23.1753 132.051 22.4547 133.586 22.773 134.283C23.1349 135.075 25.2498 135.566 30.0162 134.346C32.5045 133.709 35.2897 132.7 38.0715 131.427C40.8525 130.154 43.4373 128.707 45.5472 127.241C49.5872 124.432 50.5981 122.51 50.2353 121.719C49.9171 121.023 48.2854 120.565 44.6741 121.273C44.7433 121.384 44.8109 121.497 44.8753 121.611C46.0155 121.452 46.6248 121.595 46.84 122.065C47.0758 122.581 46.7015 123.201 45.6272 124.079C43.9238 125.47 40.6868 127.314 36.9692 129.015C33.2507 130.716 29.7383 131.958 27.574 132.338C26.207 132.578 25.4922 132.455 25.2564 131.939C25.0412 131.469 25.3322 130.914 26.1971 130.155C26.1534 130.032 26.1122 129.907 26.0726 129.782L26.0718 129.783Z" fill="#371A45"/>
<g opacity="0.41">
<path d="M45.3669 123.795C45.1806 123.947 44.9728 124.107 44.7444 124.272C44.6512 124.013 44.5457 123.754 44.4294 123.498C44.4113 123.458 44.3923 123.419 44.3742 123.38C44.3066 123.236 44.2349 123.094 44.1607 122.955C43.9611 122.58 43.7393 122.222 43.4994 121.882C43.4706 121.842 43.4409 121.801 43.412 121.761C43.0459 121.26 42.6378 120.802 42.1951 120.388C41.3673 119.614 40.4183 118.994 39.3959 118.548C36.9051 117.459 33.9781 117.395 31.3117 118.615C29.5316 119.43 28.1085 120.706 27.1191 122.237C28.0986 120.328 29.7031 118.722 31.8064 117.76C34.4728 116.54 37.3998 116.604 39.8906 117.692C40.913 118.139 41.8628 118.758 42.6906 119.533C43.1333 119.947 43.5415 120.405 43.9067 120.905C43.9364 120.945 43.9653 120.986 43.9941 121.027C44.2349 121.366 44.4558 121.723 44.6554 122.099C44.7296 122.238 44.8013 122.38 44.8689 122.524C44.8879 122.564 44.9068 122.603 44.9241 122.643C45.0973 123.022 45.2457 123.407 45.3677 123.795H45.3669Z" fill="white"/>
</g>
<path d="M27.2998 132.388L27.1522 132.15C26.9288 131.788 26.7243 131.406 26.5462 131.016C26.458 130.823 26.3764 130.629 26.3013 130.433C26.1439 130.026 26.0111 129.604 25.9064 129.182C24.7241 124.385 27.1333 119.408 31.6334 117.349C36.1326 115.29 41.4737 116.722 44.3314 120.753C44.5829 121.11 44.8146 121.485 45.0199 121.871C45.118 122.055 45.212 122.243 45.3002 122.437C45.4791 122.828 45.6341 123.231 45.7619 123.637L45.846 123.904L45.6292 124.081C43.9258 125.47 40.6896 127.316 36.972 129.017C33.2535 130.717 29.7411 131.96 27.5768 132.34L27.3006 132.389L27.2998 132.388ZM35.9191 117.241C34.5908 117.241 33.2485 117.52 31.9772 118.101C27.8374 119.995 25.622 124.572 26.7095 128.984C26.8051 129.373 26.9271 129.759 27.0722 130.135C27.1415 130.316 27.2174 130.494 27.2982 130.672C27.4227 130.945 27.5612 131.213 27.7112 131.473C29.8079 131.052 33.1801 129.841 36.6265 128.265C40.0721 126.688 43.1944 124.929 44.8838 123.617C44.7857 123.334 44.6728 123.054 44.5474 122.781C44.4666 122.603 44.3809 122.43 44.2902 122.26C44.1014 121.904 43.8878 121.559 43.6562 121.232C41.8348 118.663 38.917 117.241 35.9191 117.241Z" fill="#371A45"/>
<g opacity="0.2">
<path d="M129.829 264C168.998 264 200.751 260.002 200.751 255.071C200.751 250.14 168.998 246.143 129.829 246.143C90.6593 246.143 58.9062 250.14 58.9062 255.071C58.9062 260.002 90.6593 264 129.829 264Z" fill="#371A45"/>
</g>
</svg>
