<svg width="24" height="24" viewBox="0 0 24 24" fill="none" xmlns="http://www.w3.org/2000/svg">
<path d="M20.8391 7.40164C21.2291 7.01164 21.2291 6.38164 20.8391 5.99164L18.0091 3.16164C17.6191 2.77164 16.9891 2.77164 16.5991 3.16164L12.1091 7.65164L8.21914 3.76164C7.43914 2.98164 6.16914 2.98164 5.38914 3.76164L3.48914 5.66164C2.70914 6.44164 2.70914 7.71164 3.48914 8.49164L7.37914 12.3816L2.86914 16.8916V21.1316H7.10914L11.6291 16.6116L15.5191 20.5016C16.4691 21.4516 17.7491 21.1016 18.3491 20.5016L20.2491 18.6016C21.0291 17.8216 21.0291 16.5516 20.2491 15.7716L16.3591 11.8816L20.8391 7.40164ZM4.90914 7.07164L6.79914 5.17164L8.06914 6.44164L6.88914 7.63164L8.29914 9.04164L9.48914 7.85164L10.6891 9.05164L8.78914 10.9516L4.90914 7.07164ZM16.1391 14.5116L14.9491 15.7016L16.3591 17.1116L17.5491 15.9216L18.8191 17.1916L16.9191 19.0916L13.0291 15.2016L14.9291 13.3016L16.1391 14.5116ZM6.27914 19.1316H4.86914V17.7216L14.4791 8.11164L15.8891 9.52164L6.27914 19.1316ZM15.8891 6.69164L17.2991 5.28164L18.7091 6.69164L17.2991 8.10164L15.8891 6.69164Z" fill="#514346"/>
</svg>
