<svg width="140" height="40" viewBox="0 0 140 40" fill="none" xmlns="http://www.w3.org/2000/svg">
<path d="M15 0L30 20L15 40L0 20L15 0Z" fill="#B41B5A"/>
<path d="M48.04 28V11.44H51.88V28H48.04ZM49.816 22.072V18.712H58.36V22.072H49.816ZM49.816 14.8V11.44H59.32V14.8H49.816ZM62.4134 28V11.44H66.2534V28H62.4134ZM64.1894 28V24.64H74.1734V28H64.1894ZM64.1894 21.232V18.064H72.9254V21.232H64.1894ZM64.1894 14.8V11.44H74.0534V14.8H64.1894ZM76.3078 14.8V11.44H89.1718V14.8H76.3078ZM80.8198 28V11.44H84.6598V28H80.8198ZM90.7159 19.72C90.7159 18.376 90.9319 17.176 91.3639 16.12C91.8119 15.064 92.4119 14.168 93.1639 13.432C93.9319 12.696 94.8039 12.136 95.7799 11.752C96.7719 11.352 97.8199 11.152 98.9239 11.152C99.9639 11.152 100.916 11.296 101.78 11.584C102.66 11.856 103.516 12.272 104.348 12.832L102.26 15.904C101.764 15.568 101.228 15.296 100.652 15.088C100.076 14.864 99.4599 14.752 98.8039 14.752C98.0359 14.752 97.3319 14.936 96.6919 15.304C96.0679 15.672 95.5639 16.224 95.1799 16.96C94.8119 17.696 94.6279 18.616 94.6279 19.72C94.6279 20.824 94.8119 21.744 95.1799 22.48C95.5639 23.216 96.0759 23.768 96.7159 24.136C97.3559 24.504 98.0599 24.688 98.8279 24.688C99.4839 24.688 100.092 24.568 100.652 24.328C101.228 24.088 101.764 23.768 102.26 23.368L104.468 26.344C103.652 26.984 102.804 27.472 101.924 27.808C101.044 28.128 100.06 28.288 98.9719 28.288C97.8679 28.288 96.8119 28.096 95.8039 27.712C94.8119 27.312 93.9319 26.744 93.1639 26.008C92.4119 25.272 91.8119 24.376 91.3639 23.32C90.9319 22.264 90.7159 21.064 90.7159 19.72ZM107.456 28V11.44H111.296V28H107.456ZM109.232 21.328V17.968H119.696V21.328H109.232ZM117.632 28V11.44H121.472V28H117.632ZM125.649 28V11.44H129.489V28H125.649ZM127.425 22.24V19.12H131.577C132.361 19.12 132.993 18.944 133.473 18.592C133.953 18.24 134.193 17.696 134.193 16.96C134.193 16.224 133.953 15.68 133.473 15.328C132.993 14.976 132.361 14.8 131.577 14.8H127.425V11.44H131.937C133.105 11.44 134.153 11.664 135.081 12.112C136.009 12.544 136.745 13.176 137.289 14.008C137.833 14.824 138.105 15.808 138.105 16.96C138.105 18.064 137.833 19.008 137.289 19.792C136.745 20.576 136.009 21.184 135.081 21.616C134.153 22.032 133.105 22.24 131.937 22.24H127.425ZM130.713 21.04H134.529L138.585 28H134.337L130.713 21.04Z" fill="#B41B5A"/>
</svg>
